<?xml version="1.0" encoding="utf-8"?>
<!-- Generator: Adobe Illustrator 19.0.0, SVG Export Plug-In . SVG Version: 6.00 Build 0)  -->
<svg version="1.1" id="Layer_1" xmlns="http://www.w3.org/2000/svg" xmlns:xlink="http://www.w3.org/1999/xlink" x="0px" y="0px"
	 viewBox="0 0 388 324.7" style="enable-background:new 0 0 388 324.7;" xml:space="preserve">
<style type="text/css">
	.st0{fill:#00A79D;}
	.st1{fill:#00AEEF;}
	.st2{opacity:0;}
	.st3{fill:#E2F1E2;}
	.st4{fill:#FBF9D5;}
	.st5{font-family:'FontAwesome';}
	.st6{font-size:22px;}
	.st7{fill:#FFFFFF;}
	.st8{font-family:'ProximaNova-Bold';}
	.st9{font-size:18px;}
	.st10{fill:none;stroke:#000000;stroke-width:3;stroke-miterlimit:10;}
	.st11{fill:none;stroke:#000000;stroke-width:2;stroke-miterlimit:10;}
	.st12{fill:#F9D7E2;}
	.st13{fill:none;stroke:#FFFFFF;stroke-width:3;stroke-miterlimit:10;}
	.st14{fill:none;stroke:#FFFFFF;stroke-width:2.5;stroke-miterlimit:10;}
	.st15{font-family:'MyriadPro-Regular';}
	.st16{font-size:23px;}
	.st17{opacity:0;fill:none;stroke:#333333;stroke-width:2;stroke-miterlimit:10;}
	.st18{font-size:14px;}
	.st19{fill:none;stroke:#00AEEF;stroke-miterlimit:10;}
	.st20{fill:#010101;}
	.st21{fill:none;stroke:#00A79D;stroke-miterlimit:10;}
</style>
<g id="XMLID_151_">
	<polygon id="XMLID_102_" class="st0" points="353.8,305.4 346.4,305.1 339.2,305.2 332.1,304.8 324.9,305.4 317.7,305 310.5,305.3 
		303.3,305.1 296.1,305.6 288.9,305.1 281.7,305.6 274.5,305.2 267.4,305.1 267,297.9 267.3,290.5 274.5,290.2 281.7,290.9 
		288.9,290.5 296.1,291 303.3,290.7 310.5,290.1 317.7,290.2 324.8,290.4 332,290.8 339.2,290.6 346.4,290.2 353.7,290.4 
		353.9,297.8 	"/>
</g>
<g id="XMLID_113_">
	<polygon id="XMLID_243_" class="st1" points="353.3,266.8 346.4,267 339.2,266.9 332.1,267.5 324.9,267.1 317.7,266.8 310.5,267.1 
		303.3,267.5 296.1,267.4 288.9,266.7 281.7,266.9 274.5,267.5 267.5,267 267.2,259.9 267.4,252.6 274.5,253 281.7,252.3 
		288.9,252.6 296.1,252.6 303.3,252.9 310.5,252.5 317.7,252.9 324.8,252.4 332,252.9 339.2,252.5 346.4,252.9 353.7,252.4 
		353.7,259.9 	"/>
</g>
<g id="XMLID_91_" class="st2">
	<path id="XMLID_96_" class="st3" d="M73,320.1c-3.5,0.6-2.8-0.8-6.5-0.9c-3.5-0.1-4.5,8.2-8.4,6.9c-3.4-0.8-3.8-2.7-6.5-3.9
		c-3.1-1.6-2.4-3.5-4.8-6.1c-3.3-2.8-4.8-0.4-8-4.5c-2.1-3.1,3.5-7.2,2.5-11.1c-1.5-3.6-6-0.5-6.1-5.1c-0.8-3.9-2.7-3.1-1.7-8
		c0.5-4.2,4.1-3.6,6-7.6c1.3-4.2,0.8-3.6,2.7-7.7c1.9-4-0.8-4.6,1.9-8.8c2.7-3.6,4.8-1,8.2-3.6c3.3-3,2.4-3.4,6-5.7
		c3.6-2.5,3.4-2,6.8-3.4c3.9-1.5,3.7-2.4,7.3-3c4-0.6,4.3-8,8.9-7.9c3.9,0.2,4,1.9,7.7,3.5c3.6,1.2,1.1,5.5,4.9,7.3
		c3.1,2.2,5.6-1.2,7.8,2.4c2.5,3,2.3,4.7,3.7,7.6c1.8,3.7,0.5,4.6,1.2,8.8c0.9,4.2,1.8,3.8,2.2,8.4c-0.1,4.5,1.3,4.2,0.2,9.5
		c-1.2,4.4-1.9,3.7-4.3,8.6c-1.8,4.3-4.4,3.7-6,7c-2.4,3.9-2.4,2.9-5.2,6.9c-3,3.3-3.4,1.3-7.3,3.2c-3.5,2.5-1.6,5-5.6,5.5
		C76.5,319.3,77.1,319.8,73,320.1z"/>
</g>
<g id="XMLID_2_">
	<polygon id="XMLID_73_" points="118.3,21.8 111.2,22 103.8,21.9 96.4,22.5 89,22.1 81.5,21.8 74.1,22.1 66.7,22.5 59.3,22.4 
		51.9,21.7 44.4,21.9 37,22.5 29.6,21.9 22.2,22.3 14.7,22.1 7.7,21.8 7.1,14.8 7.4,7.5 7.4,0.2 14.7,0.6 22.2,0.1 29.6,0.5 37,0 
		44.4,0.5 51.8,0.2 59.3,0.6 66.7,0 74.1,0.1 81.5,0.6 88.9,0.7 96.4,0 103.8,0 111.2,0.6 118.4,0.4 119.1,7.5 118.8,14.8 	"/>
</g>
<g id="XMLID_16_">
	<path id="XMLID_193_" class="st4" d="M322.8,152.2c2.9-4.3,0.2-6.9,3.8-10.6c3.5-3.8,4.4-2.3,8.3-5.5c4-3.2,3.7-4.5,8-6.5
		c3.9-1.8,4.6-5.4,8.5-6.1c3.3-0.7,2.1,5.3,5.2,5.6c3.1,0.3,5.6-4.9,8.2-3.6c2.6,1.4-0.5,6.7,1.5,9.1c2.2,2.9,3.1,1.7,4.5,5.6
		c1.3,4,0.4,4.4,0.7,9.1c0.3,4.7,4.8,3.2,4.4,8.2c-0.4,5.1-4.6,6-5.8,11.1c-1.2,5.1,0.7,5.8-1.4,10.6c-2.1,4.8-3.4,4.1-6,8.5
		c-2.6,4.4-3.4,2.5-6.7,5.8c-3.5,3.5-2.6,4.9-6.4,7.1c-3.8,2.2-3.6,7.7-7.5,8.7c-3.8,1-4.4-1.4-8.1-1.8c-3.7-0.4-3.8-1.1-7.2-2.6
		c-3.4-1.5-3-2.7-5.7-5.5c-2.6-2.6-4.8-0.8-6.6-4.4c-1.7-3.5,0.1-5.3-0.9-9.2c-1.1-4-0.6-4.3-0.8-8.7c-0.1-4.4,1.7-4.5,2.6-9.1
		c0.9-4.6-1.8-5,0.6-9.2C318.3,154.6,320.1,156.3,322.8,152.2z"/>
</g>
<g id="XMLID_9_">
	<path id="XMLID_188_" class="st4" d="M305.6,224.3c-3.3,0.7-4-3.1-7.3-3.2c-3.3-0.1-3.2-1.7-6.4-2.3c-3.2-0.6-3.2-0.8-6.3-1.9
		c-3.1-1-1.9-3.5-4.7-5.1c-2.9-1.6-4.1,0.8-6.5-1.5c-3.7-3.5-6.1-1.2-9.2-5.3c-2-2.7,0.6-5-0.9-8.1c-1.5-3.1-0.5-3.5-1.5-6.8
		c-1-3.3-4.8-2.1-5.3-5.6c-0.4-3.5,0.7-4.2,1-7.8c0.4-4,2.7-3.8,3.8-7.7c1.1-3.9,4.9-2.6,6.3-6.4c1.5-3.9-1.6-4.5,0.5-8.1
		c2.1-3.6,3.4-1.6,6.2-4.8c2.7-3.2,2-3,5.1-5.8c3.1-2.8,1.1-5.5,4.3-8c3.3-2.6,3.4-1.5,7-3.3c3.6-1.8,3.7,0.5,7.4-0.8
		c3.7-1.3,3.4-11.4,7.2-11.9c3.8-0.5,4.7,0.9,8.3,1.3c3.8,0.5,1.4,8.5,5,9.6c3.6,1.1,2.6,1.8,5.9,3.8c3.2,2,6.4-3.1,9.2-0.5
		c2.8,2.6,5.9-0.1,8.1,3.2c2.3,3.3-5.6,9.8-4,13.7c1.5,3.9,4.5,1.7,5.4,5.9c0.9,4.3-2.8,5-2.6,9.6c0.2,4.1,5.1,3.1,4.3,7.3
		c-0.8,4.2-3.8,3.3-5.2,7.3c-1.4,4-0.7,3.8-2.7,7.5c-1.9,3.7,3.1,7.7,0.8,11.1c-2.3,3.4-4.8,1.6-7.6,4.5c-2.7,2.9-4.1,0.8-7.1,3.2
		c-3,2.4-4.3-1.2-7.5,0.8c-3.2,2,0.8,8.7-1.9,11.7C311.3,223.7,309.1,223.5,305.6,224.3z"/>
</g>
<g id="XMLID_8_">
	<path id="XMLID_186_" class="st4" d="M318.6,152.3c-3.3,0.9-3.1,7.6-6.4,7.6c-3.3,0-3.9,0.9-7.1,0.2c-3.2-0.8-4.6,1.3-7.5-0.1
		c-2.9-1.4-1.9-4.2-4.7-5.8c-2.8-1.6,1.1-7.6-1.3-9.8c-3.8-3.3-5.3-0.7-8.5-4.8c-2.1-2.6-0.9-3-2.5-6.1c-1.6-3-1.5-2.4-2.5-5.8
		c-1-3.4-5.8-1.7-6-5.3c-0.2-3.6-2.6-3.9-2.3-7.6c0.3-4,0.2-4.9,1.2-8.8c1-4,4.2-3.9,5.9-7.6c1.7-3.8,0.8-4.6,2.9-8.2
		c2.1-3.6,4.9-1.9,7.6-5.1c2.7-3.2,3-2.7,6.1-5.5c3.1-2.8,4.2,0,7.6-2.2c3.4-2.3,3.1-1.3,6.6-3.1c3.5-1.8,2.6-3.6,6.3-4.9
		c3.7-1.3,3.4-7.4,7.1-8c3.7-0.5,3.9,1.4,7.5,1.6c3.9,0.2,5.3-2.7,9-1.6c3.7,1.1,1.7,5.9,5,7.9c3.2,2,1.4,4.1,4.1,6.9
		c2.7,2.8,4.4,0.5,6.6,3.9c2.1,3.4,4.3,1.7,5.9,5.5c1.6,3.8,1.1,4.5,1.9,8.8c0.8,4.3-4.3,5.4-4.5,10c-0.2,4.1,1.3,3.5,0.6,7.6
		c-0.7,4.2,4.8,5.2,3.4,9.2c-1.4,4-7,1.4-9.1,5c-2,3.6,1.1,5.8-1.2,9.3c-2.3,3.4-0.9,5.3-3.6,8.4c-2.6,3.1-5.7-1.1-8.7,1.4
		c-3,2.5-3.2,0.5-6.5,2.4c-3.3,1.8-2.3,9.5-5.8,9.5C321.6,157,322,151.4,318.6,152.3z"/>
</g>
<text id="XMLID_5_" transform="matrix(1 0 0 1 21.6404 265.3106)" class="st2"><tspan x="0" y="0" class="st5 st6">     </tspan><tspan x="0" y="38.4" class="st5 st6">        </tspan></text>
<text id="XMLID_6_" transform="matrix(1 0 0 1 11.3204 16.7832)" class="st7 st8 st9">DEVELOPER</text>
<g id="XMLID_25_">
	<polygon id="XMLID_59_" class="st10" points="318.7,134.7 312.1,135.4 305.5,134.8 299.1,132.8 293.2,129.9 287.2,127.2 280,120.2 
		275.7,115.2 272.9,109.3 270.8,103.1 270.8,96.5 270.8,89.4 273.4,82.7 276.4,76.2 280.4,70.3 285.6,65.3 291.5,61.2 297.9,58.1 
		304.5,55.7 311.6,54.5 318.7,54.9 326.2,56.3 333.2,59.7 339.6,63.9 344.8,69.6 349.3,75.7 352.6,82.7 354.2,90.2 353.8,97.1 
		353.4,104 350.1,110.1 346.8,116.1 342.5,121.4 337.6,126.3 331.6,129.9 325.2,132.4 	"/>
</g>
<g id="XMLID_18_">
	<path id="XMLID_34_" class="st7" d="M388,128.2"/>
	<path id="XMLID_33_" class="st11" d="M388,128.2"/>
</g>
<g id="XMLID_14_">
	<polyline id="XMLID_179_" class="st10" points="250.5,198.1 249.5,191.3 249.1,184.3 249.7,177.3 251.9,170.5 253.9,163.8 
		255.4,157 258.5,150.8 260.6,144 266,139.7 272,136.1 278.8,134.4 285.3,132.1 292.1,130.4 	"/>
</g>
<g id="XMLID_7_">
	<polyline id="XMLID_53_" class="st10" points="377.3,197.3 378.4,190.3 378.2,183.3 377.3,176.3 375.7,169.5 374.2,162.7 
		372,156.1 369.8,149.5 366.9,143.1 361.8,138.4 355.4,135.6 348.8,133.4 342.3,131.1 335.8,129.1 	"/>
</g>
<g id="XMLID_43_">
	<path id="XMLID_66_" class="st12" d="M70.9,146c2.9-4.4,3.5-5.6,7.5-8.8c3.6-3.8,4.9-1.2,9.5-4.2c4.1-2.9,4.2-0.8,8.5-3.3
		c3.9-1.8,3.5-3.3,7.8-4.5c3.4-0.9,2.5,2.7,5.2,3.1c3,0.5,2.8,0.2,4.5,2.7c2.5,1.6,4-1.5,5.5,1.5c2.2,2.9,3.8,0.4,5.3,4.8
		c1.4,3.9-1.9,5.6-1.3,10.3c0.2,4.8,5.9,2.6,5.1,8c-0.7,5.1-3.7,5.2-5.4,10.8c-1.3,5.1-1.5,5.3-3.3,10c-2,4.9-3.9,3.3-6.4,7.8
		c-2.7,4.4-1.7,3.3-5.6,6.4c-3.5,3.5-1.3,9.7-5.4,12.7c-3.8,2.2-5.1,4-8.6,3.9c-3.8,0.7-4.7,0.3-8-0.6c-3.7-0.2-2.8-6-5.5-7.2
		c-3.3-1.5-4.9,1.7-7.5-1.4c-2.4-2.7-4.9-1.2-6.4-4.5c-1.8-3.4-1.3-5-1.9-9c-0.8-4,2.4-6.1,2.6-10c0-4.4-3.9-3.8-3.8-8.3
		c0.7-4.5,2.8-3.8,3.7-9.1C67.5,151.7,67.9,150.9,70.9,146z"/>
</g>
<g id="XMLID_40_">
	<path id="XMLID_61_" class="st12" d="M58.1,208.5c-3.3,0.5-3.4,4.6-6.5,5.5c-3.3,0-4.6,6.9-7.6,5.9c-3.3-0.4-0.9-9.7-4-10.4
		c-3.1-1.2-3.6,1.5-6.6-0.6c-2.8-1.6,0-4.7-3.3-6.3c-3.9-3.2-4.5-0.2-8.5-4.8c-2.1-2.6-8.4,2.2-9.4-1.3c-1.6-3.1,0.7-6.3,0-8.8
		c-0.8-3.4-2.4-4.2-2.3-7c-0.4-3.6,5.1-5,4.7-8.1c0.3-4-1.9-4.1-1.4-8.2c1.2-3.9-0.1-3.3,2.4-8c1.6-3.8,6.4-0.8,9.3-4.4
		c2.1-3.6-3.4-7.9-1-11c2.7-3.2,7.4,0.4,9.6-1.5c3-2.8,2.5-3.5,5.4-6c3.3-2.4,4.5,1.3,7.5-1.5c3.5-2,2.4-4.2,6-5.5
		c3.7-1.3,4.2-7.5,7.2-7.1c3.7-0.6,2.3,5.4,6.8,4.6c3.9,0.3,2,1.8,6.4,3.5c3.6,1.2,5-2.2,8.7-1.3c3.3,1.9,3.6,0.7,6.8,3.7
		c2.7,2.8,1.8,3.7,4.7,6.5c2.1,3.4-0.7,6.3,1.2,9.1c1.7,3.8,1.4,2.3,2.8,7.4c0.8,4.3,1.5,3.8,2.1,8.2c-0.1,4.1-2.7,4.6-3.4,8.1
		c-0.7,4.1-1.4,3.5-2.1,7.5c-1.3,4,2.5,5.3,0.1,9c-1.9,3.7,0.6,4-2.6,8.6c-2.2,3.6-3.9,1.3-7,5c-2.7,3.1-4.8-1.3-7.7,1.9
		c-3.1,2.5-0.3,9.5-3.1,11.6c-3.3,2-3.4-5.1-6.8-5.2C62,207.1,61.3,208.2,58.1,208.5z"/>
</g>
<g id="XMLID_35_">
	<path id="XMLID_60_" class="st12" d="M56.2,152.9c-3.3,0.7-3.2,8.4-7,7.7c-3.3,0.1-2.7-2.9-6.7-3.8c-3.2-0.7-1.7-4.9-4.7-6.8
		c-3.1-1-6.8,5.7-9.1,4.4c-2.8-1.6-1.8-5.5-3.9-7.1c-3.8-3.4-5.5-1-9.7-4.8c-2.2-2.5,4.2-8.6,2.6-11.2c-1.5-3.1-4.2-1.4-5.6-4.5
		c-0.8-3.5-3.7-2.9-4.2-6.4c-0.3-3.5,5.4-4.5,5.9-8.3c0.1-4-0.5-2.9,1-7.2c1.2-3.9,1.7-4.4,2.5-7.4c1.7-3.8,0.8-4.1,3.1-7.4
		c2.2-3.6,5.2-0.7,7.4-4c2.7-3.2,2.4-3.3,5-6.2c2.9-3-2.2-8.2,2-11.4c3.3-2.5,4.2,0.9,8.3-1.7c3.6-1.9,4.2-4,7-5.1
		c3.7-1.3,3.1-0.5,7.7-0.4c3.8-0.5,3.6,0.4,7.1,1.5c3.9,0.3,4.6-0.6,8-0.4c3.7,1.2,6-2.5,9.6-1.1c3.2,2.1-1.7,9.9,0.6,12.4
		c2.7,2.8,2.1,1.5,4.6,5.7c2.2,3.3,6.6-1.3,8.6,3.1c1.6,3.8-1.9,5.2-1.5,10.4c0.9,4.3,0.8,4.3,0.4,8.5c0,4.1-0.1,2.8-1.3,7.8
		c-0.7,4.2,3.8,5,2.5,8.9c-1.4,4.1-4,2.7-5.8,6.9c-1.9,3.8-1.5,3.6-4.2,7.1c-2.4,3.4-0.3,4.6-3.7,8.2c-2.8,2.9-5.2,0-7.9,2
		c-3,2.6-0.1,7.8-3.5,10.7c-3.2,2.1-5.4-4.4-8.4-2.6C59.5,151.4,60.4,151.2,56.2,152.9z"/>
</g>
<g id="XMLID_24_">
	<path id="XMLID_46_" class="st10" d="M70.7,132.6c0,0-6.3,0.7-6.6,0.4c0,0-6.4-0.4-6.6-0.5c0,0-5.6-1.6-6.3-2.1c0,0-6.5-2.9-6-2.6
		c0,0-6.3-2.4-6-2.7c0,0-6.9-6.2-7.7-6.6c0,0-4.6-5-4.1-5.2c0,0-3.3-5.4-2.7-6c0,0-2-5.7-1.4-6.4c0,0-1.3-6.5-0.6-6.4
		c0,0,0-7.1,0-7.2c0,0,2.3-6.2,2.3-6.8c0,0,3.3-6.7,3.5-6.2c0,0,3.9-6.2,4-6c0,0,6.1-4.6,5.5-4.5c0,0,5.9-4.6,5.4-4.6
		c0,0,5.5-3.6,6.2-3.5c0,0,6.8-2.3,6.9-1.8c0,0,6.3-0.7,7-1c0,0,7.4-0.7,7.1,0c0,0,7.9,2.8,7.3,2.2c0,0,7.2,3,7,3.1
		c0,0,5.6,4.3,6.3,4.3c0,0,5.4,4.5,5.6,5.2c0,0,5.7,5.3,5,5.9c0,0,2.1,7.7,2.9,7.2c0,0,0.9,7,1.2,7.6c0,0,1,7.5,0.4,6.9
		c0,0-1.2,7.2-1.4,6.8c0,0-3.1,6.3-2.6,6.4c0,0-3.5,5.4-3.4,6c0,0-4.7,5.1-4.3,5.5c0,0-5.6,4.3-5.3,4.5c0,0-6.6,3.4-5.9,3.5
		c0,0-7,2.9-6.3,2.8C77.3,130.6,71.5,132.3,70.7,132.6z"/>
</g>
<g id="XMLID_20_">
	<path id="XMLID_23_" class="st7" d="M140,126.2"/>
	<path id="XMLID_22_" class="st11" d="M140,126.2"/>
</g>
<g id="XMLID_4_">
	<path id="XMLID_97_" class="st10" d="M-0.6,198.1c0,0-1.4-7.2-1.3-6.8c0,0,0.4-6.9,0-7c0,0,1.4-6.2,1.6-6.8c0,0-0.2-7.4,0-7.1
		c0,0,1.9-6.4,1.5-6.9c0,0,2.1-6.7,2.3-6.6c0,0,2.3-7.2,2.5-6.6c0,0,3.2-6.2,3.1-6.3c0,0,5.7-4.8,5.4-4.3c0,0,6-4,6-3.4
		c0,0,6.8-2.9,6.5-2.4c0,0,6.9-1.1,6.7-1.8c0,0,6.4-2.1,6.6-1.9"/>
</g>
<g id="XMLID_1_">
	<path id="XMLID_92_" class="st10" d="M131.2,196.2c0,0,0.2-7.4,0.4-6.9c0,0-0.3-7-0.1-7c0,0,0.1-7.3,0.1-7c0,0-1.8-7.1-1.9-6.8
		c0,0-1.3-6.7-1.3-6.9c0,0-2.1-6.7-2-6.7c0,0-2.4-6.2-2.8-6.4c0,0-3.1-6.9-3.1-6.2c0,0-4.8-4.3-4.6-4.9c0,0-6.3-2.6-6.2-3.2
		c0,0-7.1-2.1-6.7-1.8c0,0-6.5-2.1-6.6-2.3c0,0-6.5-2.4-6.4-2.2"/>
</g>
<g id="XMLID_39_">
	<g id="XMLID_126_">
		<g id="XMLID_127_">
			<path id="XMLID_131_" d="M173.7,97l-7.6-0.4l-5.7,3.8l-5.8,3.7l-6.3,2.6l-6.3,2.8l-6,1.2l-0.3-0.6l-1.8-1.9l-0.2,0l1.2-2.9l4-4.7
				l3-5.4l2.4-5.6l-5.7-3.4l-4.8-4.7L130,76l-2.7-6.1l-0.7-6.6l1.4-6.9l2.2-6.7l4.6-5.5l5.4-4.7l6.3-3.3l6.3-3.4l6.8-2l7.1-0.6
				l7.1-0.1l7,0.3l7.1,0.4l6.7,2.4l6.5,2.8l6,3.8l5.8,4.1l4,5.9l2.9,6.4l1.1,7l-0.9,7l-3,6.4l-4.1,5.8l-5.8,4.1l-5.8,4l-6.7,2.4
				l-6.7,2.1l-6.9,1.5L173.7,97z M133.5,63.3l1.2,6.4l2.8,5.9l4.7,4.6l5.3,3.9l5.1,2.2l-1.4,5.3l-4.2,9.1l8-3.6l6.8-5.3l2.1-2.1
				l2.9,0.2l6.8,0l7.6-0.3l7.3-1.8l7.1-2.4l6.7-3.5l5.6-5l4.4-6.1l2-7.4l-2.3-7.2l-4-6.4l-5.7-4.9l-6.4-4.1l-7.4-1.9l-7.4-1.5
				l-7.5-1.1l-7.6,0.2l-7.5,1.6l-6.9,3.3l-6.9,3.3l-5.8,5l-4.3,6.3L133.5,63.3z"/>
			<path id="XMLID_128_" class="st13" d="M173.7,97l-7.6-0.4l-5.7,3.8l-5.8,3.7l-6.3,2.6l-6.3,2.8l-6,1.2l-0.3-0.6l-1.8-1.9l-0.2,0
				l1.2-2.9l4-4.7l3-5.4l2.4-5.6l-5.7-3.4l-4.8-4.7L130,76l-2.7-6.1l-0.7-6.6l1.4-6.9l2.2-6.7l4.6-5.5l5.4-4.7l6.3-3.3l6.3-3.4
				l6.8-2l7.1-0.6l7.1-0.1l7,0.3l7.1,0.4l6.7,2.4l6.5,2.8l6,3.8l5.8,4.1l4,5.9l2.9,6.4l1.1,7l-0.9,7l-3,6.4l-4.1,5.8l-5.8,4.1
				l-5.8,4l-6.7,2.4l-6.7,2.1l-6.9,1.5L173.7,97z M133.5,63.3l1.2,6.4l2.8,5.9l4.7,4.6l5.3,3.9l5.1,2.2l-1.4,5.3l-4.2,9.1l8-3.6
				l6.8-5.3l2.1-2.1l2.9,0.2l6.8,0l7.6-0.3l7.3-1.8l7.1-2.4l6.7-3.5l5.6-5l4.4-6.1l2-7.4l-2.3-7.2l-4-6.4l-5.7-4.9l-6.4-4.1
				l-7.4-1.9l-7.4-1.5l-7.5-1.1l-7.6,0.2l-7.5,1.6l-6.9,3.3l-6.9,3.3l-5.8,5l-4.3,6.3L133.5,63.3z"/>
		</g>
	</g>
</g>
<g id="XMLID_19_">
	<g id="XMLID_118_">
		<g id="XMLID_119_">
			<path id="XMLID_123_" d="M167.3,89.8l1.4-7.2l3.7-6.3l4.3-6l6.2-4l6.5-3.5l7-2.2l7.2-1.6l7.4,0.1l7.3,0.4l7.2,1.2l7.1,1.9
				l6.6,3.3l5.5,4.9l5.1,5.2l3.7,6.4l1.1,7.4l-1.8,7.5l-3.5,6.7l-5.2,5.6l-6,4.5l2.7,8l5.5,6.6l1.3,2.5l0.5,0.2l-2.3,1.4l-0.2,0.3
				l-5.6-0.5l-6-2.2l-5.6-3l-5.5-3.1l-5.3-3.4l-6.9,0.5l-7.3-0.8l-7.3-1.2l-6.9-2.7l-6.9-2.7l-5.4-5.1l-5.2-5.1l-3.3-6.5L167.3,89.8
				z M210.9,65.2l-7,0.3l-7,1l-6.4,3.1l-6.3,3l-5.1,4.8l-3.9,5.8l-1.2,6.8l1,6.9l3.9,5.9l5.4,4.5l6.3,3l6.6,2.3l6.7,2l7,0.1l6.2-0.8
				l2.9-0.2l1.9,2.3l6.4,4.7l7.1,3.5l-3.7-8.3l-0.6-4.6l4-2.3l6.5-4.8l4.4-6.7l2.5-7.6l-1.8-6.9l-4.3-5.5l-5-4.8l-5.9-3.8l-6.7-2.3
				l-7-0.8L210.9,65.2z"/>
			<path id="XMLID_120_" class="st14" d="M167.3,89.8l1.4-7.2l3.7-6.3l4.3-6l6.2-4l6.5-3.5l7-2.2l7.2-1.6l7.4,0.1l7.3,0.4l7.2,1.2
				l7.1,1.9l6.6,3.3l5.5,4.9l5.1,5.2l3.7,6.4l1.1,7.4l-1.8,7.5l-3.5,6.7l-5.2,5.6l-6,4.5l2.7,8l5.5,6.6l1.3,2.5l0.5,0.2l-2.3,1.4
				l-0.2,0.3l-5.6-0.5l-6-2.2l-5.6-3l-5.5-3.1l-5.3-3.4l-6.9,0.5l-7.3-0.8l-7.3-1.2l-6.9-2.7l-6.9-2.7l-5.4-5.1l-5.2-5.1l-3.3-6.5
				L167.3,89.8z M210.9,65.2l-7,0.3l-7,1l-6.4,3.1l-6.3,3l-5.1,4.8l-3.9,5.8l-1.2,6.8l1,6.9l3.9,5.9l5.4,4.5l6.3,3l6.6,2.3l6.7,2
				l7,0.1l6.2-0.8l2.9-0.2l1.9,2.3l6.4,4.7l7.1,3.5l-3.7-8.3l-0.6-4.6l4-2.3l6.5-4.8l4.4-6.7l2.5-7.6l-1.8-6.9l-4.3-5.5l-5-4.8
				l-5.9-3.8l-6.7-2.3l-7-0.8L210.9,65.2z"/>
		</g>
	</g>
</g>
<path id="XMLID_17_" class="st7" d="M238.1,80.4c0,11.1-21.2,32.2-37.5,32.2s-28-12.7-28-23.8s17.7-23.5,34-23.5
	S238.1,69.3,238.1,80.4z"/>
<g id="XMLID_54_">
	<polygon id="XMLID_74_" points="364,21.8 357.3,22 350.3,21.9 343.3,22.5 336.3,22.1 329.3,21.8 322.3,22.1 315.3,22.5 308.3,22.4 
		301.3,21.7 294.3,21.9 287.3,22.5 280.3,21.9 273.3,22.3 266.4,22.1 266.8,14.8 266.1,7.5 266.4,0.2 273.3,0.2 280.3,0.6 
		287.3,0.1 294.3,0.5 301.3,0 308.3,0.5 315.3,0.2 322.3,0.6 329.3,0 336.3,0.1 343.3,0.6 350.3,0.7 357.3,0 364.5,0.1 363.9,7.5 
		364,14.8 	"/>
</g>
<text id="XMLID_52_" transform="matrix(1 0 0 1 270.3204 16.7832)" class="st7 st8 st9">DESIGNER</text>
<text id="XMLID_3_" transform="matrix(1 0 0 1 265.6404 266.3106)"><tspan x="0" y="0" class="st5 st6">  </tspan><tspan x="36.1" y="0" class="st15 st6">Ps</tspan><tspan x="56.6" y="0" class="st5 st6">  </tspan><tspan x="67.6" y="0" class="st15 st6">Ai</tspan><tspan x="86.2" y="0" class="st5 st16">   </tspan></text>
<line id="XMLID_13_" class="st17" x1="31.1" y1="276.2" x2="108.6" y2="276.2"/>
<text id="XMLID_111_" transform="matrix(1 0 0 1 182.3204 225.7832)"><tspan x="0" y="0" class="st1 st8 st18">ASSET</tspan><tspan x="0" y="16.8" class="st1 st8 st18">CREATION</tspan></text>
<g id="XMLID_116_">
	<g id="XMLID_65_">
		<path id="XMLID_69_" class="st19" d="M239.6,249.9c0,0.3,0.1,6.9,5.5,10.1c4,2.4,9.2,2,13.1-1"/>
		<g id="XMLID_67_">
			<polygon id="XMLID_68_" class="st1" points="257.7,264.1 256.7,263.9 257.8,259.1 253,258.3 253.1,257.3 259,258.3 			"/>
		</g>
	</g>
</g>
<g id="Gk1sYq_1_">
	<g id="XMLID_15_">
		<path id="XMLID_107_" class="st7" d="M307.1,284.2c0,0.1,0.1,0.1,0.1,0.2c2.3,3.9,4.7,7.9,7,11.8c0.1,0.1,0.2,0.2,0.3,0.2
			c2.6,0,5.2,0,7.8,0c0.1,0,0.1,0,0.2,0c0-0.1-0.1-0.1-0.1-0.2c-1.8-3.1-3.6-6.1-5.4-9.2c-0.5-0.9-1.1-1.8-1.6-2.8 M304.6,304.3
			c0.1,0,0.2,0,0.2,0c4.7,0,9.4,0,14,0c0.1,0,0.2,0,0.3-0.2c1.3-2.2,2.5-4.5,3.8-6.7c0,0,0-0.1,0.1-0.2c-0.1,0-0.1,0-0.2,0
			c-4.6,0-9.3,0-13.9,0c-0.1,0-0.2,0-0.3,0.1c-1.3,2.2-2.6,4.4-3.9,6.6C304.7,304.1,304.7,304.2,304.6,304.3z M303.5,304.3
			c0.1-0.1,0.1-0.1,0.1-0.2c2.3-3.9,4.5-7.8,6.8-11.6c0.1-0.2,0.1-0.3,0-0.4c-1.1-1.8-2.2-3.6-3.2-5.4c-0.3-0.4-0.5-0.9-0.8-1.4
			c-0.1,0.1-0.1,0.1-0.1,0.2c-2.2,3.9-4.4,7.8-6.6,11.7c-0.1,0.1-0.1,0.2,0,0.3c0.9,1.6,1.9,3.3,2.8,4.9
			C302.8,303,303.2,303.7,303.5,304.3z"/>
		<path id="XMLID_106_" d="M315.4,284.2c0.5,0.9,1.1,1.8,1.6,2.8c1.8,3.1,3.6,6.1,5.4,9.2c0,0.1,0.1,0.1,0.1,0.2c-0.1,0-0.1,0-0.2,0
			c-2.6,0-5.2,0-7.8,0c-0.1,0-0.2,0-0.3-0.2c-2.3-3.9-4.7-7.9-7-11.8c0-0.1-0.1-0.1-0.1-0.2C309.9,284.2,312.6,284.2,315.4,284.2z"
			/>
		<path id="XMLID_105_" d="M304.6,304.3c0.1-0.1,0.1-0.2,0.1-0.2c1.3-2.2,2.6-4.4,3.9-6.6c0.1-0.1,0.1-0.1,0.3-0.1
			c4.6,0,9.3,0,13.9,0c0,0,0.1,0,0.2,0c0,0.1,0,0.1-0.1,0.2c-1.3,2.2-2.5,4.5-3.8,6.7c-0.1,0.1-0.1,0.2-0.3,0.2c-4.7,0-9.4,0-14,0
			C304.8,304.3,304.7,304.3,304.6,304.3z"/>
		<path id="XMLID_104_" d="M303.5,304.3c-0.4-0.7-0.7-1.3-1.1-1.9c-0.9-1.6-1.9-3.3-2.8-4.9c-0.1-0.1-0.1-0.2,0-0.3
			c2.2-3.9,4.4-7.8,6.6-11.7c0-0.1,0.1-0.1,0.1-0.2c0.3,0.5,0.5,0.9,0.8,1.4c1.1,1.8,2.2,3.6,3.2,5.4c0.1,0.2,0.1,0.3,0,0.4
			c-2.3,3.9-4.5,7.8-6.8,11.6C303.6,304.2,303.6,304.2,303.5,304.3z"/>
	</g>
</g>
<path id="XMLID_50_" class="st20" d="M271.7,291.5l7.3,4.5l-5,4.2l-7.2-4.7L271.7,291.5z M286.2,299.7v1.6l-7.2,4.3v0l0,0l0,0v0
	l-7.2-4.3v-1.6l2.2,1.4l5-4.2v0l0,0l0,0v0l5.1,4.2L286.2,299.7z M273.9,282.8l5,4.2l-7.3,4.5l-5-4L273.9,282.8z M286.2,291.5l5,4
	l-7.2,4.7L279,296L286.2,291.5z M284,282.8l7.2,4.7l-5,4L279,287L284,282.8z"/>
<text id="XMLID_98_" transform="matrix(1 0 0 1 145.3204 284.7832)" class="st0 st8 st18">COLLABORATION</text>
<g id="XMLID_49_">
	<g id="XMLID_117_">
		<path id="XMLID_136_" class="st21" d="M237.6,290.9c0,0.3,0.1,6.9,5.5,10.1c4,2.4,9.2,2,13.1-1"/>
		<g id="XMLID_134_">
			<polygon id="XMLID_135_" class="st0" points="255.7,305.1 254.7,304.9 255.8,300.1 251,299.3 251.1,298.3 257,299.3 			"/>
		</g>
	</g>
</g>
</svg>
