<?xml version="1.0" encoding="utf-8"?>
<!-- Generator: Adobe Illustrator 19.0.0, SVG Export Plug-In . SVG Version: 6.00 Build 0)  -->
<svg version="1.1" id="Layer_1" xmlns="http://www.w3.org/2000/svg" xmlns:xlink="http://www.w3.org/1999/xlink" x="0px" y="0px"
	 viewBox="0 0 392.8 324.7" style="enable-background:new 0 0 392.8 324.7;" xml:space="preserve">
<style type="text/css">
	.st0{opacity:0.5;}
	.st1{fill:#67C7E5;}
	.st2{fill:#6EC9C1;}
	.st3{fill:#FAC0C0;}
	.st4{fill:#FBF9D5;}
	.st5{opacity:0;}
	.st6{font-family:'FontAwesome';}
	.st7{font-size:22px;}
	.st8{fill:#FFFFFF;}
	.st9{font-family:'ProximaNova-Bold';}
	.st10{font-size:18px;}
	.st11{fill:none;stroke:#000000;stroke-width:3;stroke-miterlimit:10;}
	.st12{fill:none;stroke:#000000;stroke-width:2;stroke-miterlimit:10;}
	.st13{fill:none;stroke:#FFFFFF;stroke-width:3;stroke-miterlimit:10;}
	.st14{fill:none;stroke:#FFFFFF;stroke-width:2.5;stroke-miterlimit:10;}
	.st15{font-family:'MyriadPro-Regular';}
	.st16{font-size:23px;}
	.st17{opacity:0;fill:none;stroke:#333333;stroke-width:2;stroke-miterlimit:10;}
	.st18{font-size:13px;}
	.st19{fill:#010101;}
</style>
<g id="XMLID_55_" class="st0">
	<g id="XMLID_65_">
		<path id="XMLID_170_" class="st1" d="M47.8,127.9c0.9,4.4,4.7,2,6.7,5.6c2,3.6,0.8,5.1,3.7,7.6c2.9,2.6,3.5,1.5,6.8,3.3
			c3,1.7,3.9-1.9,7.3-1.3c3,0.5,1.8,6.1,4.9,5.6c3.1-0.6,2.9-5.7,6-7.1c3.1-1.5,4.1,3.9,7,1.4c3.4-3,3.2-4.3,6.1-8.3
			c3-4,3.6-3.8,6-8.5c2.5-4.7-1.5-6.1,0.2-11.2c1.6-5.1,5.5-4.7,6.4-9.9c0.9-5.2-1.3-4.6-1.1-9.6c0.1-5,1.9-5.9,0.8-10.1
			c-1.1-4.1,0.6-6.3-1.3-9.6c-2.1-3.4-3.7-1.9-6.6-4.1c-2.9-2.2-5.4,3.6-9.1,2.8c-3.6-0.8-2.3-3.5-6.3-3.1c-4,0.4-3.6-0.5-7.7,1.4
			c-4.1,1.9-4.2,0.7-8.2,3.7c-3.8,2.8-2.3,4.9-5.6,8.6c-3.3,3.7-4.4,1.9-6.8,6.3c-2.3,4.3-2.7,4.2-4.2,8.7c-1.5,4.4-3.3,4.6-4.1,9.1
			c-0.8,4.4,2.5,4.3,1.4,8.7C48.9,123,46.9,123.9,47.8,127.9z"/>
	</g>
	<g id="XMLID_61_">
		<path id="XMLID_165_" class="st1" d="M81.7,67.6c-3.2-0.8-1.7-4.5-5.1-4.8c-3.4-0.2-3-1.7-6.5-1.2c-3.4,0.5-3.5,0.3-6.9,1.5
			c-3.4,1.1-4-1.4-7.3,0c-3.4,1.4-3,3.5-6.2,5.4c-4.9,3-3.3,5.7-7.7,9.5c-2.9,2.5-4.6,0.1-6.9,3.2c-2.3,3.1-3.2,2.7-5.1,6.1
			c-1.8,3.4,1.6,4.7,0.3,8.2c-1.3,3.5-2.5,3-3.2,6.6c-0.8,4-3.2,4-3.3,8c-0.1,4-3.9,5.9-3,9.6c0.9,3.7,4,2.8,5.4,6.3
			c1.3,3.5-0.7,5,0.9,8.3c1.6,3.4,2.2,3.7,4.3,6.7c2.1,3,4.9,0.7,7.5,3.2c2.6,2.4,2,3.4,4.9,5.5c2.9,2.1,2.2,4.5,5.5,5.9
			c3.2,1.4,6.3-8.4,9.8-7.7c3.5,0.7,2.5,2.1,6.1,2.1c3.9,0,3.6,8,7.5,7c3.9-1,4.6-0.3,8.3-2c3.8-1.7,2.4-6.9,5.9-9.4
			c3.5-2.5,1.4-5.2,4.5-8.4c3.2-3.2,8.9,3.5,11.7-0.2c2.7-3.8,0.6-6.2,2.6-10.5c2-4.3,5.5-3.9,6.7-8.5c1.1-4.1-3.7-4.9-3-9
			c0.7-4.1,3.9-4.7,3.9-8.7c0-4.1-0.6-4.4-1.2-8.3c-0.6-3.9-6.9-0.4-8.2-3.9c-1.3-3.5,1.7-5.2-0.1-8.4c-1.8-3.2,0.3-5.1-1.9-7.9
			c-2.2-2.8,0-6.4-2.7-8.6c-2.7-2.1-6.1,5.9-9.7,6.1C85.1,69.4,85.1,68.4,81.7,67.6z"/>
	</g>
	<g id="XMLID_56_">
		<path id="XMLID_164_" class="st1" d="M87.4,118c-3.2-0.6-5.1,6.2-8.4,6.1c-3.3-0.1-3.2,0.9-6.6,1.3c-3.4,0.4-3.1,2.7-6.5,3.5
			c-3.4,0.8-3.1-2.3-6.5-0.8c-3.3,1.5-5.9-5.1-9-3c-4.8,3.2-3.9,5.9-8.2,9.8c-2.8,2.5-3.8,2.5-6,5.6c-2.2,3-2.3,3.6-4.1,6.9
			c-1.8,3.3,2.5,5.2,1.1,8.7c-1.4,3.5,0.9,3.1,0.2,6.7c-0.8,4-0.3,2.8-0.2,6.7c0.1,3.9-3,4.1-2.4,7.9c0.6,3.8,1.8,2.7,3.2,6.2
			c1.4,3.5-1.7,5.3,0,8.5c1.7,3.2,1.3,3.7,3.3,6.7c2.1,3,0,5.6,2.5,8.2c2.5,2.6,2.6,3.8,5.5,5.9c2.9,2.1,4.5,0.5,7.7,1.9
			c3.2,1.3,5.1-4.6,8.6-4c3.4,0.6,2.8,2.6,6.4,2.4c3.8-0.2,3.4-3.2,7.2-4.2c3.8-1,4.4,3.7,8.1,2.1c3.7-1.7,4.8,0.6,8.3-1.7
			c3.5-2.4,2.7-4.8,5.8-7.8c3.2-3.1,1.6-4.7,4.2-8.5c2.6-3.8,3-3.2,4.9-7.4c2-4.2,6.6-2.6,8.1-7.1c1.3-4,0.1-5.2,0.6-9.3
			c0.5-4.1-5.3-3.4-5.4-7.4c-0.1-4.1,6.4-5.9,5.8-9.9c-0.5-3.9-4.5-2.2-5.9-5.7c-1.4-3.5-3.2-1.6-5.2-4.6c-1.9-3,2.3-7.3,0-9.9
			c-2.3-2.6-1.2-4.4-3.8-6.6c-2.6-2.3-8.1,4.3-10.1,1.5C88,123,90.8,118.7,87.4,118z"/>
	</g>
</g>
<g id="XMLID_151_">
	<polygon id="XMLID_100_" class="st2" points="358.7,305.4 351.3,305.1 344.1,305.2 336.9,304.8 329.7,305.4 322.5,305 315.4,305.3 
		308.2,305.1 301,305.6 293.8,305.1 286.6,305.6 279.4,305.2 272.3,305.1 271.9,297.9 272.2,290.5 279.4,290.2 286.6,290.9 
		293.8,290.5 301,291 308.1,290.7 315.3,290.1 322.5,290.2 329.7,290.4 336.9,290.8 344.1,290.6 351.3,290.2 358.6,290.4 
		358.7,297.8 	"/>
</g>
<g id="XMLID_113_">
	<polygon id="XMLID_136_" class="st3" points="358.2,268.8 351.3,269 344.1,268.9 336.9,269.5 329.7,269.1 322.5,268.8 315.4,269.1 
		308.2,269.5 301,269.4 293.8,268.7 286.6,268.9 279.4,269.5 272.4,269 272.1,261.9 272.2,254.6 279.4,255 286.6,254.3 293.8,254.6 
		301,254.6 308.1,254.9 315.3,254.5 322.5,254.9 329.7,254.4 336.9,254.9 344.1,254.5 351.3,254.9 358.6,254.4 358.5,261.9 	"/>
</g>
<g id="XMLID_2_">
	<polygon id="XMLID_73_" points="129.2,21.8 122.1,22 114.7,21.9 107.2,22.5 99.8,22.1 92.4,21.8 85,22.1 77.6,22.5 70.1,22.4 
		62.7,21.7 55.3,21.9 47.9,22.5 40.5,21.9 33,22.3 25.6,22.1 18.5,21.8 18,14.8 18.3,7.5 18.2,0.2 25.6,0.6 33,0.1 40.4,0.5 47.9,0 
		55.3,0.5 62.7,0.2 70.1,0.6 77.5,0 85,0.1 92.4,0.6 99.8,0.7 107.2,0 114.6,0 122.1,0.6 129.3,0.4 129.9,7.5 129.7,14.8 	"/>
</g>
<g id="XMLID_49_">
	<g id="XMLID_16_">
		<path id="XMLID_157_" class="st4" d="M327.7,152.2c2.9-4.3,0.2-6.9,3.8-10.6c3.5-3.8,4.4-2.3,8.3-5.5c4-3.2,3.7-4.5,8-6.5
			c3.9-1.8,4.6-5.4,8.5-6.1c3.3-0.7,2.1,5.3,5.2,5.6c3.1,0.3,5.6-4.9,8.2-3.6c2.6,1.4-0.5,6.7,1.5,9.1c2.2,2.9,3.1,1.7,4.5,5.6
			c1.3,4,0.4,4.4,0.7,9.1c0.3,4.7,4.8,3.2,4.4,8.2c-0.4,5.1-4.6,6-5.8,11.1c-1.2,5.1,0.7,5.8-1.4,10.6c-2.1,4.8-3.4,4.1-6,8.5
			c-2.6,4.4-3.4,2.5-6.7,5.8c-3.5,3.5-2.6,4.9-6.4,7.1c-3.8,2.2-3.6,7.7-7.5,8.7c-3.8,1-4.4-1.4-8.1-1.8c-3.7-0.4-3.8-1.1-7.2-2.6
			c-3.4-1.5-3-2.7-5.7-5.5c-2.6-2.6-4.8-0.8-6.6-4.4c-1.7-3.5,0.1-5.3-0.9-9.2c-1.1-4-0.6-4.3-0.8-8.7c-0.1-4.4,1.7-4.5,2.6-9.1
			c0.9-4.6-1.8-5,0.6-9.2C323.2,154.6,324.9,156.3,327.7,152.2z"/>
	</g>
	<g id="XMLID_9_">
		<path id="XMLID_143_" class="st4" d="M310.5,224.3c-3.3,0.7-4-3.1-7.3-3.2c-3.3-0.1-3.2-1.7-6.4-2.3c-3.2-0.6-3.2-0.8-6.3-1.9
			c-3.1-1-1.9-3.5-4.7-5.1c-2.9-1.6-4.1,0.8-6.5-1.5c-3.7-3.5-6.1-1.2-9.2-5.3c-2-2.7,0.6-5-0.9-8.1c-1.5-3.1-0.5-3.5-1.5-6.8
			c-1-3.3-4.8-2.1-5.3-5.6c-0.4-3.5,0.7-4.2,1-7.8c0.4-4,2.7-3.8,3.8-7.7c1.1-3.9,4.9-2.6,6.3-6.4c1.5-3.9-1.6-4.5,0.5-8.1
			c2.1-3.6,3.4-1.6,6.2-4.8c2.7-3.2,2-3,5.1-5.8c3.1-2.8,1.1-5.5,4.3-8c3.3-2.6,3.4-1.5,7-3.3c3.6-1.8,3.7,0.5,7.4-0.8
			c3.7-1.3,3.4-11.4,7.2-11.9c3.8-0.5,4.7,0.9,8.3,1.3c3.8,0.5,1.4,8.5,5,9.6c3.6,1.1,2.6,1.8,5.9,3.8c3.2,2,6.4-3.1,9.2-0.5
			c2.8,2.6,5.9-0.1,8.1,3.2c2.3,3.3-5.6,9.8-4,13.7c1.5,3.9,4.5,1.7,5.4,5.9c0.9,4.3-2.8,5-2.6,9.6c0.2,4.1,5.1,3.1,4.3,7.3
			c-0.8,4.2-3.8,3.3-5.2,7.3c-1.4,4-0.7,3.8-2.7,7.5c-1.9,3.7,3.1,7.7,0.8,11.1c-2.3,3.4-4.8,1.6-7.6,4.5c-2.7,2.9-4.1,0.8-7.1,3.2
			c-3,2.4-4.3-1.2-7.5,0.8c-3.2,2,0.8,8.7-1.9,11.7C316.2,223.7,314,223.5,310.5,224.3z"/>
	</g>
	<g id="XMLID_8_">
		<path id="XMLID_135_" class="st4" d="M323.4,152.3c-3.3,0.9-3.1,7.6-6.4,7.6c-3.3,0-3.9,0.9-7.1,0.2c-3.2-0.8-4.6,1.3-7.5-0.1
			c-2.9-1.4-1.9-4.2-4.7-5.8c-2.8-1.6,1.1-7.6-1.3-9.8c-3.8-3.3-5.3-0.7-8.5-4.8c-2.1-2.6-0.9-3-2.5-6.1c-1.6-3-1.5-2.4-2.5-5.8
			c-1-3.4-5.8-1.7-6-5.3c-0.2-3.6-2.6-3.9-2.3-7.6c0.3-4,0.2-4.9,1.2-8.8c1-4,4.2-3.9,5.9-7.6c1.7-3.8,0.8-4.6,2.9-8.2
			c2.1-3.6,4.9-1.9,7.6-5.1c2.7-3.2,3-2.7,6.1-5.5c3.1-2.8,4.2,0,7.6-2.2c3.4-2.3,3.1-1.3,6.6-3.1c3.5-1.8,2.6-3.6,6.3-4.9
			c3.7-1.3,3.4-7.4,7.1-8c3.7-0.5,3.9,1.4,7.5,1.6c3.9,0.2,5.3-2.7,9-1.6c3.7,1.1,1.7,5.9,5,7.9c3.2,2,1.4,4.1,4.1,6.9
			c2.7,2.8,4.4,0.5,6.6,3.9c2.1,3.4,4.3,1.7,5.9,5.5c1.6,3.8,1.1,4.5,1.9,8.8c0.8,4.3-4.3,5.4-4.5,10c-0.2,4.1,1.3,3.5,0.6,7.6
			c-0.7,4.2,4.8,5.2,3.4,9.2c-1.4,4-7,1.4-9.1,5c-2,3.6,1.1,5.8-1.2,9.3c-2.3,3.4-0.9,5.3-3.6,8.4c-2.6,3.1-5.7-1.1-8.7,1.4
			c-3,2.5-3.2,0.5-6.5,2.4c-3.3,1.8-2.3,9.5-5.8,9.5C326.5,157,326.9,151.4,323.4,152.3z"/>
	</g>
</g>
<text id="XMLID_5_" transform="matrix(1 0 0 1 35.5129 266.3106)" class="st5"><tspan x="0" y="0" class="st6 st7">     </tspan><tspan x="0" y="38.4" class="st6 st7">        </tspan></text>
<text id="XMLID_6_" transform="matrix(1 0 0 1 22.1929 16.7832)" class="st8 st9 st10">DEVELOPER</text>
<g id="XMLID_25_">
	<polygon id="XMLID_95_" class="st11" points="323.6,134.7 317,135.4 310.3,134.8 304,132.8 298.1,129.9 292.1,127.2 284.9,120.2 
		280.6,115.2 277.8,109.3 275.6,103.1 275.7,96.5 275.7,89.4 278.3,82.7 281.3,76.2 285.3,70.3 290.5,65.3 296.3,61.2 302.7,58.1 
		309.4,55.7 316.4,54.5 323.5,54.9 331.1,56.3 338.1,59.7 344.5,63.9 349.6,69.6 354.2,75.7 357.5,82.7 359.1,90.2 358.7,97.1 
		358.2,104 355,110.1 351.6,116.1 347.4,121.4 342.5,126.3 336.5,129.9 330.1,132.4 	"/>
</g>
<g id="XMLID_18_">
	<path id="XMLID_34_" class="st8" d="M392.8,128.2"/>
	<path id="XMLID_33_" class="st12" d="M392.8,128.2"/>
</g>
<g id="XMLID_14_">
	<polyline id="XMLID_141_" class="st11" points="255.3,198.1 254.4,191.3 254,184.3 254.6,177.3 256.8,170.5 258.8,163.8 260.3,157 
		263.4,150.8 265.4,144 270.9,139.7 276.9,136.1 283.7,134.4 290.2,132.1 296.9,130.4 	"/>
</g>
<g id="XMLID_7_">
	<polyline id="XMLID_75_" class="st11" points="382.2,197.3 383.2,190.3 383.1,183.3 382.2,176.3 380.5,169.5 379.1,162.7 
		376.8,156.1 374.7,149.5 371.8,143.1 366.6,138.4 360.3,135.6 353.7,133.4 347.1,131.1 340.6,129.1 	"/>
</g>
<g id="XMLID_46_">
	<g id="XMLID_43_">
		<path id="XMLID_161_" class="st3" d="M78.7,419c2.9-4.4,3.5-5.6,7.5-8.8c3.6-3.8,4.9-1.2,9.5-4.2c4.1-2.9,4.2-0.8,8.5-3.3
			c3.9-1.8,3.5-3.3,7.8-4.5c3.4-0.9,2.5,2.7,5.2,3.1c3,0.5,2.8,0.2,4.5,2.7c2.5,1.6,4-1.5,5.5,1.5c2.2,2.9,3.8,0.4,5.3,4.8
			c1.4,3.9-1.9,5.6-1.3,10.3c0.2,4.8,5.9,2.6,5.1,8c-0.7,5.1-3.7,5.2-5.4,10.8c-1.3,5.1-1.5,5.3-3.3,10c-2,4.9-3.9,3.3-6.4,7.8
			c-2.7,4.4-1.7,3.3-5.6,6.4c-3.5,3.5-1.3,9.7-5.4,12.7c-3.8,2.2-5.1,4-8.6,3.9c-3.8,0.7-4.7,0.3-8-0.6c-3.7-0.2-2.8-6-5.5-7.2
			c-3.3-1.5-4.9,1.7-7.5-1.4c-2.4-2.7-4.9-1.2-6.4-4.5c-1.8-3.4-1.3-5-1.9-9c-0.8-4,2.4-6.1,2.6-10c0-4.4-3.9-3.8-3.8-8.3
			c0.7-4.5,2.8-3.8,3.7-9.1C75.3,424.7,75.8,423.9,78.7,419z"/>
	</g>
	<g id="XMLID_40_">
		<path id="XMLID_155_" class="st3" d="M66,481.5c-3.3,0.5-3.4,4.6-6.5,5.5c-3.3,0-4.6,6.9-7.6,5.9c-3.3-0.4-0.9-9.7-4-10.4
			c-3.1-1.2-3.6,1.5-6.6-0.6c-2.8-1.6,0-4.7-3.3-6.3c-3.9-3.2-4.5-0.2-8.5-4.8c-2.1-2.6-8.4,2.2-9.4-1.3c-1.6-3.1,0.7-6.3,0-8.8
			c-0.8-3.4-2.4-4.2-2.3-7c-0.4-3.6,5.1-5,4.7-8.1c0.3-4-1.9-4.1-1.4-8.2c1.2-3.9-0.1-3.3,2.4-8c1.6-3.8,6.4-0.8,9.3-4.4
			c2.1-3.6-3.4-7.9-1-11c2.7-3.2,7.4,0.4,9.6-1.5c3-2.8,2.5-3.5,5.4-6c3.3-2.4,4.5,1.3,7.5-1.5c3.5-2,2.4-4.2,6-5.5
			c3.7-1.3,4.2-7.5,7.2-7.1c3.7-0.6,2.3,5.4,6.8,4.6c3.9,0.3,2,1.8,6.4,3.5c3.6,1.2,5-2.2,8.7-1.3c3.3,1.9,3.6,0.7,6.8,3.7
			c2.7,2.8,1.8,3.7,4.7,6.5c2.1,3.4-0.7,6.3,1.2,9.1c1.7,3.8,1.4,2.3,2.8,7.4c0.8,4.3,1.5,3.8,2.1,8.2c-0.1,4.1-2.7,4.6-3.4,8.1
			c-0.7,4.1-1.4,3.5-2.1,7.5c-1.3,4,2.5,5.3,0.1,9c-1.9,3.7,0.6,4-2.6,8.6c-2.2,3.6-3.9,1.3-7,5c-2.7,3.1-4.8-1.3-7.7,1.9
			c-3.1,2.5-0.3,9.5-3.1,11.6c-3.3,2-3.4-5.1-6.8-5.2C69.9,480.1,69.2,481.2,66,481.5z"/>
	</g>
	<g id="XMLID_35_">
		<path id="XMLID_146_" class="st3" d="M64,425.9c-3.3,0.7-3.2,8.4-7,7.7c-3.3,0.1-2.7-2.9-6.7-3.8c-3.2-0.7-1.7-4.9-4.7-6.8
			c-3.1-1-6.8,5.7-9.1,4.4c-2.8-1.6-1.8-5.5-3.9-7.1c-3.8-3.4-5.5-1-9.7-4.8c-2.2-2.5,4.2-8.6,2.6-11.2c-1.5-3.1-4.2-1.4-5.6-4.5
			c-0.8-3.5-3.7-2.9-4.2-6.4c-0.3-3.5,5.4-4.5,5.9-8.3c0.1-4-0.5-2.9,1-7.2c1.2-3.9,1.7-4.4,2.5-7.4c1.7-3.8,0.8-4.1,3.1-7.4
			c2.2-3.6,5.2-0.7,7.4-4c2.7-3.2,2.4-3.3,5-6.2c2.9-3-2.2-8.2,2-11.4c3.3-2.5,4.2,0.9,8.3-1.7c3.6-1.9,4.2-4,7-5.1
			c3.7-1.3,3.1-0.5,7.7-0.4c3.8-0.5,3.6,0.4,7.1,1.5c3.9,0.3,4.6-0.6,8-0.4c3.7,1.2,6-2.5,9.6-1.1c3.2,2.1-1.7,9.9,0.6,12.4
			c2.7,2.8,2.1,1.5,4.6,5.7c2.2,3.3,6.6-1.3,8.6,3.1c1.6,3.8-1.9,5.2-1.5,10.4c0.9,4.3,0.8,4.3,0.4,8.5c0,4.1-0.1,2.8-1.3,7.8
			c-0.7,4.2,3.8,5,2.5,8.9c-1.4,4.1-4,2.7-5.8,6.9c-1.9,3.8-1.5,3.6-4.2,7.1c-2.4,3.4-0.3,4.6-3.7,8.2c-2.8,2.9-5.2,0-7.9,2
			c-3,2.6-0.1,7.8-3.5,10.7c-3.2,2.1-5.4-4.4-8.4-2.6C67.4,424.4,68.2,424.2,64,425.9z"/>
	</g>
</g>
<g id="XMLID_20_">
	<path id="XMLID_23_" class="st8" d="M144.8,126.2"/>
	<path id="XMLID_22_" class="st12" d="M144.8,126.2"/>
</g>
<g id="XMLID_39_">
	<g id="XMLID_126_">
		<g id="XMLID_127_">
			<path id="XMLID_131_" d="M180.6,97l-7.6-0.4l-5.7,3.8l-5.8,3.7l-6.3,2.6l-6.3,2.8l-6,1.2l-0.3-0.6l-1.8-1.9l-0.2,0l1.2-2.9l4-4.7
				l3-5.4l2.4-5.6l-5.7-3.4l-4.8-4.7l-3.8-5.5l-2.7-6.1l-0.7-6.6l1.4-6.9l2.2-6.7l4.6-5.5l5.4-4.7l6.3-3.3l6.3-3.4l6.8-2l7.1-0.6
				l7.1-0.1l7,0.3l7.1,0.4l6.7,2.4l6.5,2.8l6,3.8l5.8,4.1l4,5.9l2.9,6.4l1.1,7l-0.9,7l-3,6.4l-4.1,5.8l-5.8,4.1l-5.8,4l-6.7,2.4
				l-6.7,2.1l-6.9,1.5L180.6,97z M140.4,63.3l1.2,6.4l2.8,5.9l4.7,4.6l5.3,3.9l5.1,2.2l-1.4,5.3l-4.2,9.1l8-3.6l6.8-5.3l2.1-2.1
				l2.9,0.2l6.8,0l7.6-0.3l7.3-1.8l7.1-2.4l6.7-3.5l5.6-5l4.4-6.1l2-7.4L219,56l-4-6.4l-5.7-4.9l-6.4-4.1l-7.4-1.9l-7.4-1.5
				l-7.5-1.1l-7.6,0.2l-7.5,1.6l-6.9,3.3l-6.9,3.3l-5.8,5l-4.3,6.3L140.4,63.3z"/>
			<path id="XMLID_128_" class="st13" d="M180.6,97l-7.6-0.4l-5.7,3.8l-5.8,3.7l-6.3,2.6l-6.3,2.8l-6,1.2l-0.3-0.6l-1.8-1.9l-0.2,0
				l1.2-2.9l4-4.7l3-5.4l2.4-5.6l-5.7-3.4l-4.8-4.7l-3.8-5.5l-2.7-6.1l-0.7-6.6l1.4-6.9l2.2-6.7l4.6-5.5l5.4-4.7l6.3-3.3l6.3-3.4
				l6.8-2l7.1-0.6l7.1-0.1l7,0.3l7.1,0.4l6.7,2.4l6.5,2.8l6,3.8l5.8,4.1l4,5.9l2.9,6.4l1.1,7l-0.9,7l-3,6.4l-4.1,5.8l-5.8,4.1
				l-5.8,4l-6.7,2.4l-6.7,2.1l-6.9,1.5L180.6,97z M140.4,63.3l1.2,6.4l2.8,5.9l4.7,4.6l5.3,3.9l5.1,2.2l-1.4,5.3l-4.2,9.1l8-3.6
				l6.8-5.3l2.1-2.1l2.9,0.2l6.8,0l7.6-0.3l7.3-1.8l7.1-2.4l6.7-3.5l5.6-5l4.4-6.1l2-7.4L219,56l-4-6.4l-5.7-4.9l-6.4-4.1l-7.4-1.9
				l-7.4-1.5l-7.5-1.1l-7.6,0.2l-7.5,1.6l-6.9,3.3l-6.9,3.3l-5.8,5l-4.3,6.3L140.4,63.3z"/>
		</g>
	</g>
</g>
<g id="XMLID_19_">
	<g id="XMLID_118_">
		<g id="XMLID_119_">
			<path id="XMLID_123_" d="M174.2,89.8l1.4-7.2l3.7-6.3l4.3-6l6.2-4l6.5-3.5l7-2.2l7.2-1.6l7.4,0.1l7.3,0.4l7.2,1.2l7.1,1.9
				l6.6,3.3l5.5,4.9l5.1,5.2l3.7,6.4l1.1,7.4l-1.8,7.5l-3.5,6.7l-5.2,5.6l-6,4.5l2.7,8l5.5,6.6l1.3,2.5l0.5,0.2l-2.3,1.4l-0.2,0.3
				l-5.6-0.5l-6-2.2l-5.6-3l-5.5-3.1l-5.3-3.4l-6.9,0.5l-7.3-0.8l-7.3-1.2l-6.9-2.7l-6.9-2.7l-5.4-5.1l-5.2-5.1l-3.3-6.5L174.2,89.8
				z M217.8,65.2l-7,0.3l-7,1l-6.4,3.1l-6.3,3l-5.1,4.8l-3.9,5.8l-1.2,6.8l1,6.9l3.9,5.9l5.4,4.5l6.3,3l6.6,2.3l6.7,2l7,0.1l6.2-0.8
				l2.9-0.2l1.9,2.3l6.4,4.7l7.1,3.5l-3.7-8.3l-0.6-4.6l4-2.3l6.5-4.8l4.4-6.7l2.5-7.6l-1.8-6.9l-4.3-5.5l-5-4.8l-5.9-3.8l-6.7-2.3
				l-7-0.8L217.8,65.2z"/>
			<path id="XMLID_120_" class="st14" d="M174.2,89.8l1.4-7.2l3.7-6.3l4.3-6l6.2-4l6.5-3.5l7-2.2l7.2-1.6l7.4,0.1l7.3,0.4l7.2,1.2
				l7.1,1.9l6.6,3.3l5.5,4.9l5.1,5.2l3.7,6.4l1.1,7.4l-1.8,7.5l-3.5,6.7l-5.2,5.6l-6,4.5l2.7,8l5.5,6.6l1.3,2.5l0.5,0.2l-2.3,1.4
				l-0.2,0.3l-5.6-0.5l-6-2.2l-5.6-3l-5.5-3.1l-5.3-3.4l-6.9,0.5l-7.3-0.8l-7.3-1.2l-6.9-2.7l-6.9-2.7l-5.4-5.1l-5.2-5.1l-3.3-6.5
				L174.2,89.8z M217.8,65.2l-7,0.3l-7,1l-6.4,3.1l-6.3,3l-5.1,4.8l-3.9,5.8l-1.2,6.8l1,6.9l3.9,5.9l5.4,4.5l6.3,3l6.6,2.3l6.7,2
				l7,0.1l6.2-0.8l2.9-0.2l1.9,2.3l6.4,4.7l7.1,3.5l-3.7-8.3l-0.6-4.6l4-2.3l6.5-4.8l4.4-6.7l2.5-7.6l-1.8-6.9l-4.3-5.5l-5-4.8
				l-5.9-3.8l-6.7-2.3l-7-0.8L217.8,65.2z"/>
		</g>
	</g>
</g>
<path id="XMLID_17_" class="st8" d="M245,80.4c0,11.1-21.2,32.2-37.5,32.2s-28-12.7-28-23.8s17.7-23.5,34-23.5S245,69.3,245,80.4z"
	/>
<g id="XMLID_54_">
	<polygon id="XMLID_74_" points="368.9,21.8 362.2,22 355.2,21.9 348.2,22.5 341.2,22.1 334.2,21.8 327.2,22.1 320.2,22.5 
		313.2,22.4 306.2,21.7 299.2,21.9 292.2,22.5 285.2,21.9 278.2,22.3 271.3,22.1 271.7,14.8 271,7.5 271.2,0.2 278.2,0.2 285.2,0.6 
		292.2,0.1 299.2,0.5 306.2,0 313.2,0.5 320.2,0.2 327.2,0.6 334.2,0 341.2,0.1 348.2,0.6 355.2,0.7 362.2,0 369.3,0.1 368.8,7.5 
		368.9,14.8 	"/>
</g>
<text id="XMLID_52_" transform="matrix(1 0 0 1 275.1929 16.7832)" class="st8 st9 st10">DESIGNER</text>
<text id="XMLID_3_" transform="matrix(1 0 0 1 270.5129 266.3106)"><tspan x="0" y="0" class="st6 st7">  </tspan><tspan x="36.1" y="0" class="st15 st7">Ps</tspan><tspan x="56.6" y="0" class="st6 st7">  </tspan><tspan x="67.6" y="0" class="st15 st7">Ai</tspan><tspan x="86.2" y="0" class="st6 st16">   </tspan></text>
<line id="XMLID_13_" class="st17" x1="36" y1="276.2" x2="113.5" y2="276.2"/>
<text id="XMLID_111_" transform="matrix(1 0 0 1 125.1929 265.7832)" class="st9 st18">ASSET CREATION </text>
<g id="Gk1sYq_1_">
	<g id="XMLID_15_">
		<path id="XMLID_107_" class="st8" d="M312,284.2c0,0.1,0.1,0.1,0.1,0.2c2.3,3.9,4.7,7.9,7,11.8c0.1,0.1,0.2,0.2,0.3,0.2
			c2.6,0,5.2,0,7.8,0c0.1,0,0.1,0,0.2,0c0-0.1-0.1-0.1-0.1-0.2c-1.8-3.1-3.6-6.1-5.4-9.2c-0.5-0.9-1.1-1.8-1.6-2.8 M309.5,304.3
			c0.1,0,0.2,0,0.2,0c4.7,0,9.4,0,14,0c0.1,0,0.2,0,0.3-0.2c1.3-2.2,2.5-4.5,3.8-6.7c0,0,0-0.1,0.1-0.2c-0.1,0-0.1,0-0.2,0
			c-4.6,0-9.3,0-13.9,0c-0.1,0-0.2,0-0.3,0.1c-1.3,2.2-2.6,4.4-3.9,6.6C309.6,304.1,309.6,304.2,309.5,304.3z M308.4,304.3
			c0.1-0.1,0.1-0.1,0.1-0.2c2.3-3.9,4.5-7.8,6.8-11.6c0.1-0.2,0.1-0.3,0-0.4c-1.1-1.8-2.2-3.6-3.2-5.4c-0.3-0.4-0.5-0.9-0.8-1.4
			c-0.1,0.1-0.1,0.1-0.1,0.2c-2.2,3.9-4.4,7.8-6.6,11.7c-0.1,0.1-0.1,0.2,0,0.3c0.9,1.6,1.9,3.3,2.8,4.9
			C307.7,303,308,303.7,308.4,304.3z"/>
		<path id="XMLID_106_" d="M320.3,284.2c0.5,0.9,1.1,1.8,1.6,2.8c1.8,3.1,3.6,6.1,5.4,9.2c0,0.1,0.1,0.1,0.1,0.2c-0.1,0-0.1,0-0.2,0
			c-2.6,0-5.2,0-7.8,0c-0.1,0-0.2,0-0.3-0.2c-2.3-3.9-4.7-7.9-7-11.8c0-0.1-0.1-0.1-0.1-0.2C314.7,284.2,317.5,284.2,320.3,284.2z"
			/>
		<path id="XMLID_105_" d="M309.5,304.3c0.1-0.1,0.1-0.2,0.1-0.2c1.3-2.2,2.6-4.4,3.9-6.6c0.1-0.1,0.1-0.1,0.3-0.1
			c4.6,0,9.3,0,13.9,0c0,0,0.1,0,0.2,0c0,0.1,0,0.1-0.1,0.2c-1.3,2.2-2.5,4.5-3.8,6.7c-0.1,0.1-0.1,0.2-0.3,0.2c-4.7,0-9.4,0-14,0
			C309.7,304.3,309.6,304.3,309.5,304.3z"/>
		<path id="XMLID_104_" d="M308.4,304.3c-0.4-0.7-0.7-1.3-1.1-1.9c-0.9-1.6-1.9-3.3-2.8-4.9c-0.1-0.1-0.1-0.2,0-0.3
			c2.2-3.9,4.4-7.8,6.6-11.7c0-0.1,0.1-0.1,0.1-0.2c0.3,0.5,0.5,0.9,0.8,1.4c1.1,1.8,2.2,3.6,3.2,5.4c0.1,0.2,0.1,0.3,0,0.4
			c-2.3,3.9-4.5,7.8-6.8,11.6C308.5,304.2,308.5,304.2,308.4,304.3z"/>
	</g>
</g>
<path id="XMLID_50_" class="st19" d="M276.6,291.5l7.3,4.5l-5,4.2l-7.2-4.7L276.6,291.5z M291.1,299.7v1.6l-7.2,4.3v0l0,0l0,0v0
	l-7.2-4.3v-1.6l2.2,1.4l5-4.2v0l0,0l0,0v0l5.1,4.2L291.1,299.7z M278.8,282.8l5,4.2l-7.3,4.5l-5-4L278.8,282.8z M291.1,291.5l5,4
	l-7.2,4.7l-5.1-4.2L291.1,291.5z M288.9,282.8l7.2,4.7l-5,4l-7.3-4.5L288.9,282.8z"/>
<g id="XMLID_53_">
	<polygon id="XMLID_154_" class="st11" points="64.9,138.2 71.1,138.6 77.2,138 83.4,136.8 89.5,134.8 94.9,131.1 102.7,124.7 
		106.3,119.1 109.5,113.3 111.4,106.9 113.2,100.5 112.2,93.5 110.9,86.5 107.7,80.3 103.7,74.8 99.2,69.5 93.8,65.1 87.8,61.4 
		81,59.2 74,58.3 66.8,58.6 59.4,60.8 52.3,63.7 46,68.1 40.2,73.2 35.9,79.6 33,86.7 31.5,94.2 30.9,101.1 32.8,107.8 34.4,114.5 
		37.9,120.4 42.2,125.7 47.4,129.9 52.7,133.9 58.5,137.1 	"/>
</g>
<g id="XMLID_45_">
	<polyline id="XMLID_149_" class="st11" points="134.2,202.3 134.7,195.3 133.9,188.4 133.1,181.5 133,174.4 131.8,167.5 129.3,161 
		127.3,154.2 123.1,148.5 118.8,143.2 112.2,140.8 105.8,138.2 98.9,137 92.6,134 	"/>
</g>
<g id="XMLID_1_">
	<polyline id="XMLID_153_" class="st11" points="7.1,200.2 7.5,193.7 7.6,187.1 8.2,180.5 9.5,173.9 11.5,167.4 13,160.8 
		15.9,154.5 19.6,148.5 24.1,143.4 29.9,139.7 36.2,136.8 42.7,135.3 49,132.5 	"/>
</g>
<g id="XMLID_4_">
	<polygon id="XMLID_117_" class="st3" points="249.2,265.9 243.9,266 238.4,266.1 237.9,255.4 243.9,255.6 249.3,255.7 	"/>
</g>
<text id="XMLID_51_" transform="matrix(1 0 0 1 125.1929 283.7832)" class="st9 st18">COLLABORATION </text>
<g id="XMLID_24_">
	<polygon id="XMLID_94_" class="st2" points="249.7,283.9 243.8,283.7 238,283.8 238.3,274.7 243.8,274.3 249.3,274.6 	"/>
</g>
</svg>
