<?xml version="1.0" encoding="utf-8"?>
<!-- Generator: Adobe Illustrator 15.0.0, SVG Export Plug-In . SVG Version: 6.00 Build 0)  -->
<!DOCTYPE svg PUBLIC "-//W3C//DTD SVG 1.1//EN" "http://www.w3.org/Graphics/SVG/1.1/DTD/svg11.dtd">
<svg version="1.1" id="Layer_1" zoomAndPan="disable"
	 xmlns="http://www.w3.org/2000/svg" xmlns:xlink="http://www.w3.org/1999/xlink" x="0px" y="0px" width="40px" height="192px"
	 viewBox="0 0 40 192" enable-background="new 0 0 40 192" xml:space="preserve">
<path opacity="0.6" fill="none" stroke="#202422" stroke-width="0.5" stroke-linejoin="round" enable-background="new    " d="
	M24.189,76.574"/>
<path opacity="0.6" fill="none" stroke="#202422" stroke-width="0.5" stroke-linejoin="round" enable-background="new    " d="
	M17.081,76.669"/>
<path opacity="0.6" fill="none" stroke="#202422" stroke-width="0.5" stroke-linejoin="round" enable-background="new    " d="
	M14.97,83.771"/>
<path opacity="0.6" fill="none" stroke="#202422" stroke-width="0.5" stroke-linejoin="round" enable-background="new    " d="
	M20.773,88.066"/>
<path opacity="0.6" fill="none" stroke="#202422" stroke-width="0.5" stroke-linejoin="round" enable-background="new    " d="
	M26.471,83.619"/>
<ellipse opacity="0.6" fill="none" stroke="#202422" stroke-width="0.5" stroke-linejoin="round" enable-background="new    " cx="20.773" cy="80.015" rx="8.037" ry="8.404"/>
<ellipse opacity="0.6" fill="none" stroke="#202422" stroke-width="0.5" stroke-linejoin="round" enable-background="new    " cx="20.943" cy="80.179" rx="4.145" ry="4.145"/>
<polygon opacity="0.6" fill="none" stroke="#202422" stroke-width="0.5" stroke-linejoin="round" enable-background="new    " points="
	20.593,17.207 15.744,14.44 15.657,8.864 20.415,6.051 25.26,8.814 25.35,14.397 "/>
<path opacity="0.6" fill="none" stroke="#202422" stroke-width="0.5" stroke-linejoin="round" enable-background="new    " d="
	M31.229,14.285"/>
<path opacity="0.6" fill="none" stroke="#202422" stroke-width="0.5" stroke-linejoin="round" enable-background="new    " d="
	M26.904,17.609"/>
<polyline opacity="0.6" fill="none" stroke="#202422" stroke-width="0.5" stroke-linejoin="round" enable-background="new    " points="
	20.825,28.23 6.87,19.912 6.87,3 11.545,6.506 11.622,17.207 20.846,22.269 "/>
<polygon opacity="0.6" fill="none" stroke="#202422" stroke-width="0.5" stroke-linejoin="round" enable-background="new    " points="
	20.825,40.398 10.223,33.481 10.028,26.454 20.848,34.437 31.229,26.454 31.229,33.372 "/>
<polyline fill="none" stroke="#202422" stroke-width="0.5" stroke-linejoin="round" points="30.029,135.043 20.218,141.745 
	10.683,135.084 "/>
<polyline fill="none" stroke="#202422" stroke-width="0.5" stroke-linejoin="round" stroke-opacity="0" points="30.029,141.293 
	20.218,147.995 10.683,141.334 "/>
<path opacity="0.6" fill="none" stroke="#202422" stroke-width="0.5" stroke-linejoin="round" enable-background="new    " d="
	M27.125,114.641"/>
<line opacity="0.6" fill="none" stroke="#202422" stroke-width="0.5" stroke-linejoin="round" enable-background="new    " x1="12.445" y1="97.766" x2="20.5" y2="92.782"/>
<line opacity="0.6" fill="none" stroke="#202422" stroke-width="0.5" stroke-linejoin="round" enable-background="new    " x1="20.5" y1="120.025" x2="28.557" y2="115.042"/>
<line opacity="0.6" fill="none" stroke="#202422" stroke-width="0.5" stroke-linejoin="round" enable-background="new    " x1="12.445" y1="97.766" x2="28.557" y2="97.782"/>
<line opacity="0.6" fill="none" stroke="#202422" stroke-width="0.5" stroke-linejoin="round" enable-background="new    " x1="12.445" y1="115.033" x2="28.557" y2="115.05"/>
<line opacity="0.6" fill="none" stroke="#202422" stroke-width="0.5" stroke-linejoin="round" enable-background="new    " x1="28.557" y1="97.782" x2="12.445" y2="106.84"/>
<line opacity="0.6" fill="none" stroke="#202422" stroke-width="0.5" stroke-linejoin="round" enable-background="new    " x1="12.445" y1="106.84" x2="28.557" y2="106.84"/>
<line opacity="0.6" fill="none" stroke="#202422" stroke-width="0.5" stroke-linejoin="round" enable-background="new    " x1="28.557" y1="106.84" x2="12.445" y2="115.033"/>
<path fill="none" stroke="#202422" stroke-width="0.4" stroke-linejoin="round" stroke-opacity="0" d="M30.411,149.875"/>
<path fill="none" stroke="#202422" stroke-width="0.3" stroke-linejoin="round" stroke-opacity="0" d="M10.992,149.875"/>
<polygon opacity="0.6" fill="none" stroke="#202422" stroke-width="0.5" stroke-linejoin="round" enable-background="new    " points="
	38,80.179 20.838,92.348 3.623,80.104 20.787,67.937 "/>
<polyline opacity="0.6" fill="none" stroke="#202422" stroke-width="0.5" stroke-linejoin="round" enable-background="new    " points="
	20.503,22.269 29.725,17.207 29.803,6.506 34.479,3 34.479,19.912 20.521,28.23 "/>
<line opacity="0.6" fill="none" stroke="#202422" stroke-width="0.5" stroke-linejoin="round" enable-background="new    " x1="15.657" y1="8.864" x2="20.629" y2="11.629"/>
<line opacity="0.6" fill="none" stroke="#202422" stroke-width="0.5" stroke-linejoin="round" enable-background="new    " x1="25.26" y1="8.814" x2="20.207" y2="11.629"/>
<path opacity="0.6" fill="none" stroke="#202422" stroke-width="0.5" stroke-linejoin="round" enable-background="new    " d="
	M27.714,62.249"/>
<line opacity="0.6" fill="none" stroke="#202422" stroke-width="0.5" stroke-linejoin="round" enable-background="new    " x1="29.089" y1="45.374" x2="21.034" y2="40.39"/>
<line opacity="0.6" fill="none" stroke="#202422" stroke-width="0.5" stroke-linejoin="round" enable-background="new    " x1="21.089" y1="67.633" x2="29.145" y2="62.65"/>
<line opacity="0.6" fill="none" stroke="#202422" stroke-width="0.5" stroke-linejoin="round" enable-background="new    " x1="29.145" y1="62.65" x2="29.145" y2="45.39"/>
<path opacity="0.6" fill="none" stroke="#202422" stroke-width="0.5" stroke-linejoin="round" enable-background="new    " d="
	M14.203,45.783"/>
<line opacity="0.6" fill="none" stroke="#202422" stroke-width="0.5" stroke-linejoin="round" enable-background="new    " x1="12.828" y1="62.658" x2="20.883" y2="67.642"/>
<line opacity="0.6" fill="none" stroke="#202422" stroke-width="0.5" stroke-linejoin="round" enable-background="new    " x1="20.828" y1="40.398" x2="12.772" y2="45.382"/>
<line opacity="0.6" fill="none" stroke="#202422" stroke-width="0.5" stroke-linejoin="round" enable-background="new    " x1="12.772" y1="45.382" x2="12.772" y2="62.642"/>
<path fill="none" stroke="#202422" stroke-width="0.5" stroke-miterlimit="10" stroke-opacity="0" d="M11.895,180.971
	c-2.402-4.736-0.512-10.519,4.227-12.922c1.67-0.847,4.587-1.203,6.974-0.549c1.43,0.393,2.661,1.398,3.344,2.188
	c1.125,1.303-2.854,0.158-4.5,0.648c-1.029,0.307-2.199,1.09-2.973,1.997c-0.737,0.866-1.332,2.169-1.453,3.252
	c-0.152,1.358,0.787,2.979,1.05,3.499c0.285,0.562,1.151,1.377,2.363,1.925c0.835,0.378,2.892,0.189,3.909,0.089
	c1.203-0.121,2.078-1.175,3.061-1.926c1.504-1.15,1.037-3.48,1.434-2.327c0.889,2.589-1.882,7.019-4.514,8.351
	C20.078,187.598,14.293,185.704,11.895,180.971z"/>
<path fill="none" stroke="#202422" stroke-width="0.5" stroke-linejoin="round" stroke-miterlimit="10" stroke-opacity="0" d="
	M19.839,165.176"/>
<path fill="none" stroke="#202422" stroke-width="0.5" stroke-linejoin="round" stroke-miterlimit="10" stroke-opacity="0" d="
	M11.026,170.989"/>
<path fill="none" stroke="#202422" stroke-width="0.5" stroke-linejoin="round" stroke-miterlimit="10" stroke-opacity="0" d="
	M19.839,179.793"/>
<path fill="none" stroke="#202422" stroke-width="0.4" stroke-linejoin="round" stroke-miterlimit="10" stroke-opacity="0" d="
	M26.843,149.243c0-1.866,0,3.38,3.38,3.379c1.864-0.001-3.106-0.201-3.38,3.376c-0.143,1.861,0-3.379-3.382-3.376
	C21.596,152.623,26.843,152.619,26.843,149.243z"/>
<polygon fill="none" stroke="#202422" stroke-width="0.4" stroke-linejoin="round" stroke-miterlimit="10" points="5.417,161.83 
	34.126,161.734 19.853,186.646 "/>
<line fill="none" stroke="#202422" stroke-width="0.4" stroke-linejoin="round" stroke-miterlimit="10" x1="5.417" y1="161.83" x2="19.771" y2="172.748"/>
<line fill="none" stroke="#202422" stroke-width="0.4" stroke-linejoin="round" stroke-miterlimit="10" x1="19.771" y1="172.748" x2="34.021" y2="161.701"/>
<g>
	<path fill="none" stroke="#000000" stroke-width="0.3" stroke-linejoin="round" stroke-miterlimit="10" d="M20.239,141.994
		c-0.003,1.417-6.003,1.404-6.006,2.82c-0.003,1.414,5.997,1.429,5.993,2.844c-0.003,1.416-6.003,1.402-6.006,2.818
		c-0.003,1.418,5.997,1.432,5.994,2.849s-6.003,1.403-6.006,2.819c-0.003,1.42,5.997,1.434,5.994,2.854
		c-0.003,1.419-6.003,1.406-6.006,2.826"/>
</g>
<polyline opacity="0.6" fill="none" stroke="#202422" stroke-width="0.5" stroke-linejoin="round" enable-background="new    " points="
	10.683,126.705 20.218,120.044 30.029,126.746 "/>
</svg>
