<?xml version="1.0" encoding="utf-8"?>
<!-- Generator: Adobe Illustrator 15.0.0, SVG Export Plug-In . SVG Version: 6.00 Build 0)  -->
<!DOCTYPE svg PUBLIC "-//W3C//DTD SVG 1.1//EN" "http://www.w3.org/Graphics/SVG/1.1/DTD/svg11.dtd">
<svg version="1.1" id="Layer_1" zoomAndPan="disable"
	 xmlns="http://www.w3.org/2000/svg" xmlns:xlink="http://www.w3.org/1999/xlink" x="0px" y="0px" width="40px" height="144px"
	 viewBox="0 0 40 144" enable-background="new 0 0 40 144" xml:space="preserve">
<polygon opacity="0.6" fill="none" stroke="#202422" stroke-width="0.5" stroke-linejoin="round" enable-background="new    " points="
	33.483,102.087 27.269,108.896 11.731,108.896 5.517,102.087 "/>
<path opacity="0.6" fill="none" stroke="#202422" stroke-width="0.5" stroke-linejoin="round" enable-background="new    " d="
	M23.19,57.574"/>
<path opacity="0.6" fill="none" stroke="#202422" stroke-width="0.5" stroke-linejoin="round" enable-background="new    " d="
	M16.081,57.669"/>
<path opacity="0.6" fill="none" stroke="#202422" stroke-width="0.5" stroke-linejoin="round" enable-background="new    " d="
	M13.97,64.771"/>
<path opacity="0.6" fill="none" stroke="#202422" stroke-width="0.5" stroke-linejoin="round" enable-background="new    " d="
	M19.774,69.066"/>
<path opacity="0.6" fill="none" stroke="#202422" stroke-width="0.5" stroke-linejoin="round" enable-background="new    " d="
	M25.47,64.619"/>
<ellipse opacity="0.6" fill="none" stroke="#202422" stroke-width="0.5" stroke-linejoin="round" enable-background="new    " cx="19.774" cy="61.015" rx="8.037" ry="8.404"/>
<ellipse opacity="0.6" fill="none" stroke="#202422" stroke-width="0.5" stroke-linejoin="round" enable-background="new    " cx="19.944" cy="61.179" rx="4.145" ry="4.145"/>
<polyline opacity="0.6" fill="none" stroke="#202422" stroke-width="0.5" stroke-linejoin="round" enable-background="new    " points="
	11.908,109.09 19.5,117.41 27.097,109.086 "/>
<polygon opacity="0.6" fill="none" stroke="#202422" stroke-width="0.5" stroke-linejoin="round" enable-background="new    " points="
	19.601,25.791 15.192,23.276 15.113,18.206 19.438,15.649 23.843,18.161 23.924,23.237 "/>
<path opacity="0.6" fill="none" stroke="#202422" stroke-width="0.5" stroke-linejoin="round" enable-background="new    " d="
	M29.269,23.135"/>
<path opacity="0.6" fill="none" stroke="#202422" stroke-width="0.5" stroke-linejoin="round" enable-background="new    " d="
	M25.338,26.157"/>
<polyline opacity="0.6" fill="none" stroke="#202422" stroke-width="0.5" stroke-linejoin="round" enable-background="new    " points="
	19.812,35.812 7.125,28.25 7.125,12.875 11.375,16.062 11.445,25.791 19.829,30.392 "/>
<polygon opacity="0.6" fill="none" stroke="#202422" stroke-width="0.5" stroke-linejoin="round" enable-background="new    " points="
	19.812,46.874 10.173,40.586 9.996,34.197 19.831,41.454 29.269,34.197 29.269,40.486 "/>
<polyline opacity="0.6" fill="none" stroke="#202422" stroke-width="0.5" stroke-linejoin="round" enable-background="new    " points="
	29.03,116.043 19.218,122.745 9.683,116.084 "/>
<polyline opacity="0.6" fill="none" stroke="#202422" stroke-width="0.5" stroke-linejoin="round" enable-background="new    " points="
	29.03,122.293 19.218,128.995 9.683,122.334 "/>
<path opacity="0.6" fill="none" stroke="#202422" stroke-width="0.5" stroke-linejoin="round" enable-background="new    " d="
	M26.125,95.641"/>
<line opacity="0.6" fill="none" stroke="#202422" stroke-width="0.5" stroke-linejoin="round" enable-background="new    " x1="11.445" y1="78.766" x2="19.5" y2="73.782"/>
<line opacity="0.6" fill="none" stroke="#202422" stroke-width="0.5" stroke-linejoin="round" enable-background="new    " x1="19.5" y1="101.025" x2="27.556" y2="96.042"/>
<line opacity="0.6" fill="none" stroke="#202422" stroke-width="0.5" stroke-linejoin="round" enable-background="new    " x1="11.445" y1="78.766" x2="27.556" y2="78.782"/>
<line opacity="0.6" fill="none" stroke="#202422" stroke-width="0.5" stroke-linejoin="round" enable-background="new    " x1="11.445" y1="96.033" x2="27.556" y2="96.05"/>
<line opacity="0.6" fill="none" stroke="#202422" stroke-width="0.5" stroke-linejoin="round" enable-background="new    " x1="27.556" y1="78.782" x2="11.445" y2="87.84"/>
<line opacity="0.6" fill="none" stroke="#202422" stroke-width="0.5" stroke-linejoin="round" enable-background="new    " x1="11.445" y1="87.84" x2="27.556" y2="87.84"/>
<line opacity="0.6" fill="none" stroke="#202422" stroke-width="0.5" stroke-linejoin="round" enable-background="new    " x1="27.556" y1="87.84" x2="11.445" y2="96.033"/>
<path opacity="0.6" fill="none" stroke="#202422" stroke-width="0.5" stroke-linejoin="round" enable-background="new    " d="
	M27.304,132.275"/>
<path opacity="0.6" fill="none" stroke="#202422" stroke-width="0.5" stroke-linejoin="round" enable-background="new    " d="
	M11.769,132.275"/>
<polygon opacity="0.6" fill="none" stroke="#202422" stroke-width="0.5" stroke-linejoin="round" enable-background="new    " points="
	37,61.179 19.838,73.348 2.623,61.104 19.787,48.937 "/>
<circle opacity="0.6" fill="none" stroke="#202422" stroke-width="0.5" stroke-linejoin="round" stroke-miterlimit="10" enable-background="new    " cx="19.589" cy="137.185" r="3.906"/>
<polyline opacity="0.6" fill="none" stroke="#202422" stroke-width="0.5" stroke-linejoin="round" enable-background="new    " points="
	19.519,30.392 27.902,25.791 27.973,16.062 32.223,12.875 32.223,28.25 19.536,35.812 "/>
</svg>
