<?xml version="1.0" encoding="utf-8"?>
<!-- Generator: Adobe Illustrator 15.0.0, SVG Export Plug-In . SVG Version: 6.00 Build 0)  -->
<!DOCTYPE svg PUBLIC "-//W3C//DTD SVG 1.1//EN" "http://www.w3.org/Graphics/SVG/1.1/DTD/svg11.dtd">
<svg version="1.1" id="Layer_1" zoomAndPan="disable"
	 xmlns="http://www.w3.org/2000/svg" xmlns:xlink="http://www.w3.org/1999/xlink" x="0px" y="0px" width="99px" height="115px"
	 viewBox="0 0 99 115" enable-background="new 0 0 99 115" xml:space="preserve">
<polygon opacity="0.5" fill="none" stroke="#333333" enable-background="new    " points="89.494,27.097 69.604,48.892 
	19.89,48.892 0,27.097 "/>
<polygon opacity="0.5" fill="none" stroke="#333333" enable-background="new    " points="90.5,48.892 44.748,97.928 0,48.892 
	19.89,48.892 44.748,76.134 69.604,48.892 "/>
<g opacity="0.5">
	<path fill="none" stroke="#333333" d="M18.948,107.85c4.307,0,4.307,4.65,8.616,4.65c4.31,0,4.31-4.65,8.619-4.65
		c4.311,0,4.311,4.65,8.622,4.65s4.311-4.65,8.618-4.65c4.312,0,4.312,4.65,8.623,4.65s4.312-4.65,8.625-4.65"/>
</g>
<path opacity="0.5" fill="none" stroke="#333333" enable-background="new    " d="M47.7,9.677"/>
<path opacity="0.5" fill="none" stroke="#333333" enable-background="new    " d="M42.012,9.752"/>
<path opacity="0.5" fill="none" stroke="#333333" enable-background="new    " d="M40.322,15.434"/>
<path opacity="0.5" fill="none" stroke="#333333" enable-background="new    " d="M44.967,18.87"/>
<path opacity="0.5" fill="none" stroke="#333333" enable-background="new    " d="M49.523,15.313"/>
<polyline opacity="0.5" fill="none" stroke="#333333" enable-background="new    " points="62.076,12.429 44.932,24.141 
	28.164,12.429 "/>
<polyline opacity="0.5" fill="none" stroke="#333333" enable-background="new    " points="28.165,14.696 44.875,1.25 
	62.076,14.533 "/>
<ellipse opacity="0.5" fill="none" stroke="#433F40" enable-background="new    " cx="44.967" cy="12.429" rx="6.43" ry="6.724"/>
<ellipse opacity="0.5" fill="#433F40" stroke="#433F40" enable-background="new    " cx="45.2" cy="12.513" rx="3.216" ry="3.363"/>
<g opacity="0.5">
	<path fill="none" stroke="#333333" d="M18.948,103.197c4.307,0,4.307,4.65,8.616,4.65c4.31,0,4.31-4.65,8.619-4.65
		c4.311,0,4.311,4.65,8.622,4.65s4.311-4.65,8.618-4.65c4.312,0,4.312,4.65,8.623,4.65s4.312-4.65,8.625-4.65"/>
</g>
</svg>
