<?xml version="1.0" encoding="utf-8"?>
<!-- Generator: Adobe Illustrator 15.0.0, SVG Export Plug-In . SVG Version: 6.00 Build 0)  -->
<!DOCTYPE svg PUBLIC "-//W3C//DTD SVG 1.1//EN" "http://www.w3.org/Graphics/SVG/1.1/DTD/svg11.dtd">
<svg version="1.1" id="Layer_1" zoomAndPan="disable"
	 xmlns="http://www.w3.org/2000/svg" xmlns:xlink="http://www.w3.org/1999/xlink" x="0px" y="0px" width="89.494px" height="115px"
	 viewBox="0 0 89.494 115" enable-background="new 0 0 89.494 115" xml:space="preserve">
<polygon opacity="0.5" fill="none" stroke="#333333" enable-background="new    " points="89.494,27.097 69.604,48.892 
	19.89,48.892 0,27.097 "/>
<g opacity="0.5">
	<g>
		<g>
			<path fill="#333333" d="M14.948,108.35c3.261,0.149,4.554,2.854,7.24,4.141c2.068,0.99,4.833,0.569,6.595-0.843
				c1.113-0.892,2.049-1.966,3.284-2.701c1.984-1.18,4.532-0.593,6.23,0.768c2.066,1.655,3.344,3.157,6.171,3.286
				c2.447,0.111,4.139-1.422,5.806-2.967c1.625-1.507,3.569-1.986,5.736-1.444c1.523,0.382,2.63,1.762,3.762,2.754
				c1.908,1.675,4.49,2.056,6.856,1.197c2.893-1.049,3.952-4.034,7.369-4.19c0.643-0.029,0.645-1.029,0-1
				c-2.528,0.115-4.023,1.312-5.81,2.967c-1.626,1.506-3.572,1.986-5.74,1.444c-1.523-0.382-2.629-1.762-3.76-2.754
				c-1.909-1.675-4.492-2.057-6.856-1.197c-2.892,1.05-3.948,4.034-7.363,4.19c-3.169,0.145-4.683-2.913-7.246-4.141
				c-2.068-0.99-4.832-0.57-6.595,0.843c-1.113,0.892-2.049,1.966-3.284,2.701c-1.984,1.18-4.532,0.593-6.229-0.768
				c-2.065-1.654-3.341-3.157-6.166-3.286C14.303,107.32,14.306,108.32,14.948,108.35L14.948,108.35z"/>
		</g>
	</g>
</g>
<path opacity="0.5" fill="none" stroke="#333333" enable-background="new    " d="M47.7,9.677"/>
<path opacity="0.5" fill="none" stroke="#333333" enable-background="new    " d="M42.012,9.752"/>
<path opacity="0.5" fill="none" stroke="#333333" enable-background="new    " d="M40.322,15.434"/>
<path opacity="0.5" fill="none" stroke="#333333" enable-background="new    " d="M44.967,18.87"/>
<path opacity="0.5" fill="none" stroke="#333333" enable-background="new    " d="M49.522,15.313"/>
<polyline opacity="0.5" fill="none" stroke="#333333" enable-background="new    " points="62.076,12.429 44.932,24.141 
	28.164,12.429 "/>
<polyline opacity="0.5" fill="none" stroke="#333333" enable-background="new    " points="28.165,14.696 44.875,1.25 
	62.076,14.533 "/>
<ellipse opacity="0.5" fill="none" stroke="#433F40" enable-background="new    " cx="44.967" cy="12.429" rx="6.431" ry="6.724"/>
<ellipse opacity="0.5" fill="#433F40" stroke="#433F40" enable-background="new    " cx="45.2" cy="12.513" rx="3.216" ry="3.363"/>
<g opacity="0.5">
	<g>
		<g>
			<path fill="#333333" d="M14.948,103.697c3.261,0.149,4.554,2.854,7.24,4.141c2.068,0.99,4.833,0.569,6.595-0.843
				c1.113-0.892,2.049-1.966,3.284-2.701c1.984-1.18,4.532-0.593,6.23,0.768c2.066,1.655,3.344,3.157,6.171,3.286
				c2.447,0.111,4.139-1.422,5.806-2.967c1.625-1.507,3.569-1.986,5.736-1.444c1.523,0.382,2.63,1.762,3.762,2.754
				c1.908,1.675,4.49,2.056,6.856,1.197c2.893-1.049,3.952-4.034,7.369-4.19c0.643-0.029,0.645-1.029,0-1
				c-2.528,0.115-4.023,1.312-5.81,2.967c-1.626,1.506-3.572,1.986-5.74,1.444c-1.523-0.382-2.629-1.762-3.76-2.754
				c-1.909-1.675-4.492-2.057-6.856-1.197c-2.892,1.05-3.948,4.034-7.363,4.19c-3.169,0.145-4.683-2.913-7.246-4.141
				c-2.068-0.99-4.832-0.57-6.595,0.843c-1.113,0.892-2.049,1.966-3.284,2.701c-1.984,1.18-4.532,0.593-6.229-0.768
				c-2.065-1.654-3.341-3.157-6.166-3.286C14.303,102.668,14.306,103.668,14.948,103.697L14.948,103.697z"/>
		</g>
	</g>
</g>
<polyline opacity="0.5" fill="none" stroke="#333333" enable-background="new    " points="19.89,48.892 44.748,76.134 
	69.604,48.892 "/>
<polygon opacity="0.5" fill="none" stroke="#333333" points="44.844,98.164 40.144,95.481 40.058,90.072 44.671,87.346 
	49.37,90.025 49.456,95.438 "/>
<path opacity="0.5" fill="none" stroke="#333333" d="M24.87,89.25"/>
<path opacity="0.5" fill="none" stroke="#333333" d="M24.784,107.848"/>
<polyline opacity="0.5" fill="none" stroke="#333333" enable-background="new    " points="28.331,76.667 44.858,93.893 
	61.386,76.667 "/>
<polygon opacity="0.5" fill="none" stroke="#333333" points="28.844,83.164 24.144,80.481 24.058,75.072 28.671,72.346 
	33.37,75.025 33.456,80.438 "/>
<polygon opacity="0.5" fill="none" stroke="#333333" points="60.844,83.164 56.144,80.481 56.058,75.072 60.671,72.346 
	65.37,75.025 65.456,80.438 "/>
</svg>
