<?xml version="1.0" encoding="utf-8"?>
<!-- Generator: Adobe Illustrator 15.0.0, SVG Export Plug-In . SVG Version: 6.00 Build 0)  -->
<!DOCTYPE svg PUBLIC "-//W3C//DTD SVG 1.1//EN" "http://www.w3.org/Graphics/SVG/1.1/DTD/svg11.dtd">
<svg version="1.1" id="Layer_1" zoomAndPan="disable"
	 xmlns="http://www.w3.org/2000/svg" xmlns:xlink="http://www.w3.org/1999/xlink" x="0px" y="0px" width="59px" height="46px"
	 viewBox="0 0 59 46" enable-background="new 0 0 59 46" xml:space="preserve">
<path opacity="0.6" fill="none" stroke="#202422" stroke-width="0.25" stroke-linejoin="round" enable-background="new    " d="
	M5.035,26.301"/>
<path opacity="0.6" fill="none" stroke="#202422" stroke-width="0.25" stroke-linejoin="round" enable-background="new    " d="
	M30.859,44.666"/>
<path opacity="0.6" fill="none" stroke="#202422" stroke-width="0.25" stroke-linejoin="round" enable-background="new    " d="
	M56.602,26.414"/>
<polygon fill="none" stroke="#000000" stroke-width="0.8" points="4.289,0.458 55.312,0.5 29.766,43.32 "/>
<line fill="none" stroke="#202422" stroke-linejoin="round" x1="4.289" y1="0.458" x2="29.8" y2="18.673"/>
<line fill="none" stroke="#202422" stroke-linejoin="round" x1="29.8" y1="18.673" x2="55.312" y2="0.458"/>
<g opacity="0">
	<g>
		<line fill="none" stroke="#000000" stroke-width="0.5" stroke-linejoin="round" x1="6.669" y1="4.171" x2="15.621" y2="10.09"/>
		<line fill="none" stroke="#000000" stroke-width="0.5" stroke-linejoin="round" x1="8.769" y1="7.713" x2="17.039" y2="13.171"/>
		<line fill="none" stroke="#000000" stroke-width="0.5" stroke-linejoin="round" x1="10.869" y1="11.254" x2="18.457" y2="16.25"/>
		
			<line fill="none" stroke="#000000" stroke-width="0.5" stroke-linejoin="round" x1="12.969" y1="14.796" x2="19.875" y2="19.331"/>
		<line fill="none" stroke="#000000" stroke-width="0.5" stroke-linejoin="round" x1="15.07" y1="18.338" x2="21.293" y2="22.41"/>
		<line fill="none" stroke="#000000" stroke-width="0.5" stroke-linejoin="round" x1="17.17" y1="21.88" x2="22.711" y2="25.49"/>
		<line fill="none" stroke="#000000" stroke-width="0.5" stroke-linejoin="round" x1="19.271" y1="25.422" x2="24.128" y2="28.57"/>
		<line fill="none" stroke="#000000" stroke-width="0.5" stroke-linejoin="round" x1="21.371" y1="28.965" x2="25.546" y2="31.65"/>
		<line fill="none" stroke="#000000" stroke-width="0.5" stroke-linejoin="round" x1="23.471" y1="32.506" x2="26.964" y2="34.73"/>
		
			<line fill="none" stroke="#000000" stroke-width="0.5" stroke-linejoin="round" x1="25.572" y1="36.047" x2="28.382" y2="37.811"/>
		<line fill="none" stroke="#000000" stroke-width="0.5" stroke-linejoin="round" x1="27.672" y1="39.59" x2="29.8" y2="40.891"/>
	</g>
	<g>
		<line fill="none" stroke="#000000" stroke-width="0.5" stroke-linejoin="round" x1="52.801" y1="4.171" x2="43.848" y2="10.09"/>
		<line fill="none" stroke="#000000" stroke-width="0.5" stroke-linejoin="round" x1="50.701" y1="7.713" x2="42.43" y2="13.171"/>
		<line fill="none" stroke="#000000" stroke-width="0.5" stroke-linejoin="round" x1="48.6" y1="11.254" x2="41.012" y2="16.25"/>
		<line fill="none" stroke="#000000" stroke-width="0.5" stroke-linejoin="round" x1="46.5" y1="14.796" x2="39.594" y2="19.331"/>
		<line fill="none" stroke="#000000" stroke-width="0.5" stroke-linejoin="round" x1="44.4" y1="18.338" x2="38.176" y2="22.41"/>
		<line fill="none" stroke="#000000" stroke-width="0.5" stroke-linejoin="round" x1="42.299" y1="21.88" x2="36.758" y2="25.49"/>
		<line fill="none" stroke="#000000" stroke-width="0.5" stroke-linejoin="round" x1="40.199" y1="25.422" x2="35.34" y2="28.57"/>
		<line fill="none" stroke="#000000" stroke-width="0.5" stroke-linejoin="round" x1="38.098" y1="28.965" x2="33.924" y2="31.65"/>
		<line fill="none" stroke="#000000" stroke-width="0.5" stroke-linejoin="round" x1="35.998" y1="32.506" x2="32.506" y2="34.73"/>
		
			<line fill="none" stroke="#000000" stroke-width="0.5" stroke-linejoin="round" x1="33.898" y1="36.047" x2="31.088" y2="37.811"/>
		<line fill="none" stroke="#000000" stroke-width="0.5" stroke-linejoin="round" x1="31.797" y1="39.59" x2="29.669" y2="40.891"/>
	</g>
	<g>
		
			<line fill="none" stroke="#000000" stroke-width="0.5" stroke-linejoin="round" x1="25.316" y1="17.007" x2="29.503" y2="19.757"/>
		<line fill="none" stroke="#000000" stroke-width="0.5" stroke-linejoin="round" x1="25.892" y1="20.013" x2="29.24" y2="22.173"/>
		<line fill="none" stroke="#000000" stroke-width="0.5" stroke-linejoin="round" x1="26.469" y1="23.019" x2="28.978" y2="24.59"/>
		
			<line fill="none" stroke="#000000" stroke-width="0.5" stroke-linejoin="round" x1="27.046" y1="26.025" x2="28.715" y2="27.008"/>
	</g>
</g>
<polygon fill="#FFFFF8" stroke="#FFFFF8" stroke-width="0.5" stroke-linejoin="round" points="29.857,17.863 6.669,1.062 
	20.938,1.062 38.176,1.062 53.25,1.062 "/>
<polygon fill="#FFFFF8" stroke="#FFFFF8" stroke-width="0.5" stroke-linejoin="round" points="29.398,41.25 6.669,3.13 
	28.375,18.673 "/>
<polyline fill="#FFFFF8" stroke="#FFFFF8" stroke-width="0.5" stroke-linejoin="round" points="53,3.13 30.271,41.25 30.732,19.331 
	"/>
</svg>
