<?xml version="1.0" encoding="utf-8"?>
<!-- Generator: Adobe Illustrator 15.0.0, SVG Export Plug-In . SVG Version: 6.00 Build 0)  -->
<!DOCTYPE svg PUBLIC "-//W3C//DTD SVG 1.1//EN" "http://www.w3.org/Graphics/SVG/1.1/DTD/svg11.dtd">
<svg version="1.1" id="Layer_1" zoomAndPan="disable"
	 xmlns="http://www.w3.org/2000/svg" xmlns:xlink="http://www.w3.org/1999/xlink" x="0px" y="0px" width="59px" height="46px"
	 viewBox="0 0 59 46" enable-background="new 0 0 59 46" xml:space="preserve">
<path opacity="0.6" fill="none" stroke="#202422" stroke-width="0.25" stroke-linejoin="round" enable-background="new    " d="
	M4.746,27.635"/>
<path opacity="0.6" fill="none" stroke="#202422" stroke-width="0.25" stroke-linejoin="round" enable-background="new    " d="
	M30.57,46"/>
<path opacity="0.6" fill="none" stroke="#202422" stroke-width="0.25" stroke-linejoin="round" enable-background="new    " d="
	M56.312,27.748"/>
<polygon fill="none" stroke="#000000" stroke-width="0.8" points="4,1.792 55.023,1.834 29.478,44.654 "/>
<line fill="none" stroke="#202422" stroke-width="0.75" stroke-linejoin="round" x1="4" y1="1.792" x2="29.512" y2="20.008"/>
<line fill="none" stroke="#202422" stroke-width="0.75" stroke-linejoin="round" x1="29.512" y1="20.008" x2="55.023" y2="1.792"/>
<g opacity="0">
	<g>
		<line fill="none" stroke="#000000" stroke-width="0.5" stroke-linejoin="round" x1="6.381" y1="5.506" x2="15.332" y2="11.425"/>
		<line fill="none" stroke="#000000" stroke-width="0.5" stroke-linejoin="round" x1="8.48" y1="9.048" x2="16.75" y2="14.506"/>
		<line fill="none" stroke="#000000" stroke-width="0.5" stroke-linejoin="round" x1="10.58" y1="12.589" x2="18.168" y2="17.585"/>
		
			<line fill="none" stroke="#000000" stroke-width="0.5" stroke-linejoin="round" x1="12.681" y1="16.131" x2="19.587" y2="20.665"/>
		
			<line fill="none" stroke="#000000" stroke-width="0.5" stroke-linejoin="round" x1="14.781" y1="19.673" x2="21.005" y2="23.744"/>
		
			<line fill="none" stroke="#000000" stroke-width="0.5" stroke-linejoin="round" x1="16.882" y1="23.215" x2="22.423" y2="26.824"/>
		<line fill="none" stroke="#000000" stroke-width="0.5" stroke-linejoin="round" x1="18.982" y1="26.757" x2="23.84" y2="29.904"/>
		
			<line fill="none" stroke="#000000" stroke-width="0.5" stroke-linejoin="round" x1="21.082" y1="30.299" x2="25.258" y2="32.984"/>
		<line fill="none" stroke="#000000" stroke-width="0.5" stroke-linejoin="round" x1="23.183" y1="33.84" x2="26.676" y2="36.064"/>
		
			<line fill="none" stroke="#000000" stroke-width="0.5" stroke-linejoin="round" x1="25.283" y1="37.382" x2="28.094" y2="39.145"/>
		
			<line fill="none" stroke="#000000" stroke-width="0.5" stroke-linejoin="round" x1="27.384" y1="40.924" x2="29.512" y2="42.225"/>
	</g>
	<g>
		<line fill="none" stroke="#000000" stroke-width="0.5" stroke-linejoin="round" x1="52.514" y1="5.506" x2="43.561" y2="11.425"/>
		<line fill="none" stroke="#000000" stroke-width="0.5" stroke-linejoin="round" x1="50.412" y1="9.048" x2="42.143" y2="14.506"/>
		
			<line fill="none" stroke="#000000" stroke-width="0.5" stroke-linejoin="round" x1="48.312" y1="12.589" x2="40.725" y2="17.585"/>
		
			<line fill="none" stroke="#000000" stroke-width="0.5" stroke-linejoin="round" x1="46.212" y1="16.131" x2="39.307" y2="20.665"/>
		
			<line fill="none" stroke="#000000" stroke-width="0.5" stroke-linejoin="round" x1="44.111" y1="19.673" x2="37.889" y2="23.744"/>
		
			<line fill="none" stroke="#000000" stroke-width="0.5" stroke-linejoin="round" x1="42.012" y1="23.215" x2="36.471" y2="26.824"/>
		<line fill="none" stroke="#000000" stroke-width="0.5" stroke-linejoin="round" x1="39.91" y1="26.757" x2="35.052" y2="29.904"/>
		
			<line fill="none" stroke="#000000" stroke-width="0.5" stroke-linejoin="round" x1="37.811" y1="30.299" x2="33.635" y2="32.984"/>
		<line fill="none" stroke="#000000" stroke-width="0.5" stroke-linejoin="round" x1="35.709" y1="33.84" x2="32.217" y2="36.064"/>
		
			<line fill="none" stroke="#000000" stroke-width="0.5" stroke-linejoin="round" x1="33.609" y1="37.382" x2="30.799" y2="39.145"/>
		
			<line fill="none" stroke="#000000" stroke-width="0.5" stroke-linejoin="round" x1="31.509" y1="40.924" x2="29.381" y2="42.225"/>
	</g>
	<g>
		
			<line fill="none" stroke="#000000" stroke-width="0.5" stroke-linejoin="round" x1="25.027" y1="18.342" x2="29.215" y2="21.092"/>
		
			<line fill="none" stroke="#000000" stroke-width="0.5" stroke-linejoin="round" x1="25.604" y1="21.348" x2="28.951" y2="23.508"/>
		
			<line fill="none" stroke="#000000" stroke-width="0.5" stroke-linejoin="round" x1="26.181" y1="24.354" x2="28.689" y2="25.925"/>
		
			<line fill="none" stroke="#000000" stroke-width="0.5" stroke-linejoin="round" x1="26.758" y1="27.359" x2="28.427" y2="28.342"/>
	</g>
	<line fill="none" stroke="#000000" stroke-width="0.5" stroke-linejoin="round" x1="51.775" y1="3.115" x2="49.012" y2="4.049"/>
</g>
<polygon fill="#FFFFF8" stroke="#FFFFF8" stroke-width="0.5" stroke-linejoin="round" points="29.568,19.198 20.802,12.674 
	20.535,7.801 38.052,7.798 38.052,12.84 "/>
</svg>
