<?xml version="1.0" encoding="utf-8"?>
<!-- Generator: Adobe Illustrator 15.0.0, SVG Export Plug-In . SVG Version: 6.00 Build 0)  -->
<!DOCTYPE svg PUBLIC "-//W3C//DTD SVG 1.1//EN" "http://www.w3.org/Graphics/SVG/1.1/DTD/svg11.dtd">
<svg version="1.1" id="Layer_1" zoomAndPan="disable"
	 xmlns="http://www.w3.org/2000/svg" xmlns:xlink="http://www.w3.org/1999/xlink" x="0px" y="0px" width="40px" height="144px"
	 viewBox="27.753 -2.578 40 144" enable-background="new 27.753 -2.578 40 144" xml:space="preserve">
<polygon opacity="0.6" fill="none" stroke="#202422" stroke-width="0.5" stroke-linejoin="round" enable-background="new    " points="
	62.236,102.087 56.021,108.896 40.485,108.896 34.27,102.087 "/>
<path opacity="0.6" fill="none" stroke="#202422" stroke-width="0.5" stroke-linejoin="round" enable-background="new    " d="
	M51.944,57.574"/>
<path opacity="0.6" fill="none" stroke="#202422" stroke-width="0.5" stroke-linejoin="round" enable-background="new    " d="
	M44.834,57.669"/>
<path opacity="0.6" fill="none" stroke="#202422" stroke-width="0.5" stroke-linejoin="round" enable-background="new    " d="
	M42.722,64.771"/>
<path opacity="0.6" fill="none" stroke="#202422" stroke-width="0.5" stroke-linejoin="round" enable-background="new    " d="
	M48.527,69.066"/>
<path opacity="0.6" fill="none" stroke="#202422" stroke-width="0.5" stroke-linejoin="round" enable-background="new    " d="
	M54.222,64.619"/>
<ellipse opacity="0.6" fill="none" stroke="#202422" stroke-width="0.5" stroke-linejoin="round" enable-background="new    " cx="48.527" cy="61.015" rx="8.038" ry="8.404"/>
<ellipse opacity="0.6" fill="none" stroke="#202422" stroke-width="0.5" stroke-linejoin="round" enable-background="new    " cx="48.697" cy="61.179" rx="4.145" ry="4.145"/>
<polyline opacity="0.6" fill="none" stroke="#202422" stroke-width="0.5" stroke-linejoin="round" enable-background="new    " points="
	40.661,109.09 48.253,117.41 55.849,109.086 "/>
<polygon opacity="0.6" fill="none" stroke="#202422" stroke-width="0.5" stroke-linejoin="round" enable-background="new    " points="
	48.354,23.791 43.946,21.276 43.866,16.206 48.192,13.649 52.596,16.161 52.677,21.237 "/>
<polygon opacity="0.6" fill="none" stroke="#202422" stroke-width="0.5" stroke-linejoin="round" enable-background="new    " points="
	48.565,35.812 38.926,29.523 38.749,23.135 48.582,30.392 58.021,23.135 58.021,29.424 "/>
<polygon opacity="0.6" fill="none" stroke="#202422" stroke-width="0.5" stroke-linejoin="round" enable-background="new    " points="
	48.565,46.874 38.926,40.586 38.749,34.197 48.584,41.454 58.021,34.197 58.021,40.486 "/>
<polyline opacity="0.6" fill="none" stroke="#202422" stroke-width="0.5" stroke-linejoin="round" enable-background="new    " points="
	57.783,116.043 47.971,122.745 38.436,116.084 "/>
<polyline opacity="0.6" fill="none" stroke="#202422" stroke-width="0.5" stroke-linejoin="round" enable-background="new    " points="
	57.783,122.293 47.971,128.995 38.436,122.334 "/>
<path opacity="0.6" fill="none" stroke="#202422" stroke-width="0.5" stroke-linejoin="round" enable-background="new    " d="
	M54.878,95.64"/>
<line opacity="0.6" fill="none" stroke="#202422" stroke-width="0.5" stroke-linejoin="round" enable-background="new    " x1="40.198" y1="78.765" x2="48.253" y2="73.782"/>
<line opacity="0.6" fill="none" stroke="#202422" stroke-width="0.5" stroke-linejoin="round" enable-background="new    " x1="48.253" y1="101.026" x2="56.308" y2="96.042"/>
<line opacity="0.6" fill="none" stroke="#202422" stroke-width="0.5" stroke-linejoin="round" enable-background="new    " x1="40.198" y1="78.765" x2="56.308" y2="78.782"/>
<line opacity="0.6" fill="none" stroke="#202422" stroke-width="0.5" stroke-linejoin="round" enable-background="new    " x1="40.198" y1="96.033" x2="56.308" y2="96.05"/>
<line opacity="0.6" fill="none" stroke="#202422" stroke-width="0.5" stroke-linejoin="round" enable-background="new    " x1="56.308" y1="78.782" x2="40.198" y2="87.84"/>
<line opacity="0.6" fill="none" stroke="#202422" stroke-width="0.5" stroke-linejoin="round" enable-background="new    " x1="40.198" y1="87.84" x2="56.308" y2="87.84"/>
<line opacity="0.6" fill="none" stroke="#202422" stroke-width="0.5" stroke-linejoin="round" enable-background="new    " x1="56.308" y1="87.84" x2="40.198" y2="96.033"/>
<path opacity="0.6" fill="none" stroke="#202422" stroke-width="0.5" stroke-linejoin="round" enable-background="new    " d="
	M56.057,132.276"/>
<path opacity="0.6" fill="none" stroke="#202422" stroke-width="0.5" stroke-linejoin="round" enable-background="new    " d="
	M40.521,132.276"/>
<polygon opacity="0.6" fill="none" stroke="#202422" stroke-width="0.5" stroke-linejoin="round" points="65.753,61.179 
	48.591,73.347 31.376,61.104 48.54,48.937 "/>
<circle opacity="0.6" fill="none" stroke="#202422" stroke-width="0.5" stroke-linejoin="round" stroke-miterlimit="10" cx="48.342" cy="137.185" r="3.906"/>
</svg>
