<?xml version="1.0" encoding="utf-8"?>
<!-- Generator: Adobe Illustrator 15.0.0, SVG Export Plug-In . SVG Version: 6.00 Build 0)  -->
<!DOCTYPE svg PUBLIC "-//W3C//DTD SVG 1.1//EN" "http://www.w3.org/Graphics/SVG/1.1/DTD/svg11.dtd">
<svg version="1.1" id="Layer_1" zoomAndPan="disable"
	 xmlns="http://www.w3.org/2000/svg" xmlns:xlink="http://www.w3.org/1999/xlink" x="0px" y="0px" width="40px" height="144px"
	 viewBox="0 0 40 144" enable-background="new 0 0 40 144" xml:space="preserve">
<polygon opacity="0.6" fill="none" stroke="#202422" stroke-width="0.5" stroke-linejoin="round" enable-background="new    " points="
	34.483,103.087 28.269,109.896 12.731,109.896 6.517,103.087 "/>
<path opacity="0.6" fill="none" stroke="#202422" stroke-width="0.5" stroke-linejoin="round" enable-background="new    " d="
	M24.19,58.574"/>
<path opacity="0.6" fill="none" stroke="#202422" stroke-width="0.5" stroke-linejoin="round" enable-background="new    " d="
	M17.081,58.669"/>
<path opacity="0.6" fill="none" stroke="#202422" stroke-width="0.5" stroke-linejoin="round" enable-background="new    " d="
	M14.97,65.771"/>
<path opacity="0.6" fill="none" stroke="#202422" stroke-width="0.5" stroke-linejoin="round" enable-background="new    " d="
	M20.774,70.066"/>
<path opacity="0.6" fill="none" stroke="#202422" stroke-width="0.5" stroke-linejoin="round" enable-background="new    " d="
	M26.47,65.619"/>
<ellipse opacity="0.6" fill="none" stroke="#202422" stroke-width="0.5" stroke-linejoin="round" enable-background="new    " cx="20.774" cy="62.015" rx="8.037" ry="8.404"/>
<ellipse opacity="0.6" fill="none" stroke="#202422" stroke-width="0.5" stroke-linejoin="round" enable-background="new    " cx="20.944" cy="62.179" rx="4.145" ry="4.145"/>
<polyline opacity="0.6" fill="none" stroke="#202422" stroke-width="0.5" stroke-linejoin="round" enable-background="new    " points="
	12.908,110.09 20.5,118.41 28.097,110.086 "/>
<polygon opacity="0.6" fill="none" stroke="#202422" stroke-width="0.5" stroke-linejoin="round" enable-background="new    " points="
	20.593,24.382 15.744,21.616 15.657,16.04 20.415,13.226 25.26,15.99 25.349,21.573 "/>
<path opacity="0.6" fill="none" stroke="#202422" stroke-width="0.5" stroke-linejoin="round" enable-background="new    " d="
	M31.228,21.46"/>
<path opacity="0.6" fill="none" stroke="#202422" stroke-width="0.5" stroke-linejoin="round" enable-background="new    " d="
	M26.904,24.785"/>
<polyline opacity="0.6" fill="none" stroke="#202422" stroke-width="0.5" stroke-linejoin="round" enable-background="new    " points="
	20.825,35.406 6.87,27.087 6.87,10.175 11.545,13.681 11.622,24.382 20.845,29.444 "/>
<polygon opacity="0.6" fill="none" stroke="#202422" stroke-width="0.5" stroke-linejoin="round" enable-background="new    " points="
	20.825,47.574 10.223,40.657 10.028,33.629 20.847,41.612 31.228,33.629 31.228,40.547 "/>
<polyline opacity="0.6" fill="none" stroke="#202422" stroke-width="0.5" stroke-linejoin="round" enable-background="new    " points="
	30.03,117.043 20.218,123.745 10.683,117.084 "/>
<polyline opacity="0.6" fill="none" stroke="#202422" stroke-width="0.5" stroke-linejoin="round" enable-background="new    " points="
	30.03,123.293 20.218,129.995 10.683,123.334 "/>
<path opacity="0.6" fill="none" stroke="#202422" stroke-width="0.5" stroke-linejoin="round" enable-background="new    " d="
	M27.125,96.641"/>
<line opacity="0.6" fill="none" stroke="#202422" stroke-width="0.5" stroke-linejoin="round" enable-background="new    " x1="12.445" y1="79.766" x2="20.5" y2="74.782"/>
<line opacity="0.6" fill="none" stroke="#202422" stroke-width="0.5" stroke-linejoin="round" enable-background="new    " x1="20.5" y1="102.025" x2="28.556" y2="97.042"/>
<line opacity="0.6" fill="none" stroke="#202422" stroke-width="0.5" stroke-linejoin="round" enable-background="new    " x1="12.445" y1="79.766" x2="28.556" y2="79.782"/>
<line opacity="0.6" fill="none" stroke="#202422" stroke-width="0.5" stroke-linejoin="round" enable-background="new    " x1="12.445" y1="97.033" x2="28.556" y2="97.05"/>
<line opacity="0.6" fill="none" stroke="#202422" stroke-width="0.5" stroke-linejoin="round" enable-background="new    " x1="28.556" y1="79.782" x2="12.445" y2="88.84"/>
<line opacity="0.6" fill="none" stroke="#202422" stroke-width="0.5" stroke-linejoin="round" enable-background="new    " x1="12.445" y1="88.84" x2="28.556" y2="88.84"/>
<line opacity="0.6" fill="none" stroke="#202422" stroke-width="0.5" stroke-linejoin="round" enable-background="new    " x1="28.556" y1="88.84" x2="12.445" y2="97.033"/>
<path opacity="0.6" fill="none" stroke="#202422" stroke-width="0.5" stroke-linejoin="round" enable-background="new    " d="
	M28.304,133.275"/>
<path opacity="0.6" fill="none" stroke="#202422" stroke-width="0.5" stroke-linejoin="round" enable-background="new    " d="
	M12.769,133.275"/>
<polygon opacity="0.6" fill="none" stroke="#202422" stroke-width="0.5" stroke-linejoin="round" enable-background="new    " points="
	38,62.179 20.838,74.348 3.623,62.104 20.787,49.937 "/>
<circle opacity="0.6" fill="none" stroke="#202422" stroke-width="0.5" stroke-linejoin="round" stroke-miterlimit="10" enable-background="new    " cx="20.589" cy="138.185" r="3.906"/>
<polyline opacity="0.6" fill="none" stroke="#202422" stroke-width="0.5" stroke-linejoin="round" enable-background="new    " points="
	20.503,29.444 29.725,24.382 29.803,13.681 34.478,10.175 34.478,27.087 20.522,35.406 "/>
<line opacity="0.6" fill="none" stroke="#202422" stroke-width="0.5" stroke-linejoin="round" x1="15.657" y1="16.04" x2="20.629" y2="18.804"/>
<line opacity="0.6" fill="none" stroke="#202422" stroke-width="0.5" stroke-linejoin="round" x1="25.26" y1="15.99" x2="20.207" y2="18.804"/>
</svg>
