<?xml version="1.0" encoding="utf-8"?>
<!-- Generator: Adobe Illustrator 15.0.0, SVG Export Plug-In . SVG Version: 6.00 Build 0)  -->
<!DOCTYPE svg PUBLIC "-//W3C//DTD SVG 1.1//EN" "http://www.w3.org/Graphics/SVG/1.1/DTD/svg11.dtd">
<svg version="1.1" id="Layer_1" zoomAndPan="disable"
	 xmlns="http://www.w3.org/2000/svg" xmlns:xlink="http://www.w3.org/1999/xlink" x="0px" y="0px" width="40px" height="144px"
	 viewBox="27.753 -2.578 40 144" enable-background="new 27.753 -2.578 40 144" xml:space="preserve">
<polygon opacity="0.4" fill="none" stroke="#202422" stroke-width="0.5" enable-background="new    " points="62.236,102.625 
	56.021,109.435 40.485,109.435 34.27,102.625 "/>
<path opacity="0.4" fill="none" stroke="#202422" stroke-width="0.5" enable-background="new    " d="M51.944,58.112"/>
<path opacity="0.4" fill="none" stroke="#202422" stroke-width="0.5" enable-background="new    " d="M44.834,58.207"/>
<path opacity="0.4" fill="none" stroke="#202422" stroke-width="0.5" enable-background="new    " d="M42.722,65.309"/>
<path opacity="0.4" fill="none" stroke="#202422" stroke-width="0.5" enable-background="new    " d="M48.527,69.604"/>
<path opacity="0.4" fill="none" stroke="#202422" stroke-width="0.5" enable-background="new    " d="M54.222,65.157"/>
<ellipse opacity="0.4" fill="none" stroke="#202422" stroke-width="0.5" enable-background="new    " cx="48.527" cy="61.553" rx="8.038" ry="8.404"/>
<ellipse opacity="0.4" fill="none" stroke="#202422" stroke-width="0.5" enable-background="new    " cx="48.697" cy="61.717" rx="4.145" ry="4.145"/>
<polyline opacity="0.4" fill="none" stroke="#202422" stroke-width="0.5" enable-background="new    " points="40.661,109.628 
	48.253,117.948 55.849,109.624 "/>
<polygon opacity="0.4" fill="none" stroke="#202422" stroke-width="0.5" enable-background="new    " points="48.36,30.426 
	44.835,28.414 44.771,24.357 48.231,22.312 51.754,24.322 51.819,28.383 "/>
<polygon opacity="0.4" fill="none" stroke="#202422" stroke-width="0.5" enable-background="new    " points="48.501,39.935 
	42.332,35.743 42.218,31.484 48.511,36.322 54.553,31.484 54.553,35.676 "/>
<polygon opacity="0.4" fill="none" stroke="#202422" stroke-width="0.5" enable-background="new    " points="48.501,47.31 
	42.332,43.118 42.218,38.859 48.513,43.697 54.553,38.859 54.553,43.051 "/>
<polyline opacity="0.4" fill="none" stroke="#202422" stroke-width="0.5" enable-background="new    " points="55.849,119.119 
	47.999,124.48 40.37,119.151 "/>
<polyline opacity="0.4" fill="none" stroke="#202422" stroke-width="0.5" enable-background="new    " points="55.849,124.119 
	47.999,129.48 40.37,124.151 "/>
<path opacity="0.4" fill="none" stroke="#202422" stroke-width="0.5" enable-background="new    " d="M54.879,96.496"/>
<line opacity="0.4" fill="none" stroke="#202422" stroke-width="0.5" enable-background="new    " x1="40.199" y1="79.621" x2="48.253" y2="74.639"/>
<line opacity="0.4" fill="none" stroke="#202422" stroke-width="0.5" enable-background="new    " x1="48.253" y1="101.883" x2="56.308" y2="96.898"/>
<line opacity="0.4" fill="none" stroke="#202422" stroke-width="0.5" enable-background="new    " x1="40.199" y1="79.621" x2="56.308" y2="79.639"/>
<line opacity="0.4" fill="none" stroke="#202422" stroke-width="0.5" enable-background="new    " x1="40.199" y1="96.89" x2="56.308" y2="96.906"/>
<line opacity="0.4" fill="none" stroke="#202422" stroke-width="0.5" enable-background="new    " x1="56.308" y1="79.639" x2="40.199" y2="88.696"/>
<line opacity="0.4" fill="none" stroke="#202422" stroke-width="0.5" enable-background="new    " x1="40.199" y1="88.696" x2="56.308" y2="88.696"/>
<line opacity="0.4" fill="none" stroke="#202422" stroke-width="0.5" enable-background="new    " x1="56.308" y1="88.696" x2="40.199" y2="96.89"/>
<path opacity="0.4" fill="none" stroke="#202422" stroke-width="0.5" enable-background="new    " d="M54.468,132.105"/>
<path opacity="0.4" fill="none" stroke="#202422" stroke-width="0.5" enable-background="new    " d="M42.039,132.105"/>
<polygon opacity="0.4" fill="none" stroke="#202422" stroke-width="0.5" points="65.753,61.717 48.591,73.885 31.376,61.643 
	48.54,49.475 "/>
<circle opacity="0.4" fill="none" stroke="#202422" stroke-width="0.5" stroke-miterlimit="10" cx="48.296" cy="136.297" r="3.125"/>
</svg>
