<?xml version="1.0" encoding="utf-8"?>
<!-- Generator: Adobe Illustrator 15.0.0, SVG Export Plug-In . SVG Version: 6.00 Build 0)  -->
<!DOCTYPE svg PUBLIC "-//W3C//DTD SVG 1.1//EN" "http://www.w3.org/Graphics/SVG/1.1/DTD/svg11.dtd">
<svg version="1.1" id="Layer_1" zoomAndPan="disable"
	 xmlns="http://www.w3.org/2000/svg" xmlns:xlink="http://www.w3.org/1999/xlink" x="0px" y="0px" width="89.494px" height="115px"
	 viewBox="0 0 89.494 115" enable-background="new 0 0 89.494 115" xml:space="preserve">
<polygon opacity="0.5" fill="none" stroke="#333333" enable-background="new    " points="89.494,27.097 69.604,48.892 
	19.89,48.892 0,27.097 "/>
<g opacity="0.5">
	<g>
		<g>
			<path fill="#333333" d="M19.784,109.35c2.941,0.179,3.863,3.097,6.278,4.271c1.749,0.852,3.755,0.271,5.19-0.865
				c0.886-0.7,1.541-1.686,2.369-2.453c1.638-1.519,3.977-1.065,5.482,0.33c1.753,1.624,2.703,3.212,5.284,3.368
				c2.19,0.133,3.622-1.554,4.944-3.018c1.355-1.502,3.228-2.092,5.125-1.17c1.099,0.534,1.88,1.755,2.708,2.612
				c1.446,1.498,3.479,1.899,5.428,1.246c2.675-0.896,3.276-4.132,6.405-4.321c0.641-0.039,0.645-1.039,0-1
				c-2.284,0.139-3.481,1.396-4.947,3.018c-1.357,1.501-3.23,2.092-5.128,1.17c-1.099-0.534-1.88-1.756-2.708-2.612
				c-1.445-1.497-3.479-1.899-5.428-1.246c-2.673,0.896-3.272,4.132-6.399,4.321c-2.783,0.169-4.045-3.183-6.283-4.271
				c-1.75-0.851-3.755-0.271-5.19,0.865c-0.886,0.7-1.54,1.686-2.369,2.453c-1.638,1.519-3.976,1.065-5.481-0.33
				c-1.751-1.623-2.7-3.212-5.279-3.368C19.14,108.311,19.144,109.311,19.784,109.35L19.784,109.35z"/>
		</g>
	</g>
</g>
<path opacity="0.5" fill="none" stroke="#333333" enable-background="new    " d="M47.7,9.677"/>
<path opacity="0.5" fill="none" stroke="#333333" enable-background="new    " d="M42.012,9.752"/>
<path opacity="0.5" fill="none" stroke="#333333" enable-background="new    " d="M40.322,15.434"/>
<path opacity="0.5" fill="none" stroke="#333333" enable-background="new    " d="M44.967,18.87"/>
<path opacity="0.5" fill="none" stroke="#333333" enable-background="new    " d="M49.522,15.313"/>
<polyline opacity="0.5" fill="none" stroke="#333333" enable-background="new    " points="62.076,12.429 44.932,24.141 
	28.164,12.429 "/>
<polyline opacity="0.5" fill="none" stroke="#333333" enable-background="new    " points="28.165,14.696 44.875,1.25 
	62.076,14.533 "/>
<ellipse opacity="0.5" fill="none" stroke="#433F40" enable-background="new    " cx="44.967" cy="12.429" rx="6.431" ry="6.724"/>
<ellipse opacity="0.5" fill="#433F40" stroke="#433F40" enable-background="new    " cx="45.2" cy="12.513" rx="3.216" ry="3.363"/>
<g opacity="0.5">
	<g>
		<g>
			<path fill="#333333" d="M19.784,103.697c2.941,0.179,3.863,3.097,6.278,4.271c1.749,0.852,3.755,0.271,5.19-0.865
				c0.886-0.7,1.541-1.686,2.369-2.453c1.638-1.519,3.977-1.065,5.482,0.33c1.753,1.624,2.703,3.212,5.284,3.368
				c2.19,0.133,3.622-1.554,4.944-3.018c1.355-1.502,3.228-2.092,5.125-1.17c1.099,0.534,1.88,1.755,2.708,2.612
				c1.446,1.498,3.479,1.899,5.428,1.246c2.675-0.896,3.276-4.132,6.405-4.321c0.641-0.039,0.645-1.039,0-1
				c-2.284,0.139-3.481,1.396-4.947,3.018c-1.357,1.501-3.23,2.092-5.128,1.17c-1.099-0.534-1.88-1.756-2.708-2.612
				c-1.445-1.497-3.479-1.899-5.428-1.246c-2.673,0.896-3.272,4.132-6.399,4.321c-2.783,0.169-4.045-3.183-6.283-4.271
				c-1.75-0.851-3.755-0.271-5.19,0.865c-0.886,0.7-1.54,1.686-2.369,2.453c-1.638,1.519-3.976,1.065-5.481-0.33
				c-1.751-1.623-2.7-3.212-5.279-3.368C19.14,102.658,19.144,103.658,19.784,103.697L19.784,103.697z"/>
		</g>
	</g>
</g>
<polyline opacity="0.5" fill="none" stroke="#333333" enable-background="new    " points="19.89,48.892 44.748,76.134 
	69.604,48.892 "/>
<polygon opacity="0.5" fill="none" stroke="#333333" points="44.844,101.164 40.144,98.481 40.058,93.072 44.671,90.346 
	49.37,93.025 49.456,98.438 "/>
<path opacity="0.5" fill="none" stroke="#333333" d="M24.87,92.25"/>
<path opacity="0.5" fill="none" stroke="#333333" d="M32.982,107.848"/>
<polyline opacity="0.5" fill="none" stroke="#333333" enable-background="new    " points="28.331,79.667 44.858,96.893 
	61.386,79.667 "/>
<polygon opacity="0.5" fill="none" stroke="#333333" points="28.844,86.164 24.144,83.481 24.058,78.072 28.671,75.346 
	33.37,78.025 33.456,83.438 "/>
<polygon opacity="0.5" fill="none" stroke="#333333" points="60.844,86.164 56.144,83.481 56.058,78.072 60.671,75.346 
	65.37,78.025 65.456,83.438 "/>
<g opacity="0.5">
	<path fill="none" stroke="#222420" d="M33.914,78.667c3.609,0,3.609,4,7.219,4c3.612,0,3.612-4,7.224-4s3.612,4,7.224,4"/>
</g>
</svg>
