<?xml version="1.0" encoding="utf-8"?>
<!-- Generator: Adobe Illustrator 15.0.0, SVG Export Plug-In . SVG Version: 6.00 Build 0)  -->
<!DOCTYPE svg PUBLIC "-//W3C//DTD SVG 1.1//EN" "http://www.w3.org/Graphics/SVG/1.1/DTD/svg11.dtd">
<svg version="1.1" id="Layer_1" zoomAndPan="disable"
	 xmlns="http://www.w3.org/2000/svg" xmlns:xlink="http://www.w3.org/1999/xlink" x="0px" y="0px" width="1800px" height="900px"
	 viewBox="0 0 1800 900" enable-background="new 0 0 1800 900" xml:space="preserve">
<line opacity="0.1" fill="none" stroke="#333333" stroke-width="0.75" enable-background="new    " x1="901" y1="0" x2="901" y2="900"/>
<line opacity="0.1" fill="none" stroke="#333333" stroke-width="0.75" enable-background="new    " x1="1" y1="0" x2="901" y2="900"/>
<line opacity="0.1" fill="none" stroke="#333333" stroke-width="0.75" enable-background="new    " x1="101" y1="0" x2="901" y2="800"/>
<line opacity="0.1" fill="none" stroke="#333333" stroke-width="0.75" enable-background="new    " x1="201" y1="0" x2="901" y2="700"/>
<line opacity="0.1" fill="none" stroke="#333333" stroke-width="0.75" enable-background="new    " x1="301" y1="0" x2="901" y2="600"/>
<line opacity="0.1" fill="none" stroke="#333333" stroke-width="0.75" enable-background="new    " x1="401" y1="0" x2="901" y2="500"/>
<line opacity="0.1" fill="none" stroke="#333333" stroke-width="0.75" enable-background="new    " x1="301" y1="900" x2="601" y2="600"/>
<line opacity="0.1" fill="none" stroke="#333333" stroke-width="0.75" enable-background="new    " x1="401" y1="900" x2="701" y2="600"/>
<line opacity="0.1" fill="none" stroke="#333333" stroke-width="0.75" enable-background="new    " x1="501" y1="900" x2="801" y2="600"/>
<line opacity="0.1" fill="none" stroke="#333333" stroke-width="0.75" enable-background="new    " x1="601" y1="900" x2="901" y2="600"/>
<line opacity="0.1" fill="none" stroke="#333333" stroke-width="0.75" enable-background="new    " x1="701" y1="900" x2="901" y2="700"/>
<line opacity="0.1" fill="none" stroke="#333333" stroke-width="0.75" enable-background="new    " x1="801" y1="900" x2="901" y2="800"/>
<line opacity="0.1" fill="none" stroke="#333333" stroke-width="0.75" enable-background="new    " x1="1801" y1="0" x2="901" y2="900"/>
<line opacity="0.1" fill="none" stroke="#333333" stroke-width="0.75" enable-background="new    " x1="1701" y1="0" x2="901" y2="800"/>
<line opacity="0.1" fill="none" stroke="#333333" stroke-width="0.75" enable-background="new    " x1="1601" y1="0" x2="901" y2="700"/>
<line opacity="0.1" fill="none" stroke="#333333" stroke-width="0.75" enable-background="new    " x1="1501" y1="0" x2="901" y2="600"/>
<line opacity="0.1" fill="none" stroke="#333333" stroke-width="0.75" enable-background="new    " x1="1401" y1="0" x2="901" y2="500"/>
<line opacity="0.1" fill="none" stroke="#333333" stroke-width="0.75" enable-background="new    " x1="1501" y1="900" x2="1201" y2="600"/>
<line opacity="0.1" fill="none" stroke="#333333" stroke-width="0.75" enable-background="new    " x1="1401" y1="900" x2="1101" y2="600"/>
<line opacity="0.1" fill="none" stroke="#333333" stroke-width="0.75" enable-background="new    " x1="1301" y1="900" x2="1001" y2="600"/>
<line opacity="0.1" fill="none" stroke="#333333" stroke-width="0.75" enable-background="new    " x1="1201" y1="900" x2="901" y2="600"/>
<line opacity="0.1" fill="none" stroke="#333333" stroke-width="0.75" enable-background="new    " x1="1101" y1="900" x2="901" y2="700"/>
<line opacity="0.1" fill="none" stroke="#333333" stroke-width="0.75" enable-background="new    " x1="1001" y1="900" x2="901" y2="800"/>
<polygon opacity="0.1" fill="#FFFFFF" stroke="#333333" stroke-width="0.75" enable-background="new    " points="301,900 601,600 
	651,650 701,600 751,650 801,600 851,650 901,600 901,900 901,600 951,650 1001,600 1051,650 1101,600 1151,650 1201,600 1501,900 
	"/>
<polygon opacity="0.1" fill="#FFFFFF" stroke="#333333" stroke-width="0.75" enable-background="new    " points="351,950 651,650 
	701,700 751,650 801,700 851,650 901,700 901,900 901,700 951,650 1001,700 1051,650 1101,700 1151,650 1451,950 "/>
<polygon opacity="0.1" fill="#FFFFFF" stroke="#333333" stroke-width="0.75" enable-background="new    " points="401,1000 701,700 
	751,750 801,700 851,750 901,700 901,900 901,700 951,750 1001,700 1051,750 1101,700 1301,900 "/>
<polygon opacity="0.1" fill="#FFFFFF" stroke="#333333" stroke-width="0.75" enable-background="new    " points="451,1050 751,750 
	801,800 851,750 901,800 901,900 901,800 951,750 1001,800 1051,750 1351,1050 "/>
<polygon opacity="0.1" fill="#FFFFFF" stroke="#333333" stroke-width="0.75" enable-background="new    " points="501,1100 801,800 
	851,850 901,800 901,900 901,800 951,850 1001,800 1301,1100 "/>
<polygon opacity="0.1" fill="#FFFFFF" stroke="#333333" stroke-width="0.75" enable-background="new    " points="551,1150 851,850 
	901,900 951,850 1251,1150 "/>
</svg>
