<?xml version="1.0" encoding="utf-8"?>
<!-- Generator: Adobe Illustrator 15.0.0, SVG Export Plug-In . SVG Version: 6.00 Build 0)  -->
<!DOCTYPE svg PUBLIC "-//W3C//DTD SVG 1.1//EN" "http://www.w3.org/Graphics/SVG/1.1/DTD/svg11.dtd">
<svg version="1.1" id="Layer_1" xmlns="http://www.w3.org/2000/svg" xmlns:xlink="http://www.w3.org/1999/xlink" x="0px" y="0px"
	 width="310.008px" height="516.154px" viewBox="30.604 -42.612 310.008 516.154"
	 enable-background="new 30.604 -42.612 310.008 516.154" xml:space="preserve">
<g id="KlMAAR.tif">
	<g>
		<path fill-rule="evenodd" clip-rule="evenodd" d="M242.5-13.5c2.939,0.656,6.813,3.687,5,6
			C244.561-8.156,240.687-11.187,242.5-13.5z"/>
		<path fill-rule="evenodd" clip-rule="evenodd" d="M257.5-13.5c0.112,3.779-1.957,5.377-5,6
			C250.278-10.222,253.623-13.782,257.5-13.5z"/>
		<path fill-rule="evenodd" clip-rule="evenodd" d="M245.5-4.5c1.313,0.354,1.573,1.761,3,2c-0.677,2.323-3.323,2.677-4,5
			c-1.313-0.354-1.573-1.761-3-2C242.177-1.823,244.823-2.177,245.5-4.5z"/>
		<path fill-rule="evenodd" clip-rule="evenodd" d="M257.5,1.5c-2.313,1.813-5.344-2.061-6-5C253.813-5.313,256.844-1.439,257.5,1.5
			z"/>
		<path fill-rule="evenodd" clip-rule="evenodd" d="M118.5,92.5c-3.779,0.112-5.377-1.957-6-5
			C114.813,85.687,117.843,89.561,118.5,92.5z"/>
		<path fill-rule="evenodd" clip-rule="evenodd" d="M128.5,87.5c-0.623,3.043-2.221,5.112-6,5
			C122.218,88.623,125.778,85.278,128.5,87.5z"/>
		<path fill-rule="evenodd" clip-rule="evenodd" d="M118.5,97.5c-0.441,2.892-2.108,4.559-5,5
			C110.834,99.914,115.914,94.834,118.5,97.5z"/>
		<path fill-rule="evenodd" clip-rule="evenodd" d="M122.5,96.5c2.939,0.656,6.813,3.687,5,6
			C124.457,101.877,122.388,100.279,122.5,96.5z"/>
		<path fill-rule="evenodd" clip-rule="evenodd" d="M94.5,143.5c-3.779,0.112-5.377-1.957-6-5
			C90.813,136.687,93.843,140.561,94.5,143.5z"/>
		<path fill-rule="evenodd" clip-rule="evenodd" d="M104.5,138.5c-1.236,2.431-2.029,5.304-6,5
			C98.218,139.623,101.778,136.278,104.5,138.5z"/>
		<path fill-rule="evenodd" clip-rule="evenodd" d="M94.5,148.5c-0.921,2.412-2.588,4.079-5,5
			C86.834,150.914,91.914,145.834,94.5,148.5z"/>
		<path fill-rule="evenodd" clip-rule="evenodd" d="M98.5,147.5c2.939,0.656,6.813,3.687,5,6
			C100.457,152.877,98.388,151.279,98.5,147.5z"/>
		<path fill-rule="evenodd" clip-rule="evenodd" d="M239.5,293.5c2.892,0.441,4.559,2.108,5,5c-2.576,2.282-5.658-0.993-6-4
			C239.351,294.684,239.443,294.11,239.5,293.5z"/>
		<path fill-rule="evenodd" clip-rule="evenodd" d="M254.5,294.5c-1.662,2.005-2.685,4.648-6,5
			C248.218,295.622,251.778,292.278,254.5,294.5z"/>
		<path fill-rule="evenodd" clip-rule="evenodd" d="M244.5,303.5c-0.656,2.939-3.687,6.813-6,5
			C239.123,305.457,240.721,303.388,244.5,303.5z"/>
		<path fill-rule="evenodd" clip-rule="evenodd" d="M248.5,303.5c3.877-0.282,7.222,3.277,5,6
			C250.457,308.877,248.388,307.279,248.5,303.5z"/>
		<path fill-rule="evenodd" clip-rule="evenodd" d="M185.5,454.5c2.939,0.656,6.813,3.687,5,6
			C187.561,459.844,183.687,456.813,185.5,454.5z"/>
		<path fill-rule="evenodd" clip-rule="evenodd" d="M201.5,455.5c-1.662,2.005-2.685,4.648-6,5
			C193.528,458.42,198.814,452.922,201.5,455.5z"/>
		<path fill-rule="evenodd" clip-rule="evenodd" d="M191.5,465.5c-1.578,1.772-3.578,6.129-6,4
			C185.842,466.493,188.924,463.218,191.5,465.5z"/>
		<path fill-rule="evenodd" clip-rule="evenodd" d="M195.5,464.5c2.892,0.441,4.559,2.108,5,5
			C198.556,471.524,193.476,466.444,195.5,464.5z"/>
		<g>
			<path fill-rule="evenodd" clip-rule="evenodd" fill="none" stroke="#000000" stroke-linecap="round" d="M314,157
				c-17.519-1.881-37.151,4.086-53.183-3.635c-2.556-5.408-2.545-9.824-0.293-12.224c7.504-7.999,41.313-0.461,22.842-22.343
				c-21.747-3.86-46.104,4.002-66.549-4.433c-2.905-4.502-2.603-11.371,2.129-14.732c10.846-6.564,62.964,3.12,80.054-1.628
				c11.447-3.181,9.077-14.598,4.366-18.207c-9.981-7.647-26.565,2.444-39.158-2.311c-5.098-1.765-9.02-13.08,1.582-18.218
				c4.591-2.226,67.447,1.195,73.21-0.269"/>
			<path fill-rule="evenodd" clip-rule="evenodd" fill="none" stroke="#000000" stroke-linecap="round" d="M146,105
				c7.333,0,14.667,0,22,0"/>
			<path fill-rule="evenodd" clip-rule="evenodd" fill="none" stroke="#000000" stroke-linecap="round" d="M243,168
				c7.333,0,14.667,0,22,0"/>
			<path fill-rule="evenodd" clip-rule="evenodd" fill="none" stroke="#000000" stroke-linecap="round" d="M257,178
				c9.333,0,18.667,0,28,0"/>
			<path fill-rule="evenodd" clip-rule="evenodd" fill="none" stroke="#000000" stroke-linecap="round" d="M32,316
				c9.918,0.308,19.954-0.637,29.792,0.514c6.779,3.584,7.056,13.653,0.574,17.688c-9.062,2.606-17.935-2.329-22.696,5.688
				c-3.231,5.441-0.935,10.335,3.211,13.435c11.273,8.425,48.28-3.383,57.91,2.188c22.574,30.827-32.782,12.782-47.584,19.99
				c-4.988,2.429-8.434,15.801,0.439,17.725c12.88,2.794,28.202-3.08,32.521,6.335C91.695,411.609,75.184,416.731,61,414"/>
			<path fill-rule="evenodd" clip-rule="evenodd" fill="none" stroke="#000000" stroke-linecap="round" d="M180,351
				c7.333,0,14.667,0,22,0"/>
			<path fill-rule="evenodd" clip-rule="evenodd" fill="none" stroke="#000000" stroke-linecap="round" d="M148,371.5
				c9.333,0,18.667,0,28,0"/>
			<path fill-rule="evenodd" clip-rule="evenodd" fill="none" stroke="#000000" stroke-linecap="round" d="M244,456c9,0,18,0,27,0"
				/>
			<path fill-rule="evenodd" clip-rule="evenodd" fill="none" stroke="#000000" stroke-linecap="round" d="M230,469
				c7.667,0,15.333,0,23,0"/>
		</g>
	</g>
</g>
</svg>
