<?xml version="1.0" encoding="utf-8"?>
<!-- Generator: Adobe Illustrator 15.0.0, SVG Export Plug-In . SVG Version: 6.00 Build 0)  -->
<!DOCTYPE svg PUBLIC "-//W3C//DTD SVG 1.1//EN" "http://www.w3.org/Graphics/SVG/1.1/DTD/svg11.dtd">
<svg version="1.1" id="Layer_1" xmlns="http://www.w3.org/2000/svg" xmlns:xlink="http://www.w3.org/1999/xlink" x="0px" y="0px"
	 width="1148px" height="164px" viewBox="0 0 1148 164" enable-background="new 0 0 1148 164" xml:space="preserve">
<g opacity="0" enable-background="new    ">
	<g>
		<path fill="#333333" d="M97.753,16.172c6.264,0.237,9.253,11.348,11.397,15.907c2.82,5.999,6.783,12.124,14.058,12.398
			c7.167,0.272,11.292-7.053,13.866-12.612c2.125-4.587,4.856-15.746,11.152-16.08c6.039-0.321,9.454,11.773,11.397,15.908
			c2.819,5.998,6.782,12.124,14.057,12.398c7.166,0.271,11.292-7.053,13.866-12.612c2.125-4.588,4.855-15.745,11.152-16.08
			c6.04-0.32,9.455,11.774,11.397,15.907c2.819,5.999,6.782,12.125,14.058,12.399c7.166,0.271,11.29-7.054,13.864-12.612
			c2.124-4.588,4.854-15.746,11.15-16.08c6.04-0.322,9.455,11.772,11.397,15.907c2.819,5.999,6.783,12.124,14.058,12.399
			c7.166,0.271,11.29-7.054,13.864-12.613c2.124-4.587,4.854-15.745,11.149-16.08c6.04-0.321,9.455,11.774,11.397,15.908
			c2.819,5.999,6.783,12.124,14.059,12.399c7.165,0.271,11.287-7.055,13.864-12.613c2.123-4.588,4.853-15.746,11.147-16.08
			c6.039-0.321,9.455,11.773,11.396,15.907c2.819,5.999,6.782,12.124,14.058,12.398c7.167,0.272,11.29-7.053,13.866-12.612
			c2.123-4.587,4.854-15.746,11.15-16.08c6.039-0.321,9.454,11.773,11.396,15.907c2.819,5.999,6.781,12.124,14.058,12.398
			c7.167,0.271,11.291-7.053,13.865-12.612c2.123-4.588,4.854-15.746,11.15-16.08c6.039-0.32,9.455,11.773,11.398,15.907
			c2.818,5.999,6.782,12.124,14.059,12.398c7.166,0.272,11.291-7.052,13.866-12.612c2.122-4.588,4.854-15.745,11.151-16.08
			c6.037-0.321,9.452,11.774,11.396,15.908c2.82,5.999,6.783,12.124,14.057,12.399c7.167,0.271,11.291-7.053,13.866-12.613
			c2.123-4.587,4.855-15.745,11.152-16.08c6.038-0.321,9.452,11.774,11.397,15.908c2.818,5.999,6.781,12.124,14.057,12.398
			c7.166,0.271,11.289-7.053,13.864-12.612c2.125-4.589,4.855-15.746,11.152-16.08c6.041-0.321,9.457,11.772,11.398,15.907
			c2.819,6,6.784,12.124,14.061,12.398c7.166,0.271,11.289-7.053,13.865-12.612c2.125-4.589,4.854-15.746,11.151-16.08
			c6.039-0.321,9.455,11.773,11.398,15.907c2.82,6,6.785,12.125,14.061,12.399c7.166,0.271,11.289-7.053,13.865-12.613
			c2.125-4.589,4.855-15.745,11.152-16.08c6.039-0.321,9.455,11.773,11.397,15.907c2.82,5.999,6.783,12.124,14.06,12.399
			c7.166,0.271,11.291-7.053,13.867-12.612c2.122-4.589,4.856-15.746,11.153-16.08c6.037-0.321,9.453,11.773,11.396,15.907
			c2.819,6,6.785,12.124,14.059,12.398c7.166,0.271,11.291-7.053,13.865-12.612c2.125-4.587,4.857-15.745,11.152-16.08
			c6.039-0.32,9.455,11.773,11.397,15.908c2.82,5.999,6.783,12.124,14.058,12.398c7.168,0.271,11.291-7.053,13.866-12.612
			c2.125-4.589,4.855-15.746,11.154-16.08c6.039-0.321,9.453,11.772,11.398,15.907c2.819,6,6.782,12.124,14.061,12.399
			c7.166,0.271,11.291-7.053,13.867-12.613c2.125-4.589,4.856-15.746,11.156-16.08c6.041-0.321,9.454,11.774,11.399,15.908
			c2.818,5.999,6.781,12.124,14.058,12.398c7.168,0.271,11.293-7.053,13.868-12.612c2.127-4.59,4.857-15.746,11.156-16.08
			c6.043-0.321,9.459,11.771,11.402,15.907c2.822,6,6.787,12.125,14.063,12.399c7.164,0.271,11.293-7.052,13.871-12.613
			c2.125-4.589,4.855-15.744,11.154-16.08c4.27-0.226,4.238-6.877-0.051-6.649c-7.316,0.389-11.076,6.583-13.869,12.612
			c-2.125,4.59-4.855,15.746-11.156,16.08c-6.045,0.321-9.459-11.772-11.404-15.907c-2.821-6-6.786-12.124-14.062-12.399
			c-7.168-0.271-11.293,7.053-13.869,12.613c-2.125,4.589-4.857,15.746-11.156,16.08c-6.039,0.32-9.453-11.773-11.397-15.908
			c-2.82-5.999-6.785-12.123-14.062-12.398c-7.166-0.271-11.291,7.053-13.867,12.613c-2.125,4.589-4.856,15.746-11.153,16.08
			c-6.045,0.321-9.457-11.773-11.4-15.908C866.029,10.125,862.064,4,854.787,3.726c-7.166-0.271-11.291,7.053-13.867,12.613
			c-2.123,4.588-4.854,15.746-11.152,16.08c-6.039,0.321-9.452-11.773-11.396-15.907c-2.82-5.999-6.783-12.124-14.06-12.399
			c-7.166-0.271-11.291,7.053-13.866,12.613c-2.121,4.588-4.853,15.746-11.15,16.08c-6.039,0.321-9.453-11.772-11.397-15.907
			c-2.82-5.999-6.783-12.124-14.06-12.399c-7.166-0.271-11.289,7.053-13.865,12.612c-2.127,4.589-4.856,15.747-11.153,16.08
			c-6.039,0.321-9.455-11.772-11.398-15.907c-2.82-5.999-6.783-12.124-14.059-12.398c-7.166-0.271-11.289,7.053-13.865,12.612
			c-2.127,4.587-4.855,15.746-11.154,16.08c-6.041,0.32-9.455-11.772-11.397-15.907c-2.818-5.999-6.783-12.124-14.06-12.398
			c-7.168-0.274-11.291,7.051-13.867,12.61c-2.125,4.588-4.854,15.747-11.153,16.08c-6.039,0.321-9.453-11.772-11.396-15.907
			c-2.819-5.999-6.784-12.124-14.061-12.398c-7.166-0.271-11.291,7.053-13.867,12.613c-2.123,4.587-4.854,15.746-11.152,16.08
			c-6.038,0.32-9.451-11.774-11.396-15.908c-2.819-5.999-6.782-12.124-14.057-12.399c-7.167-0.27-11.292,7.054-13.866,12.613
			c-2.125,4.587-4.856,15.746-11.152,16.08c-6.037,0.321-9.451-11.773-11.396-15.907c-2.819-5.999-6.782-12.124-14.056-12.398
			c-7.167-0.273-11.293,7.051-13.867,12.61c-2.126,4.588-4.855,15.747-11.151,16.08c-6.038,0.321-9.453-11.772-11.398-15.907
			c-2.818-5.999-6.783-12.124-14.057-12.398c-7.166-0.271-11.29,7.053-13.865,12.612c-2.125,4.588-4.854,15.746-11.152,16.08
			c-6.038,0.321-9.452-11.774-11.394-15.907c-2.819-5.999-6.782-12.124-14.057-12.398c-7.166-0.271-11.29,7.053-13.865,12.612
			c-2.125,4.588-4.854,15.746-11.152,16.08c-6.039,0.321-9.454-11.773-11.396-15.907c-2.819-5.999-6.782-12.124-14.057-12.399
			c-7.166-0.271-11.289,7.053-13.864,12.613c-2.124,4.586-4.854,15.746-11.149,16.08c-6.04,0.32-9.455-11.773-11.398-15.908
			c-2.819-5.999-6.782-12.124-14.058-12.399c-7.166-0.271-11.29,7.054-13.865,12.613c-2.124,4.588-4.854,15.746-11.149,16.08
			c-6.041,0.321-9.455-11.773-11.398-15.908c-2.818-5.999-6.783-12.124-14.058-12.398c-7.165-0.271-11.29,7.054-13.864,12.612
			c-2.124,4.587-4.854,15.746-11.149,16.08c-6.041,0.321-9.455-11.773-11.397-15.907c-2.819-5.999-6.783-12.124-14.059-12.398
			c-7.166-0.271-11.29,7.053-13.866,12.612c-2.124,4.588-4.854,15.746-11.152,16.08c-6.04,0.321-9.455-11.773-11.397-15.907
			c-2.818-5.999-6.782-12.124-14.058-12.399c-7.166-0.271-11.29,7.053-13.866,12.612c-2.124,4.588-4.855,15.746-11.152,16.08
			c-6.039,0.321-9.454-11.773-11.397-15.907c-2.819-5.999-6.783-12.124-14.058-12.399C93.411,9.36,93.481,16.011,97.753,16.172
			L97.753,16.172z"/>
	</g>
</g>
<g opacity="0" enable-background="new    ">
	<g>
		<path fill="#333333" d="M98.073,57.972c6.265,0.237,9.254,11.347,11.397,15.907c2.821,5.999,6.784,12.125,14.059,12.398
			c7.167,0.271,11.291-7.052,13.866-12.611c2.125-4.588,4.855-15.746,11.151-16.08c6.039-0.321,9.454,11.774,11.397,15.907
			c2.819,5.999,6.782,12.124,14.058,12.399c7.167,0.271,11.292-7.055,13.866-12.614c2.125-4.587,4.855-15.746,11.151-16.08
			c6.04-0.321,9.455,11.774,11.397,15.908c2.82,5.999,6.783,12.125,14.058,12.398c7.166,0.272,11.29-7.054,13.864-12.612
			c2.124-4.588,4.854-15.746,11.149-16.08c6.04-0.321,9.455,11.772,11.397,15.907c2.82,5.999,6.783,12.125,14.059,12.398
			c7.166,0.272,11.29-7.053,13.864-12.612c2.124-4.588,4.854-15.746,11.149-16.08c6.04-0.32,9.455,11.774,11.397,15.908
			c2.819,5.999,6.783,12.124,14.059,12.396c7.166,0.273,11.288-7.053,13.864-12.61c2.123-4.588,4.853-15.745,11.148-16.081
			c6.039-0.32,9.454,11.774,11.396,15.908c2.819,5.999,6.782,12.123,14.058,12.397c7.166,0.272,11.29-7.053,13.866-12.612
			c2.124-4.587,4.854-15.745,11.149-16.08c6.039-0.321,9.454,11.774,11.396,15.907c2.819,5.999,6.781,12.125,14.056,12.399
			c7.166,0.271,11.291-7.054,13.867-12.613c2.123-4.587,4.854-15.746,11.15-16.08c6.04-0.321,9.455,11.773,11.397,15.908
			c2.818,5.999,6.783,12.123,14.06,12.398c7.166,0.271,11.291-7.053,13.865-12.612c2.122-4.588,4.854-15.746,11.152-16.08
			c6.038-0.321,9.452,11.773,11.396,15.907c2.818,5.999,6.781,12.123,14.057,12.398c7.166,0.271,11.291-7.054,13.866-12.612
			c2.123-4.588,4.854-15.746,11.151-16.08c6.037-0.32,9.452,11.774,11.397,15.907c2.819,5.999,6.782,12.124,14.055,12.398
			c7.168,0.271,11.291-7.053,13.867-12.612c2.127-4.589,4.857-15.745,11.152-16.08c6.039-0.321,9.455,11.773,11.399,15.907
			c2.818,6,6.783,12.124,14.06,12.398c7.166,0.272,11.287-7.052,13.865-12.612c2.125-4.589,4.854-15.746,11.151-16.08
			c6.039-0.321,9.455,11.773,11.398,15.908c2.819,5.999,6.782,12.124,14.059,12.398c7.168,0.271,11.291-7.053,13.867-12.613
			c2.125-4.588,4.854-15.745,11.152-16.08c6.038-0.321,9.454,11.772,11.397,15.907c2.818,5.999,6.781,12.124,14.06,12.397
			c7.163,0.272,11.288-7.053,13.866-12.612c2.125-4.589,4.855-15.746,11.154-16.081c6.035-0.321,9.451,11.773,11.396,15.907
			c2.817,6,6.784,12.124,14.059,12.399c7.166,0.271,11.291-7.053,13.865-12.613c2.125-4.587,4.856-15.746,11.151-16.08
			c6.039-0.321,9.453,11.773,11.398,15.908c2.818,5.999,6.781,12.124,14.057,12.398c7.166,0.271,11.291-7.053,13.865-12.612
			c2.125-4.589,4.857-15.746,11.154-16.08c6.041-0.321,9.455,11.772,11.399,15.907c2.82,6,6.783,12.124,14.06,12.398
			c7.168,0.272,11.295-7.053,13.869-12.612c2.125-4.59,4.856-15.746,11.153-16.08c6.041-0.32,9.457,11.774,11.402,15.907
			c2.818,5.999,6.781,12.125,14.057,12.399c7.166,0.272,11.293-7.053,13.869-12.613c2.125-4.589,4.857-15.746,11.156-16.08
			c6.043-0.321,9.459,11.772,11.402,15.908c2.821,5.999,6.787,12.124,14.062,12.398c7.168,0.272,11.295-7.052,13.871-12.613
			c2.125-4.589,4.854-15.744,11.158-16.08c4.268-0.227,4.235-6.878-0.051-6.65c-7.318,0.389-11.078,6.583-13.871,12.612
			c-2.127,4.59-4.857,15.745-11.158,16.08c-6.043,0.321-9.457-11.772-11.402-15.907c-2.819-6-6.787-12.124-14.062-12.399
			c-7.166-0.27-11.293,7.054-13.869,12.613c-2.125,4.589-4.857,15.746-11.156,16.08c-6.039,0.321-9.453-11.772-11.4-15.908
			c-2.817-6-6.78-12.123-14.059-12.398c-7.166-0.271-11.291,7.053-13.867,12.612c-2.127,4.59-4.856,15.747-11.156,16.08
			c-6.041,0.321-9.454-11.773-11.399-15.907c-2.818-5.999-6.781-12.124-14.06-12.399c-7.166-0.271-11.291,7.053-13.866,12.613
			c-2.123,4.588-4.854,15.746-11.15,16.08c-6.041,0.32-9.455-11.773-11.398-15.908c-2.819-5.999-6.782-12.124-14.059-12.399
			c-7.166-0.271-11.291,7.054-13.865,12.613c-2.123,4.588-4.854,15.746-11.151,16.08c-6.039,0.321-9.455-11.772-11.398-15.908
			c-2.82-5.998-6.783-12.123-14.057-12.398c-7.168-0.271-11.293,7.052-13.867,12.612c-2.127,4.588-4.857,15.746-11.154,16.08
			c-6.037,0.321-9.455-11.772-11.397-15.907c-2.82-5.999-6.783-12.124-14.06-12.399c-7.166-0.271-11.291,7.053-13.865,12.613
			c-2.125,4.588-4.854,15.746-11.151,16.08c-6.043,0.321-9.457-11.772-11.4-15.907c-2.817-5.999-6.785-12.124-14.059-12.399
			c-7.166-0.271-11.291,7.053-13.867,12.612c-2.123,4.588-4.854,15.747-11.15,16.08c-6.041,0.321-9.457-11.772-11.397-15.907
			c-2.82-5.999-6.785-12.124-14.062-12.398c-7.166-0.271-11.291,7.053-13.866,12.612c-2.121,4.587-4.854,15.746-11.152,16.08
			c-6.037,0.321-9.453-11.773-11.396-15.908c-2.819-5.999-6.781-12.123-14.057-12.398c-7.167-0.271-11.292,7.053-13.866,12.612
			c-2.125,4.588-4.855,15.747-11.151,16.08c-6.036,0.321-9.451-11.773-11.396-15.907c-2.819-5.999-6.782-12.124-14.055-12.399
			c-7.166-0.271-11.292,7.053-13.866,12.613c-2.126,4.587-4.856,15.746-11.152,16.08c-6.038,0.32-9.453-11.773-11.398-15.908
			c-2.818-5.998-6.783-12.123-14.057-12.398c-7.167-0.271-11.29,7.053-13.865,12.613c-2.125,4.588-4.855,15.746-11.152,16.08
			c-6.038,0.321-9.453-11.774-11.396-15.908c-2.817-5.999-6.781-12.124-14.056-12.399c-7.165-0.271-11.289,7.053-13.865,12.613
			c-2.124,4.587-4.854,15.746-11.151,16.08c-6.039,0.321-9.454-11.773-11.396-15.907c-2.819-5.999-6.782-12.124-14.058-12.398
			c-7.166-0.271-11.288,7.053-13.863,12.612c-2.123,4.587-4.854,15.746-11.148,16.08c-6.04,0.321-9.455-11.772-11.398-15.908
			c-2.82-5.999-6.783-12.123-14.059-12.398c-7.166-0.271-11.29,7.054-13.864,12.612c-2.123,4.588-4.854,15.747-11.148,16.08
			c-6.04,0.321-9.455-11.773-11.398-15.907c-2.819-5.999-6.783-12.124-14.059-12.399c-7.166-0.271-11.29,7.054-13.864,12.613
			c-2.123,4.587-4.854,15.746-11.148,16.08c-6.04,0.32-9.454-11.774-11.397-15.908c-2.82-5.999-6.783-12.124-14.059-12.399
			c-7.166-0.271-11.29,7.054-13.866,12.613c-2.124,4.588-4.854,15.746-11.152,16.08c-6.04,0.321-9.454-11.773-11.396-15.907
			c-2.82-5.999-6.783-12.124-14.058-12.398c-7.167-0.271-11.29,7.052-13.866,12.612c-2.125,4.588-4.855,15.746-11.152,16.08
			c-6.04,0.321-9.454-11.773-11.398-15.908c-2.819-5.999-6.783-12.124-14.058-12.398C93.732,51.16,93.801,57.81,98.073,57.972
			L98.073,57.972z"/>
	</g>
</g>
<g opacity="0" enable-background="new    ">
	<g>
		<path fill="#333333" d="M99.373,103.562c6.264,0.236,9.254,11.348,11.397,15.908c2.82,5.997,6.783,12.122,14.059,12.397
			c7.167,0.271,11.291-7.054,13.866-12.613c2.125-4.588,4.855-15.745,11.151-16.08c6.039-0.319,9.453,11.772,11.396,15.908
			c2.82,5.998,6.782,12.123,14.058,12.397c7.166,0.271,11.292-7.053,13.866-12.612c2.125-4.589,4.855-15.743,11.152-16.079
			c6.04-0.321,9.455,11.773,11.396,15.906c2.82,6,6.783,12.125,14.059,12.399c7.166,0.271,11.29-7.056,13.864-12.612
			c2.124-4.588,4.854-15.744,11.149-16.08c6.04-0.32,9.455,11.772,11.397,15.906c2.82,5.998,6.783,12.125,14.059,12.398
			c7.166,0.271,11.29-7.053,13.864-12.611c2.124-4.589,4.854-15.744,11.149-16.08c6.04-0.32,9.455,11.773,11.398,15.906
			c2.818,6,6.782,12.124,14.058,12.398c7.166,0.271,11.288-7.053,13.864-12.612c2.123-4.587,4.853-15.743,11.148-16.08
			c6.039-0.319,9.454,11.772,11.396,15.908c2.818,5.999,6.782,12.124,14.057,12.399c7.167,0.271,11.291-7.056,13.866-12.613
			c2.123-4.59,4.854-15.745,11.15-16.081c6.039-0.32,9.454,11.772,11.396,15.907c2.818,6,6.78,12.125,14.056,12.399
			c7.166,0.271,11.291-7.053,13.866-12.612c2.123-4.588,4.854-15.744,11.15-16.08c6.04-0.32,9.455,11.772,11.397,15.906
			c2.818,6.001,6.783,12.125,14.06,12.399c7.166,0.272,11.29-7.054,13.866-12.612c2.122-4.589,4.854-15.745,11.151-16.08
			c6.038-0.32,9.452,11.772,11.396,15.907c2.818,5.997,6.782,12.123,14.057,12.397c7.167,0.272,11.291-7.053,13.866-12.611
			c2.124-4.588,4.854-15.744,11.152-16.08c6.036-0.321,9.451,11.773,11.397,15.906c2.819,5.998,6.781,12.123,14.056,12.398
			c7.166,0.271,11.289-7.053,13.865-12.613c2.125-4.588,4.855-15.742,11.152-16.078c6.039-0.321,9.457,11.772,11.397,15.906
			c2.82,6,6.785,12.125,14.062,12.398c7.166,0.271,11.289-7.053,13.865-12.611c2.125-4.59,4.854-15.744,11.151-16.08
			c6.041-0.32,9.455,11.772,11.398,15.906c2.817,6,6.785,12.125,14.059,12.398c7.166,0.271,11.291-7.053,13.867-12.611
			c2.123-4.59,4.854-15.745,11.154-16.081c6.037-0.319,9.453,11.772,11.396,15.907c2.82,6.001,6.783,12.124,14.06,12.398
			c7.166,0.271,11.291-7.054,13.866-12.611c2.125-4.588,4.855-15.745,11.152-16.08c6.039-0.321,9.455,11.771,11.398,15.906
			c2.817,6,6.783,12.123,14.059,12.397c7.166,0.272,11.291-7.053,13.865-12.612c2.125-4.586,4.854-15.744,11.152-16.08
			c6.038-0.318,9.454,11.774,11.396,15.908c2.822,5.998,6.785,12.123,14.059,12.398c7.169,0.271,11.291-7.053,13.867-12.613
			c2.123-4.588,4.855-15.742,11.154-16.079c6.039-0.321,9.453,11.773,11.397,15.907c2.82,6,6.783,12.125,14.062,12.398
			c7.166,0.271,11.291-7.053,13.867-12.612c2.125-4.589,4.856-15.744,11.155-16.079c6.041-0.322,9.455,11.771,11.398,15.906
			c2.82,6,6.783,12.125,14.059,12.398c7.169,0.271,11.296-7.054,13.869-12.611c2.127-4.59,4.857-15.746,11.156-16.08
			c6.043-0.321,9.459,11.771,11.402,15.906c2.822,6,6.787,12.123,14.063,12.397c7.164,0.272,11.293-7.052,13.869-12.61
			c2.127-4.592,4.855-15.744,11.158-16.082c4.268-0.226,4.236-6.877-0.051-6.647c-7.318,0.389-11.078,6.582-13.871,12.61
			c-2.125,4.592-4.855,15.746-11.158,16.08c-6.043,0.32-9.457-11.771-11.402-15.906c-2.819-6-6.786-12.125-14.062-12.398
			c-7.166-0.271-11.293,7.053-13.869,12.612c-2.125,4.59-4.857,15.743-11.156,16.081c-6.039,0.318-9.453-11.773-11.397-15.908
			c-2.82-5.999-6.785-12.124-14.062-12.398c-7.166-0.271-11.291,7.053-13.869,12.612c-2.125,4.588-4.854,15.745-11.151,16.08
			c-6.045,0.321-9.457-11.772-11.4-15.908c-2.817-5.999-6.783-12.123-14.061-12.396c-7.166-0.272-11.291,7.053-13.867,12.609
			c-2.123,4.59-4.855,15.746-11.152,16.081c-6.039,0.32-9.453-11.772-11.396-15.907c-2.82-6-6.783-12.123-14.06-12.398
			c-7.166-0.27-11.291,7.053-13.866,12.611c-2.123,4.59-4.854,15.746-11.15,16.082c-6.039,0.319-9.453-11.773-11.398-15.907
			c-2.819-5.999-6.782-12.124-14.059-12.399c-7.166-0.271-11.289,7.053-13.865,12.613c-2.127,4.587-4.856,15.744-11.154,16.079
			c-6.038,0.319-9.454-11.773-11.399-15.907c-2.818-6-6.781-12.124-14.058-12.398c-7.166-0.271-11.288,7.054-13.866,12.612
			c-2.123,4.589-4.854,15.746-11.152,16.08c-6.039,0.321-9.455-11.772-11.397-15.907c-2.818-6-6.783-12.123-14.06-12.397
			c-7.166-0.271-11.289,7.053-13.865,12.612c-2.125,4.588-4.854,15.744-11.151,16.08c-6.041,0.32-9.455-11.772-11.4-15.908
			c-2.818-6-6.783-12.123-14.059-12.397c-7.166-0.271-11.291,7.054-13.867,12.612c-2.123,4.588-4.854,15.744-11.152,16.078
			c-6.037,0.322-9.452-11.772-11.395-15.905c-2.82-5.999-6.783-12.125-14.058-12.397c-7.167-0.271-11.292,7.053-13.866,12.609
			c-2.125,4.59-4.855,15.747-11.151,16.081c-6.038,0.319-9.453-11.772-11.397-15.906c-2.818-5.999-6.781-12.125-14.056-12.399
			c-7.166-0.271-11.291,7.054-13.865,12.613c-2.126,4.588-4.855,15.743-11.151,16.079c-6.038,0.32-9.454-11.772-11.399-15.905
			c-2.819-6.002-6.783-12.125-14.057-12.399c-7.166-0.271-11.29,7.053-13.865,12.612c-2.125,4.588-4.855,15.744-11.152,16.08
			c-6.038,0.32-9.453-11.774-11.395-15.908c-2.819-5.998-6.782-12.123-14.057-12.398c-7.165-0.271-11.29,7.053-13.866,12.613
			c-2.124,4.588-4.854,15.745-11.152,16.08c-6.039,0.32-9.454-11.772-11.395-15.908c-2.819-5.998-6.783-12.123-14.058-12.398
			c-7.165-0.271-11.288,7.056-13.863,12.613c-2.123,4.588-4.854,15.745-11.148,16.079c-6.041,0.321-9.456-11.772-11.398-15.907
			c-2.82-5.998-6.784-12.125-14.059-12.397c-7.166-0.271-11.289,7.055-13.864,12.61c-2.123,4.59-4.853,15.746-11.148,16.08
			c-6.041,0.321-9.456-11.771-11.398-15.906c-2.82-6-6.783-12.123-14.059-12.397c-7.166-0.271-11.29,7.054-13.864,12.612
			c-2.123,4.588-4.854,15.744-11.149,16.08c-6.04,0.32-9.454-11.774-11.396-15.907c-2.82-6-6.783-12.125-14.059-12.397
			c-7.167-0.271-11.291,7.053-13.866,12.61c-2.124,4.589-4.855,15.746-11.152,16.081c-6.04,0.32-9.454-11.773-11.397-15.908
			c-2.819-5.999-6.782-12.124-14.058-12.398c-7.166-0.271-11.29,7.055-13.866,12.613c-2.125,4.588-4.855,15.744-11.152,16.08
			c-6.04,0.32-9.454-11.773-11.397-15.908c-2.819-5.998-6.783-12.123-14.058-12.398C95.031,96.75,95.101,103.4,99.373,103.562
			L99.373,103.562z"/>
	</g>
</g>
<g opacity="0.6" enable-background="new    ">
	<path fill="none" stroke="#333333" stroke-width="3" stroke-linecap="round" d="M95.101,107.758
		c64.898-0.412,65.212,48.987,130.109,48.574c64.897-0.414,64.583-49.812,129.48-50.227c64.898-0.412,65.212,48.987,130.109,48.574
		c64.9-0.414,64.584-49.812,129.483-50.228c64.897-0.413,65.215,48.987,130.11,48.573c64.902-0.411,64.588-49.812,129.486-50.226
		c64.902-0.413,65.217,48.986,130.117,48.573"/>
</g>
<g opacity="0.6" enable-background="new    ">
	<path fill="none" stroke="#333333" stroke-width="3" stroke-linecap="round" d="M94.798,60.258
		c64.897-0.413,65.212,48.986,130.11,48.572c64.897-0.412,64.582-49.812,129.48-50.224c64.898-0.413,65.211,48.986,130.109,48.574
		c64.899-0.414,64.585-49.812,129.481-50.226c64.9-0.413,65.214,48.985,130.113,48.573c64.898-0.413,64.586-49.813,129.488-50.226
		c64.898-0.412,65.215,48.986,130.115,48.574"/>
</g>
<g opacity="0.6" enable-background="new    ">
	<path fill="none" stroke="#333333" stroke-width="3" stroke-linecap="round" d="M94.496,12.76
		c64.898-0.413,65.212,48.986,130.11,48.573c64.897-0.414,64.582-49.812,129.48-50.225c64.897-0.413,65.213,48.986,130.109,48.573
		c64.898-0.414,64.584-49.812,129.484-50.226c64.896-0.413,65.211,48.986,130.109,48.573c64.9-0.414,64.588-49.812,129.486-50.225
		c64.901-0.412,65.217,48.986,130.119,48.572"/>
</g>
</svg>
