<?xml version="1.0" encoding="utf-8"?>
<!-- Generator: Adobe Illustrator 15.0.0, SVG Export Plug-In . SVG Version: 6.00 Build 0)  -->
<!DOCTYPE svg PUBLIC "-//W3C//DTD SVG 1.1//EN" "http://www.w3.org/Graphics/SVG/1.1/DTD/svg11.dtd">
<svg version="1.1" id="Layer_1" xmlns="http://www.w3.org/2000/svg" xmlns:xlink="http://www.w3.org/1999/xlink" x="0px" y="0px"
	 width="1148px" height="164px" viewBox="0 0 1148 164" enable-background="new 0 0 1148 164" xml:space="preserve">
<g opacity="0" enable-background="new    ">
	<path fill="none" stroke="#333333" stroke-width="3" stroke-linecap="round" d="M95.101,107.758
		c64.898-0.412,65.212,48.987,130.109,48.574c64.897-0.414,64.583-49.812,129.48-50.227c64.898-0.412,65.212,48.987,130.109,48.574
		c64.9-0.414,64.584-49.812,129.483-50.228c64.897-0.413,65.215,48.987,130.11,48.573c64.902-0.411,64.588-49.812,129.486-50.226
		c64.902-0.413,65.217,48.986,130.117,48.573"/>
</g>
<g opacity="0" enable-background="new    ">
	<path fill="none" stroke="#333333" stroke-width="3" stroke-linecap="round" d="M94.798,60.258
		c64.897-0.413,65.212,48.986,130.11,48.572c64.897-0.412,64.582-49.812,129.48-50.224c64.898-0.413,65.211,48.986,130.109,48.574
		c64.899-0.414,64.585-49.812,129.481-50.226c64.9-0.413,65.214,48.985,130.113,48.573c64.898-0.413,64.586-49.813,129.488-50.226
		c64.898-0.412,65.215,48.986,130.115,48.574"/>
</g>
<g opacity="0" enable-background="new    ">
	<path fill="none" stroke="#333333" stroke-width="3" stroke-linecap="round" d="M94.496,12.76
		c64.898-0.413,65.212,48.986,130.11,48.573c64.897-0.414,64.582-49.812,129.48-50.225c64.897-0.413,65.213,48.986,130.109,48.573
		c64.898-0.414,64.584-49.812,129.484-50.226c64.896-0.413,65.211,48.986,130.109,48.573c64.9-0.414,64.588-49.812,129.486-50.225
		c64.901-0.412,65.217,48.986,130.119,48.572"/>
</g>
<g opacity="0">
	<polyline fill="none" stroke="#333333" stroke-width="3" stroke-linecap="round" points="102.5,9.263 230.498,89.264 
		358.495,9.263 486.493,89.264 614.492,9.263 742.491,89.264 870.495,9.263 998.5,89.264 	"/>
</g>
<g opacity="0">
	<polyline fill="none" stroke="#333333" stroke-width="3" stroke-linecap="round" points="103.5,41.263 231.498,121.264 
		359.495,41.263 487.493,121.264 615.492,41.263 743.491,121.264 871.495,41.263 999.5,121.264 	"/>
</g>
<g opacity="0">
	<polyline fill="none" stroke="#333333" stroke-width="3" stroke-linecap="round" points="103.5,76.264 231.498,156.264 
		359.495,76.264 487.493,156.264 615.492,76.264 743.491,156.264 871.495,76.264 999.5,156.264 	"/>
</g>
<circle opacity="0.6" fill="none" stroke="#333333" stroke-width="3" stroke-linecap="round" cx="564.5" cy="81.863" r="37.5"/>
<line fill="none" stroke="#333333" stroke-width="4" x1="564.5" y1="162.483" x2="564.5" y2="1.242"/>
<line opacity="0.6" fill="none" stroke="#333333" stroke-width="3" stroke-linecap="round" x1="311" y1="81.263" x2="834.5" y2="81.263"/>
</svg>
