<?xml version="1.0" encoding="utf-8"?>
<!-- Generator: Adobe Illustrator 15.0.0, SVG Export Plug-In . SVG Version: 6.00 Build 0)  -->
<!DOCTYPE svg PUBLIC "-//W3C//DTD SVG 1.1//EN" "http://www.w3.org/Graphics/SVG/1.1/DTD/svg11.dtd">
<svg version="1.1" id="Layer_1" xmlns="http://www.w3.org/2000/svg" xmlns:xlink="http://www.w3.org/1999/xlink" x="0px" y="0px"
	 width="1148px" height="164px" viewBox="0 0 1148 164" enable-background="new 0 0 1148 164" xml:space="preserve">
<g opacity="0" enable-background="new    ">
	<g>
		<path fill="#333333" d="M74.331,9.17c6.593,0.3,9.65,12.019,11.869,16.836c2.92,6.337,7.042,12.816,14.698,13.164
			c7.541,0.343,11.942-7.333,14.697-13.164c2.274-4.812,5.238-16.535,11.868-16.836c6.359-0.289,9.856,12.469,11.868,16.836
			c2.919,6.337,7.041,12.816,14.697,13.164c7.541,0.343,11.942-7.333,14.697-13.164c2.274-4.812,5.238-16.535,11.868-16.836
			c6.36-0.289,9.857,12.469,11.868,16.836c2.92,6.337,7.042,12.816,14.698,13.164c7.54,0.343,11.94-7.334,14.695-13.164
			c2.272-4.812,5.236-16.535,11.865-16.836c6.36-0.289,9.857,12.468,11.869,16.836c2.92,6.337,7.042,12.816,14.698,13.164
			c7.54,0.343,11.94-7.334,14.695-13.164c2.272-4.812,5.236-16.535,11.865-16.836c6.36-0.289,9.857,12.469,11.869,16.836
			c2.919,6.337,7.042,12.816,14.698,13.164c7.54,0.343,11.938-7.334,14.695-13.164c2.271-4.812,5.235-16.535,11.864-16.836
			c6.359-0.289,9.856,12.469,11.867,16.836c2.919,6.337,7.041,12.816,14.697,13.164c7.541,0.343,11.941-7.333,14.697-13.164
			c2.272-4.812,5.236-16.535,11.866-16.836c6.359-0.289,9.856,12.469,11.867,16.836c2.919,6.337,7.04,12.816,14.696,13.164
			c7.541,0.343,11.942-7.333,14.697-13.164c2.272-4.812,5.236-16.535,11.867-16.836c6.359-0.289,9.857,12.468,11.869,16.836
			c2.919,6.337,7.042,12.816,14.698,13.164c7.541,0.343,11.941-7.333,14.697-13.164c2.271-4.812,5.237-16.535,11.868-16.836
			c6.358-0.289,9.855,12.469,11.867,16.836c2.92,6.337,7.041,12.816,14.696,13.164c7.541,0.343,11.941-7.333,14.697-13.164
			c2.272-4.812,5.237-16.535,11.868-16.836c6.358-0.289,9.855,12.469,11.869,16.836c2.919,6.337,7.041,12.816,14.696,13.164
			c7.541,0.343,11.941-7.333,14.697-13.164c2.274-4.813,5.238-16.535,11.869-16.836c6.36-0.289,9.858,12.468,11.87,16.836
			c2.919,6.338,7.043,12.816,14.699,13.164c7.541,0.343,11.94-7.333,14.697-13.164c2.273-4.813,5.237-16.535,11.868-16.836
			c6.36-0.289,9.858,12.468,11.87,16.836c2.919,6.338,7.043,12.816,14.699,13.164c7.541,0.343,11.941-7.333,14.698-13.164
			c2.272-4.813,5.236-16.535,11.868-16.836c6.359-0.289,9.857,12.468,11.87,16.836c2.919,6.337,7.041,12.816,14.697,13.164
			c7.541,0.343,11.942-7.333,14.698-13.164c2.274-4.813,5.239-16.535,11.87-16.836c6.358-0.289,9.856,12.468,11.87,16.836
			c2.919,6.338,7.043,12.816,14.697,13.164c7.541,0.343,11.942-7.333,14.697-13.164c2.274-4.812,5.238-16.535,11.868-16.836
			c6.36-0.289,9.856,12.468,11.869,16.836c2.92,6.337,7.042,12.816,14.698,13.164c7.541,0.343,11.941-7.333,14.696-13.164
			c2.274-4.813,5.239-16.535,11.87-16.836c6.361-0.289,9.858,12.468,11.871,16.836c2.92,6.338,7.043,12.816,14.7,13.164
			c7.541,0.343,11.944-7.333,14.7-13.164c2.273-4.814,5.239-16.535,11.872-16.836c6.361-0.289,9.858,12.469,11.872,16.836
			c2.919,6.337,7.041,12.816,14.697,13.164c7.541,0.343,11.944-7.333,14.7-13.164c2.275-4.814,5.24-16.535,11.872-16.836
			c6.364-0.289,9.862,12.467,11.875,16.836c2.921,6.338,7.046,12.816,14.702,13.164c7.541,0.343,11.945-7.332,14.702-13.164
			c2.274-4.814,5.238-16.534,11.874-16.836c4.495-0.204,4.515-7.205,0-7c-7.706,0.35-11.712,6.84-14.702,13.164
			c-2.275,4.814-5.239,16.534-11.874,16.836c-6.364,0.289-9.861-12.468-11.874-16.836c-2.921-6.338-7.046-12.816-14.703-13.164
			c-7.541-0.343-11.943,7.333-14.7,13.164c-2.273,4.814-5.239,16.535-11.872,16.836c-6.359,0.289-9.856-12.468-11.871-16.836
			c-2.92-6.338-7.043-12.816-14.698-13.164c-7.541-0.343-11.944,7.333-14.7,13.164c-2.275,4.814-5.24,16.535-11.872,16.836
			c-6.363,0.289-9.86-12.469-11.872-16.836c-2.919-6.337-7.042-12.816-14.699-13.164c-7.541-0.343-11.941,7.333-14.698,13.164
			c-2.272,4.813-5.237,16.535-11.868,16.836c-6.36,0.289-9.857-12.469-11.869-16.836c-2.919-6.337-7.042-12.816-14.698-13.164
			c-7.541-0.343-11.941,7.333-14.697,13.164c-2.271,4.812-5.235,16.535-11.868,16.836c-6.359,0.289-9.856-12.468-11.869-16.836
			c-2.92-6.337-7.043-12.816-14.698-13.164c-7.541-0.343-11.942,7.333-14.698,13.164c-2.275,4.813-5.239,16.535-11.87,16.836
			c-6.358,0.289-9.856-12.468-11.87-16.836c-2.919-6.337-7.042-12.816-14.697-13.164c-7.541-0.343-11.941,7.333-14.697,13.164
			c-2.274,4.812-5.238,16.535-11.869,16.836c-6.361,0.289-9.858-12.468-11.871-16.836c-2.919-6.337-7.042-12.816-14.698-13.164
			c-7.541-0.343-11.94,7.333-14.696,13.164c-2.274,4.812-5.238,16.535-11.869,16.836c-6.361,0.289-9.858-12.468-11.871-16.836
			c-2.919-6.337-7.042-12.816-14.698-13.164c-7.541-0.343-11.942,7.333-14.698,13.164c-2.272,4.812-5.236,16.535-11.869,16.836
			c-6.358,0.289-9.855-12.469-11.867-16.836c-2.92-6.337-7.041-12.816-14.697-13.164c-7.541-0.343-11.942,7.333-14.697,13.164
			c-2.273,4.812-5.238,16.535-11.868,16.836c-6.357,0.289-9.854-12.469-11.868-16.836c-2.919-6.337-7.041-12.816-14.695-13.164
			c-7.541-0.343-11.942,7.333-14.697,13.164c-2.274,4.812-5.238,16.535-11.868,16.836c-6.358,0.289-9.856-12.468-11.87-16.836
			c-2.919-6.337-7.042-12.816-14.696-13.164c-7.541-0.343-11.941,7.333-14.697,13.164c-2.273,4.812-5.237,16.535-11.868,16.836
			c-6.358,0.289-9.855-12.47-11.866-16.836c-2.919-6.337-7.041-12.816-14.696-13.164c-7.54-0.343-11.94,7.333-14.696,13.164
			c-2.273,4.812-5.237,16.535-11.868,16.836c-6.359,0.289-9.856-12.469-11.867-16.836c-2.919-6.337-7.041-12.816-14.697-13.164
			c-7.54-0.343-11.939,7.333-14.694,13.164c-2.272,4.811-5.236,16.535-11.865,16.836c-6.36,0.289-9.857-12.468-11.869-16.836
			c-2.92-6.337-7.042-12.816-14.698-13.164c-7.54-0.343-11.94,7.334-14.695,13.164c-2.272,4.812-5.236,16.535-11.865,16.836
			c-6.36,0.289-9.857-12.469-11.869-16.836c-2.919-6.337-7.042-12.816-14.698-13.164c-7.54-0.343-11.94,7.334-14.695,13.164
			c-2.272,4.812-5.236,16.535-11.865,16.836c-6.36,0.289-9.857-12.469-11.868-16.836c-2.92-6.337-7.042-12.816-14.698-13.164
			c-7.541-0.343-11.941,7.333-14.697,13.164c-2.273,4.812-5.237,16.535-11.868,16.836c-6.36,0.289-9.857-12.469-11.868-16.836
			c-2.919-6.337-7.041-12.816-14.697-13.164c-7.541-0.343-11.941,7.333-14.697,13.164c-2.273,4.812-5.237,16.535-11.868,16.836
			c-6.36,0.289-9.857-12.469-11.869-16.836C86.11,8.997,81.987,2.518,74.331,2.17C69.816,1.965,69.836,8.966,74.331,9.17
			L74.331,9.17z"/>
	</g>
</g>
<g opacity="0" enable-background="new    ">
	<g>
		<path fill="#333333" d="M74.331,53.17c6.593,0.3,9.65,12.019,11.869,16.836c2.92,6.337,7.042,12.816,14.698,13.164
			c7.541,0.344,11.942-7.333,14.697-13.164c2.274-4.812,5.238-16.535,11.868-16.836c6.359-0.289,9.856,12.469,11.868,16.836
			c2.919,6.337,7.041,12.816,14.697,13.164c7.541,0.344,11.942-7.333,14.697-13.164c2.274-4.812,5.238-16.535,11.868-16.836
			c6.36-0.289,9.857,12.469,11.868,16.836c2.92,6.337,7.042,12.816,14.698,13.164c7.54,0.344,11.94-7.334,14.695-13.164
			c2.272-4.812,5.236-16.535,11.865-16.836c6.36-0.289,9.857,12.468,11.869,16.836c2.92,6.337,7.042,12.816,14.698,13.164
			c7.54,0.344,11.94-7.334,14.695-13.164c2.272-4.812,5.236-16.535,11.865-16.836c6.36-0.289,9.857,12.469,11.869,16.836
			c2.919,6.337,7.042,12.816,14.698,13.164c7.54,0.344,11.938-7.334,14.695-13.164c2.271-4.812,5.235-16.535,11.864-16.836
			c6.359-0.289,9.856,12.469,11.867,16.836c2.919,6.337,7.041,12.816,14.697,13.164c7.541,0.344,11.941-7.333,14.697-13.164
			c2.272-4.812,5.236-16.535,11.866-16.836c6.359-0.289,9.856,12.469,11.867,16.836c2.919,6.337,7.04,12.816,14.696,13.164
			c7.541,0.344,11.942-7.333,14.697-13.164c2.272-4.812,5.236-16.535,11.867-16.836c6.359-0.289,9.857,12.468,11.869,16.836
			c2.919,6.337,7.042,12.816,14.698,13.164c7.541,0.344,11.941-7.333,14.697-13.164c2.271-4.812,5.237-16.535,11.868-16.836
			c6.358-0.289,9.855,12.469,11.867,16.836c2.92,6.337,7.041,12.816,14.696,13.164c7.541,0.344,11.941-7.333,14.697-13.164
			c2.272-4.812,5.237-16.535,11.868-16.836c6.358-0.289,9.855,12.469,11.869,16.836c2.919,6.337,7.041,12.816,14.696,13.164
			c7.541,0.344,11.941-7.333,14.697-13.164c2.274-4.813,5.238-16.535,11.869-16.836c6.36-0.289,9.858,12.468,11.87,16.836
			c2.919,6.338,7.043,12.816,14.699,13.164c7.541,0.344,11.94-7.333,14.697-13.164c2.273-4.813,5.237-16.535,11.868-16.836
			c6.36-0.289,9.858,12.468,11.87,16.836c2.919,6.338,7.043,12.816,14.699,13.164c7.541,0.344,11.941-7.333,14.698-13.164
			c2.272-4.813,5.236-16.535,11.868-16.836c6.359-0.289,9.857,12.468,11.87,16.836c2.919,6.337,7.041,12.816,14.697,13.164
			c7.541,0.344,11.942-7.333,14.698-13.164c2.274-4.813,5.239-16.535,11.87-16.836c6.358-0.289,9.856,12.468,11.87,16.836
			c2.919,6.338,7.043,12.816,14.697,13.164c7.541,0.344,11.942-7.333,14.697-13.164c2.274-4.812,5.238-16.535,11.868-16.836
			c6.36-0.289,9.856,12.468,11.869,16.836c2.92,6.337,7.042,12.816,14.698,13.164c7.541,0.344,11.941-7.333,14.696-13.164
			c2.274-4.813,5.239-16.535,11.87-16.836c6.361-0.289,9.858,12.468,11.871,16.836c2.92,6.338,7.043,12.816,14.7,13.164
			c7.541,0.344,11.944-7.333,14.7-13.164c2.273-4.814,5.239-16.535,11.872-16.836c6.361-0.289,9.858,12.469,11.872,16.836
			c2.919,6.337,7.041,12.816,14.697,13.164c7.541,0.344,11.944-7.333,14.7-13.164c2.275-4.814,5.24-16.535,11.872-16.836
			c6.364-0.289,9.862,12.467,11.875,16.836c2.921,6.338,7.046,12.816,14.702,13.164c7.541,0.344,11.945-7.332,14.702-13.164
			c2.274-4.814,5.238-16.534,11.874-16.836c4.495-0.204,4.515-7.205,0-7c-7.706,0.35-11.712,6.84-14.702,13.164
			c-2.275,4.814-5.239,16.534-11.874,16.836c-6.364,0.289-9.861-12.468-11.874-16.836c-2.921-6.338-7.046-12.816-14.703-13.164
			c-7.541-0.343-11.943,7.333-14.7,13.164c-2.273,4.814-5.239,16.535-11.872,16.836c-6.359,0.289-9.856-12.468-11.871-16.836
			c-2.92-6.338-7.043-12.816-14.698-13.164c-7.541-0.343-11.944,7.333-14.7,13.164c-2.275,4.814-5.24,16.535-11.872,16.836
			c-6.363,0.289-9.86-12.469-11.872-16.836c-2.919-6.337-7.042-12.816-14.699-13.164c-7.541-0.343-11.941,7.333-14.698,13.164
			c-2.272,4.813-5.237,16.535-11.868,16.836c-6.36,0.289-9.857-12.469-11.869-16.836c-2.919-6.337-7.042-12.816-14.698-13.164
			c-7.541-0.343-11.941,7.333-14.697,13.164c-2.271,4.812-5.235,16.535-11.868,16.836c-6.359,0.289-9.856-12.468-11.869-16.836
			c-2.92-6.337-7.043-12.816-14.698-13.164c-7.541-0.343-11.942,7.333-14.698,13.164c-2.275,4.813-5.239,16.535-11.87,16.836
			c-6.358,0.289-9.856-12.468-11.87-16.836c-2.919-6.337-7.042-12.816-14.697-13.164c-7.541-0.343-11.941,7.333-14.697,13.164
			c-2.274,4.812-5.238,16.535-11.869,16.836c-6.361,0.289-9.858-12.468-11.871-16.836c-2.919-6.337-7.042-12.816-14.698-13.164
			c-7.541-0.343-11.94,7.333-14.696,13.164c-2.274,4.812-5.238,16.535-11.869,16.836c-6.361,0.289-9.858-12.468-11.871-16.836
			c-2.919-6.337-7.042-12.816-14.698-13.164c-7.541-0.343-11.942,7.333-14.698,13.164c-2.272,4.812-5.236,16.535-11.869,16.836
			c-6.358,0.289-9.855-12.469-11.867-16.836c-2.92-6.337-7.041-12.816-14.697-13.164c-7.541-0.343-11.942,7.333-14.697,13.164
			c-2.273,4.812-5.238,16.535-11.868,16.836c-6.357,0.289-9.854-12.469-11.868-16.836c-2.919-6.337-7.041-12.816-14.695-13.164
			c-7.541-0.343-11.942,7.333-14.697,13.164c-2.274,4.812-5.238,16.535-11.868,16.836c-6.358,0.289-9.856-12.468-11.87-16.836
			c-2.919-6.337-7.042-12.816-14.696-13.164c-7.541-0.343-11.941,7.333-14.697,13.164c-2.273,4.812-5.237,16.535-11.868,16.836
			c-6.358,0.289-9.855-12.47-11.866-16.836c-2.919-6.337-7.041-12.816-14.696-13.164c-7.54-0.343-11.94,7.333-14.696,13.164
			c-2.273,4.812-5.237,16.535-11.868,16.836c-6.359,0.289-9.856-12.469-11.867-16.836c-2.919-6.337-7.041-12.816-14.697-13.164
			c-7.54-0.343-11.939,7.333-14.694,13.164c-2.272,4.811-5.236,16.535-11.865,16.836c-6.36,0.289-9.857-12.468-11.869-16.836
			c-2.92-6.337-7.042-12.816-14.698-13.164c-7.54-0.343-11.94,7.334-14.695,13.164c-2.272,4.812-5.236,16.535-11.865,16.836
			c-6.36,0.289-9.857-12.469-11.869-16.836c-2.919-6.337-7.042-12.816-14.698-13.164c-7.54-0.343-11.94,7.334-14.695,13.164
			c-2.272,4.812-5.236,16.535-11.865,16.836c-6.36,0.289-9.857-12.469-11.868-16.836c-2.92-6.337-7.042-12.816-14.698-13.164
			c-7.541-0.343-11.941,7.333-14.697,13.164c-2.273,4.812-5.237,16.535-11.868,16.836c-6.36,0.289-9.857-12.469-11.868-16.836
			c-2.919-6.337-7.041-12.816-14.697-13.164c-7.541-0.343-11.941,7.333-14.697,13.164c-2.273,4.812-5.237,16.535-11.868,16.836
			c-6.36,0.289-9.857-12.469-11.869-16.836c-2.919-6.337-7.042-12.816-14.698-13.164C69.816,45.965,69.836,52.966,74.331,53.17
			L74.331,53.17z"/>
	</g>
</g>
<g opacity="0" enable-background="new    ">
	<g>
		<path fill="#333333" d="M75.331,101.17c6.593,0.301,9.65,12.02,11.869,16.836c2.92,6.337,7.042,12.816,14.698,13.164
			c7.541,0.344,11.942-7.333,14.697-13.164c2.274-4.812,5.238-16.533,11.868-16.836c6.359-0.289,9.856,12.469,11.868,16.836
			c2.919,6.337,7.041,12.816,14.697,13.164c7.541,0.344,11.942-7.333,14.697-13.164c2.274-4.812,5.238-16.533,11.868-16.836
			c6.36-0.289,9.857,12.469,11.868,16.836c2.92,6.337,7.042,12.816,14.698,13.164c7.54,0.344,11.94-7.334,14.695-13.164
			c2.272-4.812,5.236-16.533,11.865-16.836c6.36-0.289,9.857,12.469,11.869,16.836c2.92,6.337,7.042,12.816,14.698,13.164
			c7.54,0.344,11.94-7.334,14.695-13.164c2.272-4.812,5.236-16.533,11.865-16.836c6.36-0.289,9.857,12.469,11.869,16.836
			c2.919,6.338,7.042,12.816,14.698,13.164c7.54,0.344,11.938-7.334,14.695-13.164c2.271-4.812,5.235-16.533,11.864-16.836
			c6.359-0.289,9.856,12.469,11.867,16.836c2.919,6.337,7.041,12.816,14.697,13.164c7.541,0.344,11.941-7.333,14.697-13.164
			c2.272-4.812,5.236-16.533,11.866-16.836c6.359-0.289,9.856,12.469,11.867,16.836c2.919,6.337,7.04,12.816,14.696,13.164
			c7.541,0.344,11.942-7.333,14.697-13.164c2.272-4.812,5.236-16.533,11.867-16.836c6.359-0.289,9.857,12.469,11.869,16.836
			c2.919,6.338,7.042,12.816,14.698,13.164c7.541,0.344,11.941-7.333,14.697-13.164c2.271-4.812,5.237-16.533,11.868-16.836
			c6.358-0.289,9.855,12.469,11.867,16.836c2.92,6.337,7.041,12.816,14.696,13.164c7.541,0.344,11.941-7.333,14.697-13.164
			c2.272-4.812,5.237-16.533,11.868-16.836c6.358-0.289,9.855,12.469,11.869,16.836c2.919,6.337,7.041,12.816,14.696,13.164
			c7.541,0.344,11.941-7.333,14.697-13.164c2.274-4.812,5.238-16.533,11.869-16.836c6.36-0.289,9.858,12.469,11.87,16.836
			c2.919,6.338,7.043,12.816,14.699,13.164c7.541,0.344,11.94-7.333,14.697-13.164c2.273-4.812,5.237-16.533,11.868-16.836
			c6.36-0.289,9.858,12.469,11.87,16.836c2.919,6.338,7.043,12.816,14.699,13.164c7.541,0.344,11.941-7.333,14.698-13.164
			c2.272-4.812,5.236-16.533,11.868-16.836c6.359-0.289,9.857,12.469,11.87,16.836c2.919,6.338,7.041,12.816,14.697,13.164
			c7.541,0.344,11.942-7.333,14.698-13.164c2.274-4.812,5.239-16.533,11.87-16.836c6.358-0.289,9.856,12.469,11.87,16.836
			c2.919,6.338,7.043,12.816,14.697,13.164c7.541,0.344,11.942-7.333,14.697-13.164c2.274-4.812,5.238-16.533,11.868-16.836
			c6.36-0.289,9.856,12.469,11.869,16.836c2.92,6.337,7.042,12.816,14.698,13.164c7.541,0.344,11.941-7.333,14.696-13.164
			c2.274-4.812,5.239-16.533,11.87-16.836c6.361-0.289,9.858,12.469,11.871,16.836c2.92,6.338,7.043,12.816,14.7,13.164
			c7.541,0.344,11.944-7.333,14.7-13.164c2.273-4.812,5.239-16.533,11.872-16.836c6.361-0.289,9.858,12.469,11.872,16.836
			c2.919,6.338,7.041,12.816,14.697,13.164c7.541,0.344,11.944-7.333,14.7-13.164c2.275-4.812,5.24-16.533,11.872-16.836
			c6.364-0.289,9.862,12.469,11.875,16.836c2.921,6.338,7.046,12.816,14.702,13.164c7.541,0.344,11.945-7.332,14.702-13.164
			c2.274-4.814,5.238-16.533,11.874-16.836c4.495-0.204,4.515-7.205,0-7c-7.706,0.352-11.712,6.84-14.702,13.164
			c-2.275,4.814-5.239,16.534-11.874,16.836c-6.364,0.289-9.861-12.468-11.874-16.836c-2.921-6.339-7.046-12.816-14.703-13.164
			c-7.541-0.343-11.943,7.333-14.7,13.164c-2.273,4.812-5.239,16.534-11.872,16.836c-6.359,0.289-9.856-12.468-11.871-16.836
			c-2.92-6.338-7.043-12.816-14.698-13.164c-7.541-0.343-11.944,7.333-14.7,13.164c-2.275,4.812-5.24,16.534-11.872,16.836
			c-6.363,0.289-9.86-12.469-11.872-16.836c-2.919-6.338-7.042-12.816-14.699-13.164c-7.541-0.343-11.941,7.333-14.698,13.164
			c-2.272,4.812-5.237,16.534-11.868,16.836c-6.36,0.289-9.857-12.469-11.869-16.836c-2.919-6.338-7.042-12.816-14.698-13.164
			c-7.541-0.343-11.941,7.333-14.697,13.164c-2.271,4.812-5.235,16.534-11.868,16.836c-6.359,0.289-9.856-12.468-11.869-16.836
			c-2.92-6.338-7.043-12.816-14.698-13.164c-7.541-0.343-11.942,7.333-14.698,13.164c-2.275,4.812-5.239,16.534-11.87,16.836
			c-6.358,0.289-9.856-12.469-11.87-16.836c-2.919-6.338-7.042-12.816-14.697-13.164c-7.541-0.343-11.941,7.333-14.697,13.164
			c-2.274,4.812-5.238,16.534-11.869,16.836c-6.361,0.289-9.858-12.468-11.871-16.836c-2.919-6.338-7.042-12.816-14.698-13.164
			c-7.541-0.343-11.94,7.333-14.696,13.164c-2.274,4.812-5.238,16.534-11.869,16.836c-6.361,0.289-9.858-12.468-11.871-16.836
			c-2.919-6.338-7.042-12.816-14.698-13.164c-7.541-0.343-11.942,7.333-14.698,13.164c-2.272,4.812-5.236,16.534-11.869,16.836
			c-6.358,0.289-9.855-12.469-11.867-16.836c-2.92-6.337-7.041-12.816-14.697-13.164c-7.541-0.343-11.942,7.333-14.697,13.164
			c-2.273,4.812-5.238,16.534-11.868,16.836c-6.357,0.289-9.854-12.469-11.868-16.836c-2.919-6.337-7.041-12.816-14.695-13.164
			c-7.541-0.343-11.942,7.333-14.697,13.164c-2.274,4.812-5.238,16.534-11.868,16.836c-6.358,0.289-9.856-12.469-11.87-16.836
			c-2.919-6.338-7.042-12.816-14.696-13.164c-7.541-0.343-11.941,7.333-14.697,13.164c-2.273,4.812-5.237,16.534-11.868,16.836
			c-6.358,0.289-9.855-12.47-11.866-16.836c-2.919-6.337-7.041-12.816-14.696-13.164c-7.54-0.343-11.94,7.333-14.696,13.164
			c-2.273,4.812-5.237,16.534-11.868,16.836c-6.359,0.289-9.856-12.469-11.867-16.836c-2.919-6.337-7.041-12.816-14.697-13.164
			c-7.54-0.343-11.939,7.334-14.694,13.164c-2.272,4.812-5.236,16.534-11.865,16.836c-6.36,0.289-9.857-12.469-11.869-16.836
			c-2.92-6.337-7.042-12.816-14.698-13.164c-7.54-0.343-11.94,7.334-14.695,13.164c-2.272,4.812-5.236,16.534-11.865,16.836
			c-6.36,0.289-9.857-12.469-11.869-16.836c-2.919-6.338-7.042-12.816-14.698-13.164c-7.54-0.343-11.94,7.334-14.695,13.164
			c-2.272,4.812-5.236,16.534-11.865,16.836c-6.36,0.289-9.857-12.469-11.868-16.836c-2.92-6.337-7.042-12.816-14.698-13.164
			c-7.541-0.343-11.941,7.333-14.697,13.164c-2.273,4.812-5.237,16.534-11.868,16.836c-6.36,0.289-9.857-12.469-11.868-16.836
			c-2.919-6.337-7.041-12.816-14.697-13.164c-7.541-0.343-11.941,7.333-14.697,13.164c-2.273,4.812-5.237,16.534-11.868,16.836
			c-6.36,0.289-9.857-12.469-11.869-16.836c-2.919-6.338-7.042-12.816-14.698-13.164C70.816,93.965,70.836,100.966,75.331,101.17
			L75.331,101.17z"/>
	</g>
</g>
<g enable-background="new    ">
	<g>
		<path fill="#333333" d="M70.801,109.552c19.973,0.139,37.823,5.489,54.302,16.729c13.455,9.178,25.433,20.242,40.405,27.049
			c19.254,8.753,41.439,10.148,62.123,6.72c17.584-2.915,32.625-11.638,46.676-22.187c13.56-10.182,26.768-20.152,43.376-24.753
			c20.175-5.588,43.906-4.546,63.232,3.679c15.111,6.431,27.27,17.606,40.572,26.922c15.552,10.891,32.866,16.905,51.819,18.153
			c20.317,1.337,40.554-2.541,58.253-12.731c13.998-8.06,25.721-19.451,39.727-27.516c18.197-10.478,39.524-12.917,60.146-10.527
			c18.189,2.107,33.585,10.727,47.972,21.534c13.451,10.104,26.468,20.037,42.698,25.282c20.045,6.477,43.5,6.219,63.579,0.079
			c16.225-4.961,29.404-15.145,42.763-25.175c14.492-10.881,29.798-19.104,48.03-21.404c15.66-1.976,32.011-0.743,46.93,4.513
			c11.35,3.998,21.284,11.002,30.794,18.209c9.352,7.087,18.596,14.254,29.212,19.386c13.667,6.606,28.654,9.169,43.749,9.273
			c5.16,0.036,5.157-7.964,0-8c-19.975-0.139-37.825-5.489-54.305-16.729c-13.456-9.178-25.436-20.242-40.407-27.049
			c-19.256-8.753-41.442-10.148-62.127-6.72c-17.585,2.915-32.627,11.638-46.678,22.187c-13.561,10.182-26.769,20.152-43.379,24.753
			c-20.176,5.588-43.907,4.546-63.234-3.679c-15.11-6.431-27.27-17.606-40.572-26.922c-15.552-10.891-32.866-16.905-51.819-18.153
			c-20.317-1.337-40.555,2.541-58.253,12.731c-13.997,8.06-25.721,19.451-39.726,27.516c-18.197,10.478-39.525,12.917-60.146,10.527
			c-18.19-2.107-33.585-10.727-47.972-21.534c-13.45-10.104-26.466-20.037-42.697-25.282c-20.044-6.477-43.499-6.219-63.577-0.079
			c-16.224,4.961-29.403,15.145-42.761,25.175c-14.492,10.88-29.796,19.104-48.028,21.404c-15.659,1.976-32.009,0.743-46.927-4.513
			c-11.349-3.998-21.282-11.002-30.792-18.209c-9.351-7.087-18.594-14.254-29.209-19.386c-13.667-6.606-28.653-9.169-43.747-9.273
			C65.64,101.516,65.644,109.516,70.801,109.552L70.801,109.552z"/>
	</g>
</g>
<g enable-background="new    ">
	<g>
		<path fill="#333333" d="M70.865,59.551c19.973,0.139,37.823,5.489,54.302,16.729c13.455,9.177,25.434,20.242,40.405,27.048
			c19.254,8.753,41.439,10.148,62.123,6.72c17.584-2.915,32.625-11.638,46.676-22.187c13.56-10.181,26.768-20.152,43.376-24.752
			c20.175-5.588,43.906-4.545,63.232,3.679c15.111,6.43,27.27,17.606,40.572,26.921c15.552,10.891,32.866,16.904,51.819,18.152
			c20.317,1.337,40.554-2.54,58.253-12.73c13.997-8.06,25.721-19.451,39.726-27.516c18.198-10.478,39.525-12.917,60.147-10.527
			c18.189,2.108,33.585,10.726,47.972,21.534c13.45,10.104,26.467,20.037,42.697,25.281c20.045,6.477,43.5,6.219,63.579,0.079
			c16.225-4.961,29.404-15.144,42.764-25.174c14.492-10.881,29.798-19.104,48.03-21.405c15.66-1.976,32.011-0.743,46.93,4.514
			c11.35,3.998,21.284,11.002,30.794,18.209c9.352,7.086,18.596,14.253,29.212,19.385c13.667,6.606,28.654,9.169,43.749,9.273
			c5.16,0.036,5.157-7.964,0-8c-19.975-0.139-37.825-5.489-54.305-16.729c-13.456-9.178-25.436-20.242-40.407-27.048
			c-19.256-8.753-41.441-10.148-62.127-6.72c-17.585,2.915-32.627,11.637-46.678,22.187c-13.562,10.182-26.77,20.151-43.38,24.752
			c-20.175,5.588-43.907,4.546-63.233-3.679c-15.111-6.431-27.27-17.605-40.572-26.921c-15.552-10.891-32.866-16.905-51.819-18.153
			c-20.317-1.337-40.555,2.54-58.253,12.731c-13.998,8.06-25.721,19.451-39.727,27.515c-18.197,10.479-39.525,12.917-60.146,10.527
			c-18.19-2.107-33.585-10.726-47.972-21.533c-13.45-10.104-26.467-20.037-42.697-25.282c-20.044-6.477-43.499-6.219-63.577-0.08
			c-16.224,4.961-29.403,15.144-42.761,25.174c-14.492,10.881-29.796,19.104-48.028,21.404c-15.659,1.976-32.009,0.743-46.927-4.513
			c-11.349-3.998-21.282-11.002-30.792-18.209c-9.351-7.086-18.594-14.253-29.21-19.385c-13.667-6.606-28.653-9.168-43.747-9.273
			C65.705,51.516,65.708,59.516,70.865,59.551L70.865,59.551z"/>
	</g>
</g>
<g enable-background="new    ">
	<g>
		<path fill="#333333" d="M70.93,9.552c19.973,0.139,37.823,5.489,54.302,16.729c13.455,9.177,25.434,20.241,40.405,27.048
			c19.254,8.753,41.439,10.148,62.123,6.72c17.584-2.915,32.625-11.637,46.676-22.187c13.56-10.181,26.768-20.151,43.376-24.752
			c20.175-5.588,43.906-4.545,63.232,3.679c15.111,6.43,27.27,17.605,40.572,26.921c15.552,10.891,32.866,16.905,51.819,18.153
			c20.317,1.337,40.555-2.54,58.253-12.731c13.997-8.06,25.721-19.451,39.726-27.515c18.198-10.478,39.525-12.917,60.147-10.527
			c18.189,2.108,33.585,10.726,47.972,21.534C692.983,42.728,706,52.66,722.23,57.905c20.046,6.478,43.5,6.219,63.579,0.08
			c16.225-4.961,29.404-15.144,42.764-25.174c14.492-10.881,29.798-19.104,48.03-21.405c15.66-1.976,32.011-0.743,46.93,4.514
			c11.35,3.998,21.284,11.002,30.794,18.209c9.352,7.087,18.596,14.253,29.212,19.385c13.667,6.606,28.654,9.168,43.749,9.273
			c5.16,0.036,5.157-7.964,0-8c-19.975-0.139-37.825-5.489-54.305-16.729c-13.456-9.177-25.436-20.241-40.407-27.048
			c-19.256-8.753-41.441-10.148-62.127-6.72c-17.585,2.915-32.627,11.637-46.678,22.187c-13.562,10.181-26.77,20.151-43.38,24.752
			c-20.176,5.588-43.907,4.545-63.233-3.679c-15.111-6.43-27.27-17.605-40.572-26.921C661.034,9.738,643.72,3.723,624.767,2.476
			c-20.317-1.337-40.555,2.54-58.253,12.731c-13.998,8.06-25.721,19.451-39.727,27.515c-18.197,10.478-39.525,12.917-60.146,10.527
			c-18.19-2.108-33.585-10.727-47.972-21.534c-13.45-10.104-26.467-20.037-42.697-25.282c-20.044-6.477-43.499-6.219-63.577-0.08
			c-16.224,4.961-29.403,15.144-42.761,25.174c-14.492,10.881-29.796,19.104-48.028,21.405c-15.659,1.976-32.009,0.743-46.927-4.514
			c-11.349-3.998-21.282-11.002-30.792-18.209c-9.351-7.087-18.594-14.253-29.21-19.385C101.01,4.219,86.023,1.657,70.93,1.552
			C65.769,1.516,65.773,9.516,70.93,9.552L70.93,9.552z"/>
	</g>
</g>
</svg>
