<?xml version="1.0" encoding="utf-8"?>
<!-- Generator: Adobe Illustrator 15.0.0, SVG Export Plug-In . SVG Version: 6.00 Build 0)  -->
<!DOCTYPE svg PUBLIC "-//W3C//DTD SVG 1.1//EN" "http://www.w3.org/Graphics/SVG/1.1/DTD/svg11.dtd">
<svg version="1.1" id="Layer_1" xmlns="http://www.w3.org/2000/svg" xmlns:xlink="http://www.w3.org/1999/xlink" x="0px" y="0px"
	 width="1148px" height="164px" viewBox="0 0 1148 164" enable-background="new 0 0 1148 164" xml:space="preserve">
<g opacity="0" enable-background="new    ">
	<g>
		<path fill="#333333" d="M74.331,9.17c6.593,0.3,9.65,12.019,11.869,16.836c2.92,6.337,7.042,12.816,14.698,13.164
			c7.541,0.343,11.942-7.333,14.697-13.164c2.274-4.812,5.238-16.535,11.868-16.836c6.359-0.289,9.856,12.469,11.868,16.836
			c2.919,6.337,7.041,12.816,14.697,13.164c7.541,0.343,11.942-7.333,14.697-13.164c2.274-4.812,5.238-16.535,11.868-16.836
			c6.36-0.289,9.857,12.469,11.868,16.836c2.92,6.337,7.042,12.816,14.698,13.164c7.54,0.343,11.94-7.334,14.695-13.164
			c2.272-4.812,5.236-16.535,11.865-16.836c6.36-0.289,9.857,12.468,11.869,16.836c2.92,6.337,7.042,12.816,14.698,13.164
			c7.54,0.343,11.94-7.334,14.695-13.164c2.272-4.812,5.236-16.535,11.865-16.836c6.36-0.289,9.857,12.469,11.869,16.836
			c2.919,6.337,7.042,12.816,14.698,13.164c7.54,0.343,11.938-7.334,14.695-13.164c2.271-4.812,5.235-16.535,11.864-16.836
			c6.359-0.289,9.856,12.469,11.867,16.836c2.919,6.337,7.041,12.816,14.697,13.164c7.541,0.343,11.941-7.333,14.697-13.164
			c2.272-4.812,5.236-16.535,11.866-16.836c6.359-0.289,9.856,12.469,11.867,16.836c2.919,6.337,7.04,12.816,14.696,13.164
			c7.541,0.343,11.942-7.333,14.697-13.164c2.272-4.812,5.236-16.535,11.867-16.836c6.359-0.289,9.857,12.468,11.869,16.836
			c2.919,6.337,7.042,12.816,14.698,13.164c7.541,0.343,11.941-7.333,14.697-13.164c2.271-4.812,5.237-16.535,11.868-16.836
			c6.358-0.289,9.855,12.469,11.867,16.836c2.92,6.337,7.041,12.816,14.696,13.164c7.541,0.343,11.941-7.333,14.697-13.164
			c2.272-4.812,5.237-16.535,11.868-16.836c6.358-0.289,9.855,12.469,11.869,16.836c2.919,6.337,7.041,12.816,14.696,13.164
			c7.541,0.343,11.941-7.333,14.697-13.164c2.274-4.813,5.238-16.535,11.869-16.836c6.36-0.289,9.858,12.468,11.87,16.836
			c2.919,6.338,7.043,12.816,14.699,13.164c7.541,0.343,11.94-7.333,14.697-13.164c2.273-4.813,5.237-16.535,11.868-16.836
			c6.36-0.289,9.858,12.468,11.87,16.836c2.919,6.338,7.043,12.816,14.699,13.164c7.541,0.343,11.941-7.333,14.698-13.164
			c2.272-4.813,5.236-16.535,11.868-16.836c6.359-0.289,9.857,12.468,11.87,16.836c2.919,6.337,7.041,12.816,14.697,13.164
			c7.541,0.343,11.942-7.333,14.698-13.164c2.274-4.813,5.239-16.535,11.87-16.836c6.358-0.289,9.856,12.468,11.87,16.836
			c2.919,6.338,7.043,12.816,14.697,13.164c7.541,0.343,11.942-7.333,14.697-13.164c2.274-4.812,5.238-16.535,11.868-16.836
			c6.36-0.289,9.856,12.468,11.869,16.836c2.92,6.337,7.042,12.816,14.698,13.164c7.541,0.343,11.941-7.333,14.696-13.164
			c2.274-4.813,5.239-16.535,11.87-16.836c6.361-0.289,9.858,12.468,11.871,16.836c2.92,6.338,7.043,12.816,14.7,13.164
			c7.541,0.343,11.944-7.333,14.7-13.164c2.273-4.814,5.239-16.535,11.872-16.836c6.361-0.289,9.858,12.469,11.872,16.836
			c2.919,6.337,7.041,12.816,14.697,13.164c7.541,0.343,11.944-7.333,14.7-13.164c2.275-4.814,5.24-16.535,11.872-16.836
			c6.364-0.289,9.862,12.467,11.875,16.836c2.921,6.338,7.046,12.816,14.702,13.164c7.541,0.343,11.945-7.332,14.702-13.164
			c2.274-4.814,5.238-16.534,11.874-16.836c4.495-0.204,4.515-7.205,0-7c-7.706,0.35-11.712,6.84-14.702,13.164
			c-2.275,4.814-5.239,16.534-11.874,16.836c-6.364,0.289-9.861-12.468-11.874-16.836c-2.921-6.338-7.046-12.816-14.703-13.164
			c-7.541-0.343-11.943,7.333-14.7,13.164c-2.273,4.814-5.239,16.535-11.872,16.836c-6.359,0.289-9.856-12.468-11.871-16.836
			c-2.92-6.338-7.043-12.816-14.698-13.164c-7.541-0.343-11.944,7.333-14.7,13.164c-2.275,4.814-5.24,16.535-11.872,16.836
			c-6.363,0.289-9.86-12.469-11.872-16.836c-2.919-6.337-7.042-12.816-14.699-13.164c-7.541-0.343-11.941,7.333-14.698,13.164
			c-2.272,4.813-5.237,16.535-11.868,16.836c-6.36,0.289-9.857-12.469-11.869-16.836c-2.919-6.337-7.042-12.816-14.698-13.164
			c-7.541-0.343-11.941,7.333-14.697,13.164c-2.271,4.812-5.235,16.535-11.868,16.836c-6.359,0.289-9.856-12.468-11.869-16.836
			c-2.92-6.337-7.043-12.816-14.698-13.164c-7.541-0.343-11.942,7.333-14.698,13.164c-2.275,4.813-5.239,16.535-11.87,16.836
			c-6.358,0.289-9.856-12.468-11.87-16.836c-2.919-6.337-7.042-12.816-14.697-13.164c-7.541-0.343-11.941,7.333-14.697,13.164
			c-2.274,4.812-5.238,16.535-11.869,16.836c-6.361,0.289-9.858-12.468-11.871-16.836c-2.919-6.337-7.042-12.816-14.698-13.164
			c-7.541-0.343-11.94,7.333-14.696,13.164c-2.274,4.812-5.238,16.535-11.869,16.836c-6.361,0.289-9.858-12.468-11.871-16.836
			c-2.919-6.337-7.042-12.816-14.698-13.164c-7.541-0.343-11.942,7.333-14.698,13.164c-2.272,4.812-5.236,16.535-11.869,16.836
			c-6.358,0.289-9.855-12.469-11.867-16.836c-2.92-6.337-7.041-12.816-14.697-13.164c-7.541-0.343-11.942,7.333-14.697,13.164
			c-2.273,4.812-5.238,16.535-11.868,16.836c-6.357,0.289-9.854-12.469-11.868-16.836c-2.919-6.337-7.041-12.816-14.695-13.164
			c-7.541-0.343-11.942,7.333-14.697,13.164c-2.274,4.812-5.238,16.535-11.868,16.836c-6.358,0.289-9.856-12.468-11.87-16.836
			c-2.919-6.337-7.042-12.816-14.696-13.164c-7.541-0.343-11.941,7.333-14.697,13.164c-2.273,4.812-5.237,16.535-11.868,16.836
			c-6.358,0.289-9.855-12.47-11.866-16.836c-2.919-6.337-7.041-12.816-14.696-13.164c-7.54-0.343-11.94,7.333-14.696,13.164
			c-2.273,4.812-5.237,16.535-11.868,16.836c-6.359,0.289-9.856-12.469-11.867-16.836c-2.919-6.337-7.041-12.816-14.697-13.164
			c-7.54-0.343-11.939,7.333-14.694,13.164c-2.272,4.811-5.236,16.535-11.865,16.836c-6.36,0.289-9.857-12.468-11.869-16.836
			c-2.92-6.337-7.042-12.816-14.698-13.164c-7.54-0.343-11.94,7.334-14.695,13.164c-2.272,4.812-5.236,16.535-11.865,16.836
			c-6.36,0.289-9.857-12.469-11.869-16.836c-2.919-6.337-7.042-12.816-14.698-13.164c-7.54-0.343-11.94,7.334-14.695,13.164
			c-2.272,4.812-5.236,16.535-11.865,16.836c-6.36,0.289-9.857-12.469-11.868-16.836c-2.92-6.337-7.042-12.816-14.698-13.164
			c-7.541-0.343-11.941,7.333-14.697,13.164c-2.273,4.812-5.237,16.535-11.868,16.836c-6.36,0.289-9.857-12.469-11.868-16.836
			c-2.919-6.337-7.041-12.816-14.697-13.164c-7.541-0.343-11.941,7.333-14.697,13.164c-2.273,4.812-5.237,16.535-11.868,16.836
			c-6.36,0.289-9.857-12.469-11.869-16.836C86.11,8.997,81.987,2.518,74.331,2.17C69.816,1.965,69.836,8.966,74.331,9.17
			L74.331,9.17z"/>
	</g>
</g>
<g opacity="0" enable-background="new    ">
	<g>
		<path fill="#333333" d="M74.331,53.17c6.593,0.3,9.65,12.019,11.869,16.836c2.92,6.337,7.042,12.816,14.698,13.164
			c7.541,0.344,11.942-7.333,14.697-13.164c2.274-4.812,5.238-16.535,11.868-16.836c6.359-0.289,9.856,12.469,11.868,16.836
			c2.919,6.337,7.041,12.816,14.697,13.164c7.541,0.344,11.942-7.333,14.697-13.164c2.274-4.812,5.238-16.535,11.868-16.836
			c6.36-0.289,9.857,12.469,11.868,16.836c2.92,6.337,7.042,12.816,14.698,13.164c7.54,0.344,11.94-7.334,14.695-13.164
			c2.272-4.812,5.236-16.535,11.865-16.836c6.36-0.289,9.857,12.468,11.869,16.836c2.92,6.337,7.042,12.816,14.698,13.164
			c7.54,0.344,11.94-7.334,14.695-13.164c2.272-4.812,5.236-16.535,11.865-16.836c6.36-0.289,9.857,12.469,11.869,16.836
			c2.919,6.337,7.042,12.816,14.698,13.164c7.54,0.344,11.938-7.334,14.695-13.164c2.271-4.812,5.235-16.535,11.864-16.836
			c6.359-0.289,9.856,12.469,11.867,16.836c2.919,6.337,7.041,12.816,14.697,13.164c7.541,0.344,11.941-7.333,14.697-13.164
			c2.272-4.812,5.236-16.535,11.866-16.836c6.359-0.289,9.856,12.469,11.867,16.836c2.919,6.337,7.04,12.816,14.696,13.164
			c7.541,0.344,11.942-7.333,14.697-13.164c2.272-4.812,5.236-16.535,11.867-16.836c6.359-0.289,9.857,12.468,11.869,16.836
			c2.919,6.337,7.042,12.816,14.698,13.164c7.541,0.344,11.941-7.333,14.697-13.164c2.271-4.812,5.237-16.535,11.868-16.836
			c6.358-0.289,9.855,12.469,11.867,16.836c2.92,6.337,7.041,12.816,14.696,13.164c7.541,0.344,11.941-7.333,14.697-13.164
			c2.272-4.812,5.237-16.535,11.868-16.836c6.358-0.289,9.855,12.469,11.869,16.836c2.919,6.337,7.041,12.816,14.696,13.164
			c7.541,0.344,11.941-7.333,14.697-13.164c2.274-4.813,5.238-16.535,11.869-16.836c6.36-0.289,9.858,12.468,11.87,16.836
			c2.919,6.338,7.043,12.816,14.699,13.164c7.541,0.344,11.94-7.333,14.697-13.164c2.273-4.813,5.237-16.535,11.868-16.836
			c6.36-0.289,9.858,12.468,11.87,16.836c2.919,6.338,7.043,12.816,14.699,13.164c7.541,0.344,11.941-7.333,14.698-13.164
			c2.272-4.813,5.236-16.535,11.868-16.836c6.359-0.289,9.857,12.468,11.87,16.836c2.919,6.337,7.041,12.816,14.697,13.164
			c7.541,0.344,11.942-7.333,14.698-13.164c2.274-4.813,5.239-16.535,11.87-16.836c6.358-0.289,9.856,12.468,11.87,16.836
			c2.919,6.338,7.043,12.816,14.697,13.164c7.541,0.344,11.942-7.333,14.697-13.164c2.274-4.812,5.238-16.535,11.868-16.836
			c6.36-0.289,9.856,12.468,11.869,16.836c2.92,6.337,7.042,12.816,14.698,13.164c7.541,0.344,11.941-7.333,14.696-13.164
			c2.274-4.813,5.239-16.535,11.87-16.836c6.361-0.289,9.858,12.468,11.871,16.836c2.92,6.338,7.043,12.816,14.7,13.164
			c7.541,0.344,11.944-7.333,14.7-13.164c2.273-4.814,5.239-16.535,11.872-16.836c6.361-0.289,9.858,12.469,11.872,16.836
			c2.919,6.337,7.041,12.816,14.697,13.164c7.541,0.344,11.944-7.333,14.7-13.164c2.275-4.814,5.24-16.535,11.872-16.836
			c6.364-0.289,9.862,12.467,11.875,16.836c2.921,6.338,7.046,12.816,14.702,13.164c7.541,0.344,11.945-7.332,14.702-13.164
			c2.274-4.814,5.238-16.534,11.874-16.836c4.495-0.204,4.515-7.205,0-7c-7.706,0.35-11.712,6.84-14.702,13.164
			c-2.275,4.814-5.239,16.534-11.874,16.836c-6.364,0.289-9.861-12.468-11.874-16.836c-2.921-6.338-7.046-12.816-14.703-13.164
			c-7.541-0.343-11.943,7.333-14.7,13.164c-2.273,4.814-5.239,16.535-11.872,16.836c-6.359,0.289-9.856-12.468-11.871-16.836
			c-2.92-6.338-7.043-12.816-14.698-13.164c-7.541-0.343-11.944,7.333-14.7,13.164c-2.275,4.814-5.24,16.535-11.872,16.836
			c-6.363,0.289-9.86-12.469-11.872-16.836c-2.919-6.337-7.042-12.816-14.699-13.164c-7.541-0.343-11.941,7.333-14.698,13.164
			c-2.272,4.813-5.237,16.535-11.868,16.836c-6.36,0.289-9.857-12.469-11.869-16.836c-2.919-6.337-7.042-12.816-14.698-13.164
			c-7.541-0.343-11.941,7.333-14.697,13.164c-2.271,4.812-5.235,16.535-11.868,16.836c-6.359,0.289-9.856-12.468-11.869-16.836
			c-2.92-6.337-7.043-12.816-14.698-13.164c-7.541-0.343-11.942,7.333-14.698,13.164c-2.275,4.813-5.239,16.535-11.87,16.836
			c-6.358,0.289-9.856-12.468-11.87-16.836c-2.919-6.337-7.042-12.816-14.697-13.164c-7.541-0.343-11.941,7.333-14.697,13.164
			c-2.274,4.812-5.238,16.535-11.869,16.836c-6.361,0.289-9.858-12.468-11.871-16.836c-2.919-6.337-7.042-12.816-14.698-13.164
			c-7.541-0.343-11.94,7.333-14.696,13.164c-2.274,4.812-5.238,16.535-11.869,16.836c-6.361,0.289-9.858-12.468-11.871-16.836
			c-2.919-6.337-7.042-12.816-14.698-13.164c-7.541-0.343-11.942,7.333-14.698,13.164c-2.272,4.812-5.236,16.535-11.869,16.836
			c-6.358,0.289-9.855-12.469-11.867-16.836c-2.92-6.337-7.041-12.816-14.697-13.164c-7.541-0.343-11.942,7.333-14.697,13.164
			c-2.273,4.812-5.238,16.535-11.868,16.836c-6.357,0.289-9.854-12.469-11.868-16.836c-2.919-6.337-7.041-12.816-14.695-13.164
			c-7.541-0.343-11.942,7.333-14.697,13.164c-2.274,4.812-5.238,16.535-11.868,16.836c-6.358,0.289-9.856-12.468-11.87-16.836
			c-2.919-6.337-7.042-12.816-14.696-13.164c-7.541-0.343-11.941,7.333-14.697,13.164c-2.273,4.812-5.237,16.535-11.868,16.836
			c-6.358,0.289-9.855-12.47-11.866-16.836c-2.919-6.337-7.041-12.816-14.696-13.164c-7.54-0.343-11.94,7.333-14.696,13.164
			c-2.273,4.812-5.237,16.535-11.868,16.836c-6.359,0.289-9.856-12.469-11.867-16.836c-2.919-6.337-7.041-12.816-14.697-13.164
			c-7.54-0.343-11.939,7.333-14.694,13.164c-2.272,4.811-5.236,16.535-11.865,16.836c-6.36,0.289-9.857-12.468-11.869-16.836
			c-2.92-6.337-7.042-12.816-14.698-13.164c-7.54-0.343-11.94,7.334-14.695,13.164c-2.272,4.812-5.236,16.535-11.865,16.836
			c-6.36,0.289-9.857-12.469-11.869-16.836c-2.919-6.337-7.042-12.816-14.698-13.164c-7.54-0.343-11.94,7.334-14.695,13.164
			c-2.272,4.812-5.236,16.535-11.865,16.836c-6.36,0.289-9.857-12.469-11.868-16.836c-2.92-6.337-7.042-12.816-14.698-13.164
			c-7.541-0.343-11.941,7.333-14.697,13.164c-2.273,4.812-5.237,16.535-11.868,16.836c-6.36,0.289-9.857-12.469-11.868-16.836
			c-2.919-6.337-7.041-12.816-14.697-13.164c-7.541-0.343-11.941,7.333-14.697,13.164c-2.273,4.812-5.237,16.535-11.868,16.836
			c-6.36,0.289-9.857-12.469-11.869-16.836c-2.919-6.337-7.042-12.816-14.698-13.164C69.816,45.965,69.836,52.966,74.331,53.17
			L74.331,53.17z"/>
	</g>
</g>
<g opacity="0" enable-background="new    ">
	<g>
		<path fill="#333333" d="M75.331,101.17c6.593,0.301,9.65,12.02,11.869,16.836c2.92,6.337,7.042,12.816,14.698,13.164
			c7.541,0.344,11.942-7.333,14.697-13.164c2.274-4.812,5.238-16.533,11.868-16.836c6.359-0.289,9.856,12.469,11.868,16.836
			c2.919,6.337,7.041,12.816,14.697,13.164c7.541,0.344,11.942-7.333,14.697-13.164c2.274-4.812,5.238-16.533,11.868-16.836
			c6.36-0.289,9.857,12.469,11.868,16.836c2.92,6.337,7.042,12.816,14.698,13.164c7.54,0.344,11.94-7.334,14.695-13.164
			c2.272-4.812,5.236-16.533,11.865-16.836c6.36-0.289,9.857,12.469,11.869,16.836c2.92,6.337,7.042,12.816,14.698,13.164
			c7.54,0.344,11.94-7.334,14.695-13.164c2.272-4.812,5.236-16.533,11.865-16.836c6.36-0.289,9.857,12.469,11.869,16.836
			c2.919,6.338,7.042,12.816,14.698,13.164c7.54,0.344,11.938-7.334,14.695-13.164c2.271-4.812,5.235-16.533,11.864-16.836
			c6.359-0.289,9.856,12.469,11.867,16.836c2.919,6.337,7.041,12.816,14.697,13.164c7.541,0.344,11.941-7.333,14.697-13.164
			c2.272-4.812,5.236-16.533,11.866-16.836c6.359-0.289,9.856,12.469,11.867,16.836c2.919,6.337,7.04,12.816,14.696,13.164
			c7.541,0.344,11.942-7.333,14.697-13.164c2.272-4.812,5.236-16.533,11.867-16.836c6.359-0.289,9.857,12.469,11.869,16.836
			c2.919,6.338,7.042,12.816,14.698,13.164c7.541,0.344,11.941-7.333,14.697-13.164c2.271-4.812,5.237-16.533,11.868-16.836
			c6.358-0.289,9.855,12.469,11.867,16.836c2.92,6.337,7.041,12.816,14.696,13.164c7.541,0.344,11.941-7.333,14.697-13.164
			c2.272-4.812,5.237-16.533,11.868-16.836c6.358-0.289,9.855,12.469,11.869,16.836c2.919,6.337,7.041,12.816,14.696,13.164
			c7.541,0.344,11.941-7.333,14.697-13.164c2.274-4.812,5.238-16.533,11.869-16.836c6.36-0.289,9.858,12.469,11.87,16.836
			c2.919,6.338,7.043,12.816,14.699,13.164c7.541,0.344,11.94-7.333,14.697-13.164c2.273-4.812,5.237-16.533,11.868-16.836
			c6.36-0.289,9.858,12.469,11.87,16.836c2.919,6.338,7.043,12.816,14.699,13.164c7.541,0.344,11.941-7.333,14.698-13.164
			c2.272-4.812,5.236-16.533,11.868-16.836c6.359-0.289,9.857,12.469,11.87,16.836c2.919,6.338,7.041,12.816,14.697,13.164
			c7.541,0.344,11.942-7.333,14.698-13.164c2.274-4.812,5.239-16.533,11.87-16.836c6.358-0.289,9.856,12.469,11.87,16.836
			c2.919,6.338,7.043,12.816,14.697,13.164c7.541,0.344,11.942-7.333,14.697-13.164c2.274-4.812,5.238-16.533,11.868-16.836
			c6.36-0.289,9.856,12.469,11.869,16.836c2.92,6.337,7.042,12.816,14.698,13.164c7.541,0.344,11.941-7.333,14.696-13.164
			c2.274-4.812,5.239-16.533,11.87-16.836c6.361-0.289,9.858,12.469,11.871,16.836c2.92,6.338,7.043,12.816,14.7,13.164
			c7.541,0.344,11.944-7.333,14.7-13.164c2.273-4.812,5.239-16.533,11.872-16.836c6.361-0.289,9.858,12.469,11.872,16.836
			c2.919,6.338,7.041,12.816,14.697,13.164c7.541,0.344,11.944-7.333,14.7-13.164c2.275-4.812,5.24-16.533,11.872-16.836
			c6.364-0.289,9.862,12.469,11.875,16.836c2.921,6.338,7.046,12.816,14.702,13.164c7.541,0.344,11.945-7.332,14.702-13.164
			c2.274-4.814,5.238-16.533,11.874-16.836c4.495-0.204,4.515-7.205,0-7c-7.706,0.352-11.712,6.84-14.702,13.164
			c-2.275,4.814-5.239,16.534-11.874,16.836c-6.364,0.289-9.861-12.468-11.874-16.836c-2.921-6.339-7.046-12.816-14.703-13.164
			c-7.541-0.343-11.943,7.333-14.7,13.164c-2.273,4.812-5.239,16.534-11.872,16.836c-6.359,0.289-9.856-12.468-11.871-16.836
			c-2.92-6.338-7.043-12.816-14.698-13.164c-7.541-0.343-11.944,7.333-14.7,13.164c-2.275,4.812-5.24,16.534-11.872,16.836
			c-6.363,0.289-9.86-12.469-11.872-16.836c-2.919-6.338-7.042-12.816-14.699-13.164c-7.541-0.343-11.941,7.333-14.698,13.164
			c-2.272,4.812-5.237,16.534-11.868,16.836c-6.36,0.289-9.857-12.469-11.869-16.836c-2.919-6.338-7.042-12.816-14.698-13.164
			c-7.541-0.343-11.941,7.333-14.697,13.164c-2.271,4.812-5.235,16.534-11.868,16.836c-6.359,0.289-9.856-12.468-11.869-16.836
			c-2.92-6.338-7.043-12.816-14.698-13.164c-7.541-0.343-11.942,7.333-14.698,13.164c-2.275,4.812-5.239,16.534-11.87,16.836
			c-6.358,0.289-9.856-12.469-11.87-16.836c-2.919-6.338-7.042-12.816-14.697-13.164c-7.541-0.343-11.941,7.333-14.697,13.164
			c-2.274,4.812-5.238,16.534-11.869,16.836c-6.361,0.289-9.858-12.468-11.871-16.836c-2.919-6.338-7.042-12.816-14.698-13.164
			c-7.541-0.343-11.94,7.333-14.696,13.164c-2.274,4.812-5.238,16.534-11.869,16.836c-6.361,0.289-9.858-12.468-11.871-16.836
			c-2.919-6.338-7.042-12.816-14.698-13.164c-7.541-0.343-11.942,7.333-14.698,13.164c-2.272,4.812-5.236,16.534-11.869,16.836
			c-6.358,0.289-9.855-12.469-11.867-16.836c-2.92-6.337-7.041-12.816-14.697-13.164c-7.541-0.343-11.942,7.333-14.697,13.164
			c-2.273,4.812-5.238,16.534-11.868,16.836c-6.357,0.289-9.854-12.469-11.868-16.836c-2.919-6.337-7.041-12.816-14.695-13.164
			c-7.541-0.343-11.942,7.333-14.697,13.164c-2.274,4.812-5.238,16.534-11.868,16.836c-6.358,0.289-9.856-12.469-11.87-16.836
			c-2.919-6.338-7.042-12.816-14.696-13.164c-7.541-0.343-11.941,7.333-14.697,13.164c-2.273,4.812-5.237,16.534-11.868,16.836
			c-6.358,0.289-9.855-12.47-11.866-16.836c-2.919-6.337-7.041-12.816-14.696-13.164c-7.54-0.343-11.94,7.333-14.696,13.164
			c-2.273,4.812-5.237,16.534-11.868,16.836c-6.359,0.289-9.856-12.469-11.867-16.836c-2.919-6.337-7.041-12.816-14.697-13.164
			c-7.54-0.343-11.939,7.334-14.694,13.164c-2.272,4.812-5.236,16.534-11.865,16.836c-6.36,0.289-9.857-12.469-11.869-16.836
			c-2.92-6.337-7.042-12.816-14.698-13.164c-7.54-0.343-11.94,7.334-14.695,13.164c-2.272,4.812-5.236,16.534-11.865,16.836
			c-6.36,0.289-9.857-12.469-11.869-16.836c-2.919-6.338-7.042-12.816-14.698-13.164c-7.54-0.343-11.94,7.334-14.695,13.164
			c-2.272,4.812-5.236,16.534-11.865,16.836c-6.36,0.289-9.857-12.469-11.868-16.836c-2.92-6.337-7.042-12.816-14.698-13.164
			c-7.541-0.343-11.941,7.333-14.697,13.164c-2.273,4.812-5.237,16.534-11.868,16.836c-6.36,0.289-9.857-12.469-11.868-16.836
			c-2.919-6.337-7.041-12.816-14.697-13.164c-7.541-0.343-11.941,7.333-14.697,13.164c-2.273,4.812-5.237,16.534-11.868,16.836
			c-6.36,0.289-9.857-12.469-11.869-16.836c-2.919-6.338-7.042-12.816-14.698-13.164C70.816,93.965,70.836,100.966,75.331,101.17
			L75.331,101.17z"/>
	</g>
</g>
<g enable-background="new    ">
	<path fill="none" stroke="#333333" stroke-width="9" stroke-linecap="round" d="M70.801,105.552
		c68.315,0.089,68.248,52.089,136.562,52.177c68.314,0.088,68.381-51.912,136.696-51.824c68.315,0.088,68.248,52.089,136.562,52.177
		c68.316,0.088,68.383-51.912,136.699-51.824s68.249,52.089,136.564,52.177c68.318,0.088,68.385-51.912,136.703-51.824
		s68.252,52.088,136.57,52.177"/>
</g>
<g enable-background="new    ">
	<path fill="none" stroke="#333333" stroke-width="9" stroke-linecap="round" d="M70.865,55.551
		c68.315,0.088,68.248,52.088,136.563,52.176c68.314,0.088,68.381-51.912,136.696-51.823c68.315,0.088,68.248,52.088,136.562,52.176
		c68.316,0.089,68.383-51.911,136.699-51.823c68.315,0.088,68.248,52.088,136.563,52.176c68.318,0.089,68.386-51.912,136.704-51.823
		s68.252,52.088,136.57,52.177"/>
</g>
<g enable-background="new    ">
	<path fill="none" stroke="#333333" stroke-width="9" stroke-linecap="round" d="M70.93,5.552
		c68.315,0.088,68.248,52.088,136.563,52.176c68.314,0.088,68.381-51.912,136.696-51.823c68.315,0.088,68.248,52.088,136.562,52.176
		c68.316,0.088,68.383-51.912,136.699-51.824c68.315,0.088,68.248,52.088,136.563,52.176c68.318,0.088,68.386-51.912,136.704-51.823
		s68.252,52.088,136.57,52.176"/>
</g>
</svg>
