<?xml version="1.0" encoding="utf-8"?>
<!-- Generator: Adobe Illustrator 15.0.0, SVG Export Plug-In . SVG Version: 6.00 Build 0)  -->
<!DOCTYPE svg PUBLIC "-//W3C//DTD SVG 1.1//EN" "http://www.w3.org/Graphics/SVG/1.1/DTD/svg11.dtd">
<svg version="1.1" id="Layer_1" xmlns="http://www.w3.org/2000/svg" xmlns:xlink="http://www.w3.org/1999/xlink" x="0px" y="0px"
	 width="574px" height="82px" viewBox="0 0 574 82" enable-background="new 0 0 574 82" xml:space="preserve">
<g opacity="0" enable-background="new    ">
	<path fill="none" stroke="#333333" stroke-width="3" stroke-linecap="round" d="M44.174,54
		c32.449-0.206,32.605,24.493,65.055,24.287c32.448-0.207,32.291-24.906,64.739-25.113c32.449-0.206,32.606,24.493,65.056,24.287
		c32.449-0.207,32.292-24.906,64.74-25.113c32.449-0.207,32.607,24.493,65.057,24.286c32.451-0.206,32.294-24.905,64.743-25.112
		c32.45-0.207,32.607,24.492,65.059,24.287"/>
</g>
<g opacity="0" enable-background="new    ">
	<path fill="none" stroke="#333333" stroke-width="3" stroke-linecap="round" d="M44.021,30.25
		c32.449-0.207,32.606,24.493,65.056,24.286c32.448-0.206,32.291-24.906,64.74-25.112c32.448-0.207,32.604,24.493,65.054,24.287
		c32.45-0.207,32.292-24.906,64.741-25.113c32.449-0.205,32.605,24.493,65.057,24.287c32.449-0.207,32.293-24.906,64.744-25.113
		c32.449-0.205,32.606,24.494,65.058,24.287"/>
</g>
<g opacity="0" enable-background="new    ">
	<path fill="none" stroke="#333333" stroke-width="3" stroke-linecap="round" d="M43.871,6.501
		c32.449-0.207,32.605,24.493,65.055,24.286s32.291-24.906,64.74-25.112c32.449-0.207,32.605,24.493,65.055,24.287
		c32.449-0.207,32.292-24.905,64.742-25.112c32.448-0.207,32.605,24.492,65.055,24.285c32.45-0.207,32.295-24.906,64.743-25.111
		c32.45-0.207,32.608,24.492,65.061,24.285"/>
</g>
<g opacity="0">
	<polyline fill="none" stroke="#333333" stroke-width="3" stroke-linecap="round" points="47.873,-15.248 111.872,64.752 
		175.87,-15.248 239.866,64.752 303.865,-15.248 367.866,64.752 431.869,-15.248 495.873,64.752 	"/>
</g>
<g opacity="0">
	<polyline fill="none" stroke="#333333" stroke-width="3" stroke-linecap="round" points="48.373,0.752 112.372,80.752 
		176.37,0.752 240.366,80.752 304.365,0.752 368.366,80.752 432.369,0.752 496.373,80.752 	"/>
</g>
<g opacity="0">
	<polyline fill="none" stroke="#333333" stroke-width="3" stroke-linecap="round" points="48.373,18.253 112.372,98.253 
		176.37,18.253 240.366,98.253 304.365,18.253 368.366,98.253 432.369,18.253 496.373,98.253 	"/>
</g>
<line fill="none" stroke="#000000" stroke-width="3" x1="278.873" y1="15.993" x2="278.873" y2="1.621"/>
<line fill="none" stroke="#000000" stroke-width="3" x1="278.873" y1="80.861" x2="278.873" y2="64.904"/>
<line fill="none" stroke="#333333" stroke-width="2" stroke-linecap="round" x1="304.167" y1="40.752" x2="391.376" y2="40.752"/>
<line fill="none" stroke="#333333" stroke-width="2" stroke-linecap="round" x1="152.123" y1="40.752" x2="248.834" y2="40.752"/>
<polyline fill="none" stroke="#202422" stroke-width="2" stroke-linejoin="round" points="156.104,31.21 162.766,40.745 
	156.063,50.557 "/>
<polyline fill="none" stroke="#202422" stroke-width="2" stroke-linejoin="round" points="165.354,31.21 172.016,40.745 
	165.313,50.557 "/>
<path fill="none" stroke="#000000" stroke-miterlimit="10" stroke-opacity="0" d="M260.24,47.669
	c-4.804-9.473-1.024-21.037,8.454-25.844c3.34-1.693,9.174-2.406,13.947-1.098c2.859,0.785,5.322,2.797,6.688,4.375
	c2.25,2.605-5.707,0.316-9,1.297c-2.059,0.613-4.398,2.18-5.945,3.994c-1.474,1.732-2.664,4.338-2.905,6.504
	c-0.305,2.717,1.573,5.959,2.1,6.998c0.57,1.125,2.302,2.754,4.726,3.85c1.67,0.756,5.783,0.379,7.818,0.178
	c2.406-0.242,4.156-2.35,6.121-3.852c3.008-2.301,2.074-6.961,2.867-4.654c1.777,5.178-3.764,14.037-9.027,16.701
	C276.606,60.923,265.036,57.136,260.24,47.669z"/>
<g id="XMLID_1_">
	<g>
		<path d="M296.069,39.37c2.224,4.995-2.523,14.304-7.54,17.423c-9.016,5.607-20.871,2.85-26.479-6.166
			c-5.607-9.016-2.85-20.871,6.166-26.478c3.179-1.984,8.935-3.201,13.801-2.312c2.917,0.528,5.543,2.316,7.046,3.771
			c2.469,2.404-5.661,0.816-8.853,2.079c-1.999,0.787-4.193,2.555-5.58,4.494c-1.312,1.861-2.271,4.555-2.321,6.738
			c-0.073,2.727,2.083,5.8,2.702,6.791c0.666,1.065,2.531,2.539,5.038,3.424c1.729,0.602,5.8-0.136,7.805-0.512
			c2.38-0.449,3.939-2.704,5.761-4.369C296.413,41.698,295.081,37.137,296.069,39.37z"/>
	</g>
	<g>
	</g>
</g>
<polygon fill="none" stroke="#202422" stroke-width="2" stroke-linejoin="round" points="391.376,33.899 403.419,40.852 
	391.376,47.805 "/>
</svg>
