<?xml version="1.0" encoding="utf-8"?>
<!-- Generator: Adobe Illustrator 15.0.0, SVG Export Plug-In . SVG Version: 6.00 Build 0)  -->
<!DOCTYPE svg PUBLIC "-//W3C//DTD SVG 1.1//EN" "http://www.w3.org/Graphics/SVG/1.1/DTD/svg11.dtd">
<svg version="1.1" id="Layer_1" xmlns="http://www.w3.org/2000/svg" xmlns:xlink="http://www.w3.org/1999/xlink" x="0px" y="0px"
	 width="612px" height="64.333px" viewBox="0 0 612 64.333" enable-background="new 0 0 612 64.333" xml:space="preserve">
<g opacity="0.5">
	<path fill="none" stroke="#333333" d="M2.772,26.655c50.411,0,50.411,23.677,100.841,23.677c50.438,0,50.438-23.677,100.875-23.677
		c50.455,0,50.455,23.677,100.909,23.677c50.438,0,50.438-23.677,100.872-23.677c50.463,0,50.463,23.677,100.93,23.677
		c50.479,0,50.479-23.677,100.957-23.677"/>
</g>
<g opacity="0.5">
	<path fill="none" stroke="#333333" d="M2.772,2.976c50.411,0,50.411,23.679,100.841,23.679c50.438,0,50.438-23.679,100.875-23.679
		c50.455,0,50.455,23.679,100.909,23.679c50.438,0,50.438-23.679,100.872-23.679c50.463,0,50.463,23.679,100.93,23.679
		c50.479,0,50.479-23.679,100.957-23.679"/>
</g>
</svg>
