<?xml version="1.0" encoding="utf-8"?>
<!-- Generator: Adobe Illustrator 15.0.0, SVG Export Plug-In . SVG Version: 6.00 Build 0)  -->
<!DOCTYPE svg PUBLIC "-//W3C//DTD SVG 1.1//EN" "http://www.w3.org/Graphics/SVG/1.1/DTD/svg11.dtd">
<svg version="1.1" id="Layer_1" xmlns="http://www.w3.org/2000/svg" xmlns:xlink="http://www.w3.org/1999/xlink" x="0px" y="0px"
	 width="374.275px" height="218.584px" viewBox="0 0 374.275 218.584" enable-background="new 0 0 374.275 218.584"
	 xml:space="preserve">
<g opacity="0.69">
	<g>
		<polygon points="382.338,217.111 364.639,200.977 364.758,200.977 347.179,217.241 347.06,217.352 346.939,217.241 329.246,201.1 
			329.592,201.1 311.957,217.321 311.764,217.499 311.571,217.321 293.91,201.145 294.338,201.145 276.719,217.366 276.486,217.582 
			276.25,217.366 258.606,201.189 259.115,201.189 241.496,217.411 241.222,217.665 240.946,217.411 223.27,201.234 
			223.862,201.234 206.248,217.456 205.932,217.747 205.614,217.456 187.948,201.279 188.624,201.278 170.991,217.458 
			170.673,217.75 170.355,217.458 152.741,201.235 153.336,201.235 135.697,217.413 135.42,217.667 135.143,217.413 117.54,201.19 
			118.052,201.19 100.386,217.367 100.151,217.583 99.916,217.368 82.276,201.146 82.705,201.146 65.06,217.322 64.866,217.501 
			64.673,217.322 47.059,201.101 47.406,201.101 29.745,217.242 29.623,217.353 29.504,217.242 11.951,200.978 12.071,200.978 
			-5.608,217.111 11.951,200.847 12.01,200.791 12.071,200.847 29.744,216.98 29.504,216.98 47.059,200.724 47.231,200.563 
			47.406,200.724 65.06,216.9 64.673,216.9 82.276,200.679 82.49,200.481 82.705,200.679 100.386,216.854 99.916,216.854 
			117.54,200.633 117.796,200.397 118.052,200.634 135.697,216.81 135.143,216.81 152.74,200.588 153.037,200.314 153.336,200.588 
			170.991,216.765 170.355,216.765 187.948,200.544 188.286,200.233 188.624,200.544 206.247,216.767 205.615,216.767 
			223.269,200.589 223.567,200.317 223.862,200.589 241.496,216.812 240.946,216.812 258.606,200.634 258.862,200.399 
			259.115,200.634 276.719,216.856 276.25,216.856 293.91,200.679 294.125,200.482 294.338,200.679 311.957,216.901 
			311.571,216.901 329.246,200.724 329.42,200.565 329.592,200.724 347.178,216.981 346.94,216.981 364.639,200.847 
			364.698,200.792 364.758,200.847 		"/>
	</g>
</g>
<g opacity="0.69">
	<g>
		<polygon points="381.111,16.201 363.411,0.065 363.531,0.065 345.951,16.331 345.832,16.441 345.711,16.331 328.019,0.188 
			328.365,0.188 310.73,16.411 310.536,16.588 310.343,16.411 292.683,0.233 293.111,0.233 275.491,16.456 275.257,16.671 
			275.023,16.456 257.378,0.278 257.888,0.278 240.269,16.501 239.994,16.754 239.718,16.501 222.042,0.323 222.634,0.323 
			205.021,16.546 204.704,16.837 204.386,16.546 186.721,0.368 187.397,0.368 169.764,16.547 169.445,16.84 169.127,16.547 
			151.513,0.324 152.108,0.324 134.469,16.502 134.192,16.756 133.916,16.502 116.313,0.279 116.824,0.279 99.159,16.457 
			98.923,16.673 98.688,16.457 81.049,0.234 81.477,0.234 63.833,16.412 63.638,16.59 63.445,16.412 45.832,0.189 46.178,0.189 
			28.517,16.332 28.396,16.442 28.276,16.332 10.723,0.066 10.844,0.066 -6.835,16.201 10.723,-0.065 10.783,-0.12 10.844,-0.065 
			28.517,16.07 28.277,16.07 45.831,-0.188 46.004,-0.347 46.178,-0.188 63.833,15.99 63.445,15.99 81.048,-0.233 81.262,-0.43 
			81.477,-0.233 99.158,15.944 98.689,15.944 116.313,-0.278 116.568,-0.513 116.825,-0.278 134.469,15.899 133.916,15.899 
			151.513,-0.323 151.81,-0.597 152.108,-0.323 169.764,15.854 169.127,15.854 186.721,-0.367 187.058,-0.678 187.396,-0.367 
			205.02,15.855 204.386,15.855 222.041,-0.322 222.339,-0.594 222.634,-0.322 240.269,15.9 239.718,15.9 257.378,-0.277 
			257.634,-0.512 257.888,-0.277 275.491,15.945 275.023,15.945 292.683,-0.232 292.898,-0.429 293.111,-0.232 310.73,15.99 
			310.343,15.99 328.019,-0.188 328.193,-0.346 328.365,-0.188 345.95,16.07 345.712,16.07 363.411,-0.064 363.471,-0.12 
			363.531,-0.064 		"/>
	</g>
</g>
</svg>
