<?xml version="1.0" encoding="utf-8"?>
<!-- Generator: Adobe Illustrator 15.0.0, SVG Export Plug-In . SVG Version: 6.00 Build 0)  -->
<!DOCTYPE svg PUBLIC "-//W3C//DTD SVG 1.1//EN" "http://www.w3.org/Graphics/SVG/1.1/DTD/svg11.dtd">
<svg version="1.1" id="Layer_1" xmlns="http://www.w3.org/2000/svg" xmlns:xlink="http://www.w3.org/1999/xlink" x="0px" y="0px"
	 width="668px" height="516px" viewBox="239.059 -0.5 668 516" enable-background="new 239.059 -0.5 668 516" xml:space="preserve">
<g>
	<path fill="none" stroke="#000000" stroke-linecap="round" stroke-linejoin="round" d="M905.559,121.574
		c-33.281-0.188-33.109-33.609-66.375-33.766c-33.281-0.172-33.344,15.234-66.625,15.062c-33.312-0.172-33.125-30.172-66.453-30.359
		c-33.281-0.188-33.531,45.781-66.828,45.625c-33.266-0.188-33.062-36.781-66.344-36.969c-33.281-0.172-33.406,22.312-66.688,22.125
		c-33.297-0.188-33.203-18.969-66.5-19.172c-33.312-0.156-33.422,22.766-66.734,22.578c-33.359-0.156-33.25-26.188-66.609-26.344
		c-33.359-0.188-33.484,27.828-66.844,27.656"/>
</g>
<line fill="none" stroke="#000000" stroke-width="0.7078" stroke-linecap="round" stroke-linejoin="round" x1="573.167" y1="-1" x2="572.833" y2="81.168"/>
<path fill="none" stroke="#000000" stroke-linecap="round" stroke-linejoin="round" d="M573.167,0"/>
<path fill="none" stroke="#000000" stroke-linecap="round" stroke-linejoin="round" d="M574.5-0.5"/>
<g>
	<path fill="none" stroke="#000000" stroke-miterlimit="10" d="M906.559,465.574c-33.281-0.188-33.109-33.609-66.375-33.766
		c-33.281-0.172-33.344,15.234-66.625,15.062c-33.312-0.172-33.125-30.172-66.453-30.359c-33.281-0.188-33.531,45.781-66.828,45.625
		c-33.266-0.188-33.062-36.781-66.344-36.969c-33.281-0.172-33.406,22.312-66.688,22.125c-33.297-0.188-33.203-18.969-66.5-19.172
		c-33.312-0.156-33.422,22.766-66.734,22.578c-33.359-0.156-33.25-26.188-66.609-26.344c-31.312-0.176-33.344,24.497-61.064,27.383
		c-1.812,0.188-3.733,0.284-5.78,0.273"/>
</g>
</svg>
