<?xml version="1.0" encoding="utf-8"?>
<!-- Generator: Adobe Illustrator 15.0.0, SVG Export Plug-In . SVG Version: 6.00 Build 0)  -->
<!DOCTYPE svg PUBLIC "-//W3C//DTD SVG 1.1//EN" "http://www.w3.org/Graphics/SVG/1.1/DTD/svg11.dtd">
<svg version="1.1" id="Layer_1" xmlns="http://www.w3.org/2000/svg" xmlns:xlink="http://www.w3.org/1999/xlink" x="0px" y="0px"
	 width="668px" height="516px" viewBox="0 0 668 516" enable-background="new 0 0 668 516" xml:space="preserve">
<path fill="none" stroke="#000000" stroke-linecap="round" stroke-linejoin="round" d="M333.167-3"/>
<path fill="none" stroke="#000000" stroke-linecap="round" stroke-linejoin="round" d="M334.5-3.5"/>
<g>
	<path fill="none" stroke="#000000" stroke-miterlimit="10" d="M666.559,465.574c-33.28-0.188-33.108-33.609-66.375-33.767
		c-33.28-0.172-33.344,15.234-66.625,15.062c-33.312-0.172-33.125-30.172-66.452-30.359c-33.281-0.188-33.531,45.781-66.828,45.625
		c-33.267-0.188-33.062-36.78-66.345-36.969c-33.28-0.172-33.405,22.312-66.688,22.125c-33.297-0.188-33.203-18.969-66.5-19.172
		c-33.312-0.156-33.422,22.766-66.734,22.578c-33.359-0.156-33.25-26.188-66.609-26.344c-31.312-0.177-33.344,24.496-61.064,27.383
		c-1.812,0.188-3.733,0.284-5.78,0.272"/>
</g>
<g>
	<g>
		<path fill="#FFFFF8" stroke="#000000" stroke-linecap="round" stroke-linejoin="round" d="M483.408,19.079
			c-14.977-0.084-14.898-15.125-29.869-15.195c-14.976-0.077-15.004,6.855-29.98,6.778c-14.99-0.078-13.061-2.539-28.059-2.623
			c-14.977-0.084-16.935,9.562-31.918,9.492c-16.012-0.09-13.857-16.545-29.855-16.636c-14.976-0.077-15.033,10.04-30.009,9.956
			c-14.983-0.085-14.941-8.536-29.925-8.627c-14.991-0.07-15.04,10.244-30.031,10.16C228.75,12.314,228.8,0.6,213.788,0.529
			c-15.012-0.084-15.067,12.522-30.08,12.445"/>
	</g>
	<path fill="#FFFFF8" stroke="#000000" stroke-linecap="round" stroke-linejoin="round" d="M519.938,36.223
		c-18.638-0.105-18.54-18.822-37.171-18.909c-18.636-0.097-18.672,8.531-37.309,8.435c-18.654-0.096-17.396-5.067-36.06-5.172
		c-18.637-0.105-19.932,13.808-38.578,13.721c-19.463-0.109-17.698-20.592-37.153-20.702c-18.637-0.097-18.708,12.494-37.345,12.39
		c-18.646-0.105-18.594-10.623-37.24-10.736c-18.656-0.087-18.716,12.749-37.372,12.645c-18.681-0.088-18.62-14.666-37.301-14.753
		c-18.682-0.105-18.751,15.583-37.433,15.487"/>
	<path fill="#FFFFF8" stroke="#000000" stroke-linecap="round" stroke-linejoin="round" d="M556.469,53.367
		c-22.299-0.126-22.183-22.519-44.472-22.623c-22.298-0.116-22.341,10.207-44.639,10.091c-22.318-0.115-21.729-7.596-44.059-7.722
		c-22.298-0.125-22.931,18.054-45.239,17.95c-22.914-0.129-21.539-24.639-44.451-24.769c-22.297-0.115-22.381,14.949-44.68,14.824
		c-22.309-0.126-22.246-12.709-44.555-12.845c-22.319-0.104-22.393,15.253-44.712,15.128c-22.351-0.105-22.277-17.547-44.628-17.651
		c-22.351-0.126-22.435,18.645-44.786,18.529"/>
	<path fill="#FFFFF8" stroke="#000000" stroke-linecap="round" stroke-linejoin="round" d="M592.998,70.511
		c-25.959-0.147-25.824-26.215-51.771-26.338c-25.959-0.134-26.009,11.883-51.968,11.749c-25.983-0.134-26.063-10.125-52.06-10.271
		c-25.959-0.146-25.928,22.3-51.899,22.179c-26.364-0.149-25.38-28.687-51.749-28.836c-25.958-0.134-26.057,17.403-52.017,17.258
		c-25.971-0.147-25.898-14.796-51.87-14.955c-25.984-0.122-26.069,17.757-52.053,17.611c-26.021-0.122-25.936-20.427-51.955-20.548
		C99.637,38.212,99.54,60.065,73.519,59.931"/>
	<path fill="#FFFFF8" stroke="#000000" stroke-linecap="round" stroke-linejoin="round" d="M629.528,87.655
		c-29.619-0.167-29.466-29.913-59.073-30.052c-29.62-0.154-29.677,13.558-59.297,13.405c-29.646-0.152-30.397-12.653-60.059-12.82
		c-29.62-0.167-28.926,26.546-58.561,26.407c-29.815-0.167-29.222-32.733-59.047-32.902c-29.62-0.153-29.73,19.857-59.352,19.691
		c-29.635-0.167-29.551-16.882-59.186-17.063c-29.648-0.139-29.745,20.262-59.393,20.095c-29.69-0.139-29.593-23.308-59.282-23.446
		c-29.689-0.167-29.801,24.767-59.491,24.614"/>
	<g>
		<path fill="#FFFFF8" stroke="#000000" stroke-linecap="round" stroke-linejoin="round" d="M666.059,104.799
			c-33.28-0.188-33.108-33.609-66.375-33.766c-33.28-0.172-33.344,15.234-66.625,15.062c-33.312-0.172-34.731-15.183-68.059-15.37
			c-33.281-0.188-31.925,30.792-65.222,30.636c-33.267-0.188-33.062-36.781-66.345-36.969c-33.28-0.172-33.405,22.312-66.688,22.125
			c-33.297-0.188-33.203-18.969-66.5-19.172c-33.312-0.156-33.422,22.766-66.734,22.578c-33.359-0.156-33.25-26.188-66.609-26.344
			C33.544,63.391,33.419,91.407,0.059,91.234"/>
	</g>
</g>
</svg>
