<?xml version="1.0" encoding="utf-8"?>
<!-- Generator: Adobe Illustrator 15.0.0, SVG Export Plug-In . SVG Version: 6.00 Build 0)  -->
<!DOCTYPE svg PUBLIC "-//W3C//DTD SVG 1.1//EN" "http://www.w3.org/Graphics/SVG/1.1/DTD/svg11.dtd">
<svg version="1.1" id="Layer_1" xmlns="http://www.w3.org/2000/svg" xmlns:xlink="http://www.w3.org/1999/xlink" x="0px" y="0px"
	 width="374.275px" height="218.584px" viewBox="0 0 374.275 218.584" enable-background="new 0 0 374.275 218.584"
	 xml:space="preserve">
<g opacity="0.69">
	<g>
		<polygon points="382.338,217.11 364.639,200.978 364.758,200.978 347.179,217.241 347.06,217.353 346.939,217.241 
			329.246,201.101 329.592,201.101 311.957,217.321 311.764,217.499 311.571,217.321 293.91,201.146 294.338,201.146 
			276.719,217.366 276.486,217.582 276.25,217.366 258.606,201.188 259.115,201.188 241.496,217.411 241.222,217.665 
			240.946,217.411 223.27,201.233 223.862,201.233 206.248,217.456 205.932,217.747 205.614,217.456 187.948,201.278 
			188.624,201.278 170.991,217.458 170.673,217.75 170.355,217.458 152.741,201.235 153.336,201.235 135.697,217.413 
			135.42,217.667 135.143,217.413 117.54,201.19 118.052,201.19 100.386,217.367 100.151,217.583 99.916,217.368 82.276,201.146 
			82.705,201.146 65.06,217.322 64.866,217.501 64.673,217.322 47.059,201.101 47.406,201.101 29.745,217.242 29.623,217.353 
			29.504,217.242 11.951,200.978 12.071,200.978 -5.608,217.11 11.951,200.847 12.01,200.791 12.071,200.847 29.744,216.979 
			29.504,216.979 47.059,200.724 47.231,200.563 47.406,200.724 65.06,216.899 64.673,216.899 82.276,200.679 82.49,200.481 
			82.705,200.679 100.386,216.854 99.916,216.854 117.54,200.633 117.796,200.397 118.052,200.634 135.697,216.81 135.143,216.81 
			152.74,200.588 153.037,200.313 153.336,200.588 170.991,216.765 170.355,216.765 187.948,200.544 188.286,200.233 
			188.624,200.544 206.247,216.767 205.615,216.767 223.269,200.589 223.567,200.317 223.862,200.589 241.496,216.812 
			240.946,216.812 258.606,200.634 258.862,200.399 259.115,200.634 276.719,216.856 276.25,216.856 293.91,200.679 
			294.125,200.481 294.338,200.679 311.957,216.901 311.571,216.901 329.246,200.724 329.42,200.565 329.592,200.724 
			347.178,216.981 346.94,216.981 364.639,200.847 364.698,200.792 364.758,200.847 		"/>
	</g>
</g>
<g opacity="0.69">
	<g>
		<polygon points="382.165,16.879 364.465,0.743 364.585,0.743 347.005,17.009 346.885,17.119 346.764,17.009 329.073,0.866 
			329.419,0.866 311.784,17.089 311.59,17.266 311.396,17.089 293.737,0.911 294.165,0.911 276.545,17.134 276.31,17.349 
			276.077,17.134 258.431,0.956 258.942,0.956 241.323,17.179 241.048,17.432 240.771,17.179 223.095,1.001 223.687,1.001 
			206.075,17.224 205.758,17.515 205.44,17.224 187.775,1.046 188.451,1.046 170.818,17.225 170.499,17.518 170.18,17.225 
			152.567,1.002 153.162,1.002 135.522,17.18 135.246,17.434 134.969,17.18 117.367,0.957 117.878,0.957 100.213,17.135 
			99.976,17.351 99.742,17.135 82.102,0.912 82.531,0.912 64.886,17.09 64.692,17.268 64.499,17.09 46.885,0.867 47.232,0.867 
			29.571,17.01 29.45,17.12 29.33,17.01 11.777,0.744 11.898,0.744 -5.781,16.879 11.777,0.613 11.837,0.558 11.898,0.613 
			29.571,16.748 29.331,16.748 46.885,0.49 47.057,0.331 47.232,0.49 64.886,16.668 64.499,16.668 82.101,0.445 82.316,0.248 
			82.531,0.445 100.212,16.622 99.743,16.622 117.367,0.4 117.622,0.165 117.879,0.4 135.522,16.577 134.969,16.577 152.567,0.354 
			152.864,0.081 153.162,0.354 170.818,16.532 170.18,16.532 187.775,0.311 188.112,0 188.45,0.311 206.074,16.533 205.44,16.533 
			223.094,0.355 223.392,0.084 223.687,0.355 241.323,16.578 240.771,16.578 258.431,0.401 258.687,0.166 258.942,0.401 
			276.545,16.623 276.077,16.623 293.737,0.446 293.952,0.249 294.165,0.446 311.784,16.668 311.396,16.668 329.073,0.49 
			329.247,0.332 329.419,0.49 347.004,16.748 346.765,16.748 364.465,0.614 364.525,0.558 364.585,0.614 		"/>
	</g>
</g>
</svg>
