<?xml version="1.0" encoding="utf-8"?>
<!-- Generator: Adobe Illustrator 15.0.0, SVG Export Plug-In . SVG Version: 6.00 Build 0)  -->
<!DOCTYPE svg PUBLIC "-//W3C//DTD SVG 1.1//EN" "http://www.w3.org/Graphics/SVG/1.1/DTD/svg11.dtd">
<svg version="1.1" id="Layer_1" xmlns="http://www.w3.org/2000/svg" xmlns:xlink="http://www.w3.org/1999/xlink" x="0px" y="0px"
	 width="1148px" height="164px" viewBox="0 0 1148 164" enable-background="new 0 0 1148 164" xml:space="preserve">
<g opacity="0.9">
	<g>
		<g>
			<path fill="#333333" d="M1021.216,109.987c-20.962-0.096-40.663-4.317-59.038-14.529c-14.826-8.239-28.245-18.707-43.88-25.502
				c-39.786-17.291-88.06-13.356-125.101,8.656c-14.44,8.582-27.918,18.816-43.834,24.63c-21.401,7.818-46.061,8.737-68.316,4.475
				c-18.061-3.459-33.415-12.142-48.688-21.968c-15.579-10.021-31.467-18.796-49.705-22.917c-23.277-5.26-49.065-4.723-72.039,1.769
				c-17.377,4.91-32.333,14.531-47.399,24.123c-15.875,10.105-32.065,17.396-50.834,20.127c-21.745,3.164-45.894,1.249-66.229-7.428
				c-15.742-6.717-29.275-17.387-44.139-25.699c-18.808-10.519-39.407-15.449-60.876-16.157
				c-22.656-0.747-44.968,3.219-65.346,13.259c-15.252,7.514-28.626,18.256-43.813,25.897c-16.381,8.243-34.476,11.18-52.676,11.264
				c-9.684,0.045-9.773,15.048-0.108,15.004c22.197-0.103,43.458-4.448,63.186-14.768c15.073-7.886,28.465-18.576,43.891-25.849
				c20.24-9.541,43.493-11.187,65.495-9.137c19.155,1.784,36.214,9.108,52.361,19.193c15.168,9.475,29.742,19.177,46.94,24.692
				c22.783,7.306,48.469,7.543,71.825,3.107c18.424-3.499,34.802-12.158,50.433-22.174c14.959-9.585,29.645-18.387,47.128-22.508
				c22.226-5.239,47.142-4.32,68.879,2.648c16.409,5.26,30.332,15.513,44.851,24.445c36.453,22.423,84.335,27.516,124.271,11.067
				c16.13-6.644,29.962-16.996,44.959-25.695c17.712-10.275,36.897-15.008,57.328-15.482c21.226-0.492,41.76,3.415,60.516,13.507
				c14.898,8.018,28.252,18.566,43.697,25.621c17.696,8.083,36.78,11.242,56.155,11.331
				C1030.797,125.035,1030.878,110.031,1021.216,109.987L1021.216,109.987z"/>
		</g>
	</g>
</g>
<g opacity="0.9">
	<g>
		<g>
			<path fill="#333333" d="M1021.216,138.498c-20.962-0.096-40.663-4.317-59.038-14.529c-14.826-8.239-28.245-18.707-43.88-25.502
				c-39.786-17.291-88.06-13.356-125.101,8.656c-14.44,8.582-27.918,18.816-43.834,24.63c-21.401,7.818-46.061,8.737-68.316,4.475
				c-18.061-3.459-33.415-12.142-48.688-21.968c-15.579-10.021-31.467-18.796-49.705-22.917c-23.277-5.26-49.065-4.723-72.039,1.769
				c-17.377,4.91-32.333,14.53-47.399,24.123c-15.875,10.105-32.065,17.396-50.834,20.127c-21.745,3.164-45.894,1.249-66.229-7.428
				c-15.742-6.717-29.275-17.387-44.139-25.699c-18.808-10.519-39.407-15.449-60.876-16.157
				c-22.656-0.746-44.968,3.219-65.346,13.26c-15.252,7.514-28.626,18.256-43.813,25.897c-16.381,8.243-34.476,11.18-52.676,11.264
				c-9.684,0.045-9.773,15.048-0.108,15.004c22.197-0.103,43.458-4.448,63.186-14.768c15.073-7.886,28.465-18.576,43.891-25.849
				c20.24-9.541,43.493-11.187,65.495-9.138c19.155,1.785,36.214,9.108,52.361,19.193c15.168,9.475,29.742,19.177,46.94,24.692
				c22.783,7.306,48.469,7.543,71.825,3.107c18.424-3.499,34.802-12.158,50.433-22.174c14.959-9.585,29.645-18.388,47.128-22.509
				c22.226-5.238,47.142-4.32,68.879,2.648c16.409,5.261,30.332,15.514,44.851,24.445c36.453,22.423,84.335,27.516,124.271,11.067
				c16.13-6.644,29.962-16.996,44.959-25.695c17.712-10.274,36.897-15.008,57.328-15.481c21.226-0.493,41.76,3.414,60.516,13.507
				c14.898,8.018,28.252,18.566,43.697,25.621c17.696,8.083,36.78,11.242,56.155,11.331
				C1030.797,153.546,1030.878,138.542,1021.216,138.498L1021.216,138.498z"/>
		</g>
	</g>
</g>
<g opacity="0.9">
	<g>
		<g>
			<path fill="#333333" d="M1022.054,52.988c-20.962-0.096-40.663-4.318-59.038-14.53c-14.826-8.239-28.245-18.707-43.88-25.502
				C879.35-4.334,831.076-0.4,794.035,21.612c-14.44,8.582-27.918,18.816-43.834,24.63c-21.401,7.817-46.061,8.737-68.316,4.474
				c-18.061-3.459-33.415-12.142-48.688-21.967C617.619,18.728,601.73,9.953,583.493,5.832c-23.278-5.26-49.066-4.723-72.039,1.769
				c-17.378,4.91-32.334,14.531-47.4,24.123C448.18,41.83,431.988,49.12,413.221,51.851c-21.745,3.164-45.894,1.25-66.229-7.428
				c-15.742-6.717-29.275-17.387-44.139-25.699C284.044,8.205,263.445,3.274,241.976,2.567
				c-22.656-0.747-44.967,3.219-65.346,13.259c-15.251,7.514-28.626,18.256-43.812,25.898c-16.382,8.243-34.476,11.18-52.677,11.264
				c-9.684,0.044-9.773,15.048-0.108,15.003c22.196-0.102,43.458-4.447,63.186-14.767c15.073-7.885,28.465-18.577,43.891-25.848
				c20.24-9.541,43.493-11.188,65.495-9.138c19.155,1.784,36.215,9.108,52.362,19.193c15.168,9.474,29.742,19.177,46.94,24.691
				c22.783,7.306,48.469,7.543,71.824,3.108c18.425-3.499,34.802-12.159,50.433-22.174c14.959-9.585,29.646-18.387,47.128-22.508
				c22.226-5.239,47.143-4.321,68.88,2.648c16.409,5.261,30.331,15.514,44.851,24.445c36.452,22.423,84.334,27.516,124.27,11.067
				c16.13-6.644,29.962-16.996,44.959-25.695c17.712-10.275,36.897-15.008,57.328-15.482c21.226-0.492,41.76,3.415,60.516,13.507
				c14.898,8.018,28.252,18.566,43.697,25.621c17.696,8.083,36.78,11.242,56.155,11.331
				C1031.635,68.035,1031.716,53.032,1022.054,52.988L1022.054,52.988z"/>
		</g>
	</g>
</g>
<g opacity="0.9">
	<g>
		<g>
			<path fill="#333333" d="M1021.216,81.499c-20.962-0.096-40.663-4.318-59.038-14.53c-14.826-8.239-28.245-18.707-43.88-25.502
				c-39.786-17.291-88.06-13.356-125.101,8.656c-14.44,8.582-27.918,18.816-43.834,24.63c-21.401,7.817-46.061,8.737-68.316,4.474
				c-18.061-3.459-33.415-12.142-48.688-21.967c-15.579-10.022-31.467-18.796-49.705-22.917c-23.277-5.26-49.065-4.723-72.039,1.769
				c-17.377,4.91-32.333,14.531-47.399,24.123C447.341,70.34,431.15,77.63,412.382,80.361c-21.745,3.164-45.894,1.25-66.229-7.428
				c-15.742-6.717-29.275-17.387-44.139-25.699c-18.808-10.519-39.407-15.449-60.876-16.157
				c-22.656-0.747-44.968,3.218-65.347,13.259c-15.251,7.514-28.625,18.256-43.812,25.898c-16.382,8.243-34.476,11.18-52.677,11.264
				c-9.684,0.044-9.773,15.047-0.108,15.003c22.197-0.103,43.459-4.447,63.187-14.768c15.072-7.885,28.464-18.577,43.889-25.848
				c20.24-9.542,43.494-11.188,65.496-9.138c19.155,1.784,36.214,9.108,52.361,19.193c15.168,9.474,29.742,19.176,46.94,24.692
				c22.783,7.306,48.469,7.543,71.825,3.107c18.424-3.499,34.802-12.159,50.433-22.174c14.959-9.585,29.645-18.387,47.128-22.508
				c22.226-5.239,47.142-4.32,68.879,2.648c16.409,5.261,30.332,15.514,44.851,24.445c36.453,22.423,84.335,27.516,124.271,11.067
				c16.13-6.644,29.962-16.996,44.959-25.695c17.712-10.275,36.897-15.008,57.328-15.482c21.226-0.492,41.76,3.415,60.516,13.507
				c14.898,8.018,28.252,18.566,43.697,25.621c17.696,8.083,36.78,11.242,56.155,11.331
				C1030.797,96.546,1030.878,81.542,1021.216,81.499L1021.216,81.499z"/>
		</g>
	</g>
</g>
</svg>
