<?xml version="1.0" encoding="utf-8"?>
<!-- Generator: Adobe Illustrator 15.0.0, SVG Export Plug-In . SVG Version: 6.00 Build 0)  -->
<!DOCTYPE svg PUBLIC "-//W3C//DTD SVG 1.1//EN" "http://www.w3.org/Graphics/SVG/1.1/DTD/svg11.dtd">
<svg version="1.1" id="Layer_1" xmlns="http://www.w3.org/2000/svg" xmlns:xlink="http://www.w3.org/1999/xlink" x="0px" y="0px"
	 width="574px" height="82px" viewBox="0 0 574 82" enable-background="new 0 0 574 82" xml:space="preserve">
<polygon fill="none" stroke="#000000" stroke-width="1.5" points="286.717,73.859 264.921,37.665 286.718,1.468 310.848,37.664 "/>
<polyline fill="none" stroke="#000000" points="265.149,37.665 286.946,47.382 311.076,37.664 "/>
<g>
	
		<line fill="none" stroke="#000000" stroke-width="0.75" stroke-linejoin="round" x1="267.165" y1="40.298" x2="277.232" y2="46.46"/>
	<path fill="none" stroke="#000000" stroke-width="0.75" stroke-linejoin="round" d="M278.909,49.794"/>
	<path fill="none" stroke="#000000" stroke-width="0.75" stroke-linejoin="round" d="M269.609,44.107"/>
	
		<line fill="none" stroke="#000000" stroke-width="0.75" stroke-linejoin="round" x1="272.052" y1="47.921" x2="280.586" y2="53.122"/>
	<path fill="none" stroke="#000000" stroke-width="0.75" stroke-linejoin="round" d="M282.264,56.454"/>
	<path fill="none" stroke="#000000" stroke-width="0.75" stroke-linejoin="round" d="M274.498,51.734"/>
	
		<line fill="none" stroke="#000000" stroke-width="0.75" stroke-linejoin="round" x1="276.942" y1="55.548" x2="283.941" y2="59.786"/>
	<path fill="none" stroke="#000000" stroke-width="0.75" stroke-linejoin="round" d="M285.619,63.116"/>
	<path fill="none" stroke="#000000" stroke-width="0.75" stroke-linejoin="round" d="M279.388,59.361"/>
	
		<line fill="none" stroke="#000000" stroke-width="0.75" stroke-linejoin="round" x1="281.833" y1="63.173" x2="287.294" y2="66.448"/>
	<path fill="none" stroke="#000000" stroke-width="0.75" stroke-linejoin="round" d="M288.971,69.78"/>
	<path fill="none" stroke="#000000" stroke-width="0.75" stroke-linejoin="round" d="M284.277,66.986"/>
	<path fill="none" stroke="#000000" stroke-width="0.75" stroke-linejoin="round" d="M286.723,70.8"/>
</g>
<g>
	
		<line fill="none" stroke="#000000" stroke-width="0.75" stroke-linejoin="round" x1="297.98" y1="46.46" x2="308.047" y2="41.298"/>
	
		<line fill="none" stroke="#000000" stroke-width="0.75" stroke-linejoin="round" x1="296.302" y1="50.794" x2="305.604" y2="45.107"/>
	<path fill="none" stroke="#000000" stroke-width="0.75" stroke-linejoin="round" d="M303.16,48.921"/>
	
		<line fill="none" stroke="#000000" stroke-width="0.75" stroke-linejoin="round" x1="292.947" y1="57.454" x2="300.715" y2="52.734"/>
	<path fill="none" stroke="#000000" stroke-width="0.75" stroke-linejoin="round" d="M298.27,56.548"/>
	<path fill="none" stroke="#000000" stroke-width="0.75" stroke-linejoin="round" d="M291.27,60.786"/>
	
		<line fill="none" stroke="#000000" stroke-width="0.75" stroke-linejoin="round" x1="289.592" y1="64.116" x2="295.823" y2="60.361"/>
	<path fill="none" stroke="#000000" stroke-width="0.75" stroke-linejoin="round" d="M293.377,64.173"/>
	<path fill="none" stroke="#000000" stroke-width="0.75" stroke-linejoin="round" d="M287.917,67.448"/>
	
		<line fill="none" stroke="#000000" stroke-width="0.75" stroke-linejoin="round" x1="289.046" y1="68.291" x2="291.965" y2="66.555"/>
	
		<line fill="none" stroke="#000000" stroke-width="0.75" stroke-linejoin="round" x1="286.165" y1="72.941" x2="288.488" y2="71.8"/>
</g>
<line fill="none" stroke="#000000" stroke-width="0.75" stroke-linejoin="round" x1="286.992" y1="49.793" x2="283.168" y2="47.92"/>
<line fill="none" stroke="#000000" stroke-width="0.75" stroke-linejoin="round" x1="286.992" y1="53.121" x2="284.277" y2="52.736"/>
<line fill="none" stroke="#000000" x1="286.946" y1="47.382" x2="286.717" y2="73.859"/>
<line fill="none" stroke="#000000" stroke-width="0.75" stroke-linejoin="round" x1="273.931" y1="30.108" x2="270.466" y2="28.798"/>
<line fill="none" stroke="#000000" stroke-width="0.75" stroke-linejoin="round" x1="275.329" y1="25.19" x2="273.417" y2="24.574"/>
<line fill="none" stroke="#000000" stroke-width="0.75" stroke-linejoin="round" x1="272.59" y1="34.429" x2="268.342" y2="32.556"/>
<line fill="none" stroke="#000000" stroke-width="0.75" stroke-linejoin="round" x1="276.685" y1="21.437" x2="274.772" y2="20.821"/>
<line fill="none" stroke="#000000" x1="286.946" y1="2.382" x2="286.946" y2="47.382"/>
<line fill="none" stroke="#000000" stroke-width="0.75" stroke-linejoin="round" x1="287.417" y1="45.429" x2="284.563" y2="44.107"/>
<line fill="none" stroke="#000000" stroke-width="0.75" stroke-linejoin="round" x1="287.772" y1="39.782" x2="285.86" y2="39.166"/>
<line fill="none" stroke="#000000" stroke-width="0.75" stroke-linejoin="round" x1="289.592" y1="44.107" x2="286.563" y2="45.107"/>
<line fill="none" stroke="#000000" stroke-width="0.75" stroke-linejoin="round" x1="270.416" y1="37.429" x2="266.169" y2="35.556"/>
<line fill="none" stroke="#000000" stroke-width="0.75" stroke-linejoin="round" x1="288.416" y1="42.429" x2="285.563" y2="41.107"/>
<g opacity="0.6">
	<polygon points="264.589,38.567 257.498,38.64 250.378,38.478 250.436,38.477 243.345,38.814 243.273,38.818 243.22,38.811 
		236.142,37.922 236.228,37.926 229.149,37.999 222.06,38.273 222.034,38.274 222.02,38.273 214.925,37.929 207.844,37.457 
		207.895,37.455 200.791,38.306 200.775,38.308 200.765,38.308 193.67,38.142 186.571,38.147 193.667,37.96 200.769,37.944 
		200.743,37.946 207.823,36.913 207.845,36.91 207.874,36.911 214.964,37.202 222.052,37.364 222.013,37.365 229.093,36.909 
		236.198,36.653 236.233,36.652 236.284,36.657 243.383,37.365 243.257,37.361 250.337,36.843 250.355,36.841 250.395,36.841 
		257.456,36.822 264.543,36.568 	"/>
</g>
<g opacity="0.6">
	<path d="M310.445,36.445l5.316,0.14l1.329,0.035l0.332,0.009l0.084,0.002l0.021,0h0.005c-0.104,0.001-0.025,0-0.048,0h0.011
		l0.041-0.001l0.166-0.005l0.665-0.021l2.657-0.085l2.658-0.085l0.665-0.021l0.366-0.007l0.332,0.003l1.33,0.013l5.318,0.051
		l0.047,0l0.028,0.003l7.08,0.811l-0.118-0.001l7.095-0.514l0.043-0.003l0.031,0.001c2.947,0.171,5.906,0.395,8.846,0.523
		l4.43,0.208c1.436,0.085,2.944,0.002,4.413,0.012c1.483,0.005,2.944-0.064,4.445,0.002l4.432,0.158
		c2.948,0.115,5.91,0.125,8.863,0.193l-0.011,0l7.108-0.731l-7.087,0.913l-0.005,0h-0.007c-2.957,0.008-5.909,0.074-8.871,0.034
		l-4.435-0.044c-1.454-0.028-2.948,0.079-4.42,0.112c-1.486,0.028-2.935,0.15-4.452,0.102l-4.434-0.094
		c-2.97-0.054-5.913-0.201-8.87-0.297l0.072-0.001l-7.079,0.695l-0.052,0.005l-0.067-0.006l-7.098-0.629l0.075,0.003l-5.317,0.085
		l-1.33,0.021l-0.332,0.005l-0.132,0.004l-0.166,0.009l-0.664,0.039l-2.654,0.153l-2.655,0.153l-0.663,0.038l-0.166,0.01
		l-0.22,0.004l-0.332,0l-1.33-0.001l-5.318-0.003L310.445,36.445z"/>
</g>
</svg>
