<?xml version="1.0" encoding="utf-8"?>
<!-- Generator: Adobe Illustrator 15.0.0, SVG Export Plug-In . SVG Version: 6.00 Build 0)  -->
<!DOCTYPE svg PUBLIC "-//W3C//DTD SVG 1.1//EN" "http://www.w3.org/Graphics/SVG/1.1/DTD/svg11.dtd">
<svg version="1.1" id="Layer_1" xmlns="http://www.w3.org/2000/svg" xmlns:xlink="http://www.w3.org/1999/xlink" x="0px" y="0px"
	 width="83.996px" height="311px" viewBox="249.092 -105.75 83.996 311" enable-background="new 249.092 -105.75 83.996 311"
	 xml:space="preserve">
<polyline fill="none" stroke="#000000" stroke-width="1.5" points="-93.112,144.93 -60.416,90.633 -24.222,144.928 "/>
<polyline fill="none" stroke="#000000" points="-92.77,144.93 -60.074,159.504 -23.88,144.928 "/>
<g>
	<path fill="none" stroke="#000000" stroke-width="0.75" stroke-linejoin="round" d="M-74.645,158.121"/>
	<path fill="none" stroke="#000000" stroke-width="0.75" stroke-linejoin="round" d="M-89.746,148.877"/>
	<path fill="none" stroke="#000000" stroke-width="0.75" stroke-linejoin="round" d="M-86.08,154.592"/>
</g>
<g>
	<path fill="none" stroke="#000000" stroke-width="0.75" stroke-linejoin="round" d="M-28.423,150.379"/>
	<path fill="none" stroke="#000000" stroke-width="0.75" stroke-linejoin="round" d="M-43.523,158.121"/>
	<path fill="none" stroke="#000000" stroke-width="0.75" stroke-linejoin="round" d="M-32.087,156.092"/>
</g>
<path fill="none" stroke="#000000" d="M-60.074,159.504"/>
<line fill="none" stroke="#000000" x1="-60.074" y1="92.003" x2="-60.074" y2="159.504"/>
<line fill="none" stroke="#000000" stroke-width="0.75" stroke-linejoin="round" x1="-59.367" y1="156.576" x2="-63.649" y2="154.592"/>
<line fill="none" stroke="#000000" stroke-width="0.75" stroke-linejoin="round" x1="-58.835" y1="148.104" x2="-61.703" y2="147.18"/>
<line fill="none" stroke="#000000" stroke-width="0.75" stroke-linejoin="round" x1="-56.107" y1="154.592" x2="-60.649" y2="156.092"/>
<line fill="none" stroke="#000000" stroke-width="0.75" stroke-linejoin="round" x1="-57.867" y1="152.076" x2="-62.149" y2="150.092"/>
<path fill="#202224" stroke="#202422" stroke-width="0.5" stroke-miterlimit="10" stroke-opacity="0" d="M-67.699,124.441
	c-2.401-4.736-0.512-10.519,4.228-12.922c1.67-0.847,4.587-1.203,6.975-0.549c1.43,0.393,2.66,1.398,3.344,2.188
	c1.125,1.304-2.854,0.158-4.5,0.648c-1.029,0.307-2.199,1.09-2.974,1.997c-0.736,0.866-1.332,2.169-1.453,3.252
	c-0.152,1.358,0.787,2.979,1.051,3.499c0.285,0.562,1.15,1.377,2.362,1.925c0.836,0.378,2.893,0.189,3.909,0.089
	c1.203-0.121,2.078-1.175,3.062-1.926c1.504-1.15,1.037-3.48,1.434-2.327c0.889,2.589-1.882,7.02-4.514,8.351
	C-59.516,131.068-65.301,129.175-67.699,124.441z"/>
<g>
	
		<line fill="none" stroke="#000000" stroke-width="0.5" stroke-linejoin="round" x1="-83.603" y1="140.128" x2="-92.554" y2="146.047"/>
	
		<line fill="none" stroke="#000000" stroke-width="0.5" stroke-linejoin="round" x1="-82.185" y1="137.047" x2="-90.455" y2="142.505"/>
	
		<line fill="none" stroke="#000000" stroke-width="0.5" stroke-linejoin="round" x1="-80.767" y1="133.968" x2="-88.354" y2="138.964"/>
	
		<line fill="none" stroke="#000000" stroke-width="0.5" stroke-linejoin="round" x1="-79.348" y1="130.888" x2="-86.254" y2="135.422"/>
	
		<line fill="none" stroke="#000000" stroke-width="0.5" stroke-linejoin="round" x1="-77.93" y1="127.809" x2="-84.154" y2="131.88"/>
	
		<line fill="none" stroke="#000000" stroke-width="0.5" stroke-linejoin="round" x1="-76.512" y1="124.729" x2="-82.053" y2="128.338"/>
	
		<line fill="none" stroke="#000000" stroke-width="0.5" stroke-linejoin="round" x1="-75.095" y1="121.648" x2="-79.953" y2="124.796"/>
	
		<line fill="none" stroke="#000000" stroke-width="0.5" stroke-linejoin="round" x1="-73.677" y1="118.568" x2="-77.853" y2="121.254"/>
	
		<line fill="none" stroke="#000000" stroke-width="0.5" stroke-linejoin="round" x1="-72.259" y1="115.488" x2="-75.751" y2="117.713"/>
	
		<line fill="none" stroke="#000000" stroke-width="0.5" stroke-linejoin="round" x1="-70.841" y1="112.408" x2="-73.651" y2="114.171"/>
	
		<line fill="none" stroke="#000000" stroke-width="0.5" stroke-linejoin="round" x1="-69.423" y1="109.328" x2="-71.551" y2="110.629"/>
</g>
<circle fill="#202422" stroke="#202422" cx="292.256" cy="168.5" r="2.5"/>
<circle fill="#202422" stroke="#202422" cx="292.533" cy="135.5" r="2.5"/>
<polygon fill="#202422" stroke="#202422" points="292.533,199.25 295.997,205.25 289.069,205.25 "/>
<circle fill="#202422" stroke="#202422" cx="292.256" cy="106" r="2.5"/>
</svg>
