<?xml version="1.0" encoding="utf-8"?>
<!-- Generator: Adobe Illustrator 15.0.0, SVG Export Plug-In . SVG Version: 6.00 Build 0)  -->
<!DOCTYPE svg PUBLIC "-//W3C//DTD SVG 1.1//EN" "http://www.w3.org/Graphics/SVG/1.1/DTD/svg11.dtd">
<svg version="1.1" id="Layer_1" xmlns="http://www.w3.org/2000/svg" xmlns:xlink="http://www.w3.org/1999/xlink" x="0px" y="0px"
	 width="374.275px" height="218.584px" viewBox="0 0 374.275 218.584" enable-background="new 0 0 374.275 218.584"
	 xml:space="preserve">
<g opacity="0.69">
	<g>
		<polygon points="382.338,217.111 364.639,200.977 364.758,200.977 347.179,217.241 347.06,217.352 346.939,217.241 329.246,201.1 
			329.592,201.1 311.957,217.321 311.764,217.499 311.571,217.321 293.91,201.145 294.338,201.145 276.719,217.366 276.486,217.582 
			276.25,217.366 258.606,201.189 259.115,201.189 241.496,217.411 241.222,217.665 240.946,217.411 223.27,201.234 
			223.862,201.234 206.248,217.456 205.932,217.747 205.614,217.456 187.948,201.279 188.624,201.278 170.991,217.458 
			170.673,217.75 170.355,217.458 152.741,201.235 153.336,201.235 135.697,217.413 135.42,217.667 135.143,217.413 117.54,201.19 
			118.052,201.19 100.386,217.367 100.151,217.583 99.916,217.368 82.276,201.146 82.705,201.146 65.06,217.322 64.866,217.501 
			64.673,217.322 47.059,201.101 47.406,201.101 29.745,217.242 29.623,217.353 29.504,217.242 11.951,200.978 12.071,200.978 
			-5.608,217.111 11.951,200.847 12.01,200.791 12.071,200.847 29.744,216.98 29.504,216.98 47.059,200.724 47.231,200.563 
			47.406,200.724 65.06,216.9 64.673,216.9 82.276,200.679 82.49,200.481 82.705,200.679 100.386,216.854 99.916,216.854 
			117.54,200.633 117.796,200.397 118.052,200.634 135.697,216.81 135.143,216.81 152.74,200.588 153.037,200.314 153.336,200.588 
			170.991,216.765 170.355,216.765 187.948,200.544 188.286,200.233 188.624,200.544 206.247,216.767 205.615,216.767 
			223.269,200.589 223.567,200.317 223.862,200.589 241.496,216.812 240.946,216.812 258.606,200.634 258.862,200.399 
			259.115,200.634 276.719,216.856 276.25,216.856 293.91,200.679 294.125,200.482 294.338,200.679 311.957,216.901 
			311.571,216.901 329.246,200.724 329.42,200.565 329.592,200.724 347.178,216.981 346.94,216.981 364.639,200.847 
			364.698,200.792 364.758,200.847 		"/>
	</g>
</g>
<line opacity="0.6" fill="none" stroke="#000000" x1="156.967" y1="2" x2="200.966" y2="2"/>
<line opacity="0.6" fill="none" stroke="#000000" x1="156.967" y1="9" x2="200.966" y2="9"/>
<line opacity="0.6" fill="none" stroke="#000000" x1="156.967" y1="16" x2="200.966" y2="16"/>
</svg>
