<?xml version="1.0" encoding="utf-8"?>
<!-- Generator: Adobe Illustrator 15.0.0, SVG Export Plug-In . SVG Version: 6.00 Build 0)  -->
<!DOCTYPE svg PUBLIC "-//W3C//DTD SVG 1.1//EN" "http://www.w3.org/Graphics/SVG/1.1/DTD/svg11.dtd">
<svg version="1.1" id="Layer_1" xmlns="http://www.w3.org/2000/svg" xmlns:xlink="http://www.w3.org/1999/xlink" x="0px" y="0px"
	 width="667.002px" height="305.492px" viewBox="-0.441 160.583 667.002 305.492"
	 enable-background="new -0.441 160.583 667.002 305.492" xml:space="preserve">
<g>
	<path fill="none" stroke="#000000" stroke-miterlimit="10" d="M666.559,465.574c-33.279-0.188-33.107-33.609-66.375-33.768
		c-33.279-0.172-33.344,15.234-66.625,15.062c-33.312-0.172-33.125-30.172-66.451-30.359c-33.281-0.188-33.531,45.781-66.828,45.625
		c-33.268-0.188-33.062-36.779-66.345-36.969c-33.28-0.172-33.405,22.312-66.688,22.125c-33.297-0.188-33.203-18.969-66.5-19.172
		c-33.312-0.156-33.422,22.766-66.734,22.578c-33.359-0.156-33.25-26.188-66.609-26.344c-31.312-0.178-33.344,24.495-61.064,27.383
		c-1.812,0.188-3.733,0.283-5.78,0.271"/>
</g>
<g>
	<g>
		<path fill="none" stroke="#000000" stroke-linecap="round" stroke-linejoin="round" d="M666.059,200.799
			c-33.279-0.188-33.107-33.609-66.375-33.766c-33.279-0.172-33.344,15.234-66.625,15.062c-33.312-0.172-34.73-15.183-68.059-15.37
			c-33.281-0.188-31.925,30.792-65.222,30.636c-33.267-0.188-32.995-36.089-66.278-36.277c-33.28-0.172-33.472,21.621-66.755,21.434
			c-33.297-0.188-33.203-18.969-66.5-19.172c-33.312-0.156-33.422,22.766-66.734,22.578c-33.359-0.156-33.652-22.599-67.011-22.755
			c-33.358-0.188-33.081,24.239-66.44,24.066"/>
	</g>
</g>
</svg>
