<?xml version="1.0" encoding="utf-8"?>
<!-- Generator: Adobe Illustrator 15.0.0, SVG Export Plug-In . SVG Version: 6.00 Build 0)  -->
<!DOCTYPE svg PUBLIC "-//W3C//DTD SVG 1.1//EN" "http://www.w3.org/Graphics/SVG/1.1/DTD/svg11.dtd">
<svg version="1.1" id="Layer_1" xmlns="http://www.w3.org/2000/svg" xmlns:xlink="http://www.w3.org/1999/xlink" x="0px" y="0px"
	 width="169.833px" height="52.049px" viewBox="0 0 169.833 52.049" enable-background="new 0 0 169.833 52.049"
	 xml:space="preserve">
<g>
	<polyline fill="none" stroke="#000000" stroke-width="0.25" points="-2.035,-0.01 0.137,1.99 2.307,-0.01 4.478,1.99 6.647,-0.01 
		8.819,1.99 10.991,-0.01 13.164,1.99 15.336,-0.01 17.512,1.99 19.687,-0.01 21.865,1.99 24.042,-0.01 26.218,1.99 28.392,-0.01 
		30.565,1.99 32.739,-0.01 34.912,1.99 37.083,-0.01 39.257,1.99 41.431,-0.01 43.604,1.99 45.78,-0.01 47.957,1.99 50.134,-0.01 
		52.312,1.99 54.489,-0.01 56.664,1.99 58.838,-0.01 61.013,1.99 63.188,-0.01 65.362,1.99 67.539,-0.01 69.715,1.99 71.895,-0.01 
		74.073,1.99 76.249,-0.01 78.424,1.99 80.601,-0.01 82.776,1.99 84.954,-0.01 87.131,1.99 89.311,-0.01 91.489,1.99 93.665,-0.01 
		95.842,1.99 98.02,-0.01 100.2,1.99 102.377,-0.01 104.555,1.99 106.733,-0.01 108.913,1.99 111.09,-0.01 113.27,1.99 
		115.448,-0.01 117.625,1.99 119.805,-0.01 121.985,1.99 124.163,-0.01 126.34,1.99 128.516,-0.01 130.692,1.99 132.87,-0.01 
		135.047,1.99 137.227,-0.01 139.403,1.99 141.583,-0.01 143.762,1.99 145.942,-0.01 148.124,1.99 150.303,-0.01 152.485,1.99 
		154.665,-0.01 156.846,1.99 159.028,-0.01 161.208,1.99 163.387,-0.01 165.573,1.99 167.754,-0.01 169.94,1.99 172.127,-0.01 
		174.315,1.99 	"/>
</g>
<g>
	<polyline fill="none" stroke="#000000" stroke-width="0.25" points="172.129,52.049 169.956,50.049 167.786,52.049 165.616,50.049 
		163.446,52.049 161.274,50.049 159.102,52.049 156.93,50.049 154.758,52.049 152.581,50.049 150.407,52.049 148.229,50.049 
		146.051,52.049 143.875,50.049 141.702,52.049 139.528,50.049 137.354,52.049 135.182,50.049 133.01,52.049 130.836,50.049 
		128.663,52.049 126.489,50.049 124.313,52.049 122.137,50.049 119.959,52.049 117.782,50.049 115.604,52.049 113.43,50.049 
		111.256,52.049 109.081,50.049 106.905,52.049 104.731,50.049 102.555,52.049 100.379,50.049 98.198,52.049 96.02,50.049 
		93.844,52.049 91.67,50.049 89.493,52.049 87.317,50.049 85.139,52.049 82.961,50.049 80.782,52.049 78.604,50.049 76.428,52.049 
		74.25,50.049 72.073,52.049 69.893,50.049 67.715,52.049 65.538,50.049 63.36,52.049 61.18,50.049 59.002,52.049 56.823,50.049 
		54.645,52.049 52.467,50.049 50.288,52.049 48.108,50.049 45.93,52.049 43.752,50.049 41.577,52.049 39.401,50.049 37.223,52.049 
		35.045,50.049 32.866,52.049 30.69,50.049 28.51,52.049 26.331,50.049 24.151,52.049 21.969,50.049 19.79,52.049 17.608,50.049 
		15.428,52.049 13.247,50.049 11.065,52.049 8.885,50.049 6.706,52.049 4.52,50.049 2.338,52.049 0.153,50.049 -2.035,52.049 
		-4.222,50.049 	"/>
</g>
</svg>
