<?xml version="1.0" encoding="utf-8"?>
<!-- Generator: Adobe Illustrator 15.0.0, SVG Export Plug-In . SVG Version: 6.00 Build 0)  -->
<!DOCTYPE svg PUBLIC "-//W3C//DTD SVG 1.1//EN" "http://www.w3.org/Graphics/SVG/1.1/DTD/svg11.dtd">
<svg version="1.1" id="Layer_1" xmlns="http://www.w3.org/2000/svg" xmlns:xlink="http://www.w3.org/1999/xlink" x="0px" y="0px"
	 width="169.833px" height="80.75px" viewBox="-6.435 0 169.833 80.75" enable-background="new -6.435 0 169.833 80.75"
	 xml:space="preserve">
<g>
	<polyline fill="none" stroke="#000000" stroke-width="0.1" points="-8.47,8.241 -6.299,10.241 -4.129,8.241 -1.958,10.241 
		0.212,8.241 2.384,10.241 4.555,8.241 6.728,10.241 8.901,8.241 11.076,10.241 13.251,8.241 15.429,10.241 17.606,8.241 
		19.782,10.241 21.956,8.241 24.13,10.241 26.303,8.241 28.476,10.241 30.648,8.241 32.822,10.241 34.995,8.241 37.169,10.241 
		39.344,8.241 41.521,10.241 43.698,8.241 45.876,10.241 48.053,8.241 50.228,10.241 52.403,8.241 54.577,10.241 56.752,8.241 
		58.927,10.241 61.103,8.241 63.28,10.241 65.459,8.241 67.637,10.241 69.813,8.241 71.989,10.241 74.165,8.241 76.341,10.241 
		78.518,8.241 80.696,10.241 82.875,8.241 85.053,10.241 87.229,8.241 89.407,10.241 91.584,8.241 93.764,10.241 95.942,8.241 
		98.12,10.241 100.297,8.241 102.477,10.241 104.655,8.241 106.834,10.241 109.012,8.241 111.19,10.241 113.37,8.241 
		115.549,10.241 117.727,8.241 119.905,10.241 122.081,8.241 124.256,10.241 126.434,8.241 128.612,10.241 130.792,8.241 
		132.967,10.241 135.147,8.241 137.327,10.241 139.506,8.241 141.688,10.241 143.868,8.241 146.049,10.241 148.229,8.241 
		150.411,10.241 152.592,8.241 154.772,10.241 156.952,8.241 159.137,10.241 161.319,8.241 163.504,10.241 165.692,8.241 
		167.879,10.241 	"/>
</g>
<line opacity="0.6" fill="none" stroke="#000000" stroke-width="0.1" enable-background="new    " x1="78.524" y1="0" x2="78.524" y2="8.293"/>
<g>
	<polyline fill="none" stroke="#000000" stroke-width="0.1" points="-6.506,69.241 -4.336,71.241 -2.167,69.241 0.004,71.241 
		2.175,69.241 4.347,71.241 6.519,69.241 8.69,71.241 10.865,69.241 13.039,71.241 15.214,69.241 17.393,71.241 19.568,69.241 
		21.745,71.241 23.918,69.241 26.092,71.241 28.267,69.241 30.438,71.241 32.611,69.241 34.785,71.241 36.958,69.241 39.131,71.241 
		41.308,69.241 43.483,71.241 45.662,69.241 47.838,71.241 50.016,69.241 52.19,71.241 54.366,69.241 56.541,71.241 58.714,69.241 
		60.89,71.241 63.065,69.241 65.243,71.241 67.421,69.241 69.6,71.241 71.775,69.241 73.953,71.241 76.127,69.241 78.304,71.241 
		80.481,69.241 82.661,71.241 84.838,69.241 87.016,71.241 89.192,69.241 91.37,71.241 93.547,69.241 95.725,71.241 97.905,69.241 
		100.083,71.241 102.26,69.241 104.438,71.241 106.62,69.241 108.797,71.241 110.975,69.241 113.153,71.241 115.333,69.241 
		117.512,71.241 119.688,69.241 121.87,71.241 124.043,69.241 126.219,71.241 128.395,69.241 130.575,71.241 132.752,69.241 
		134.93,71.241 137.11,69.241 139.292,71.241 141.469,69.241 143.649,71.241 145.831,69.241 148.012,71.241 150.192,69.241 
		152.375,71.241 154.555,69.241 156.735,71.241 158.917,69.241 161.098,71.241 163.284,69.241 165.467,71.241 167.657,69.241 
		169.842,71.241 	"/>
</g>
<polyline opacity="0.6" fill="none" stroke="#202422" stroke-width="0.0938" stroke-linejoin="round" enable-background="new    " points="
	80.329,1.445 78.489,2.702 76.702,1.453 "/>
<polyline opacity="0.6" fill="none" stroke="#202422" stroke-width="0.0938" stroke-linejoin="round" enable-background="new    " points="
	80.329,2.617 78.489,3.874 76.702,2.625 "/>
<line opacity="0.6" fill="none" stroke="#000000" stroke-width="0.1" enable-background="new    " x1="78.524" y1="71.241" x2="78.524" y2="80.75"/>
<polyline opacity="0.6" fill="none" stroke="#202422" stroke-width="0.0938" stroke-linejoin="round" enable-background="new    " points="
	80.329,72.902 78.489,74.159 76.702,72.91 "/>
<polyline opacity="0.6" fill="none" stroke="#202422" stroke-width="0.0938" stroke-linejoin="round" enable-background="new    " points="
	80.329,74.074 78.489,75.331 76.702,74.082 "/>
</svg>
