<?xml version="1.0" encoding="utf-8"?>
<!-- Generator: Adobe Illustrator 15.0.0, SVG Export Plug-In . SVG Version: 6.00 Build 0)  -->
<!DOCTYPE svg PUBLIC "-//W3C//DTD SVG 1.1//EN" "http://www.w3.org/Graphics/SVG/1.1/DTD/svg11.dtd">
<svg version="1.1" id="Layer_1" xmlns="http://www.w3.org/2000/svg" xmlns:xlink="http://www.w3.org/1999/xlink" x="0px" y="0px"
	 width="169.833px" height="55.24px" viewBox="0 0 169.833 55.24" enable-background="new 0 0 169.833 55.24" xml:space="preserve">
<g>
	<polyline fill="none" stroke="#000000" stroke-width="0.1" points="-2.035,-0.01 0.137,1.99 2.307,-0.01 4.478,1.99 6.647,-0.01 
		8.819,1.99 10.991,-0.01 13.164,1.99 15.336,-0.01 17.512,1.99 19.687,-0.01 21.865,1.99 24.042,-0.01 26.218,1.99 28.392,-0.01 
		30.565,1.99 32.739,-0.01 34.912,1.99 37.083,-0.01 39.257,1.99 41.431,-0.01 43.604,1.99 45.78,-0.01 47.957,1.99 50.134,-0.01 
		52.312,1.99 54.489,-0.01 56.664,1.99 58.838,-0.01 61.013,1.99 63.188,-0.01 65.362,1.99 67.539,-0.01 69.715,1.99 71.895,-0.01 
		74.073,1.99 76.249,-0.01 78.424,1.99 80.601,-0.01 82.776,1.99 84.954,-0.01 87.131,1.99 89.311,-0.01 91.489,1.99 93.665,-0.01 
		95.842,1.99 98.02,-0.01 100.2,1.99 102.377,-0.01 104.555,1.99 106.733,-0.01 108.913,1.99 111.09,-0.01 113.27,1.99 
		115.448,-0.01 117.625,1.99 119.805,-0.01 121.985,1.99 124.163,-0.01 126.34,1.99 128.516,-0.01 130.692,1.99 132.87,-0.01 
		135.047,1.99 137.227,-0.01 139.403,1.99 141.583,-0.01 143.762,1.99 145.942,-0.01 148.124,1.99 150.303,-0.01 152.485,1.99 
		154.665,-0.01 156.846,1.99 159.028,-0.01 161.208,1.99 163.387,-0.01 165.573,1.99 167.754,-0.01 169.94,1.99 172.127,-0.01 
		174.315,1.99 	"/>
</g>
<g>
	<polyline fill="none" stroke="#000000" stroke-width="0.1" points="0.149,53.179 2.319,55.179 4.49,53.179 6.661,55.179 
		8.832,53.179 11.002,55.179 13.174,53.179 15.347,55.179 17.521,53.179 19.694,55.179 21.871,53.179 24.048,55.179 26.225,53.179 
		28.4,55.179 30.575,53.179 32.749,55.179 34.922,53.179 37.095,55.179 39.268,53.179 41.44,55.179 43.613,53.179 45.788,55.179 
		47.963,53.179 50.14,55.179 52.317,53.179 54.495,55.179 56.671,53.179 58.847,55.179 61.021,53.179 63.196,55.179 65.371,53.179 
		67.545,55.179 69.722,53.179 71.898,55.179 74.078,53.179 76.255,55.179 78.432,53.179 80.608,55.179 82.784,53.179 84.959,55.179 
		87.136,53.179 89.316,55.179 91.494,53.179 93.671,55.179 95.847,53.179 98.025,55.179 100.203,53.179 102.38,55.179 
		104.56,53.179 106.738,55.179 108.916,53.179 111.093,55.179 113.275,53.179 115.453,55.179 117.63,53.179 119.808,55.179 
		121.988,53.179 124.167,55.179 126.343,53.179 128.525,55.179 130.699,53.179 132.875,55.179 135.05,53.179 137.23,55.179 
		139.408,53.179 141.585,55.179 143.765,53.179 145.947,55.179 148.125,53.179 150.304,55.179 152.486,53.179 154.667,55.179 
		156.847,53.179 159.031,55.179 161.21,53.179 163.39,55.179 165.572,53.179 167.753,55.179 169.939,53.179 172.123,55.179 
		174.312,53.179 176.498,55.179 	"/>
</g>
<g>
	<polyline fill="none" stroke="#000000" stroke-width="0.05" points="-2.035,1.99 0.137,3.99 2.307,1.99 4.478,3.99 6.647,1.99 
		8.819,3.99 10.991,1.99 13.164,3.99 15.336,1.99 17.512,3.99 19.687,1.99 21.865,3.99 24.042,1.99 26.218,3.99 28.392,1.99 
		30.565,3.99 32.739,1.99 34.912,3.99 37.083,1.99 39.257,3.99 41.431,1.99 43.604,3.99 45.78,1.99 47.957,3.99 50.134,1.99 
		52.312,3.99 54.489,1.99 56.664,3.99 58.838,1.99 61.013,3.99 63.188,1.99 65.362,3.99 67.539,1.99 69.715,3.99 71.895,1.99 
		74.073,3.99 76.249,1.99 78.424,3.99 80.601,1.99 82.776,3.99 84.954,1.99 87.131,3.99 89.311,1.99 91.489,3.99 93.665,1.99 
		95.842,3.99 98.02,1.99 100.2,3.99 102.377,1.99 104.555,3.99 106.733,1.99 108.913,3.99 111.09,1.99 113.27,3.99 115.448,1.99 
		117.625,3.99 119.805,1.99 121.985,3.99 124.163,1.99 126.34,3.99 128.516,1.99 130.692,3.99 132.87,1.99 135.047,3.99 
		137.227,1.99 139.403,3.99 141.583,1.99 143.762,3.99 145.942,1.99 148.124,3.99 150.303,1.99 152.485,3.99 154.665,1.99 
		156.846,3.99 159.028,1.99 161.208,3.99 163.387,1.99 165.573,3.99 167.754,1.99 169.94,3.99 172.127,1.99 174.315,3.99 	"/>
</g>
<g>
	<polyline fill="none" stroke="#000000" stroke-width="0.01" points="-2.035,3.99 0.137,5.99 2.307,3.99 4.478,5.99 6.647,3.99 
		8.819,5.99 10.991,3.99 13.164,5.99 15.336,3.99 17.512,5.99 19.687,3.99 21.865,5.99 24.042,3.99 26.218,5.99 28.392,3.99 
		30.565,5.99 32.739,3.99 34.912,5.99 37.083,3.99 39.257,5.99 41.431,3.99 43.604,5.99 45.78,3.99 47.957,5.99 50.134,3.99 
		52.312,5.99 54.489,3.99 56.664,5.99 58.838,3.99 61.013,5.99 63.188,3.99 65.362,5.99 67.539,3.99 69.715,5.99 71.895,3.99 
		74.073,5.99 76.249,3.99 78.424,5.99 80.601,3.99 82.776,5.99 84.954,3.99 87.131,5.99 89.311,3.99 91.489,5.99 93.665,3.99 
		95.842,5.99 98.02,3.99 100.2,5.99 102.377,3.99 104.555,5.99 106.733,3.99 108.913,5.99 111.09,3.99 113.27,5.99 115.448,3.99 
		117.625,5.99 119.805,3.99 121.985,5.99 124.163,3.99 126.34,5.99 128.516,3.99 130.692,5.99 132.87,3.99 135.047,5.99 
		137.227,3.99 139.403,5.99 141.583,3.99 143.762,5.99 145.942,3.99 148.124,5.99 150.303,3.99 152.485,5.99 154.665,3.99 
		156.846,5.99 159.028,3.99 161.208,5.99 163.387,3.99 165.573,5.99 167.754,3.99 169.94,5.99 172.127,3.99 174.315,5.99 	"/>
</g>
<g>
	<polyline fill="none" stroke="#000000" stroke-width="0.05" points="176.5,53.179 174.328,51.179 172.158,53.179 169.988,51.179 
		167.818,53.179 165.646,51.179 163.474,53.179 161.3,51.179 159.128,53.179 156.953,51.179 154.779,53.179 152.599,51.179 
		150.423,53.179 148.248,51.179 146.074,53.179 143.9,51.179 141.726,53.179 139.552,51.179 137.38,53.179 135.207,51.179 
		133.035,53.179 130.861,51.179 128.685,53.179 126.507,51.179 124.332,53.179 122.154,51.179 119.976,53.179 117.8,51.179 
		115.626,53.179 113.453,51.179 111.277,53.179 109.103,51.179 106.925,53.179 104.75,51.179 102.57,53.179 100.392,51.179 
		98.216,53.179 96.041,51.179 93.865,53.179 91.689,51.179 89.511,53.179 87.333,51.179 85.154,53.179 82.976,51.179 80.8,53.179 
		78.622,51.179 76.444,53.179 74.265,51.179 72.087,53.179 69.909,51.179 67.731,53.179 65.552,51.179 63.374,53.179 61.194,51.179 
		59.017,53.179 56.839,51.179 54.659,53.179 52.479,51.179 50.302,53.179 48.124,51.179 45.948,53.179 43.772,51.179 41.595,53.179 
		39.417,51.179 37.237,53.179 35.062,51.179 32.882,53.179 30.702,51.179 28.522,53.179 26.341,51.179 24.161,53.179 21.979,51.179 
		19.8,53.179 17.618,51.179 15.437,53.179 13.257,51.179 11.077,53.179 8.892,51.179 6.71,53.179 4.524,51.179 2.337,53.179 
		0.149,51.179 	"/>
</g>
<g>
	<polyline fill="none" stroke="#000000" stroke-width="0.01" points="176.5,51.179 174.328,49.179 172.158,51.179 169.988,49.179 
		167.818,51.179 165.646,49.179 163.474,51.179 161.3,49.179 159.128,51.179 156.953,49.179 154.779,51.179 152.599,49.179 
		150.423,51.179 148.248,49.179 146.074,51.179 143.9,49.179 141.726,51.179 139.552,49.179 137.38,51.179 135.207,49.179 
		133.035,51.179 130.861,49.179 128.685,51.179 126.507,49.179 124.332,51.179 122.154,49.179 119.976,51.179 117.8,49.179 
		115.626,51.179 113.453,49.179 111.277,51.179 109.103,49.179 106.925,51.179 104.75,49.179 102.57,51.179 100.392,49.179 
		98.216,51.179 96.041,49.179 93.865,51.179 91.689,49.179 89.511,51.179 87.333,49.179 85.154,51.179 82.976,49.179 80.8,51.179 
		78.622,49.179 76.444,51.179 74.265,49.179 72.087,51.179 69.909,49.179 67.731,51.179 65.552,49.179 63.374,51.179 61.194,49.179 
		59.017,51.179 56.839,49.179 54.659,51.179 52.479,49.179 50.302,51.179 48.124,49.179 45.948,51.179 43.772,49.179 41.595,51.179 
		39.417,49.179 37.237,51.179 35.062,49.179 32.882,51.179 30.702,49.179 28.522,51.179 26.341,49.179 24.161,51.179 21.979,49.179 
		19.8,51.179 17.618,49.179 15.437,51.179 13.257,49.179 11.077,51.179 8.892,49.179 6.71,51.179 4.524,49.179 2.337,51.179 
		0.149,49.179 	"/>
</g>
</svg>
