<?xml version="1.0" encoding="utf-8"?>
<!-- Generator: Adobe Illustrator 15.0.0, SVG Export Plug-In . SVG Version: 6.00 Build 0)  -->
<!DOCTYPE svg PUBLIC "-//W3C//DTD SVG 1.1//EN" "http://www.w3.org/Graphics/SVG/1.1/DTD/svg11.dtd">
<svg version="1.1" id="Layer_1" xmlns="http://www.w3.org/2000/svg" xmlns:xlink="http://www.w3.org/1999/xlink" x="0px" y="0px"
	 width="120px" height="63px" viewBox="0 0 120 63" enable-background="new 0 0 120 63" xml:space="preserve">
<g>
	<polyline fill="none" stroke="#000000" stroke-width="0.1" points="-9.491,0 -7.32,2 -5.15,0 -2.979,2 -0.809,0 1.363,2 3.534,0 
		5.707,2 7.88,0 10.055,2 12.23,0 14.408,2 16.585,0 18.761,2 20.935,0 23.109,2 25.282,0 27.455,2 29.627,0 31.801,2 33.974,0 
		36.148,2 38.323,0 40.5,2 42.677,0 44.855,2 47.032,0 49.207,2 51.382,0 53.556,2 55.731,0 57.906,2 60.082,0 62.259,2 64.438,0 
		66.616,2 68.792,0 70.968,2 73.145,0 75.32,2 77.497,0 79.674,2 81.854,0 84.032,2 86.208,0 88.385,2 90.562,0 92.743,2 94.92,0 
		97.098,2 99.275,0 101.456,2 103.633,0 105.812,2 107.991,0 110.168,2 112.35,0 114.527,2 116.706,0 118.883,2 121.061,0 
		123.236,2 125.413,0 127.59,2 129.77,0 131.947,2 134.125,0 136.307,2 138.484,0 140.667,2 142.846,0 145.027,2 147.208,0 
		149.391,2 151.572,0 153.75,2 155.932,0 158.116,2 160.297,0 162.482,2 164.67,0 166.859,2 	"/>
</g>
<g>
	<polyline fill="none" stroke="#000000" stroke-width="0.1" points="-7.381,61 -5.211,63 -3.041,61 -0.87,63 1.301,61 3.472,63 
		5.644,61 7.816,63 9.99,61 12.164,63 14.34,61 16.518,63 18.694,61 20.87,63 23.044,61 25.218,63 27.392,61 29.564,63 31.737,61 
		33.91,63 36.083,61 38.257,63 40.433,61 42.609,63 44.787,61 46.964,63 49.141,61 51.316,63 53.491,61 55.666,63 57.84,61 
		60.016,63 62.191,61 64.368,63 66.547,61 68.725,63 70.9,61 73.078,63 75.253,61 77.43,63 79.605,61 81.786,63 83.963,61 
		86.141,63 88.318,61 90.495,63 92.672,61 94.852,63 97.029,61 99.208,63 101.385,61 103.564,63 105.745,61 107.922,63 110.1,61 
		112.279,63 114.458,61 116.637,63 118.814,61 120.995,63 123.168,61 125.344,63 127.521,61 129.7,63 131.877,61 134.057,63 
		136.234,61 138.417,63 140.594,61 142.775,63 144.956,61 147.137,63 149.318,61 151.5,63 153.682,61 155.859,63 158.042,61 
		160.225,63 162.409,61 164.592,63 166.782,61 168.967,63 	"/>
</g>
</svg>
