<?xml version="1.0" encoding="utf-8"?>
<!-- Generator: Adobe Illustrator 15.0.0, SVG Export Plug-In . SVG Version: 6.00 Build 0)  -->
<!DOCTYPE svg PUBLIC "-//W3C//DTD SVG 1.1//EN" "http://www.w3.org/Graphics/SVG/1.1/DTD/svg11.dtd">
<svg version="1.1" id="Layer_1" xmlns="http://www.w3.org/2000/svg" xmlns:xlink="http://www.w3.org/1999/xlink" x="0px" y="0px"
	 width="156.798px" height="80.75px" viewBox="0 0 156.798 80.75" enable-background="new 0 0 156.798 80.75" xml:space="preserve">
<g>
	<polyline fill="none" stroke="#222420" stroke-width="0.15" points="-8.491,8.241 -6.32,10.241 -4.15,8.241 -1.979,10.241 
		0.191,8.241 2.363,10.241 4.534,8.241 6.707,10.241 8.88,8.241 11.055,10.241 13.23,8.241 15.408,10.241 17.585,8.241 
		19.761,10.241 21.935,8.241 24.109,10.241 26.282,8.241 28.455,10.241 30.627,8.241 32.801,10.241 34.974,8.241 37.148,10.241 
		39.323,8.241 41.5,10.241 43.677,8.241 45.855,10.241 48.032,8.241 50.207,10.241 52.382,8.241 54.556,10.241 56.731,8.241 
		58.906,10.241 61.082,8.241 63.259,10.241 65.438,8.241 67.616,10.241 69.792,8.241 71.968,10.241 74.144,8.241 76.32,10.241 
		78.497,8.241 80.675,10.241 82.854,8.241 85.032,10.241 87.208,8.241 89.385,10.241 91.563,8.241 93.742,10.241 95.92,8.241 
		98.098,10.241 100.276,8.241 102.455,10.241 104.634,8.241 106.813,10.241 108.991,8.241 111.169,10.241 113.349,8.241 
		115.528,10.241 117.706,8.241 119.884,10.241 122.06,8.241 124.236,10.241 126.412,8.241 128.59,10.241 130.77,8.241 
		132.947,10.241 135.125,8.241 137.306,10.241 139.485,8.241 141.666,10.241 143.846,8.241 146.028,10.241 148.208,8.241 
		150.39,10.241 152.572,8.241 154.75,10.241 156.931,8.241 159.115,10.241 161.298,8.241 163.483,10.241 165.671,8.241 
		167.859,10.241 	"/>
</g>
<line opacity="0.6" fill="none" stroke="#333333" stroke-width="0.1" x1="78.494" y1="-24.656" x2="78.494" y2="8.293"/>
<g>
	<polyline fill="none" stroke="#222420" stroke-width="0.15" points="-6.381,69.241 -4.211,71.241 -2.041,69.241 0.13,71.241 
		2.301,69.241 4.472,71.241 6.644,69.241 8.816,71.241 10.99,69.241 13.164,71.241 15.34,69.241 17.518,71.241 19.694,69.241 
		21.87,71.241 24.044,69.241 26.218,71.241 28.392,69.241 30.564,71.241 32.737,69.241 34.91,71.241 37.083,69.241 39.257,71.241 
		41.433,69.241 43.609,71.241 45.787,69.241 47.964,71.241 50.141,69.241 52.316,71.241 54.491,69.241 56.666,71.241 58.84,69.241 
		61.015,71.241 63.191,69.241 65.368,71.241 67.547,69.241 69.725,71.241 71.901,69.241 74.078,71.241 76.253,69.241 78.429,71.241 
		80.606,69.241 82.785,71.241 84.963,69.241 87.141,71.241 89.318,69.241 91.495,71.241 93.672,69.241 95.851,71.241 98.03,69.241 
		100.208,71.241 102.385,69.241 104.564,71.241 106.744,69.241 108.922,71.241 111.1,69.241 113.279,71.241 115.458,69.241 
		117.637,71.241 119.814,69.241 121.994,71.241 124.169,69.241 126.344,71.241 128.521,69.241 130.7,71.241 132.878,69.241 
		135.056,71.241 137.235,69.241 139.416,71.241 141.594,69.241 143.775,71.241 145.956,69.241 148.137,71.241 150.318,69.241 
		152.5,71.241 154.681,69.241 156.86,71.241 159.041,69.241 161.224,71.241 163.408,69.241 165.592,71.241 167.781,69.241 
		169.968,71.241 	"/>
</g>
<line opacity="0.6" fill="none" stroke="#333333" stroke-width="0.1" x1="78.447" y1="71.266" x2="78.447" y2="106.649"/>
</svg>
