<?xml version="1.0" encoding="utf-8"?>
<!-- Generator: Adobe Illustrator 15.0.0, SVG Export Plug-In . SVG Version: 6.00 Build 0)  -->
<!DOCTYPE svg PUBLIC "-//W3C//DTD SVG 1.1//EN" "http://www.w3.org/Graphics/SVG/1.1/DTD/svg11.dtd">
<svg version="1.1" id="Layer_1" xmlns="http://www.w3.org/2000/svg" xmlns:xlink="http://www.w3.org/1999/xlink" x="0px" y="0px"
	 width="156.798px" height="118.399px" viewBox="0 0 156.798 118.399" enable-background="new 0 0 156.798 118.399"
	 xml:space="preserve">
<g>
	<polyline fill="none" stroke="#222420" stroke-width="0.15" points="-8.491,25.991 -6.32,27.991 -4.15,25.991 -1.979,27.991 
		0.191,25.991 2.363,27.991 4.534,25.991 6.707,27.991 8.88,25.991 11.055,27.991 13.23,25.991 15.408,27.991 17.585,25.991 
		19.761,27.991 21.935,25.991 24.109,27.991 26.282,25.991 28.455,27.991 30.627,25.991 32.801,27.991 34.974,25.991 37.148,27.991 
		39.323,25.991 41.5,27.991 43.677,25.991 45.855,27.991 48.032,25.991 50.207,27.991 52.382,25.991 54.556,27.991 56.731,25.991 
		58.906,27.991 61.082,25.991 63.259,27.991 65.438,25.991 67.616,27.991 69.792,25.991 71.968,27.991 74.144,25.991 76.32,27.991 
		78.497,25.991 80.675,27.991 82.854,25.991 85.032,27.991 87.208,25.991 89.385,27.991 91.563,25.991 93.742,27.991 95.92,25.991 
		98.098,27.991 100.276,25.991 102.455,27.991 104.634,25.991 106.813,27.991 108.991,25.991 111.169,27.991 113.349,25.991 
		115.528,27.991 117.706,25.991 119.884,27.991 122.06,25.991 124.236,27.991 126.412,25.991 128.59,27.991 130.77,25.991 
		132.947,27.991 135.125,25.991 137.306,27.991 139.485,25.991 141.666,27.991 143.846,25.991 146.028,27.991 148.208,25.991 
		150.39,27.991 152.572,25.991 154.75,27.991 156.931,25.991 159.115,27.991 161.298,25.991 163.483,27.991 165.671,25.991 
		167.859,27.991 	"/>
</g>
<line opacity="0.6" fill="none" stroke="#333333" stroke-width="0.1" x1="78.447" y1="-6.984" x2="78.447" y2="25.991"/>
<g>
	<polyline fill="none" stroke="#222420" stroke-width="0.15" points="-6.381,86.991 -4.211,88.991 -2.041,86.991 0.13,88.991 
		2.301,86.991 4.472,88.991 6.644,86.991 8.816,88.991 10.99,86.991 13.164,88.991 15.34,86.991 17.518,88.991 19.694,86.991 
		21.87,88.991 24.044,86.991 26.218,88.991 28.392,86.991 30.564,88.991 32.737,86.991 34.91,88.991 37.083,86.991 39.257,88.991 
		41.433,86.991 43.609,88.991 45.787,86.991 47.964,88.991 50.141,86.991 52.316,88.991 54.491,86.991 56.666,88.991 58.84,86.991 
		61.015,88.991 63.191,86.991 65.368,88.991 67.547,86.991 69.725,88.991 71.901,86.991 74.078,88.991 76.253,86.991 78.429,88.991 
		80.606,86.991 82.785,88.991 84.963,86.991 87.141,88.991 89.318,86.991 91.495,88.991 93.672,86.991 95.851,88.991 98.03,86.991 
		100.208,88.991 102.385,86.991 104.564,88.991 106.744,86.991 108.922,88.991 111.1,86.991 113.279,88.991 115.458,86.991 
		117.637,88.991 119.814,86.991 121.994,88.991 124.169,86.991 126.344,88.991 128.521,86.991 130.7,88.991 132.878,86.991 
		135.056,88.991 137.235,86.991 139.416,88.991 141.594,86.991 143.775,88.991 145.956,86.991 148.137,88.991 150.318,86.991 
		152.5,88.991 154.681,86.991 156.86,88.991 159.041,86.991 161.224,88.991 163.408,86.991 165.592,88.991 167.781,86.991 
		169.968,88.991 	"/>
</g>
<line opacity="0.6" fill="none" stroke="#333333" stroke-width="0.1" x1="78.447" y1="89.016" x2="78.447" y2="124.399"/>
</svg>
