<?xml version="1.0" encoding="utf-8"?>
<!-- Generator: Adobe Illustrator 15.0.0, SVG Export Plug-In . SVG Version: 6.00 Build 0)  -->
<!DOCTYPE svg PUBLIC "-//W3C//DTD SVG 1.1//EN" "http://www.w3.org/Graphics/SVG/1.1/DTD/svg11.dtd">
<svg version="1.1" id="Layer_1" xmlns="http://www.w3.org/2000/svg" xmlns:xlink="http://www.w3.org/1999/xlink" x="0px" y="0px"
	 width="169.833px" height="55.24px" viewBox="-6.435 8.001 169.833 55.24" enable-background="new -6.435 8.001 169.833 55.24"
	 xml:space="preserve">
<g>
	<polyline fill="none" stroke="#000000" stroke-width="0.1" points="-8.47,8.241 -6.299,10.241 -4.129,8.241 -1.958,10.241 
		0.212,8.241 2.384,10.241 4.555,8.241 6.728,10.241 8.901,8.241 11.076,10.241 13.251,8.241 15.429,10.241 17.606,8.241 
		19.782,10.241 21.956,8.241 24.13,10.241 26.303,8.241 28.476,10.241 30.648,8.241 32.822,10.241 34.995,8.241 37.169,10.241 
		39.344,8.241 41.521,10.241 43.698,8.241 45.876,10.241 48.053,8.241 50.228,10.241 52.403,8.241 54.577,10.241 56.752,8.241 
		58.927,10.241 61.103,8.241 63.28,10.241 65.459,8.241 67.637,10.241 69.813,8.241 71.989,10.241 74.165,8.241 76.341,10.241 
		78.518,8.241 80.696,10.241 82.875,8.241 85.053,10.241 87.229,8.241 89.407,10.241 91.584,8.241 93.764,10.241 95.942,8.241 
		98.12,10.241 100.297,8.241 102.477,10.241 104.655,8.241 106.834,10.241 109.012,8.241 111.19,10.241 113.37,8.241 
		115.549,10.241 117.727,8.241 119.905,10.241 122.081,8.241 124.256,10.241 126.434,8.241 128.612,10.241 130.792,8.241 
		132.967,10.241 135.147,8.241 137.327,10.241 139.506,8.241 141.688,10.241 143.868,8.241 146.049,10.241 148.229,8.241 
		150.411,10.241 152.592,8.241 154.772,10.241 156.952,8.241 159.137,10.241 161.319,8.241 163.504,10.241 165.692,8.241 
		167.879,10.241 	"/>
</g>
<line opacity="0.6" fill="none" stroke="#000000" stroke-width="0.1" enable-background="new    " x1="78.524" y1="0" x2="78.524" y2="8.293"/>
<g>
	<polyline fill="none" stroke="#000000" stroke-width="0.1" points="-6.225,61.241 -4.055,63.241 -1.885,61.241 0.286,63.241 
		2.457,61.241 4.628,63.241 6.8,61.241 8.972,63.241 11.146,61.241 13.32,63.241 15.496,61.241 17.674,63.241 19.85,61.241 
		22.026,63.241 24.2,61.241 26.374,63.241 28.548,61.241 30.72,63.241 32.893,61.241 35.066,63.241 37.239,61.241 39.413,63.241 
		41.589,61.241 43.765,63.241 45.943,61.241 48.12,63.241 50.297,61.241 52.472,63.241 54.647,61.241 56.822,63.241 58.996,61.241 
		61.171,63.241 63.347,61.241 65.524,63.241 67.703,61.241 69.881,63.241 72.057,61.241 74.234,63.241 76.409,61.241 78.585,63.241 
		80.762,61.241 82.942,63.241 85.12,61.241 87.297,63.241 89.473,61.241 91.651,63.241 93.829,61.241 96.006,63.241 98.186,61.241 
		100.364,63.241 102.542,61.241 104.719,63.241 106.901,61.241 109.079,63.241 111.256,61.241 113.434,63.241 115.614,61.241 
		117.793,63.241 119.969,61.241 122.151,63.241 124.325,61.241 126.5,63.241 128.676,61.241 130.856,63.241 133.034,61.241 
		135.211,63.241 137.391,61.241 139.573,63.241 141.75,61.241 143.93,63.241 146.112,61.241 148.293,63.241 150.473,61.241 
		152.657,63.241 154.836,61.241 157.016,63.241 159.198,61.241 161.379,63.241 163.565,61.241 165.749,63.241 167.938,61.241 
		170.124,63.241 	"/>
</g>
<line opacity="0.6" fill="none" stroke="#000000" stroke-width="0.1" enable-background="new    " x1="78.524" y1="71.241" x2="78.524" y2="80.75"/>
</svg>
