<?xml version="1.0" encoding="utf-8"?>
<!-- Generator: Adobe Illustrator 15.0.0, SVG Export Plug-In . SVG Version: 6.00 Build 0)  -->
<!DOCTYPE svg PUBLIC "-//W3C//DTD SVG 1.1//EN" "http://www.w3.org/Graphics/SVG/1.1/DTD/svg11.dtd">
<svg version="1.1" id="Layer_1" xmlns="http://www.w3.org/2000/svg" xmlns:xlink="http://www.w3.org/1999/xlink" x="0px" y="0px"
	 width="96.083px" height="63px" viewBox="0 0 96.083 63" enable-background="new 0 0 96.083 63" xml:space="preserve">
<g>
	<polyline fill="none" stroke="#000000" stroke-width="0.1" points="-8.491,0 -6.32,2 -4.15,0 -1.979,2 0.191,0 2.363,2 4.534,0 
		6.707,2 8.88,0 11.055,2 13.23,0 15.408,2 17.585,0 19.761,2 21.935,0 24.109,2 26.282,0 28.455,2 30.627,0 32.801,2 34.974,0 
		37.148,2 39.323,0 41.5,2 43.677,0 45.855,2 48.032,0 50.208,2 52.381,0 54.557,2 56.73,0 58.906,2 61.083,0 63.258,2 65.438,0 
		67.616,2 69.792,0 71.967,2 74.145,0 76.32,2 78.497,0 80.674,2 82.854,0 85.032,2 87.208,0 89.385,2 91.562,0 93.743,2 95.92,0 
		98.098,2 100.275,0 102.456,2 104.633,0 106.812,2 108.991,0 111.168,2 113.35,0 115.527,2 117.706,0 119.883,2 122.061,0 
		124.236,2 126.413,0 128.59,2 130.77,0 132.947,2 135.125,0 137.307,2 139.484,0 141.667,2 143.846,0 146.027,2 148.208,0 
		150.391,2 152.572,0 154.75,2 156.932,0 159.116,2 161.297,0 163.482,2 165.67,0 167.859,2 	"/>
</g>
<g>
	<polyline fill="none" stroke="#000000" stroke-width="0.1" points="-6.381,61 -4.211,63 -2.041,61 0.13,63 2.301,61 4.472,63 
		6.644,61 8.816,63 10.99,61 13.164,63 15.34,61 17.518,63 19.694,61 21.87,63 24.044,61 26.218,63 28.392,61 30.564,63 32.737,61 
		34.91,63 37.083,61 39.257,63 41.434,61 43.609,63 45.787,61 47.964,63 50.141,61 52.316,63 54.491,61 56.667,63 58.84,61 
		61.016,63 63.191,61 65.368,63 67.547,61 69.725,63 71.9,61 74.079,63 76.252,61 78.43,63 80.605,61 82.786,63 84.963,61 
		87.141,63 89.318,61 91.495,63 93.672,61 95.852,63 98.029,61 100.208,63 102.385,61 104.564,63 106.745,61 108.922,63 111.1,61 
		113.279,63 115.458,61 117.637,63 119.814,61 121.995,63 124.168,61 126.344,63 128.521,61 130.7,63 132.877,61 135.057,63 
		137.234,61 139.417,63 141.594,61 143.775,63 145.956,61 148.137,63 150.318,61 152.5,63 154.682,61 156.859,63 159.042,61 
		161.225,63 163.409,61 165.592,63 167.782,61 169.967,63 	"/>
</g>
</svg>
