<?xml version="1.0" encoding="utf-8"?>
<!-- Generator: Adobe Illustrator 15.0.0, SVG Export Plug-In . SVG Version: 6.00 Build 0)  -->
<!DOCTYPE svg PUBLIC "-//W3C//DTD SVG 1.1//EN" "http://www.w3.org/Graphics/SVG/1.1/DTD/svg11.dtd">
<svg version="1.1" id="Layer_1" xmlns="http://www.w3.org/2000/svg" xmlns:xlink="http://www.w3.org/1999/xlink" x="0px" y="0px"
	 width="120px" height="63px" viewBox="0 8.241 120 63" enable-background="new 0 8.241 120 63" xml:space="preserve">
<g>
	<polyline fill="none" stroke="#000000" stroke-width="0.1" points="-9.491,8.241 -7.32,10.241 -5.15,8.241 -2.979,10.241 
		-0.809,8.241 1.363,10.241 3.534,8.241 5.707,10.241 7.88,8.241 10.055,10.241 12.23,8.241 14.408,10.241 16.585,8.241 
		18.761,10.241 20.935,8.241 23.109,10.241 25.282,8.241 27.455,10.241 29.627,8.241 31.801,10.241 33.974,8.241 36.148,10.241 
		38.323,8.241 40.5,10.241 42.677,8.241 44.855,10.241 47.032,8.241 49.207,10.241 51.382,8.241 53.556,10.241 55.731,8.241 
		57.906,10.241 60.082,8.241 62.259,10.241 64.438,8.241 66.616,10.241 68.792,8.241 70.968,10.241 73.145,8.241 75.32,10.241 
		77.497,8.241 79.674,10.241 81.854,8.241 84.032,10.241 86.208,8.241 88.385,10.241 90.562,8.241 92.743,10.241 94.92,8.241 
		97.098,10.241 99.275,8.241 101.456,10.241 103.633,8.241 105.812,10.241 107.991,8.241 110.168,10.241 112.35,8.241 
		114.527,10.241 116.706,8.241 118.883,10.241 121.061,8.241 123.236,10.241 125.413,8.241 127.59,10.241 129.77,8.241 
		131.947,10.241 134.125,8.241 136.307,10.241 138.484,8.241 140.667,10.241 142.846,8.241 145.027,10.241 147.208,8.241 
		149.391,10.241 151.572,8.241 153.75,10.241 155.932,8.241 158.116,10.241 160.297,8.241 162.482,10.241 164.67,8.241 
		166.859,10.241 	"/>
</g>
<line opacity="0.6" fill="none" stroke="#000000" stroke-width="0.1" enable-background="new    " x1="77.494" y1="0" x2="77.494" y2="8.293"/>
<g>
	<polyline fill="none" stroke="#000000" stroke-width="0.1" points="-7.381,69.241 -5.211,71.241 -3.041,69.241 -0.87,71.241 
		1.301,69.241 3.472,71.241 5.644,69.241 7.816,71.241 9.99,69.241 12.164,71.241 14.34,69.241 16.518,71.241 18.694,69.241 
		20.87,71.241 23.044,69.241 25.218,71.241 27.392,69.241 29.564,71.241 31.737,69.241 33.91,71.241 36.083,69.241 38.257,71.241 
		40.433,69.241 42.609,71.241 44.787,69.241 46.964,71.241 49.141,69.241 51.316,71.241 53.491,69.241 55.666,71.241 57.84,69.241 
		60.016,71.241 62.191,69.241 64.368,71.241 66.547,69.241 68.725,71.241 70.9,69.241 73.078,71.241 75.253,69.241 77.43,71.241 
		79.605,69.241 81.786,71.241 83.963,69.241 86.141,71.241 88.318,69.241 90.495,71.241 92.672,69.241 94.852,71.241 97.029,69.241 
		99.208,71.241 101.385,69.241 103.564,71.241 105.745,69.241 107.922,71.241 110.1,69.241 112.279,71.241 114.458,69.241 
		116.637,71.241 118.814,69.241 120.995,71.241 123.168,69.241 125.344,71.241 127.521,69.241 129.7,71.241 131.877,69.241 
		134.057,71.241 136.234,69.241 138.417,71.241 140.594,69.241 142.775,71.241 144.956,69.241 147.137,71.241 149.318,69.241 
		151.5,71.241 153.682,69.241 155.859,71.241 158.042,69.241 160.225,71.241 162.409,69.241 164.592,71.241 166.782,69.241 
		168.967,71.241 	"/>
</g>
<polygon opacity="0.6" fill="none" stroke="#000000" stroke-width="0.1" stroke-miterlimit="10" enable-background="new    " points="
	78.438,78.789 77.398,80.711 76.359,78.789 "/>
<polygon opacity="0.6" fill="none" stroke="#000000" stroke-width="0.1" stroke-miterlimit="10" enable-background="new    " points="
	78.438,76.789 77.398,78.711 76.359,76.789 "/>
</svg>
