<?xml version="1.0" encoding="utf-8"?>
<!-- Generator: Adobe Illustrator 15.0.0, SVG Export Plug-In . SVG Version: 6.00 Build 0)  -->
<!DOCTYPE svg PUBLIC "-//W3C//DTD SVG 1.1//EN" "http://www.w3.org/Graphics/SVG/1.1/DTD/svg11.dtd">
<svg version="1.1" id="Layer_1" xmlns="http://www.w3.org/2000/svg" xmlns:xlink="http://www.w3.org/1999/xlink" x="0px" y="0px"
	 width="110.4px" height="95.5px" viewBox="0 0 110.4 95.5" enable-background="new 0 0 110.4 95.5" xml:space="preserve">
<g>
	<polyline fill="none" stroke="#222420" stroke-width="0.15" points="-8.491,19.656 -7.01,21.656 -5.53,19.656 -4.05,21.656 
		-2.569,19.656 -1.089,21.656 0.393,19.656 1.874,21.656 3.356,19.656 4.839,21.656 6.323,19.656 7.808,21.656 9.293,19.656 
		10.777,21.656 12.26,19.656 13.742,21.656 15.224,19.656 16.706,21.656 18.188,19.656 19.67,21.656 21.152,19.656 22.635,21.656 
		24.118,19.656 25.603,21.656 27.088,19.656 28.573,21.656 30.058,19.656 31.541,21.656 33.024,19.656 34.507,21.656 35.99,19.656 
		37.474,21.656 38.958,19.656 40.442,21.656 41.929,19.656 43.414,21.656 44.898,19.656 46.382,21.656 47.866,19.656 49.35,21.656 
		50.835,19.656 52.321,21.656 53.807,19.656 55.292,21.656 56.776,19.656 58.261,21.656 59.746,19.656 61.232,21.656 62.711,19.656 
		64.192,21.656 65.674,19.656 67.159,21.656 68.646,19.656 70.13,21.656 71.614,19.656 73.096,21.656 74.578,19.656 76.062,21.656 
		77.548,19.656 79.036,21.656 80.521,19.656 82.005,21.656 83.49,19.656 84.978,21.656 86.465,19.656 87.951,21.656 89.438,19.656 
		90.926,21.656 92.414,19.656 93.902,21.656 95.39,19.656 96.879,21.656 98.365,19.656 99.849,21.656 101.339,19.656 
		102.827,21.656 104.317,19.656 105.808,21.656 107.297,19.656 108.79,21.656 110.285,19.656 111.78,21.656 	"/>
</g>
<line opacity="0.6" fill="none" stroke="#333333" stroke-width="0.1" x1="50.801" y1="-6.984" x2="50.801" y2="19.842"/>
<g>
	<polyline fill="none" stroke="#222420" stroke-width="0.15" points="-7.052,69.28 -5.572,71.28 -4.092,69.28 -2.611,71.28 
		-1.131,69.28 0.35,71.28 1.831,69.28 3.312,71.28 4.795,69.28 6.278,71.28 7.762,69.28 9.247,71.28 10.731,69.28 12.215,71.28 
		13.698,69.28 15.181,71.28 16.663,69.28 18.145,71.28 19.626,69.28 21.108,71.28 22.591,69.28 24.073,71.28 25.557,69.28 
		27.041,71.28 28.526,69.28 30.012,71.28 31.496,69.28 32.979,71.28 34.463,69.28 35.946,71.28 37.429,69.28 38.912,71.28 
		40.396,69.28 41.881,71.28 43.367,69.28 44.853,71.28 46.337,69.28 47.821,71.28 49.305,69.28 50.789,71.28 52.273,69.28 
		53.759,71.28 55.245,69.28 56.73,71.28 58.215,69.28 59.699,71.28 61.185,69.28 62.67,71.28 64.15,69.28 65.63,71.28 67.112,69.28 
		68.597,71.28 70.084,69.28 71.569,71.28 73.052,69.28 74.534,71.28 76.017,69.28 77.5,71.28 78.986,69.28 80.474,71.28 
		81.959,69.28 83.444,71.28 84.928,69.28 86.417,71.28 87.904,69.28 89.389,71.28 90.876,69.28 92.365,71.28 93.852,69.28 
		95.34,71.28 96.829,69.28 98.318,71.28 99.803,69.28 101.288,71.28 102.778,69.28 104.265,71.28 105.755,69.28 107.247,71.28 
		108.736,69.28 110.228,71.28 111.723,69.28 113.218,71.28 	"/>
</g>
<line opacity="0.6" fill="none" stroke="#333333" stroke-width="0.1" x1="50.801" y1="71.114" x2="50.801" y2="99.899"/>
</svg>
