<?xml version="1.0" encoding="utf-8"?>
<!-- Generator: Adobe Illustrator 15.0.0, SVG Export Plug-In . SVG Version: 6.00 Build 0)  -->
<!DOCTYPE svg PUBLIC "-//W3C//DTD SVG 1.1//EN" "http://www.w3.org/Graphics/SVG/1.1/DTD/svg11.dtd">
<svg version="1.1" id="Layer_1" xmlns="http://www.w3.org/2000/svg" xmlns:xlink="http://www.w3.org/1999/xlink" x="0px" y="0px"
	 width="156.798px" height="118.399px" viewBox="0 0 156.798 118.399" enable-background="new 0 0 156.798 118.399"
	 xml:space="preserve">
<g opacity="0">
	<path fill-rule="evenodd" clip-rule="evenodd" fill="none" stroke="#333333" stroke-width="0.1" d="M4.8,25.991
		c0.889,0,1.778,0,2.667,0c-2.799,1.486-5.822,2.87-9.066,4.151c0-0.407,0-0.813,0-1.22C0.756,28.047,2.89,27.07,4.8,25.991z"/>
	<path fill-rule="evenodd" clip-rule="evenodd" fill="none" stroke="#333333" stroke-width="0.1" d="M7.466,25.991
		c1.778,0,3.556,0,5.333,0c-4.578,2.3-9.377,4.498-14.4,6.594c0-0.814,0-1.628,0-2.442C1.645,28.861,4.667,27.478,7.466,25.991z"/>
	<path fill-rule="evenodd" clip-rule="evenodd" fill="none" stroke="#333333" stroke-width="0.1" d="M12.8,25.991
		c0.889,0,1.778,0,2.667,0C10,28.698,4.311,31.303-1.6,33.806c0-0.406,0-0.813,0-1.221C3.422,30.489,8.222,28.291,12.8,25.991z"/>
	<path fill-rule="evenodd" clip-rule="evenodd" fill="none" stroke="#333333" stroke-width="0.1" d="M15.466,25.991
		c1.778,0,3.556,0,5.333,0c-7.245,3.521-14.711,6.939-22.4,10.257c0-0.813,0-1.628,0-2.442C4.311,31.303,10,28.698,15.466,25.991z"
		/>
	<path fill-rule="evenodd" clip-rule="evenodd" fill="none" stroke="#333333" stroke-width="0.1" d="M20.8,25.991
		c0.889,0,1.778,0,2.667,0C15.333,29.919,6.978,33.745-1.6,37.469c0-0.406,0-0.813,0-1.221C6.089,32.931,13.555,29.512,20.8,25.991z
		"/>
	<path fill-rule="evenodd" clip-rule="evenodd" fill="none" stroke="#333333" stroke-width="0.1" d="M23.466,25.991
		c1.778,0,3.556,0,5.333,0c-9.911,4.742-20.044,9.382-30.4,13.92c0-0.814,0-1.628,0-2.442C6.978,33.745,15.333,29.919,23.466,25.991
		z"/>
	<path fill-rule="evenodd" clip-rule="evenodd" fill="none" stroke="#333333" stroke-width="0.1" d="M28.8,25.991
		c0.889,0,1.778,0,2.667,0C20.667,31.14,9.644,36.188-1.6,41.132c0-0.406,0-0.813,0-1.221C8.755,35.373,18.889,30.733,28.8,25.991z"
		/>
	<path fill-rule="evenodd" clip-rule="evenodd" fill="none" stroke="#333333" stroke-width="0.1" d="M31.466,25.991
		c1.778,0,3.556,0,5.333,0C24.222,31.954,11.422,37.815-1.6,43.574c0-0.814,0-1.628,0-2.442
		C9.644,36.188,20.667,31.14,31.466,25.991z"/>
	<path fill-rule="evenodd" clip-rule="evenodd" fill="none" stroke="#333333" stroke-width="0.1" d="M36.8,25.991
		c0.889,0,1.778,0,2.667,0C26,32.361,12.311,38.629-1.6,44.795c0-0.407,0-0.813,0-1.221C11.422,37.815,24.222,31.954,36.8,25.991z"
		/>
	<path fill-rule="evenodd" clip-rule="evenodd" fill="none" stroke="#333333" stroke-width="0.1" d="M39.466,25.991
		c1.778,0,3.556,0,5.333,0C29.555,33.176,14.089,40.258-1.6,47.237c0-0.814,0-1.628,0-2.442C12.311,38.629,26,32.361,39.466,25.991z
		"/>
	<path fill-rule="evenodd" clip-rule="evenodd" fill="none" stroke="#333333" stroke-width="0.1" d="M44.799,25.991
		c0.889,0,1.778,0,2.667,0C31.333,33.582,14.978,41.071-1.6,48.458c0-0.407,0-0.813,0-1.221
		C14.089,40.258,29.555,33.176,44.799,25.991z"/>
	<path fill-rule="evenodd" clip-rule="evenodd" fill="none" stroke="#333333" stroke-width="0.1" d="M47.466,25.991
		c1.778,0,3.556,0,5.333,0C34.889,34.396,16.755,42.699-1.6,50.9c0-0.813,0-1.628,0-2.442
		C14.978,41.071,31.333,33.582,47.466,25.991z"/>
	<path fill-rule="evenodd" clip-rule="evenodd" fill="none" stroke="#333333" stroke-width="0.1" d="M52.799,25.991
		c0.889,0,1.778,0,2.667,0c-18.8,8.812-37.822,17.522-57.066,26.13c0-0.406,0-0.813,0-1.221
		C16.755,42.699,34.889,34.396,52.799,25.991z"/>
	<path fill-rule="evenodd" clip-rule="evenodd" fill="none" stroke="#333333" stroke-width="0.1" d="M55.466,25.991
		c1.778,0,3.555,0,5.333,0C40.222,35.617,19.422,45.142-1.6,54.563c0-0.814,0-1.628,0-2.442
		C17.644,43.514,36.667,34.803,55.466,25.991z"/>
	<path fill-rule="evenodd" clip-rule="evenodd" fill="none" stroke="#333333" stroke-width="0.1" d="M60.799,25.991
		c0.889,0,1.778,0,2.667,0C42,36.024,20.311,45.955-1.6,55.784c0-0.406,0-0.813,0-1.221C19.422,45.142,40.222,35.617,60.799,25.991z
		"/>
	<path fill-rule="evenodd" clip-rule="evenodd" fill="none" stroke="#333333" stroke-width="0.1" d="M63.466,25.991
		c1.777,0,3.555,0,5.333,0C45.555,36.839,22.088,47.583-1.6,58.227c0-0.813,0-1.628,0-2.442C20.311,45.955,42,36.024,63.466,25.991z
		"/>
	<path fill-rule="evenodd" clip-rule="evenodd" fill="none" stroke="#333333" stroke-width="0.1" d="M68.799,25.991
		c0.889,0,1.778,0,2.667,0C47.333,37.245,22.978,48.397-1.6,59.448c0-0.408,0-0.814,0-1.222
		C22.088,47.583,45.555,36.839,68.799,25.991z"/>
	<path fill-rule="evenodd" clip-rule="evenodd" fill="none" stroke="#333333" stroke-width="0.1" d="M71.466,25.991
		c1.778,0,3.556,0,5.333,0C50.889,38.06,24.755,50.025-1.6,61.889c0-0.813,0-1.627,0-2.44
		C22.978,48.397,47.333,37.245,71.466,25.991z"/>
	<path fill-rule="evenodd" clip-rule="evenodd" fill="none" stroke="#333333" stroke-width="0.1" d="M76.799,25.991
		c0.889,0,1.777,0,2.667,0C52.667,38.466,25.644,50.84-1.6,63.111c0-0.407,0-0.814,0-1.223
		C24.755,50.025,50.889,38.06,76.799,25.991z"/>
	<path fill-rule="evenodd" clip-rule="evenodd" fill="none" stroke="#333333" stroke-width="0.1" d="M79.466,25.991
		c1.777,0,3.556,0,5.333,0C56.221,39.28,27.422,52.467-1.6,65.553c0-0.813,0-1.628,0-2.441
		C25.644,50.84,52.667,38.466,79.466,25.991z"/>
	<path fill-rule="evenodd" clip-rule="evenodd" fill="none" stroke="#333333" stroke-width="0.1" d="M84.799,25.991
		c0.889,0,1.777,0,2.667,0C58,39.688,28.311,53.281-1.6,66.774c0-0.408,0-0.814,0-1.222C27.422,52.467,56.221,39.28,84.799,25.991z"
		/>
	<path fill-rule="evenodd" clip-rule="evenodd" fill="none" stroke="#333333" stroke-width="0.1" d="M87.466,25.991
		c1.777,0,3.555,0,5.333,0C61.555,40.501,30.088,54.909-1.6,69.216c0-0.814,0-1.628,0-2.441C28.311,53.281,58,39.688,87.466,25.991z
		"/>
	<path fill-rule="evenodd" clip-rule="evenodd" fill="none" stroke="#333333" stroke-width="0.1" d="M92.799,25.991
		c0.889,0,1.777,0,2.667,0C63.333,40.908,30.978,55.723-1.6,70.438c0-0.408,0-0.814,0-1.222
		C30.088,54.909,61.555,40.501,92.799,25.991z"/>
	<path fill-rule="evenodd" clip-rule="evenodd" fill="none" stroke="#333333" stroke-width="0.1" d="M95.466,25.991
		c1.777,0,3.555,0,5.333,0C66.888,41.723,32.755,57.352-1.6,72.878c0-0.813,0-1.627,0-2.44
		C30.978,55.723,63.333,40.908,95.466,25.991z"/>
	<path fill-rule="evenodd" clip-rule="evenodd" fill="none" stroke="#333333" stroke-width="0.1" d="M100.799,25.991
		c0.889,0,1.777,0,2.666,0C68.666,42.13,33.645,58.165-1.6,74.1c0-0.407,0-0.813,0-1.222
		C32.755,57.352,66.888,41.723,100.799,25.991z"/>
	<path fill-rule="evenodd" clip-rule="evenodd" fill="none" stroke="#333333" stroke-width="0.1" d="M103.465,25.991
		c1.778,0,3.556,0,5.334,0C72.221,42.943,35.422,59.793-1.6,76.542c0-0.814,0-1.629,0-2.442
		C33.645,58.165,68.666,42.13,103.465,25.991z"/>
	<path fill-rule="evenodd" clip-rule="evenodd" fill="none" stroke="#333333" stroke-width="0.1" d="M108.799,25.991
		c0.889,0,1.777,0,2.666,0C73.999,43.351,36.311,60.607-1.6,77.763c0-0.407,0-0.813,0-1.221
		C35.422,59.793,72.221,42.943,108.799,25.991z"/>
	<path fill-rule="evenodd" clip-rule="evenodd" fill="none" stroke="#333333" stroke-width="0.1" d="M111.465,25.991
		c1.778,0,3.556,0,5.334,0C77.554,44.165,38.09,62.235-1.6,80.205c0-0.814,0-1.628,0-2.442
		C36.311,60.607,73.999,43.351,111.465,25.991z"/>
	<path fill-rule="evenodd" clip-rule="evenodd" fill="none" stroke="#333333" stroke-width="0.1" d="M116.799,25.991
		c0.889,0,1.777,0,2.666,0C79.955,44.449,39.511,62.479,0,80.938c-0.533,0-1.067,0-1.6,0c0-0.244,0-0.488,0-0.732
		C38.09,62.235,77.554,44.165,116.799,25.991z"/>
	<path fill-rule="evenodd" clip-rule="evenodd" fill="none" stroke="#333333" stroke-width="0.1" d="M119.465,25.991
		c1.778,0,3.556,0,5.334,0C85.288,44.449,44.844,62.479,5.333,80.938c-1.778,0-3.555,0-5.333,0
		C39.511,62.479,79.955,44.449,119.465,25.991z"/>
	<path fill-rule="evenodd" clip-rule="evenodd" fill="none" stroke="#333333" stroke-width="0.1" d="M124.799,25.991
		c0.889,0,1.777,0,2.666,0C87.955,44.449,47.511,62.479,8,80.938c-0.889,0-1.778,0-2.667,0
		C44.844,62.479,85.288,44.449,124.799,25.991z"/>
	<path fill-rule="evenodd" clip-rule="evenodd" fill="none" stroke="#333333" stroke-width="0.1" d="M127.465,25.991
		c1.778,0,3.556,0,5.334,0C93.288,44.449,52.844,62.479,13.333,80.938c-1.778,0-3.555,0-5.333,0
		C47.511,62.479,87.955,44.449,127.465,25.991z"/>
	<path fill-rule="evenodd" clip-rule="evenodd" fill="none" stroke="#333333" stroke-width="0.1" d="M132.799,25.991
		c0.889,0,1.777,0,2.666,0C95.955,44.449,55.511,62.479,16,80.938c-0.889,0-1.778,0-2.667,0
		C52.844,62.479,93.288,44.449,132.799,25.991z"/>
	<path fill-rule="evenodd" clip-rule="evenodd" fill="none" stroke="#333333" stroke-width="0.1" d="M135.465,25.991
		c1.778,0,3.556,0,5.334,0C101.288,44.449,60.844,62.479,21.333,80.938c-1.778,0-3.556,0-5.333,0
		C55.511,62.479,95.955,44.449,135.465,25.991z"/>
	<path fill-rule="evenodd" clip-rule="evenodd" fill="none" stroke="#333333" stroke-width="0.1" d="M140.799,25.991
		c0.889,0,1.777,0,2.666,0C103.955,44.449,63.511,62.479,24,80.938c-0.889,0-1.777,0-2.667,0
		C60.844,62.479,101.288,44.449,140.799,25.991z"/>
	<path fill-rule="evenodd" clip-rule="evenodd" fill="none" stroke="#333333" stroke-width="0.1" d="M143.465,25.991
		c1.778,0,3.556,0,5.333,0C109.288,44.449,68.844,62.479,29.333,80.938c-1.778,0-3.556,0-5.333,0
		C63.511,62.479,103.955,44.449,143.465,25.991z"/>
	<path fill-rule="evenodd" clip-rule="evenodd" fill="none" stroke="#333333" stroke-width="0.1" d="M148.798,25.991
		c0.89,0,1.778,0,2.667,0C111.955,44.449,71.511,62.479,32,80.938c-0.889,0-1.778,0-2.667,0
		C68.844,62.479,109.288,44.449,148.798,25.991z"/>
	<path fill-rule="evenodd" clip-rule="evenodd" fill="none" stroke="#333333" stroke-width="0.1" d="M151.465,25.991
		c1.778,0,3.556,0,5.333,0C117.288,44.449,76.844,62.479,37.333,80.938c-1.778,0-3.556,0-5.333,0
		C71.511,62.479,111.955,44.449,151.465,25.991z"/>
	<path fill-rule="evenodd" clip-rule="evenodd" fill="none" stroke="#333333" stroke-width="0.1" d="M156.798,25.991
		c0.534,0,1.067,0,1.601,0c0,0.244,0,0.489,0,0.733C118.709,44.694,79.245,62.765,40,80.938c-0.889,0-1.778,0-2.667,0
		C76.844,62.479,117.288,44.449,156.798,25.991z"/>
	<path fill-rule="evenodd" clip-rule="evenodd" fill="none" stroke="#333333" stroke-width="0.1" d="M158.399,26.724
		c0,0.814,0,1.628,0,2.442c-37.911,17.155-75.6,34.412-113.066,51.771c-1.778,0-3.556,0-5.333,0
		C79.245,62.765,118.709,44.694,158.399,26.724z"/>
	<path fill-rule="evenodd" clip-rule="evenodd" fill="none" stroke="#333333" stroke-width="0.1" d="M158.399,29.166
		c0,0.407,0,0.814,0,1.221C121.376,47.136,84.578,63.986,48,80.938c-0.889,0-1.778,0-2.667,0
		C82.799,63.578,120.488,46.321,158.399,29.166z"/>
	<path fill-rule="evenodd" clip-rule="evenodd" fill="none" stroke="#333333" stroke-width="0.1" d="M158.399,30.387
		c0,0.814,0,1.628,0,2.442C123.154,48.764,88.133,64.8,53.333,80.938c-1.778,0-3.556,0-5.333,0
		C84.578,63.986,121.376,47.136,158.399,30.387z"/>
	<path fill-rule="evenodd" clip-rule="evenodd" fill="none" stroke="#333333" stroke-width="0.1" d="M158.399,32.829
		c0,0.407,0,0.813,0,1.222C124.043,49.578,89.911,65.207,56,80.938c-0.889,0-1.778,0-2.667,0
		C88.133,64.8,123.154,48.764,158.399,32.829z"/>
	<path fill-rule="evenodd" clip-rule="evenodd" fill="none" stroke="#333333" stroke-width="0.1" d="M158.399,34.051
		c0,0.813,0,1.627,0,2.441c-32.577,14.713-64.934,29.528-97.066,44.445c-1.778,0-3.556,0-5.333,0
		C89.911,65.207,124.043,49.578,158.399,34.051z"/>
	<path fill-rule="evenodd" clip-rule="evenodd" fill="none" stroke="#333333" stroke-width="0.1" d="M158.399,36.492
		c0,0.407,0,0.814,0,1.221C126.71,52.02,95.244,66.428,64,80.938c-0.889,0-1.778,0-2.667,0
		C93.465,66.021,125.822,51.205,158.399,36.492z"/>
	<path fill-rule="evenodd" clip-rule="evenodd" fill="none" stroke="#333333" stroke-width="0.1" d="M158.399,37.713
		c0,0.814,0,1.629,0,2.442c-29.911,13.493-59.601,27.087-89.066,40.782c-1.777,0-3.555,0-5.333,0
		C95.244,66.428,126.71,52.02,158.399,37.713z"/>
	<path fill-rule="evenodd" clip-rule="evenodd" fill="none" stroke="#333333" stroke-width="0.1" d="M158.399,40.155
		c0,0.407,0,0.814,0,1.221C129.376,54.462,100.578,67.648,72,80.938c-0.889,0-1.778,0-2.667,0
		C98.798,67.242,128.488,53.648,158.399,40.155z"/>
	<path fill-rule="evenodd" clip-rule="evenodd" fill="none" stroke="#333333" stroke-width="0.1" d="M158.399,41.376
		c0,0.814,0,1.629,0,2.442c-27.244,12.271-54.267,24.646-81.066,37.119c-1.778,0-3.555,0-5.333,0
		C100.578,67.648,129.376,54.462,158.399,41.376z"/>
	<path fill-rule="evenodd" clip-rule="evenodd" fill="none" stroke="#333333" stroke-width="0.1" d="M158.399,43.818
		c0,0.407,0,0.814,0,1.221C132.043,56.903,105.91,68.87,80,80.938c-0.889,0-1.778,0-2.667,0
		C104.132,68.464,131.155,56.09,158.399,43.818z"/>
	<path fill-rule="evenodd" clip-rule="evenodd" fill="none" stroke="#333333" stroke-width="0.1" d="M158.399,45.039
		c0,0.814,0,1.629,0,2.442c-24.578,11.051-48.933,22.202-73.066,33.456c-1.777,0-3.556,0-5.333,0
		C105.91,68.87,132.043,56.903,158.399,45.039z"/>
	<path fill-rule="evenodd" clip-rule="evenodd" fill="none" stroke="#333333" stroke-width="0.1" d="M158.399,47.481
		c0,0.407,0,0.814,0,1.222C134.71,59.346,111.244,70.091,88,80.938c-0.889,0-1.778,0-2.667,0
		C109.466,69.684,133.821,58.532,158.399,47.481z"/>
	<path fill-rule="evenodd" clip-rule="evenodd" fill="none" stroke="#333333" stroke-width="0.1" d="M158.399,48.703
		c0,0.813,0,1.628,0,2.441c-21.911,9.829-43.6,19.76-65.066,29.793c-1.777,0-3.556,0-5.333,0
		C111.244,70.091,134.71,59.346,158.399,48.703z"/>
	<path fill-rule="evenodd" clip-rule="evenodd" fill="none" stroke="#333333" stroke-width="0.1" d="M158.399,51.145
		c0,0.407,0,0.813,0,1.221C137.376,61.788,116.578,71.312,96,80.938c-0.89,0-1.778,0-2.667,0
		C114.799,70.904,136.488,60.974,158.399,51.145z"/>
	<path fill-rule="evenodd" clip-rule="evenodd" fill="none" stroke="#333333" stroke-width="0.1" d="M158.399,52.365
		c0,0.814,0,1.629,0,2.442c-19.244,8.608-38.267,17.318-57.066,26.13c-1.777,0-3.556,0-5.333,0
		C116.578,71.312,137.376,61.788,158.399,52.365z"/>
	<path fill-rule="evenodd" clip-rule="evenodd" fill="none" stroke="#333333" stroke-width="0.1" d="M158.399,54.808
		c0,0.407,0,0.814,0,1.221C140.043,64.23,121.91,72.533,104,80.938c-0.89,0-1.778,0-2.667,0
		C120.132,72.126,139.155,63.416,158.399,54.808z"/>
	<path fill-rule="evenodd" clip-rule="evenodd" fill="none" stroke="#333333" stroke-width="0.1" d="M158.399,56.028
		c0,0.813,0,1.628,0,2.442c-16.578,7.387-32.934,14.876-49.066,22.467c-1.778,0-3.556,0-5.333,0
		C121.91,72.533,140.043,64.23,158.399,56.028z"/>
	<path fill-rule="evenodd" clip-rule="evenodd" fill="none" stroke="#333333" stroke-width="0.1" d="M158.399,58.471
		c0,0.407,0,0.814,0,1.221c-15.689,6.98-31.155,14.063-46.399,21.246c-0.89,0-1.778,0-2.667,0
		C125.465,73.347,141.821,65.857,158.399,58.471z"/>
	<path fill-rule="evenodd" clip-rule="evenodd" fill="none" stroke="#333333" stroke-width="0.1" d="M158.399,59.691
		c0,0.814,0,1.629,0,2.442c-13.911,6.167-27.6,12.435-41.066,18.804c-1.778,0-3.556,0-5.333,0
		C127.244,73.755,142.709,66.672,158.399,59.691z"/>
	<path fill-rule="evenodd" clip-rule="evenodd" fill="none" stroke="#333333" stroke-width="0.1" d="M158.399,62.134
		c0,0.407,0,0.814,0,1.221c-13.022,5.76-25.822,11.621-38.4,17.583c-0.889,0-1.777,0-2.666,0
		C130.799,74.568,144.488,68.301,158.399,62.134z"/>
	<path fill-rule="evenodd" clip-rule="evenodd" fill="none" stroke="#333333" stroke-width="0.1" d="M158.399,63.354
		c0,0.814,0,1.628,0,2.442c-11.244,4.945-22.267,9.993-33.066,15.141c-1.778,0-3.556,0-5.334,0
		C132.577,74.976,145.376,69.114,158.399,63.354z"/>
	<path fill-rule="evenodd" clip-rule="evenodd" fill="none" stroke="#333333" stroke-width="0.1" d="M158.399,65.797
		c0,0.407,0,0.813,0,1.222c-10.355,4.537-20.489,9.177-30.4,13.919c-0.889,0-1.777,0-2.666,0
		C136.132,75.79,147.155,70.742,158.399,65.797z"/>
	<path fill-rule="evenodd" clip-rule="evenodd" fill="none" stroke="#333333" stroke-width="0.1" d="M158.399,67.019
		c0,0.813,0,1.628,0,2.441c-8.578,3.724-16.934,7.55-25.066,11.478c-1.778,0-3.556,0-5.334,0
		C137.91,76.195,148.043,71.556,158.399,67.019z"/>
	<path fill-rule="evenodd" clip-rule="evenodd" fill="none" stroke="#333333" stroke-width="0.1" d="M158.399,69.46
		c0,0.407,0,0.813,0,1.221c-7.689,3.317-15.155,6.736-22.4,10.257c-0.889,0-1.777,0-2.666,0
		C141.465,77.01,149.821,73.184,158.399,69.46z"/>
	<path fill-rule="evenodd" clip-rule="evenodd" fill="none" stroke="#333333" stroke-width="0.1" d="M158.399,70.681
		c0,0.813,0,1.628,0,2.443c-5.911,2.502-11.601,5.106-17.066,7.813c-1.778,0-3.556,0-5.334,0
		C143.244,77.417,150.709,73.998,158.399,70.681z"/>
	<path fill-rule="evenodd" clip-rule="evenodd" fill="none" stroke="#333333" stroke-width="0.1" d="M158.399,73.124
		c0,0.406,0,0.813,0,1.22c-5.022,2.097-9.822,4.294-14.4,6.594c-0.889,0-1.777,0-2.666,0
		C146.798,78.23,152.488,75.626,158.399,73.124z"/>
	<path fill-rule="evenodd" clip-rule="evenodd" fill="none" stroke="#333333" stroke-width="0.1" d="M158.399,74.344
		c0,0.814,0,1.628,0,2.442c-3.245,1.282-6.268,2.666-9.066,4.151c-1.778,0-3.556,0-5.334,0
		C148.577,78.638,153.376,76.44,158.399,74.344z"/>
	<path fill-rule="evenodd" clip-rule="evenodd" fill="none" stroke="#333333" stroke-width="0.1" d="M158.399,76.786
		c0,0.407,0,0.813,0,1.221c-2.356,0.876-4.49,1.852-6.4,2.931c-0.889,0-1.777,0-2.666,0
		C152.131,79.452,155.154,78.068,158.399,76.786z"/>
	<path fill-rule="evenodd" clip-rule="evenodd" fill="none" stroke="#333333" stroke-width="0.1" d="M158.399,78.007
		c0,0.977,0,1.954,0,2.931c-2.134,0-4.267,0-6.4,0C153.909,79.858,156.042,78.883,158.399,78.007z"/>
	<path fill-rule="evenodd" clip-rule="evenodd" fill="none" stroke="#333333" stroke-width="0.1" d="M-1.6,28.922
		c0-0.977,0-1.954,0-2.931c2.133,0,4.267,0,6.4,0C2.89,27.07,0.756,28.047-1.6,28.922z"/>
</g>
<g>
	<polyline fill="none" stroke="#222420" stroke-width="0.15" points="-8.491,32.991 -6.32,34.991 -4.15,32.991 -1.979,34.991 
		0.191,32.991 2.363,34.991 4.534,32.991 6.707,34.991 8.88,32.991 11.055,34.991 13.231,32.991 15.408,34.991 17.585,32.991 
		19.761,34.991 21.935,32.991 24.109,34.991 26.282,32.991 28.455,34.991 30.627,32.991 32.801,34.991 34.974,32.991 37.148,34.991 
		39.323,32.991 41.5,34.991 43.678,32.991 45.855,34.991 48.032,32.991 50.207,34.991 52.382,32.991 54.556,34.991 56.731,32.991 
		58.906,34.991 61.082,32.991 63.259,34.991 65.438,32.991 67.616,34.991 69.792,32.991 71.968,34.991 74.144,32.991 76.32,34.991 
		78.497,32.991 80.675,34.991 82.854,32.991 85.032,34.991 87.208,32.991 89.385,34.991 91.563,32.991 93.742,34.991 95.92,32.991 
		98.098,34.991 100.276,32.991 102.455,34.991 104.634,32.991 106.813,34.991 108.991,32.991 111.169,34.991 113.349,32.991 
		115.528,34.991 117.706,32.991 119.884,34.991 122.06,32.991 124.236,34.991 126.412,32.991 128.59,34.991 130.77,32.991 
		132.947,34.991 135.125,32.991 137.306,34.991 139.485,32.991 141.666,34.991 143.846,32.991 146.028,34.991 148.208,32.991 
		150.39,34.991 152.572,32.991 154.75,34.991 156.931,32.991 159.115,34.991 161.298,32.991 163.483,34.991 165.671,32.991 
		167.859,34.991 	"/>
</g>
<line opacity="0.6" fill="none" stroke="#333333" stroke-width="0.1" x1="78.447" y1="0" x2="78.447" y2="32.976"/>
<g>
	<polyline fill="none" stroke="#222420" stroke-width="0.15" points="-6.381,86.991 -4.211,88.991 -2.041,86.991 0.13,88.991 
		2.301,86.991 4.472,88.991 6.644,86.991 8.816,88.991 10.99,86.991 13.164,88.991 15.34,86.991 17.518,88.991 19.694,86.991 
		21.87,88.991 24.044,86.991 26.218,88.991 28.392,86.991 30.564,88.991 32.737,86.991 34.91,88.991 37.083,86.991 39.257,88.991 
		41.433,86.991 43.609,88.991 45.787,86.991 47.964,88.991 50.141,86.991 52.316,88.991 54.491,86.991 56.666,88.991 58.84,86.991 
		61.015,88.991 63.191,86.991 65.368,88.991 67.547,86.991 69.725,88.991 71.901,86.991 74.078,88.991 76.253,86.991 78.429,88.991 
		80.606,86.991 82.785,88.991 84.963,86.991 87.141,88.991 89.318,86.991 91.495,88.991 93.672,86.991 95.851,88.991 98.03,86.991 
		100.208,88.991 102.385,86.991 104.564,88.991 106.744,86.991 108.922,88.991 111.1,86.991 113.279,88.991 115.458,86.991 
		117.637,88.991 119.814,86.991 121.994,88.991 124.169,86.991 126.344,88.991 128.521,86.991 130.7,88.991 132.878,86.991 
		135.056,88.991 137.235,86.991 139.416,88.991 141.594,86.991 143.775,88.991 145.956,86.991 148.137,88.991 150.318,86.991 
		152.5,88.991 154.681,86.991 156.86,88.991 159.041,86.991 161.224,88.991 163.408,86.991 165.592,88.991 167.781,86.991 
		169.968,88.991 	"/>
</g>
<line opacity="0.6" fill="none" stroke="#333333" stroke-width="0.1" x1="78.447" y1="89.016" x2="78.447" y2="124.399"/>
</svg>
