<?xml version="1.0" encoding="utf-8"?>
<!-- Generator: Adobe Illustrator 15.0.0, SVG Export Plug-In . SVG Version: 6.00 Build 0)  -->
<!DOCTYPE svg PUBLIC "-//W3C//DTD SVG 1.1//EN" "http://www.w3.org/Graphics/SVG/1.1/DTD/svg11.dtd">
<svg version="1.1" id="Layer_1" zoomAndPan="disable"
	 xmlns="http://www.w3.org/2000/svg" xmlns:xlink="http://www.w3.org/1999/xlink" x="0px" y="0px" width="16px" height="16px"
	 viewBox="4 4 16 16" enable-background="new 4 4 16 16" xml:space="preserve">
<g>
	<g>
		<rect x="-24.229" y="2.049" fill="#020202" width="20.604" height="20.605"/>
	</g>
	<g>
		
			<linearGradient id="SVGID_1_" gradientUnits="userSpaceOnUse" x1="-40.2285" y1="1196.6553" x2="-19.624" y2="1176.0508" gradientTransform="matrix(1 0 0 1 16 -1174)">
			<stop  offset="0" style="stop-color:#0099CC"/>
			<stop  offset="1" style="stop-color:#CC0066"/>
		</linearGradient>
		<rect x="-24.229" y="2.049" display="none" fill="url(#SVGID_1_)" width="20.604" height="20.605"/>
	</g>
	<g>
		<rect x="-22.942" y="3.337" fill="#FFFFFF" width="18.028" height="18.028"/>
	</g>
	<g>
		<rect x="-21.654" y="4.625" fill="#020202" width="15.453" height="15.453"/>
	</g>
	<g>
		<rect x="-20.366" y="5.913" fill="#FFFFFF" width="12.877" height="12.878"/>
	</g>
	<g>
		<rect x="-19.079" y="7.2" fill="#020202" width="10.302" height="10.302"/>
	</g>
	<g>
		
			<linearGradient id="SVGID_2_" gradientUnits="userSpaceOnUse" x1="-35.0791" y1="1191.502" x2="-24.777" y2="1181.2" gradientTransform="matrix(1 0 0 1 16 -1174)">
			<stop  offset="0" style="stop-color:#0099CC"/>
			<stop  offset="1" style="stop-color:#CC0066"/>
		</linearGradient>
		<rect x="-19.079" y="7.2" display="none" fill="url(#SVGID_2_)" width="10.302" height="10.302"/>
	</g>
	<g>
		<rect x="-17.791" y="8.488" fill="#FFFFFF" width="7.727" height="7.727"/>
	</g>
	<g>
		<rect x="-16.503" y="9.776" fill="#020202" width="5.15" height="5.152"/>
	</g>
</g>
<g>
	<path d="M30.146,16.729c0.431,0.435,1.015,0.696,1.595,0.696c0.628,0,1.21-0.262,1.664-0.759c0.237-0.259,0.412-0.562,0.539-0.906
		h-6.954c-0.062-0.304-0.085-0.584-0.085-0.884c0-2.744,2.226-4.948,4.945-4.948c2.721,0,4.946,2.204,4.946,4.948
		c0,2.721-2.226,4.944-4.946,4.944c-1.49,0-2.852-0.669-3.734-1.73L30.146,16.729z M33.987,14.118
		c-0.129-0.388-0.323-0.753-0.583-1.06c-0.454-0.473-1.036-0.731-1.664-0.731c-0.604,0-1.208,0.259-1.642,0.731
		c-0.28,0.307-0.472,0.672-0.582,1.06H33.987z"/>
</g>
<path fill="none" stroke="#FFFFFF" stroke-width="0.9872" stroke-linecap="square" d="M34.725,21.234c0,0,0.904-0.264,1.561-0.814
	c0.636-0.537,1.392-1.245,1.392-1.245"/>
<path fill="none" stroke="#000000" stroke-width="2.6532" d="M39.402,14.875c0,4.168-3.381,7.551-7.553,7.551
	s-7.553-3.383-7.553-7.551c0-4.171,3.381-7.552,7.553-7.552"/>
<path fill="none" stroke="#000000" stroke-width="2.6537" d="M33.506,4.284c0-1.677,1.363-3.04,3.043-3.04
	c1.676,0,3.036,1.362,3.036,3.04c0,1.679-1.36,3.039-3.036,3.039"/>
<line fill="none" stroke="#000000" stroke-width="2.6532" x1="31.789" y1="7.323" x2="36.549" y2="7.323"/>
<path fill="none" stroke="#000000" stroke-width="2.6532" d="M38.225,11.224c0.746,1.169,1.178,2.56,1.178,4.049"/>
<path fill="none" stroke="#000000" stroke-width="2.3075" d="M31.787,6.672"/>
<path fill="none" stroke="#000000" stroke-width="2.3077" d="M34.9,23.527"/>
<path fill="none" stroke="#000000" stroke-width="2.3077" d="M34.9,25.059"/>
<path fill="none" stroke="#000000" stroke-width="2.6532" d="M24.151,20.58c-1.17,0.746-2.56,1.178-4.049,1.178"/>
<g>
	<path d="M13.892,13.994l2.983,1.998c-1.418,1.693-3.248,2.539-5.489,2.539c-1.989,0-3.696-0.709-5.124-2.125
		c-1.428-1.418-2.142-3.131-2.142-5.141c0-2.009,0.708-3.722,2.125-5.14C7.663,4.708,9.375,4,11.386,4
		c2.009,0,3.723,0.708,5.14,2.125c1.416,1.417,2.126,3.13,2.126,5.14c0,0.466-0.042,0.899-0.126,1.301H8.308
		c0.19,0.529,0.455,0.973,0.793,1.332c0.677,0.742,1.492,1.111,2.443,1.111C12.432,15.01,13.215,14.672,13.892,13.994z
		 M8.245,10.155h6.568c-0.17-0.592-0.455-1.111-0.857-1.555c-0.655-0.719-1.459-1.079-2.411-1.079s-1.767,0.36-2.443,1.079
		C8.741,9.023,8.456,9.542,8.245,10.155z"/>
</g>
<path fill="none" stroke="#000000" stroke-width="2" d="M20,19"/>
<path fill="none" stroke="#000000" stroke-width="2" d="M4,19"/>
</svg>
