<?xml version="1.0" encoding="utf-8"?>
<!-- Generator: Adobe Illustrator 15.0.0, SVG Export Plug-In . SVG Version: 6.00 Build 0)  -->
<!DOCTYPE svg PUBLIC "-//W3C//DTD SVG 1.1//EN" "http://www.w3.org/Graphics/SVG/1.1/DTD/svg11.dtd">
<svg version="1.1" id="Layer_1" zoomAndPan="disable"
	 xmlns="http://www.w3.org/2000/svg" xmlns:xlink="http://www.w3.org/1999/xlink" x="0px" y="0px" width="32px" height="16px"
	 viewBox="-15 4 32 16" enable-background="new -15 4 32 16" xml:space="preserve">
<pattern  x="-387.5" y="312.5" width="48" height="48" patternUnits="userSpaceOnUse" id="_x36__dpi_80_x25_" viewBox="57.6 -60 48 48" overflow="visible">
	<g>
		<polygon fill="none" points="57.6,-12 57.6,-60 105.6,-60 105.6,-12 		"/>
		<path fill="#231F20" d="M57.6-2.4c5.301,0,9.6-4.298,9.6-9.6c0-5.301-4.299-9.6-9.6-9.6c-5.302,0-9.6,4.299-9.6,9.6
			C48-6.698,52.298-2.4,57.6-2.4z"/>
		<path fill="#231F20" d="M81.6-2.4c5.301,0,9.6-4.298,9.6-9.6c0-5.301-4.299-9.6-9.6-9.6c-5.302,0-9.6,4.299-9.6,9.6
			C72-6.698,76.298-2.4,81.6-2.4z"/>
		<path fill="#231F20" d="M105.6-2.4c5.301,0,9.6-4.298,9.6-9.6c0-5.301-4.299-9.6-9.6-9.6c-5.302,0-9.6,4.299-9.6,9.6
			C96-6.698,100.298-2.4,105.6-2.4z"/>
		<path fill="#231F20" d="M57.6-26.4c5.301,0,9.6-4.298,9.6-9.6c0-5.301-4.299-9.6-9.6-9.6c-5.302,0-9.6,4.299-9.6,9.6
			C48-30.698,52.298-26.4,57.6-26.4z"/>
		<path fill="#231F20" d="M81.6-26.4c5.301,0,9.6-4.298,9.6-9.6c0-5.301-4.299-9.6-9.6-9.6c-5.302,0-9.6,4.299-9.6,9.6
			C72-30.698,76.298-26.4,81.6-26.4z"/>
		<path fill="#231F20" d="M105.6-26.4c5.301,0,9.6-4.298,9.6-9.6c0-5.301-4.299-9.6-9.6-9.6c-5.302,0-9.6,4.299-9.6,9.6
			C96-30.698,100.298-26.4,105.6-26.4z"/>
		<path fill="#231F20" d="M57.6-50.4c5.301,0,9.6-4.298,9.6-9.6c0-5.301-4.299-9.6-9.6-9.6c-5.302,0-9.6,4.299-9.6,9.6
			C48-54.698,52.298-50.4,57.6-50.4z"/>
		<path fill="#231F20" d="M81.6-50.4c5.301,0,9.6-4.298,9.6-9.6c0-5.301-4.299-9.6-9.6-9.6c-5.302,0-9.6,4.299-9.6,9.6
			C72-54.698,76.298-50.4,81.6-50.4z"/>
		<path fill="#231F20" d="M105.6-50.4c5.301,0,9.6-4.298,9.6-9.6c0-5.301-4.299-9.6-9.6-9.6c-5.302,0-9.6,4.299-9.6,9.6
			C96-54.698,100.298-50.4,105.6-50.4z"/>
		<path fill="#231F20" d="M9.6-50.4c5.301,0,9.6-4.298,9.6-9.6c0-5.301-4.299-9.6-9.6-9.6C4.298-69.6,0-65.301,0-60
			C0-54.698,4.298-50.4,9.6-50.4z"/>
		<path fill="#231F20" d="M9.6-60"/>
		<path fill="#231F20" d="M117.6-33.6c-5.302,0-9.6,4.299-9.6,9.6c0,5.302,4.298,9.6,9.6,9.6V-33.6z"/>
		<path fill="#231F20" d="M93.6-14.4c5.301,0,9.6-4.298,9.6-9.6c0-5.301-4.299-9.6-9.6-9.6c-5.302,0-9.6,4.299-9.6,9.6
			C84-18.698,88.298-14.4,93.6-14.4z"/>
		<path fill="#231F20" d="M69.6-14.4c5.301,0,9.6-4.298,9.6-9.6c0-5.301-4.299-9.6-9.6-9.6c-5.302,0-9.6,4.299-9.6,9.6
			C60-18.698,64.298-14.4,69.6-14.4z"/>
		<path fill="#231F20" d="M45.6-14.4c5.301,0,9.6-4.298,9.6-9.6c0-5.301-4.299-9.6-9.6-9.6V-14.4z"/>
		<path fill="#231F20" d="M117.6-57.6c-5.302,0-9.6,4.299-9.6,9.6c0,5.302,4.298,9.6,9.6,9.6V-57.6z"/>
		<path fill="#231F20" d="M93.6-38.4c5.301,0,9.6-4.298,9.6-9.6c0-5.301-4.299-9.6-9.6-9.6c-5.302,0-9.6,4.299-9.6,9.6
			C84-42.698,88.298-38.4,93.6-38.4z"/>
		<path fill="#231F20" d="M69.6-38.4c5.301,0,9.6-4.298,9.6-9.6c0-5.301-4.299-9.6-9.6-9.6c-5.302,0-9.6,4.299-9.6,9.6
			C60-42.698,64.298-38.4,69.6-38.4z"/>
		<path fill="#231F20" d="M45.6-38.4c5.301,0,9.6-4.298,9.6-9.6c0-5.301-4.299-9.6-9.6-9.6V-38.4z"/>
		<path fill="#231F20" d="M84-72c0,5.302,4.298,9.6,9.6,9.6c5.301,0,9.6-4.298,9.6-9.6H84z"/>
		<path fill="#231F20" d="M60-72c0,5.302,4.298,9.6,9.6,9.6c5.301,0,9.6-4.298,9.6-9.6H60z"/>
		<path fill="#231F20" d="M103.2,0c0-5.301-4.299-9.6-9.6-9.6C88.298-9.6,84-5.301,84,0H103.2z"/>
		<path fill="#231F20" d="M79.2,0c0-5.301-4.299-9.6-9.6-9.6C64.298-9.6,60-5.301,60,0H79.2z"/>
		<path fill="#231F20" d="M21.6-38.4c5.301,0,9.6-4.298,9.6-9.6c0-5.301-4.299-9.6-9.6-9.6c-5.302,0-9.6,4.299-9.6,9.6
			C12-42.698,16.298-38.4,21.6-38.4z"/>
		<path fill="#231F20" d="M21.6-48"/>
	</g>
</pattern>
<pattern  x="-387.5" y="312.5" width="72" height="72" patternUnits="userSpaceOnUse" id="Hatching2" viewBox="18.836 -74.101 72 72" overflow="visible">
	<g>
		<polygon fill="none" points="18.836,-2.101 18.836,-74.101 90.836,-74.101 90.836,-2.101 		"/>
		<line fill="#FFFFFF" x1="2.836" y1="-8.101" x2="8.836" y2="-2.101"/>
		<line fill="#FFFFFF" x1="2.836" y1="-2.101" x2="8.836" y2="-8.101"/>
		<line fill="none" stroke="#231F20" stroke-width="0.3" x1="24.586" y1="-63.351" x2="21.836" y2="-61.351"/>
		<line fill="none" stroke="#231F20" stroke-width="0.3" x1="23.086" y1="-7.101" x2="20.836" y2="-5.351"/>
		<line fill="none" stroke="#231F20" stroke-width="0.3" x1="92.086" y1="-67.101" x2="88.836" y2="-66.351"/>
		<line fill="none" stroke="#231F20" stroke-width="0.3" x1="90.836" y1="-55.351" x2="88.336" y2="-53.601"/>
		<line fill="none" stroke="#231F20" stroke-width="0.3" x1="93.586" y1="-50.101" x2="90.586" y2="-50.101"/>
		<line fill="none" stroke="#231F20" stroke-width="0.3" x1="90.336" y1="-42.601" x2="87.586" y2="-44.351"/>
		<line fill="none" stroke="#231F20" stroke-width="0.3" x1="92.586" y1="-34.351" x2="90.586" y2="-32.851"/>
		<line fill="none" stroke="#231F20" stroke-width="0.3" x1="90.086" y1="-22.351" x2="87.336" y2="-24.601"/>
		<line fill="none" stroke="#231F20" stroke-width="0.3" x1="92.086" y1="-11.351" x2="87.836" y2="-12.101"/>
		<line fill="none" stroke="#231F20" stroke-width="0.3" x1="82.336" y1="-13.101" x2="80.086" y2="-11.351"/>
		<line fill="none" stroke="#231F20" stroke-width="0.3" x1="90.586" y1="-29.101" x2="87.586" y2="-29.101"/>
		<line fill="none" stroke="#231F20" stroke-width="0.3" x1="76.836" y1="-56.601" x2="74.943" y2="-59.425"/>
		<line fill="none" stroke="#231F20" stroke-width="0.3" x1="46.836" y1="-58.101" x2="45.182" y2="-60.664"/>
		<line fill="none" stroke="#231F20" stroke-width="0.3" x1="61.877" y1="-62.544" x2="63.731" y2="-65.226"/>
		<line fill="none" stroke="#231F20" stroke-width="0.3" x1="86.8" y1="-1.252" x2="87.915" y2="-4.212"/>
		<line fill="none" stroke="#231F20" stroke-width="0.3" x1="81.962" y1="-1.116" x2="81.336" y2="-4.393"/>
		<line fill="none" stroke="#231F20" stroke-width="0.3" x1="75.836" y1="-26.101" x2="73.943" y2="-28.925"/>
		<line fill="none" stroke="#231F20" stroke-width="0.3" x1="67.491" y1="-54.536" x2="65.836" y2="-57.101"/>
		<line fill="none" stroke="#231F20" stroke-width="0.3" x1="66.749" y1="-0.263" x2="66.863" y2="-3.26"/>
		<line fill="none" stroke="#231F20" stroke-width="0.3" x1="59.377" y1="-3.794" x2="61.231" y2="-6.476"/>
		<line fill="none" stroke="#231F20" stroke-width="0.3" x1="51.048" y1="-1.858" x2="49.625" y2="-3.913"/>
		<line fill="none" stroke="#231F20" stroke-width="0.3" x1="69.152" y1="-33.312" x2="71.504" y2="-35.975"/>
		<line fill="none" stroke="#231F20" stroke-width="0.3" x1="34.782" y1="-1.726" x2="36.107" y2="-3.677"/>
		<line fill="none" stroke="#231F20" stroke-width="0.3" x1="28.083" y1="-3.23" x2="28.995" y2="-7.448"/>
		<line fill="none" stroke="#231F20" stroke-width="0.3" x1="23.722" y1="-0.394" x2="22.059" y2="-2.708"/>
		<line fill="none" stroke="#231F20" stroke-width="0.3" x1="45.877" y1="-4.057" x2="45.992" y2="-7.055"/>
		<line fill="none" stroke="#231F20" stroke-width="0.3" x1="26.086" y1="-68.851" x2="29.586" y2="-67.351"/>
		<line fill="none" stroke="#231F20" stroke-width="0.3" x1="23.336" y1="-53.351" x2="23.586" y2="-56.601"/>
		<line fill="none" stroke="#231F20" stroke-width="0.3" x1="26.836" y1="-30.351" x2="28.336" y2="-26.601"/>
		<line fill="none" stroke="#231F20" stroke-width="0.3" x1="24.086" y1="-35.851" x2="26.336" y2="-39.601"/>
		<line fill="none" stroke="#231F20" stroke-width="0.3" x1="48.086" y1="-69.601" x2="45.836" y2="-67.101"/>
		<line fill="none" stroke="#231F20" stroke-width="0.3" x1="52.336" y1="-69.601" x2="55.586" y2="-66.851"/>
		<line fill="none" stroke="#231F20" stroke-width="0.3" x1="69.086" y1="-69.601" x2="72.336" y2="-67.601"/>
		<line fill="none" stroke="#231F20" stroke-width="0.3" x1="71.336" y1="-63.601" x2="69.336" y2="-60.351"/>
		<line fill="none" stroke="#231F20" stroke-width="0.3" x1="78.336" y1="-64.851" x2="83.336" y2="-67.101"/>
		<line fill="none" stroke="#231F20" stroke-width="0.3" x1="85.836" y1="-61.351" x2="83.336" y2="-59.601"/>
		<line fill="none" stroke="#231F20" stroke-width="0.3" x1="37.586" y1="-69.351" x2="37.586" y2="-66.351"/>
		<line fill="none" stroke="#231F20" stroke-width="0.3" x1="34.586" y1="-64.351" x2="31.336" y2="-63.851"/>
		<line fill="none" stroke="#231F20" stroke-width="0.3" x1="38.836" y1="-59.851" x2="39.336" y2="-56.601"/>
		<line fill="none" stroke="#231F20" stroke-width="0.3" x1="39.836" y1="-64.351" x2="43.336" y2="-65.101"/>
		<line fill="none" stroke="#231F20" stroke-width="0.3" x1="28.086" y1="-52.601" x2="30.836" y2="-54.601"/>
		<line fill="none" stroke="#231F20" stroke-width="0.3" x1="26.336" y1="-10.101" x2="26.586" y2="-14.101"/>
		<line fill="none" stroke="#231F20" stroke-width="0.3" x1="26.086" y1="-18.351" x2="28.336" y2="-20.851"/>
		<line fill="none" stroke="#231F20" stroke-width="0.3" x1="40.086" y1="-8.351" x2="37.586" y2="-11.851"/>
		<line fill="none" stroke="#231F20" stroke-width="0.3" x1="48.586" y1="-45.601" x2="46.086" y2="-43.851"/>
		<line fill="none" stroke="#231F20" stroke-width="0.3" x1="76.586" y1="-40.351" x2="73.836" y2="-41.851"/>
		<line fill="none" stroke="#231F20" stroke-width="0.3" x1="45.586" y1="-34.101" x2="41.836" y2="-34.851"/>
		<line fill="none" stroke="#231F20" stroke-width="0.3" x1="50.336" y1="-24.601" x2="48.336" y2="-23.101"/>
		<line fill="none" stroke="#231F20" stroke-width="0.3" x1="47.836" y1="-12.601" x2="45.086" y2="-14.851"/>
		<line fill="none" stroke="#231F20" stroke-width="0.3" x1="51.086" y1="-8.351" x2="49.086" y2="-9.601"/>
		<line fill="none" stroke="#231F20" stroke-width="0.3" x1="48.336" y1="-19.351" x2="45.336" y2="-19.351"/>
		<line fill="none" stroke="#231F20" stroke-width="0.3" x1="58.586" y1="-55.101" x2="56.086" y2="-53.351"/>
		<line fill="none" stroke="#231F20" stroke-width="0.3" x1="61.336" y1="-49.851" x2="58.336" y2="-49.851"/>
		<line fill="none" stroke="#231F20" stroke-width="0.3" x1="58.086" y1="-42.351" x2="55.336" y2="-44.101"/>
		<line fill="none" stroke="#231F20" stroke-width="0.3" x1="57.336" y1="-31.601" x2="56.586" y2="-29.101"/>
		<line fill="none" stroke="#231F20" stroke-width="0.3" x1="57.836" y1="-22.101" x2="55.086" y2="-24.351"/>
		<line fill="none" stroke="#231F20" stroke-width="0.3" x1="58.336" y1="-14.101" x2="56.336" y2="-15.351"/>
		<line fill="none" stroke="#231F20" stroke-width="0.3" x1="81.809" y1="-29.583" x2="78.809" y2="-29.583"/>
		<line fill="none" stroke="#231F20" stroke-width="0.3" x1="41.086" y1="-31.101" x2="43.586" y2="-29.351"/>
		<line fill="none" stroke="#231F20" stroke-width="0.3" x1="45.836" y1="-53.601" x2="48.836" y2="-53.601"/>
		<line fill="none" stroke="#231F20" stroke-width="0.3" x1="33.586" y1="-39.351" x2="36.086" y2="-37.601"/>
		<line fill="none" stroke="#231F20" stroke-width="0.3" x1="30.836" y1="-34.101" x2="33.836" y2="-34.101"/>
		<line fill="none" stroke="#231F20" stroke-width="0.3" x1="34.086" y1="-26.601" x2="36.836" y2="-28.351"/>
		<line fill="none" stroke="#231F20" stroke-width="0.3" x1="66.086" y1="-41.101" x2="68.47" y2="-42.661"/>
		<line fill="none" stroke="#231F20" stroke-width="0.3" x1="66.423" y1="-48.63" x2="68.807" y2="-46.809"/>
		<line fill="none" stroke="#231F20" stroke-width="0.3" x1="73.558" y1="-52.616" x2="73.336" y2="-49.601"/>
		<line fill="none" stroke="#231F20" stroke-width="0.3" x1="64.171" y1="-8.538" x2="67.22" y2="-8.411"/>
		<line fill="none" stroke="#231F20" stroke-width="0.3" x1="65.173" y1="-14.38" x2="67.557" y2="-12.559"/>
		<line fill="none" stroke="#231F20" stroke-width="0.3" x1="72.308" y1="-18.366" x2="73.431" y2="-15.307"/>
		<line fill="none" stroke="#231F20" stroke-width="0.3" x1="67.086" y1="-30.601" x2="64.586" y2="-28.851"/>
		<line fill="none" stroke="#231F20" stroke-width="0.3" x1="66.836" y1="-23.101" x2="63.586" y2="-24.101"/>
		<line fill="none" stroke="#231F20" stroke-width="0.3" x1="75.836" y1="-7.601" x2="73.086" y2="-9.351"/>
		<line fill="none" stroke="#231F20" stroke-width="0.3" x1="83.336" y1="-33.101" x2="80.586" y2="-34.851"/>
		<line fill="none" stroke="#231F20" stroke-width="0.3" x1="81.086" y1="-22.101" x2="79.086" y2="-20.601"/>
		<line fill="none" stroke="#231F20" stroke-width="0.3" x1="38.421" y1="-44.538" x2="41.47" y2="-44.411"/>
		<line fill="none" stroke="#231F20" stroke-width="0.3" x1="39.423" y1="-50.38" x2="41.807" y2="-48.559"/>
		<line fill="none" stroke="#231F20" stroke-width="0.3" x1="76.586" y1="-45.601" x2="79.307" y2="-45.059"/>
		<line fill="none" stroke="#231F20" stroke-width="0.3" x1="33.836" y1="-18.351" x2="34.336" y2="-15.101"/>
		<line fill="none" stroke="#231F20" stroke-width="0.3" x1="35.836" y1="-20.351" x2="39.336" y2="-21.101"/>
		<line fill="none" stroke="#231F20" stroke-width="0.3" x1="51.586" y1="-61.351" x2="55.586" y2="-60.601"/>
		<line fill="none" stroke="#231F20" stroke-width="0.3" x1="52.309" y1="-40.583" x2="52.809" y2="-37.083"/>
		<line fill="none" stroke="#231F20" stroke-width="0.3" x1="83.336" y1="-51.101" x2="80.836" y2="-52.351"/>
		<line fill="none" stroke="#231F20" stroke-width="0.3" x1="28.836" y1="-60.601" x2="32.086" y2="-57.851"/>
		<line fill="none" stroke="#231F20" stroke-width="0.3" x1="23.586" y1="-44.601" x2="21.086" y2="-42.851"/>
		<line fill="none" stroke="#231F20" stroke-width="0.3" x1="34.586" y1="-50.101" x2="32.586" y2="-48.601"/>
		<line fill="none" stroke="#231F20" stroke-width="0.3" x1="60.127" y1="-69.294" x2="61.981" y2="-71.976"/>
		<line fill="none" stroke="#231F20" stroke-width="0.3" x1="83.377" y1="-39.044" x2="85.231" y2="-41.726"/>
		<line fill="none" stroke="#231F20" stroke-width="0.3" x1="52.627" y1="-47.794" x2="53.336" y2="-50.601"/>
		<line fill="none" stroke="#231F20" stroke-width="0.3" x1="39.127" y1="-15.294" x2="39.836" y2="-18.101"/>
		<line fill="none" stroke="#231F20" stroke-width="0.3" x1="50.586" y1="-31.351" x2="48.586" y2="-29.851"/>
		<line fill="none" stroke="#231F20" stroke-width="0.3" x1="20.086" y1="-67.101" x2="16.836" y2="-66.351"/>
		<line fill="none" stroke="#231F20" stroke-width="0.3" x1="18.836" y1="-55.351" x2="16.336" y2="-53.601"/>
		<line fill="none" stroke="#231F20" stroke-width="0.3" x1="21.586" y1="-50.101" x2="18.586" y2="-50.101"/>
		<line fill="none" stroke="#231F20" stroke-width="0.3" x1="20.586" y1="-34.351" x2="18.586" y2="-32.851"/>
		<line fill="none" stroke="#231F20" stroke-width="0.3" x1="20.086" y1="-11.351" x2="15.836" y2="-12.101"/>
		<line fill="none" stroke="#231F20" stroke-width="0.3" x1="18.586" y1="-29.101" x2="15.586" y2="-29.101"/>
		<line fill="none" stroke="#231F20" stroke-width="0.3" x1="86.8" y1="-73.252" x2="87.915" y2="-76.212"/>
		<line fill="none" stroke="#231F20" stroke-width="0.3" x1="81.962" y1="-73.116" x2="81.336" y2="-76.393"/>
		<line fill="none" stroke="#231F20" stroke-width="0.3" x1="66.749" y1="-72.263" x2="66.863" y2="-75.26"/>
		<line fill="none" stroke="#231F20" stroke-width="0.3" x1="51.048" y1="-73.858" x2="49.625" y2="-75.913"/>
		<line fill="none" stroke="#231F20" stroke-width="0.3" x1="34.782" y1="-73.726" x2="36.107" y2="-75.677"/>
		<line fill="none" stroke="#231F20" stroke-width="0.3" x1="23.722" y1="-72.394" x2="22.059" y2="-74.708"/>
		<line fill="none" stroke="#231F20" stroke-width="0.3" x1="0.059" y1="-64.601" x2="3.559" y2="-63.101"/>
		<line fill="none" stroke="#231F20" stroke-width="0.3" x1="24.086" y1="-22.101" x2="20.336" y2="-22.851"/>
		<line fill="none" stroke="#231F20" stroke-width="0.3" x1="87.204" y1="-16.76" x2="85.309" y2="-19.583"/>
		<line fill="none" stroke="#231F20" stroke-width="0.3" x1="42.809" y1="-38.083" x2="43.492" y2="-40.872"/>
		<line fill="none" stroke="#231F20" stroke-width="0.3" x1="63.586" y1="-37.101" x2="61.586" y2="-35.601"/>
		<line fill="none" stroke="#231F20" stroke-width="0.3" x1="74.309" y1="-72.083" x2="76.309" y2="-75.083"/>
		<line fill="none" stroke="#231F20" stroke-width="0.3" x1="74.309" y1="-0.083" x2="76.309" y2="-3.083"/>
	</g>
</pattern>
<polygon fill="url(#Hatching2)" stroke="#000000" stroke-width="0.25" points="47.938,54 20.312,54 20.312,44.251 20.312,32.5 
	47.938,32.5 "/>
<polyline fill="#FFFFFF" points="25.084,42.425 25.084,39.25 32.562,39.234 32.712,38.25 42.938,38.25 42.938,42.62 "/>
<g>
	<g>
		<rect x="-36.229" y="2.049" fill="#020202" width="20.604" height="20.605"/>
	</g>
	<g>
		
			<linearGradient id="SVGID_1_" gradientUnits="userSpaceOnUse" x1="-52.2285" y1="1196.6553" x2="-31.624" y2="1176.0508" gradientTransform="matrix(1 0 0 1 16 -1174)">
			<stop  offset="0" style="stop-color:#0099CC"/>
			<stop  offset="1" style="stop-color:#CC0066"/>
		</linearGradient>
		<rect x="-36.229" y="2.049" display="none" fill="url(#SVGID_1_)" width="20.604" height="20.605"/>
	</g>
	<g>
		<rect x="-34.942" y="3.337" fill="#FFFFFF" width="18.028" height="18.028"/>
	</g>
	<g>
		<rect x="-33.654" y="4.625" fill="#020202" width="15.453" height="15.453"/>
	</g>
	<g>
		<rect x="-32.366" y="5.913" fill="#FFFFFF" width="12.877" height="12.878"/>
	</g>
	<g>
		<rect x="-31.079" y="7.2" fill="#020202" width="10.302" height="10.302"/>
	</g>
	<g>
		
			<linearGradient id="SVGID_2_" gradientUnits="userSpaceOnUse" x1="-47.0791" y1="1191.502" x2="-36.777" y2="1181.2" gradientTransform="matrix(1 0 0 1 16 -1174)">
			<stop  offset="0" style="stop-color:#0099CC"/>
			<stop  offset="1" style="stop-color:#CC0066"/>
		</linearGradient>
		<rect x="-31.079" y="7.2" display="none" fill="url(#SVGID_2_)" width="10.302" height="10.302"/>
	</g>
	<g>
		<rect x="-29.791" y="8.488" fill="#FFFFFF" width="7.727" height="7.727"/>
	</g>
	<g>
		<rect x="-28.503" y="9.776" fill="#020202" width="5.15" height="5.152"/>
	</g>
</g>
<g>
	<path d="M-41.415,18.091c-0.883,1.062-2.244,1.73-3.734,1.73c-2.721,0-4.946-2.224-4.946-4.944c0-2.744,2.226-4.948,4.946-4.948
		c2.72,0,4.945,2.204,4.945,4.948c0,0.3-0.023,0.58-0.085,0.884h-6.954c0.127,0.345,0.302,0.647,0.539,0.906
		c0.454,0.497,1.036,0.759,1.664,0.759c0.58,0,1.164-0.262,1.595-0.696L-41.415,18.091z M-42.816,14.118
		c-0.11-0.388-0.302-0.753-0.582-1.06c-0.434-0.473-1.037-0.731-1.642-0.731c-0.628,0-1.21,0.259-1.664,0.731
		c-0.26,0.307-0.454,0.672-0.583,1.06H-42.816z"/>
</g>
<path fill="none" stroke="#FFFFFF" stroke-width="0.9872" stroke-linecap="square" d="M-42.275,21.234c0,0,0.904-0.264,1.561-0.814
	c0.636-0.537,1.392-1.245,1.392-1.245"/>
<path fill="none" stroke="#000000" stroke-width="2.6532" d="M-37.598,14.875c0,4.168-3.381,7.551-7.553,7.551
	s-7.553-3.383-7.553-7.551c0-4.171,3.381-7.552,7.553-7.552"/>
<path fill="none" stroke="#000000" stroke-width="2.6537" d="M-43.494,4.284c0-1.677,1.363-3.04,3.043-3.04
	c1.676,0,3.036,1.362,3.036,3.04c0,1.679-1.36,3.039-3.036,3.039"/>
<line fill="none" stroke="#000000" stroke-width="2.6532" x1="-45.211" y1="7.323" x2="-40.451" y2="7.323"/>
<path fill="none" stroke="#000000" stroke-width="2.6532" d="M-38.775,11.224c0.746,1.169,1.178,2.56,1.178,4.049"/>
<path fill="none" stroke="#000000" stroke-width="2.3075" d="M-45.213,6.672"/>
<path fill="none" stroke="#000000" stroke-width="2.3077" d="M-42.1,23.527"/>
<path fill="none" stroke="#000000" stroke-width="2.3077" d="M-42.1,25.059"/>
<path fill="none" stroke="#000000" stroke-width="2.6532" d="M-52.849,20.58c-1.17,0.746-2.56,1.178-4.049,1.178"/>
<path fill="none" stroke="#000000" stroke-width="2" d="M-57,19"/>
<g>
	<path fill="none" stroke="#050505" stroke-width="0.25" d="M-8.625,45.153c1.719,0,1.719,1.996,3.438,1.996s1.72-1.996,3.438-1.996
		c1.718,0,1.718,1.996,3.436,1.996c1.719,0,1.719-1.996,3.438-1.996s1.72,1.996,3.438,1.996c1.721,0,1.721-1.996,3.44-1.996
		c1.723,0,1.723,1.996,3.445,1.996s1.723-1.996,3.445-1.996"/>
</g>
<path fill="none" stroke="#000000" stroke-width="2" d="M-9.334,17.914"/>
<image overflow="visible" width="236" height="177" xlink:href="../../../../ui-inspirations/25aaccf7cded99dbeb8999bf88982644.jpg"  transform="matrix(0.1215 0 0 0.1215 49.5 32.5)">
</image>
<g>
	<path fill="#F64448" d="M34.925,40.146c0,0.456-0.386,0.816-0.842,0.816s-0.802-0.36-0.802-0.816s0.346-0.857,0.802-0.857
		S34.925,39.69,34.925,40.146z"/>
</g>
<polygon fill="none" stroke="#000000" stroke-width="0.5" points="25.084,48.333 42.417,48.333 42.417,38.417 32.584,38.417 
	32.562,39.234 25.084,39.25 "/>
<g>
	<path fill="#D94448" d="M34.083,40.976c-0.456,0-0.817-0.373-0.817-0.829s0.361-0.857,0.817-0.857"/>
</g>
<rect x="25.084" y="41.875" width="17.333" height="6.458"/>
<pattern  id="SVGID_3_" xlink:href="#_x36__dpi_80_x25_" patternTransform="matrix(1 0 0 1 0 -0.125)">
</pattern>
<line fill="none" stroke="url(#SVGID_3_)" stroke-width="0.33" x1="26.312" y1="41.422" x2="41.414" y2="41.422"/>
<g>
	<g>
		<g>
			<path fill="#FFFFFF" d="M31.981,43.02c0-0.064,0.044-0.125,0.108-0.125s0.112,0.061,0.112,0.125s-0.048,0.106-0.112,0.106
				S31.981,43.084,31.981,43.02z"/>
		</g>
		<g>
			<path fill="#FFFFFF" d="M31.439,43.02c0-0.064,0.063-0.107,0.128-0.107s0.114,0.043,0.114,0.107s-0.05,0.105-0.114,0.105
				S31.439,43.084,31.439,43.02z"/>
		</g>
		<g>
			<path fill="#FFFFFF" d="M30.953,43.02c0-0.064,0.059-0.11,0.123-0.11s0.112,0.046,0.112,0.11s-0.048,0.117-0.112,0.117
				S30.953,43.084,30.953,43.02z"/>
		</g>
		<g>
			<path fill="#FFFFFF" d="M29.913,43.02c0-0.064,0.044-0.12,0.108-0.12s0.128,0.056,0.128,0.12s-0.063,0.121-0.128,0.121
				S29.913,43.084,29.913,43.02z"/>
		</g>
		<g>
			<path fill="#FFFFFF" d="M29.455,43.02c0-0.064,0.048-0.127,0.112-0.127s0.122,0.062,0.122,0.127s-0.058,0.12-0.122,0.12
				S29.455,43.084,29.455,43.02z"/>
		</g>
		<g>
			<path fill="#FFFFFF" d="M28.947,43.02c0-0.064,0.064-0.123,0.129-0.123s0.125,0.059,0.125,0.123s-0.061,0.125-0.125,0.125
				S28.947,43.084,28.947,43.02z"/>
		</g>
		<g>
			<path fill="#FFFFFF" d="M27.505,43.02c0-0.064,0.063-0.124,0.128-0.124s0.125,0.06,0.125,0.124s-0.061,0.11-0.125,0.11
				S27.505,43.084,27.505,43.02z"/>
		</g>
		<g>
			<path fill="#FFFFFF" d="M26.962,43.02c0-0.064,0.05-0.11,0.114-0.11s0.128,0.046,0.128,0.11s-0.063,0.117-0.128,0.117
				S26.962,43.084,26.962,43.02z"/>
		</g>
		<g>
			<path fill="#FFFFFF" d="M28.476,43.02c0-0.064,0.064-0.113,0.129-0.113s0.105,0.049,0.105,0.113s-0.041,0.126-0.105,0.126
				S28.476,43.084,28.476,43.02z"/>
		</g>
		<g>
			<path fill="#FFFFFF" d="M28.042,43.02c0-0.064,0.063-0.107,0.128-0.107s0.124,0.043,0.124,0.107s-0.06,0.117-0.124,0.117
				S28.042,43.084,28.042,43.02z"/>
		</g>
		<g>
			<path fill="#FFFFFF" d="M25.937,43.02c0-0.064,0.052-0.123,0.116-0.123s0.108,0.059,0.108,0.123s-0.044,0.128-0.108,0.128
				S25.937,43.084,25.937,43.02z"/>
		</g>
		<g>
			<path fill="#FFFFFF" d="M26.418,43.02c0-0.064,0.043-0.122,0.107-0.122s0.112,0.058,0.112,0.122s-0.048,0.116-0.112,0.116
				S26.418,43.084,26.418,43.02z"/>
		</g>
		<g>
			<path fill="#FFFFFF" d="M25.353,43.02c0-0.064,0.052-0.12,0.116-0.12s0.108,0.056,0.108,0.12s-0.044,0.118-0.108,0.118
				S25.353,43.084,25.353,43.02z"/>
		</g>
		<g>
			<path fill="#FFFFFF" d="M30.4,43.02c0-0.064,0.064-0.127,0.129-0.127s0.11,0.062,0.11,0.127s-0.046,0.111-0.11,0.111
				S30.4,43.084,30.4,43.02z"/>
		</g>
	</g>
</g>
<pattern  id="SVGID_4_" xlink:href="#_x36__dpi_80_x25_" patternTransform="matrix(1 0 0 1 0 -0.125)">
</pattern>
<line fill="none" stroke="url(#SVGID_4_)" x1="25.084" y1="39.75" x2="25.084" y2="41.422"/>
<pattern  id="SVGID_5_" xlink:href="#_x36__dpi_80_x25_" patternTransform="matrix(1 0 0 1 17.333 -0.5645)">
</pattern>
<line fill="none" stroke="url(#SVGID_5_)" x1="42.417" y1="39.311" x2="42.417" y2="40.982"/>
<pattern  id="SVGID_6_" xlink:href="#_x36__dpi_80_x25_" patternTransform="matrix(1 0 0 1 0.2266 -0.125)">
</pattern>
<line fill="none" stroke="url(#SVGID_6_)" stroke-width="0.33" stroke-linecap="square" x1="41.414" y1="41.422" x2="41.414" y2="38.417"/>
<text transform="matrix(1 0 0 1 28.6279 40.5859)" font-family="'ProximaNova-Bold'" font-size="1">ES</text>
<rect x="30.178" y="39.768" width="1.397" height="0.879"/>
<line fill="none" stroke="#FFFFFF" stroke-width="0.2699" x1="25.084" y1="48.229" x2="42.417" y2="48.229"/>
<g>
	<circle fill="#FFFFFF" cx="25.416" cy="42.254" r="0.117"/>
	<circle fill="#FFFFFF" cx="25.938" cy="42.254" r="0.117"/>
	<circle fill="#FFFFFF" cx="26.43" cy="42.254" r="0.117"/>
	<circle fill="#FFFFFF" cx="27.484" cy="42.254" r="0.117"/>
	<circle fill="#FFFFFF" cx="27.938" cy="42.254" r="0.117"/>
	<circle fill="#FFFFFF" cx="28.43" cy="42.254" r="0.117"/>
	<circle fill="#FFFFFF" cx="29.873" cy="42.254" r="0.117"/>
	<circle fill="#FFFFFF" cx="30.43" cy="42.254" r="0.117"/>
	<circle fill="#FFFFFF" cx="28.901" cy="42.254" r="0.117"/>
	<circle fill="#FFFFFF" cx="29.336" cy="42.254" r="0.117"/>
	<circle fill="#FFFFFF" cx="31.453" cy="42.254" r="0.117"/>
	<circle fill="#FFFFFF" cx="30.98" cy="42.254" r="0.117"/>
	<circle fill="#FFFFFF" cx="32.037" cy="42.254" r="0.117"/>
	<circle fill="#FFFFFF" cx="26.977" cy="42.254" r="0.117"/>
</g>
<g>
	<circle fill="#FFFFFF" cx="25.708" cy="42.646" r="0.117"/>
	<circle fill="#FFFFFF" cx="26.23" cy="42.646" r="0.117"/>
	<circle fill="#FFFFFF" cx="26.722" cy="42.646" r="0.117"/>
	<circle fill="#FFFFFF" cx="27.776" cy="42.646" r="0.117"/>
	<circle fill="#FFFFFF" cx="28.23" cy="42.646" r="0.117"/>
	<circle fill="#FFFFFF" cx="28.722" cy="42.646" r="0.117"/>
	<circle fill="#FFFFFF" cx="30.165" cy="42.646" r="0.117"/>
	<circle fill="#FFFFFF" cx="30.722" cy="42.646" r="0.117"/>
	<circle fill="#FFFFFF" cx="29.193" cy="42.646" r="0.117"/>
	<circle fill="#FFFFFF" cx="29.628" cy="42.646" r="0.117"/>
	<circle fill="#FFFFFF" cx="31.745" cy="42.646" r="0.117"/>
	<circle fill="#FFFFFF" cx="31.272" cy="42.646" r="0.117"/>
	<circle fill="#FFFFFF" cx="32.329" cy="42.646" r="0.117"/>
	<circle fill="#FFFFFF" cx="27.269" cy="42.646" r="0.117"/>
</g>
<g>
	<g>
		<g>
			<path fill="#FFFFFF" d="M25.654,43.737c0,0.064-0.062,0.123-0.126,0.123s-0.116-0.059-0.116-0.123s0.052-0.119,0.116-0.119
				S25.654,43.673,25.654,43.737z"/>
		</g>
		<g>
			<path fill="#FFFFFF" d="M26.177,43.737c0,0.064-0.062,0.114-0.126,0.114s-0.115-0.05-0.115-0.114s0.051-0.117,0.115-0.117
				S26.177,43.673,26.177,43.737z"/>
		</g>
		<g>
			<path fill="#FFFFFF" d="M26.653,43.737c0,0.064-0.047,0.115-0.111,0.115s-0.127-0.051-0.127-0.115s0.062-0.124,0.127-0.124
				S26.653,43.673,26.653,43.737z"/>
		</g>
		<g>
			<path fill="#FFFFFF" d="M27.71,43.737c0,0.064-0.049,0.115-0.113,0.115s-0.12-0.051-0.12-0.115s0.056-0.128,0.12-0.128
				S27.71,43.673,27.71,43.737z"/>
		</g>
		<g>
			<path fill="#FFFFFF" d="M28.179,43.737c0,0.064-0.063,0.115-0.128,0.115s-0.114-0.051-0.114-0.115s0.05-0.125,0.114-0.125
				S28.179,43.673,28.179,43.737z"/>
		</g>
		<g>
			<path fill="#FFFFFF" d="M28.661,43.737c0,0.064-0.055,0.116-0.119,0.116s-0.123-0.052-0.123-0.116s0.059-0.106,0.123-0.106
				S28.661,43.673,28.661,43.737z"/>
		</g>
		<g>
			<path fill="#FFFFFF" d="M30.102,43.737c0,0.064-0.052,0.118-0.116,0.118s-0.128-0.054-0.128-0.118s0.063-0.106,0.128-0.106
				S30.102,43.673,30.102,43.737z"/>
		</g>
		<g>
			<path fill="#FFFFFF" d="M30.65,43.737c0,0.064-0.044,0.118-0.108,0.118s-0.108-0.054-0.108-0.118s0.044-0.125,0.108-0.125
				S30.65,43.673,30.65,43.737z"/>
		</g>
		<g>
			<path fill="#FFFFFF" d="M29.122,43.737c0,0.064-0.044,0.122-0.108,0.122s-0.116-0.058-0.116-0.122s0.052-0.124,0.116-0.124
				S29.122,43.673,29.122,43.737z"/>
		</g>
		<g>
			<path fill="#FFFFFF" d="M29.562,43.737c0,0.064-0.05,0.107-0.114,0.107s-0.111-0.043-0.111-0.107s0.047-0.129,0.111-0.129
				S29.562,43.673,29.562,43.737z"/>
		</g>
		<g>
			<path fill="#FFFFFF" d="M31.681,43.737c0,0.064-0.051,0.106-0.115,0.106s-0.108-0.042-0.108-0.106s0.044-0.122,0.108-0.122
				S31.681,43.673,31.681,43.737z"/>
		</g>
		<g>
			<path fill="#FFFFFF" d="M31.216,43.737c0,0.064-0.059,0.124-0.123,0.124s-0.113-0.06-0.113-0.124s0.049-0.109,0.113-0.109
				S31.216,43.673,31.216,43.737z"/>
		</g>
		<g>
			<path fill="#FFFFFF" d="M32.258,43.737c0,0.064-0.044,0.127-0.108,0.127s-0.114-0.062-0.114-0.127s0.05-0.128,0.114-0.128
				S32.258,43.673,32.258,43.737z"/>
		</g>
		<g>
			<path fill="#FFFFFF" d="M27.218,43.737c0,0.064-0.064,0.117-0.129,0.117s-0.115-0.053-0.115-0.117s0.051-0.122,0.115-0.122
				S27.218,43.673,27.218,43.737z"/>
		</g>
	</g>
</g>
<g>
	<rect x="35.565" y="39.539" fill="#FFFFFF" stroke="#000000" stroke-width="0.1148" width="2.054" height="1.231"/>
	<path fill="none" stroke="#000000" stroke-width="0.287" d="M36.984,40.771"/>
	<path fill="none" stroke="#000000" stroke-width="0.287" d="M36.984,39.563"/>
	<line fill="none" stroke="#000000" stroke-width="0.1148" x1="37.25" y1="39.522" x2="37.25" y2="40.77"/>
	<line fill="none" stroke="#000000" stroke-width="0.1148" x1="37.438" y1="39.522" x2="37.438" y2="40.77"/>
	<line fill="none" stroke="#000000" stroke-width="0.1148" x1="36.984" y1="39.522" x2="36.984" y2="40.77"/>
	<line fill="none" stroke="#000000" stroke-width="0.1" x1="36.734" y1="39.522" x2="36.734" y2="40.771"/>
	<line fill="none" stroke="#000000" stroke-width="0.1" x1="36.484" y1="39.563" x2="36.484" y2="40.771"/>
	<line fill="none" stroke="#000000" stroke-width="0.1148" x1="35.781" y1="39.522" x2="35.781" y2="40.77"/>
	<line fill="none" stroke="#000000" stroke-width="0.1148" x1="35.969" y1="39.522" x2="35.969" y2="40.77"/>
	<line fill="none" stroke="#000000" stroke-width="0.1148" x1="36.219" y1="39.544" x2="36.219" y2="40.791"/>
</g>
<circle cx="33.258" cy="39.094" r="0.324"/>
<rect x="29.219" y="38.417" width="2.701" height="0.803"/>
<line fill="none" stroke="#000000" stroke-width="0.25" x1="29.336" y1="38.417" x2="31.745" y2="38.417"/>
<rect x="26.554" y="38.167" width="2.211" height="1.053"/>
<line fill="none" stroke="#000000" stroke-width="0.259" x1="26.649" y1="38.167" x2="28.622" y2="38.167"/>
<line fill="none" stroke="#000000" stroke-width="0.259" x1="26.766" y1="38.016" x2="28.477" y2="38.016"/>
<g>
	<rect x="26.766" y="38.693" fill="#FFFFFF" width="1.722" height="0.275"/>
	<line fill="none" stroke="#000000" stroke-width="0.25" x1="27.813" y1="38.578" x2="27.821" y2="38.969"/>
	<line fill="none" stroke="#000000" stroke-width="0.1" x1="28.113" y1="38.578" x2="28.113" y2="38.969"/>
	<line fill="none" stroke="#000000" stroke-width="0.1" x1="28.287" y1="38.578" x2="28.287" y2="38.969"/>
</g>
<g>
	<rect x="29.451" y="38.813" fill="#FFFFFF" width="1.722" height="0.16"/>
	<line fill="none" stroke="#000000" stroke-width="0.1907" x1="30.507" y1="38.693" x2="30.507" y2="38.974"/>
	<line fill="none" stroke="#000000" stroke-width="0.0763" x1="30.799" y1="38.693" x2="30.799" y2="38.974"/>
	<line fill="none" stroke="#000000" stroke-width="0.0763" x1="30.973" y1="38.693" x2="30.973" y2="38.974"/>
</g>
<g>
	<rect x="38.361" y="39.071" stroke="#000000" stroke-width="0.1421" width="2.295" height="1.688"/>
	<path stroke="#000000" stroke-width="0.3552" d="M39.947,40.76"/>
	<path stroke="#000000" stroke-width="0.3552" d="M39.947,39.104"/>
</g>
<text transform="matrix(1 0 0 1 34.9336 35.4375)" opacity="0.1" fill="#B7B7B7" font-family="'LakesightPersonalUseOnly'" font-size="3">ok.</text>
<text transform="matrix(1 0 0 1 34.8164 35.3125)" fill="#FFFFFF" font-family="'LakesightPersonalUseOnly'" font-size="3">ok</text>
<g>
	<g>
		<g>
			<path fill="#FFFFFF" d="M25.919,44.141c0,0.064-0.052,0.115-0.116,0.115s-0.119-0.051-0.119-0.115s0.055-0.12,0.119-0.12
				S25.919,44.076,25.919,44.141z"/>
		</g>
		<g>
			<circle fill="#FFFFFF" cx="26.323" cy="44.141" r="0.116"/>
		</g>
		<g>
			<circle fill="#FFFFFF" cx="26.818" cy="44.141" r="0.118"/>
		</g>
		<g>
			<circle fill="#FFFFFF" cx="27.873" cy="44.141" r="0.12"/>
		</g>
		<g>
			<path fill="#FFFFFF" d="M28.444,44.141c0,0.064-0.055,0.114-0.119,0.114s-0.122-0.05-0.122-0.114s0.058-0.121,0.122-0.121
				S28.444,44.076,28.444,44.141z"/>
		</g>
		<g>
			<circle fill="#FFFFFF" cx="28.817" cy="44.141" r="0.118"/>
		</g>
		<g>
			<circle fill="#FFFFFF" cx="30.258" cy="44.141" r="0.115"/>
		</g>
		<g>
			<path fill="#FFFFFF" d="M30.933,44.141c0,0.064-0.052,0.121-0.116,0.121s-0.121-0.057-0.121-0.121s0.057-0.113,0.121-0.113
				S30.933,44.076,30.933,44.141z"/>
		</g>
		<g>
			<circle fill="#FFFFFF" cx="29.288" cy="44.141" r="0.115"/>
		</g>
		<g>
			<circle fill="#FFFFFF" cx="29.726" cy="44.141" r="0.118"/>
		</g>
		<g>
			<circle fill="#FFFFFF" cx="31.84" cy="44.141" r="0.119"/>
		</g>
		<g>
			<circle fill="#FFFFFF" cx="31.367" cy="44.141" r="0.114"/>
		</g>
		<g>
			<ellipse fill="#FFFFFF" cx="32.423" cy="44.141" rx="0.121" ry="0.115"/>
		</g>
		<g>
			<circle fill="#FFFFFF" cx="27.364" cy="44.141" r="0.119"/>
		</g>
	</g>
</g>
<line fill="none" stroke="#FFFFFF" stroke-width="0.1" x1="38.582" y1="39.32" x2="40.435" y2="39.32"/>
<line fill="none" stroke="#FFFFFF" stroke-width="0.1" x1="38.582" y1="40.32" x2="40.435" y2="40.32"/>
<g>
	<g>
		<g>
			<path fill="#FFFFFF" d="M31.969,45.189c0-0.064,0.044-0.125,0.108-0.125s0.112,0.061,0.112,0.125s-0.048,0.106-0.112,0.106
				S31.969,45.254,31.969,45.189z"/>
		</g>
		<g>
			<path fill="#FFFFFF" d="M31.427,45.189c0-0.064,0.063-0.107,0.128-0.107s0.114,0.043,0.114,0.107s-0.05,0.105-0.114,0.105
				S31.427,45.254,31.427,45.189z"/>
		</g>
		<g>
			<path fill="#FFFFFF" d="M30.94,45.189c0-0.064,0.059-0.11,0.123-0.11s0.112,0.046,0.112,0.11s-0.048,0.117-0.112,0.117
				S30.94,45.254,30.94,45.189z"/>
		</g>
		<g>
			<path fill="#FFFFFF" d="M29.9,45.189c0-0.064,0.044-0.12,0.108-0.12s0.128,0.056,0.128,0.12s-0.063,0.121-0.128,0.121
				S29.9,45.254,29.9,45.189z"/>
		</g>
		<g>
			<path fill="#FFFFFF" d="M29.442,45.189c0-0.064,0.048-0.127,0.112-0.127s0.122,0.062,0.122,0.127s-0.058,0.12-0.122,0.12
				S29.442,45.254,29.442,45.189z"/>
		</g>
		<g>
			<path fill="#FFFFFF" d="M28.935,45.189c0-0.064,0.064-0.123,0.129-0.123s0.125,0.059,0.125,0.123s-0.061,0.125-0.125,0.125
				S28.935,45.254,28.935,45.189z"/>
		</g>
		<g>
			<path fill="#FFFFFF" d="M27.492,45.189c0-0.064,0.063-0.124,0.128-0.124s0.125,0.06,0.125,0.124s-0.061,0.11-0.125,0.11
				S27.492,45.254,27.492,45.189z"/>
		</g>
		<g>
			<path fill="#FFFFFF" d="M26.949,45.189c0-0.064,0.05-0.11,0.114-0.11s0.128,0.046,0.128,0.11s-0.063,0.117-0.128,0.117
				S26.949,45.254,26.949,45.189z"/>
		</g>
		<g>
			<path fill="#FFFFFF" d="M28.463,45.189c0-0.064,0.064-0.113,0.129-0.113s0.105,0.049,0.105,0.113s-0.041,0.126-0.105,0.126
				S28.463,45.254,28.463,45.189z"/>
		</g>
		<g>
			<path fill="#FFFFFF" d="M28.029,45.189c0-0.064,0.063-0.107,0.128-0.107s0.124,0.043,0.124,0.107s-0.06,0.117-0.124,0.117
				S28.029,45.254,28.029,45.189z"/>
		</g>
		<g>
			<path fill="#FFFFFF" d="M25.924,45.189c0-0.064,0.052-0.123,0.116-0.123s0.108,0.059,0.108,0.123s-0.044,0.128-0.108,0.128
				S25.924,45.254,25.924,45.189z"/>
		</g>
		<g>
			<path fill="#FFFFFF" d="M26.405,45.189c0-0.064,0.043-0.122,0.107-0.122s0.112,0.058,0.112,0.122s-0.048,0.116-0.112,0.116
				S26.405,45.254,26.405,45.189z"/>
		</g>
		<g>
			<path fill="#FFFFFF" d="M25.34,45.189c0-0.064,0.052-0.12,0.116-0.12s0.108,0.056,0.108,0.12s-0.044,0.118-0.108,0.118
				S25.34,45.254,25.34,45.189z"/>
		</g>
		<g>
			<path fill="#FFFFFF" d="M30.388,45.189c0-0.064,0.064-0.127,0.129-0.127s0.11,0.062,0.11,0.127s-0.046,0.111-0.11,0.111
				S30.388,45.254,30.388,45.189z"/>
		</g>
	</g>
</g>
<g>
	<circle fill="#FFFFFF" cx="25.695" cy="44.815" r="0.117"/>
	<circle fill="#FFFFFF" cx="26.218" cy="44.815" r="0.117"/>
	<circle fill="#FFFFFF" cx="26.709" cy="44.815" r="0.117"/>
	<circle fill="#FFFFFF" cx="27.764" cy="44.815" r="0.117"/>
	<circle fill="#FFFFFF" cx="28.218" cy="44.815" r="0.117"/>
	<circle fill="#FFFFFF" cx="28.709" cy="44.815" r="0.117"/>
	<circle fill="#FFFFFF" cx="30.152" cy="44.815" r="0.117"/>
	<circle fill="#FFFFFF" cx="30.709" cy="44.815" r="0.117"/>
	<circle fill="#FFFFFF" cx="29.181" cy="44.815" r="0.117"/>
	<circle fill="#FFFFFF" cx="29.615" cy="44.815" r="0.117"/>
	<circle fill="#FFFFFF" cx="31.732" cy="44.815" r="0.117"/>
	<circle fill="#FFFFFF" cx="31.26" cy="44.815" r="0.117"/>
	<circle fill="#FFFFFF" cx="32.316" cy="44.815" r="0.117"/>
	<circle fill="#FFFFFF" cx="27.256" cy="44.815" r="0.117"/>
</g>
<circle fill="#FFFFFF" cx="39.508" cy="39.821" r="0.208"/>
<g>
	<circle fill="#FFFFFF" cx="25.745" cy="43.375" r="0.117"/>
	<circle fill="#FFFFFF" cx="26.268" cy="43.375" r="0.117"/>
	<circle fill="#FFFFFF" cx="26.759" cy="43.375" r="0.117"/>
	<circle fill="#FFFFFF" cx="27.813" cy="43.375" r="0.117"/>
	<circle fill="#FFFFFF" cx="28.268" cy="43.375" r="0.117"/>
	<circle fill="#FFFFFF" cx="28.759" cy="43.375" r="0.117"/>
	<circle fill="#FFFFFF" cx="30.202" cy="43.375" r="0.117"/>
	<circle fill="#FFFFFF" cx="30.759" cy="43.375" r="0.117"/>
	<circle fill="#FFFFFF" cx="29.23" cy="43.375" r="0.117"/>
	<circle fill="#FFFFFF" cx="29.665" cy="43.375" r="0.117"/>
	<circle fill="#FFFFFF" cx="31.782" cy="43.375" r="0.117"/>
	<circle fill="#FFFFFF" cx="31.31" cy="43.375" r="0.117"/>
	<circle fill="#FFFFFF" cx="32.366" cy="43.375" r="0.117"/>
	<circle fill="#FFFFFF" cx="27.306" cy="43.375" r="0.117"/>
</g>
<g>
	<circle cx="35.141" cy="44.203" r="3.578"/>
	<circle fill="#FFFFFF" cx="35.141" cy="44.203" r="3.221"/>
	<circle cx="35.141" cy="44.203" r="2.898"/>
	<circle stroke="#FFFFFF" stroke-width="0.095" cx="35.141" cy="44.203" r="2.479"/>
</g>
<g>
	<g>
		<g>
			<path fill="#FFFFFF" d="M25.584,44.488c0,0.064-0.046,0.123-0.11,0.123s-0.11-0.059-0.11-0.123s0.046-0.119,0.11-0.119
				S25.584,44.424,25.584,44.488z"/>
		</g>
		<g>
			<path fill="#FFFFFF" d="M26.119,44.488c0,0.064-0.059,0.117-0.123,0.117s-0.11-0.053-0.11-0.117s0.046-0.111,0.11-0.111
				S26.119,44.424,26.119,44.488z"/>
		</g>
		<g>
			<ellipse fill="#FFFFFF" cx="26.49" cy="44.488" rx="0.122" ry="0.114"/>
		</g>
		<g>
			<path fill="#FFFFFF" d="M27.663,44.488c0,0.064-0.057,0.12-0.121,0.12s-0.114-0.056-0.114-0.12s0.05-0.117,0.114-0.117
				S27.663,44.424,27.663,44.488z"/>
		</g>
		<g>
			<path fill="#FFFFFF" d="M28.116,44.488c0,0.064-0.056,0.111-0.12,0.111s-0.113-0.047-0.113-0.111s0.049-0.11,0.113-0.11
				S28.116,44.424,28.116,44.488z"/>
		</g>
		<g>
			<ellipse fill="#FFFFFF" cx="28.488" cy="44.488" rx="0.112" ry="0.121"/>
		</g>
		<g>
			<path fill="#FFFFFF" d="M30.052,44.488c0,0.064-0.057,0.124-0.121,0.124s-0.11-0.06-0.11-0.124s0.046-0.111,0.11-0.111
				S30.052,44.424,30.052,44.488z"/>
		</g>
		<g>
			<circle fill="#FFFFFF" cx="30.488" cy="44.488" r="0.115"/>
		</g>
		<g>
			<path fill="#FFFFFF" d="M29.081,44.488c0,0.064-0.058,0.123-0.122,0.123s-0.117-0.059-0.117-0.123s0.053-0.114,0.117-0.114
				S29.081,44.424,29.081,44.488z"/>
		</g>
		<g>
			<circle fill="#FFFFFF" cx="29.391" cy="44.488" r="0.122"/>
		</g>
		<g>
			<path fill="#FFFFFF" d="M31.629,44.488c0,0.064-0.054,0.114-0.118,0.114s-0.123-0.05-0.123-0.114s0.059-0.122,0.123-0.122
				S31.629,44.424,31.629,44.488z"/>
		</g>
		<g>
			<path fill="#FFFFFF" d="M31.149,44.488c0,0.064-0.047,0.113-0.111,0.113s-0.111-0.049-0.111-0.113s0.047-0.111,0.111-0.111
				S31.149,44.424,31.149,44.488z"/>
		</g>
		<g>
			<path fill="#FFFFFF" d="M32.211,44.488c0,0.064-0.052,0.124-0.116,0.124s-0.123-0.06-0.123-0.124s0.059-0.11,0.123-0.11
				S32.211,44.424,32.211,44.488z"/>
		</g>
		<g>
			<path fill="#FFFFFF" d="M27.146,44.488c0,0.064-0.047,0.121-0.111,0.121s-0.119-0.057-0.119-0.121s0.055-0.122,0.119-0.122
				S27.146,44.424,27.146,44.488z"/>
		</g>
	</g>
</g>
<g>
	<g>
		<g>
			<path fill="#FFFFFF" d="M25.642,45.907c0,0.064-0.062,0.123-0.126,0.123s-0.116-0.059-0.116-0.123s0.052-0.119,0.116-0.119
				S25.642,45.843,25.642,45.907z"/>
		</g>
		<g>
			<path fill="#FFFFFF" d="M26.164,45.907c0,0.064-0.062,0.114-0.126,0.114s-0.115-0.05-0.115-0.114s0.051-0.117,0.115-0.117
				S26.164,45.843,26.164,45.907z"/>
		</g>
		<g>
			<path fill="#FFFFFF" d="M26.641,45.907c0,0.064-0.047,0.115-0.111,0.115s-0.127-0.051-0.127-0.115s0.062-0.124,0.127-0.124
				S26.641,45.843,26.641,45.907z"/>
		</g>
		<g>
			<path fill="#FFFFFF" d="M27.697,45.907c0,0.064-0.049,0.115-0.113,0.115s-0.12-0.051-0.12-0.115s0.056-0.128,0.12-0.128
				S27.697,45.843,27.697,45.907z"/>
		</g>
		<g>
			<path fill="#FFFFFF" d="M28.166,45.907c0,0.064-0.063,0.115-0.128,0.115s-0.114-0.051-0.114-0.115s0.05-0.125,0.114-0.125
				S28.166,45.843,28.166,45.907z"/>
		</g>
		<g>
			<path fill="#FFFFFF" d="M28.648,45.907c0,0.064-0.055,0.116-0.119,0.116s-0.123-0.052-0.123-0.116s0.059-0.106,0.123-0.106
				S28.648,45.843,28.648,45.907z"/>
		</g>
		<g>
			<path fill="#FFFFFF" d="M30.089,45.907c0,0.064-0.052,0.118-0.116,0.118s-0.128-0.054-0.128-0.118s0.063-0.106,0.128-0.106
				S30.089,45.843,30.089,45.907z"/>
		</g>
		<g>
			<path fill="#FFFFFF" d="M30.638,45.907c0,0.064-0.044,0.118-0.108,0.118s-0.108-0.054-0.108-0.118s0.044-0.125,0.108-0.125
				S30.638,45.843,30.638,45.907z"/>
		</g>
		<g>
			<path fill="#FFFFFF" d="M29.109,45.907c0,0.064-0.044,0.122-0.108,0.122s-0.116-0.058-0.116-0.122s0.052-0.124,0.116-0.124
				S29.109,45.843,29.109,45.907z"/>
		</g>
		<g>
			<path fill="#FFFFFF" d="M29.55,45.907c0,0.064-0.05,0.107-0.114,0.107s-0.111-0.043-0.111-0.107s0.047-0.129,0.111-0.129
				S29.55,45.843,29.55,45.907z"/>
		</g>
		<g>
			<path fill="#FFFFFF" d="M31.668,45.907c0,0.064-0.051,0.106-0.115,0.106s-0.108-0.042-0.108-0.106s0.044-0.122,0.108-0.122
				S31.668,45.843,31.668,45.907z"/>
		</g>
		<g>
			<path fill="#FFFFFF" d="M31.203,45.907c0,0.064-0.059,0.124-0.123,0.124s-0.113-0.06-0.113-0.124s0.049-0.109,0.113-0.109
				S31.203,45.843,31.203,45.907z"/>
		</g>
		<g>
			<path fill="#FFFFFF" d="M32.245,45.907c0,0.064-0.044,0.127-0.108,0.127s-0.114-0.062-0.114-0.127s0.05-0.128,0.114-0.128
				S32.245,45.843,32.245,45.907z"/>
		</g>
		<g>
			<path fill="#FFFFFF" d="M27.205,45.907c0,0.064-0.064,0.117-0.129,0.117s-0.115-0.053-0.115-0.117s0.051-0.122,0.115-0.122
				S27.205,45.843,27.205,45.907z"/>
		</g>
	</g>
</g>
<g>
	<g>
		<g>
			<path fill="#FFFFFF" d="M25.906,46.311c0,0.064-0.052,0.115-0.116,0.115s-0.119-0.051-0.119-0.115s0.055-0.12,0.119-0.12
				S25.906,46.246,25.906,46.311z"/>
		</g>
		<g>
			<circle fill="#FFFFFF" cx="26.31" cy="46.311" r="0.116"/>
		</g>
		<g>
			<circle fill="#FFFFFF" cx="26.805" cy="46.311" r="0.118"/>
		</g>
		<g>
			<circle fill="#FFFFFF" cx="27.86" cy="46.311" r="0.12"/>
		</g>
		<g>
			<path fill="#FFFFFF" d="M28.432,46.311c0,0.064-0.055,0.114-0.119,0.114s-0.122-0.05-0.122-0.114s0.058-0.121,0.122-0.121
				S28.432,46.246,28.432,46.311z"/>
		</g>
		<g>
			<circle fill="#FFFFFF" cx="28.804" cy="46.311" r="0.118"/>
		</g>
		<g>
			<circle fill="#FFFFFF" cx="30.245" cy="46.311" r="0.115"/>
		</g>
		<g>
			<path fill="#FFFFFF" d="M30.92,46.311c0,0.064-0.052,0.121-0.116,0.121s-0.121-0.057-0.121-0.121s0.057-0.113,0.121-0.113
				S30.92,46.246,30.92,46.311z"/>
		</g>
		<g>
			<circle fill="#FFFFFF" cx="29.275" cy="46.311" r="0.115"/>
		</g>
		<g>
			<circle fill="#FFFFFF" cx="29.713" cy="46.311" r="0.118"/>
		</g>
		<g>
			<circle fill="#FFFFFF" cx="31.828" cy="46.311" r="0.119"/>
		</g>
		<g>
			<circle fill="#FFFFFF" cx="31.354" cy="46.311" r="0.114"/>
		</g>
		<g>
			<ellipse fill="#FFFFFF" cx="32.411" cy="46.311" rx="0.121" ry="0.115"/>
		</g>
		<g>
			<circle fill="#FFFFFF" cx="27.352" cy="46.311" r="0.119"/>
		</g>
	</g>
</g>
<g>
	<circle fill="#FFFFFF" cx="25.732" cy="45.545" r="0.117"/>
	<circle fill="#FFFFFF" cx="26.255" cy="45.545" r="0.117"/>
	<circle fill="#FFFFFF" cx="26.746" cy="45.545" r="0.117"/>
	<circle fill="#FFFFFF" cx="27.801" cy="45.545" r="0.117"/>
	<circle fill="#FFFFFF" cx="28.255" cy="45.545" r="0.117"/>
	<circle fill="#FFFFFF" cx="28.746" cy="45.545" r="0.117"/>
	<circle fill="#FFFFFF" cx="30.189" cy="45.545" r="0.117"/>
	<circle fill="#FFFFFF" cx="30.746" cy="45.545" r="0.117"/>
	<circle fill="#FFFFFF" cx="29.218" cy="45.545" r="0.117"/>
	<circle fill="#FFFFFF" cx="29.652" cy="45.545" r="0.117"/>
	<circle fill="#FFFFFF" cx="31.77" cy="45.545" r="0.117"/>
	<circle fill="#FFFFFF" cx="31.297" cy="45.545" r="0.117"/>
	<circle fill="#FFFFFF" cx="32.354" cy="45.545" r="0.117"/>
	<circle fill="#FFFFFF" cx="27.293" cy="45.545" r="0.117"/>
</g>
<g>
	<g>
		<g>
			<path fill="#FFFFFF" d="M25.571,46.658c0,0.064-0.046,0.123-0.11,0.123s-0.11-0.059-0.11-0.123s0.046-0.119,0.11-0.119
				S25.571,46.594,25.571,46.658z"/>
		</g>
		<g>
			<path fill="#FFFFFF" d="M26.106,46.658c0,0.064-0.059,0.117-0.123,0.117s-0.11-0.053-0.11-0.117s0.046-0.111,0.11-0.111
				S26.106,46.594,26.106,46.658z"/>
		</g>
		<g>
			<ellipse fill="#FFFFFF" cx="26.477" cy="46.658" rx="0.122" ry="0.114"/>
		</g>
		<g>
			<path fill="#FFFFFF" d="M27.65,46.658c0,0.064-0.057,0.12-0.121,0.12s-0.114-0.056-0.114-0.12s0.05-0.117,0.114-0.117
				S27.65,46.594,27.65,46.658z"/>
		</g>
		<g>
			<path fill="#FFFFFF" d="M28.104,46.658c0,0.064-0.056,0.111-0.12,0.111s-0.113-0.047-0.113-0.111s0.049-0.11,0.113-0.11
				S28.104,46.594,28.104,46.658z"/>
		</g>
		<g>
			<ellipse fill="#FFFFFF" cx="28.475" cy="46.658" rx="0.112" ry="0.121"/>
		</g>
		<g>
			<path fill="#FFFFFF" d="M30.039,46.658c0,0.064-0.057,0.124-0.121,0.124s-0.11-0.06-0.11-0.124s0.046-0.111,0.11-0.111
				S30.039,46.594,30.039,46.658z"/>
		</g>
		<g>
			<circle fill="#FFFFFF" cx="30.476" cy="46.658" r="0.115"/>
		</g>
		<g>
			<path fill="#FFFFFF" d="M29.068,46.658c0,0.064-0.058,0.123-0.122,0.123s-0.117-0.059-0.117-0.123s0.053-0.114,0.117-0.114
				S29.068,46.594,29.068,46.658z"/>
		</g>
		<g>
			<circle fill="#FFFFFF" cx="29.378" cy="46.658" r="0.122"/>
		</g>
		<g>
			<path fill="#FFFFFF" d="M31.616,46.658c0,0.064-0.054,0.114-0.118,0.114s-0.123-0.05-0.123-0.114s0.059-0.122,0.123-0.122
				S31.616,46.594,31.616,46.658z"/>
		</g>
		<g>
			<path fill="#FFFFFF" d="M31.137,46.658c0,0.064-0.047,0.113-0.111,0.113s-0.111-0.049-0.111-0.113s0.047-0.111,0.111-0.111
				S31.137,46.594,31.137,46.658z"/>
		</g>
		<g>
			<path fill="#FFFFFF" d="M32.198,46.658c0,0.064-0.052,0.124-0.116,0.124s-0.123-0.06-0.123-0.124s0.059-0.11,0.123-0.11
				S32.198,46.594,32.198,46.658z"/>
		</g>
		<g>
			<path fill="#FFFFFF" d="M27.133,46.658c0,0.064-0.047,0.121-0.111,0.121s-0.119-0.057-0.119-0.121s0.055-0.122,0.119-0.122
				S27.133,46.594,27.133,46.658z"/>
		</g>
	</g>
</g>
<g>
	<path d="M-2.096,18.531c-1.989,0-3.696-0.709-5.124-2.125c-1.428-1.418-2.142-3.131-2.142-5.141s0.708-3.723,2.126-5.14
		C-5.819,4.708-4.106,4-2.096,4c2.009,0,3.723,0.708,5.14,2.125c1.416,1.417,2.126,3.13,2.126,5.14c0,0.465-0.042,0.898-0.126,1.301
		H-5.173c0.189,0.529,0.454,0.973,0.793,1.332c0.676,0.742,1.491,1.111,2.443,1.111 M-5.237,10.155h6.568
		c-0.17-0.592-0.455-1.111-0.857-1.555c-0.655-0.719-1.459-1.079-2.41-1.079c-0.952,0-1.768,0.36-2.443,1.079
		C-4.74,9.023-5.026,9.542-5.237,10.155z"/>
</g>
<path fill="none" stroke="#000000" stroke-width="3.56" d="M-2.096,16.781c2.448,0,3.01-1.166,4.388-1.166"/>
<g>
	<path fill="none" stroke="#000000" stroke-width="3.56" d="M3.292,15.562c2.117,0,2.117,1.271,4.234,1.271
		c2.119,0,2.119-1.271,4.237-1.271s2.119,1.271,4.237,1.271"/>
</g>
<circle fill="#FFFFFF" cx="39.576" cy="39.821" r="0.208"/>
<circle fill="#FFFFFF" cx="34.049" cy="43.376" r="0.208"/>
<circle fill="#FFFFFF" cx="34.117" cy="43.376" r="0.208"/>
</svg>
