<?xml version="1.0" encoding="utf-8"?>
<!-- Generator: Adobe Illustrator 15.0.0, SVG Export Plug-In . SVG Version: 6.00 Build 0)  -->
<!DOCTYPE svg PUBLIC "-//W3C//DTD SVG 1.1//EN" "http://www.w3.org/Graphics/SVG/1.1/DTD/svg11.dtd">
<svg version="1.1" id="Layer_1" zoomAndPan="disable"
	 xmlns="http://www.w3.org/2000/svg" xmlns:xlink="http://www.w3.org/1999/xlink" x="0px" y="0px" width="24px" height="24px"
	 viewBox="0 0 24 24" enable-background="new 0 0 24 24" xml:space="preserve">
<pattern  x="-387.5" y="312.5" width="65.25" height="65.25" patternUnits="userSpaceOnUse" id="Bird_Feet" viewBox="18.5 -71.004 65.25 65.25" overflow="visible">
	<g>
		<polygon fill="none" points="18.5,-5.754 18.5,-71.004 83.75,-71.004 83.75,-5.754 		"/>
		<line fill="#FFFFFF" x1="0" y1="-11.754" x2="6" y2="-5.754"/>
		<line fill="#FFFFFF" x1="0" y1="-5.754" x2="6" y2="-11.754"/>
		
			<line fill="none" stroke="#231F20" stroke-width="0.3" stroke-linecap="square" x1="40.986" y1="-47.96" x2="37.75" y2="-41.754"/>
		
			<line fill="none" stroke="#231F20" stroke-width="0.3" stroke-linecap="square" x1="54.924" y1="-27.556" x2="62.5" y2="-25.504"/>
		<line fill="none" stroke="#231F20" stroke-width="0.3" stroke-linecap="square" x1="56" y1="-30.504" x2="63.75" y2="-29.254"/>
		<line fill="none" stroke="#231F20" stroke-width="0.3" stroke-linecap="square" x1="48.5" y1="-10.254" x2="51.25" y2="-15.504"/>
		<line fill="none" stroke="#231F20" stroke-width="0.3" stroke-linecap="square" x1="45" y1="-10.754" x2="48.022" y2="-16.54"/>
		<line fill="none" stroke="#231F20" stroke-width="0.3" stroke-linecap="square" x1="64.5" y1="-15.504" x2="59.75" y2="-12.004"/>
		<line fill="none" stroke="#231F20" stroke-width="0.3" stroke-linecap="square" x1="65.75" y1="-13.004" x2="62" y2="-9.004"/>
		
			<line fill="none" stroke="#231F20" stroke-width="0.3" stroke-linecap="square" x1="68.38" y1="-24.699" x2="69.281" y2="-17.754"/>
		
			<line fill="none" stroke="#231F20" stroke-width="0.3" stroke-linecap="square" x1="64.482" y1="-23.799" x2="66.031" y2="-17.254"/>
		<line fill="none" stroke="#231F20" stroke-width="0.3" stroke-linecap="square" x1="32.722" y1="-8.331" x2="37" y2="-2.504"/>
		
			<line fill="none" stroke="#231F20" stroke-width="0.3" stroke-linecap="square" x1="35.55" y1="-11.159" x2="39.829" y2="-5.331"/>
		
			<line fill="none" stroke="#231F20" stroke-width="0.3" stroke-linecap="square" x1="39.027" y1="-22.363" x2="42.463" y2="-16.264"/>
		
			<line fill="none" stroke="#231F20" stroke-width="0.3" stroke-linecap="square" x1="42.731" y1="-23.873" x2="45.375" y2="-17.392"/>
		<line fill="none" stroke="#231F20" stroke-width="0.3" stroke-linecap="square" x1="51.5" y1="-26.504" x2="46.25" y2="-23.504"/>
		<line fill="none" stroke="#231F20" stroke-width="0.3" stroke-linecap="square" x1="54" y1="-23.254" x2="48.25" y2="-21.254"/>
		<line fill="none" stroke="#231F20" stroke-width="0.3" stroke-linecap="square" x1="65.689" y1="-8.478" x2="62" y2="-3.004"/>
		<line fill="none" stroke="#231F20" stroke-width="0.3" stroke-linecap="square" x1="68.431" y1="-5.564" x2="63.33" y2="-0.77"/>
		<line fill="none" stroke="#231F20" stroke-width="0.3" stroke-linecap="square" x1="71.632" y1="-6.532" x2="74" y2="-0.754"/>
		<line fill="none" stroke="#231F20" stroke-width="0.3" stroke-linecap="square" x1="46.5" y1="-7.254" x2="40.807" y2="-2.871"/>
		<line fill="none" stroke="#231F20" stroke-width="0.3" stroke-linecap="square" x1="50.5" y1="-6.254" x2="43.796" y2="-0.212"/>
		<line fill="none" stroke="#231F20" stroke-width="0.3" stroke-linecap="square" x1="40" y1="-12.754" x2="40.5" y2="-11.504"/>
		<line fill="none" stroke="#231F20" stroke-width="0.3" stroke-linecap="square" x1="56.25" y1="-10.754" x2="57.25" y2="-9.754"/>
		<line fill="none" stroke="#231F20" stroke-width="0.3" stroke-linecap="square" x1="57.25" y1="-8.254" x2="57.75" y2="-1.754"/>
		<line fill="none" stroke="#231F20" stroke-width="0.3" stroke-linecap="square" x1="54.5" y1="-9.004" x2="53" y2="-2.254"/>
		
			<line fill="none" stroke="#231F20" stroke-width="0.3" stroke-linecap="square" x1="71.781" y1="-21.004" x2="73.031" y2="-21.504"/>
		<line fill="none" stroke="#231F20" stroke-width="0.3" stroke-linecap="square" x1="51" y1="-20.504" x2="51.25" y2="-19.004"/>
		<line fill="none" stroke="#231F20" stroke-width="0.3" stroke-linecap="square" x1="69" y1="-9.004" x2="70.25" y2="-9.004"/>
		<line fill="none" stroke="#231F20" stroke-width="0.3" stroke-linecap="square" x1="52.25" y1="-11.004" x2="51.25" y2="-9.254"/>
		<line fill="none" stroke="#231F20" stroke-width="0.3" stroke-linecap="square" x1="56.5" y1="-23.754" x2="57.75" y2="-24.254"/>
		
			<line fill="none" stroke="#231F20" stroke-width="0.3" stroke-linecap="square" x1="58.735" y1="-15.535" x2="54.312" y2="-18.254"/>
		
			<line fill="none" stroke="#231F20" stroke-width="0.3" stroke-linecap="square" x1="61.474" y1="-17.933" x2="55.117" y2="-20.863"/>
		<line fill="none" stroke="#231F20" stroke-width="0.3" stroke-linecap="square" x1="54" y1="-15.254" x2="55.25" y2="-15.004"/>
		
			<line fill="none" stroke="#231F20" stroke-width="0.3" stroke-linecap="square" x1="60.781" y1="-22.004" x2="62.031" y2="-21.754"/>
		
			<line fill="none" stroke="#231F20" stroke-width="0.3" stroke-linecap="square" x1="37.125" y1="-16.754" x2="38.75" y2="-17.254"/>
		
			<line fill="none" stroke="#231F20" stroke-width="0.3" stroke-linecap="square" x1="45.492" y1="-62.552" x2="45.625" y2="-55.553"/>
		
			<line fill="none" stroke="#231F20" stroke-width="0.3" stroke-linecap="square" x1="49.491" y1="-62.627" x2="48.75" y2="-56.004"/>
		
			<line fill="none" stroke="#231F20" stroke-width="0.3" stroke-linecap="square" x1="62.143" y1="-43.271" x2="68.625" y2="-40.629"/>
		
			<line fill="none" stroke="#231F20" stroke-width="0.3" stroke-linecap="square" x1="63.651" y1="-46.975" x2="70.134" y2="-44.333"/>
		
			<line fill="none" stroke="#231F20" stroke-width="0.3" stroke-linecap="square" x1="45.622" y1="-47.422" x2="50.394" y2="-51.064"/>
		
			<line fill="none" stroke="#231F20" stroke-width="0.3" stroke-linecap="square" x1="42.588" y1="-49.433" x2="48.496" y2="-53.185"/>
		
			<line fill="none" stroke="#231F20" stroke-width="0.3" stroke-linecap="square" x1="36.996" y1="-29.626" x2="30.22" y2="-27.869"/>
		
			<line fill="none" stroke="#231F20" stroke-width="0.3" stroke-linecap="square" x1="37.75" y1="-26.004" x2="30.974" y2="-24.247"/>
		
			<line fill="none" stroke="#231F20" stroke-width="0.3" stroke-linecap="square" x1="38.19" y1="-49.811" x2="34.953" y2="-43.604"/>
		
			<line fill="none" stroke="#231F20" stroke-width="0.3" stroke-linecap="square" x1="27.235" y1="-61.11" x2="28.573" y2="-54.239"/>
		
			<line fill="none" stroke="#231F20" stroke-width="0.3" stroke-linecap="square" x1="31.162" y1="-61.875" x2="32.5" y2="-55.004"/>
		
			<line fill="none" stroke="#231F20" stroke-width="0.3" stroke-linecap="square" x1="17.192" y1="-60.502" x2="22.25" y2="-57.754"/>
		
			<line fill="none" stroke="#231F20" stroke-width="0.3" stroke-linecap="square" x1="19.065" y1="-64.035" x2="25.25" y2="-60.754"/>
		<line fill="none" stroke="#231F20" stroke-width="0.3" stroke-linecap="square" x1="22" y1="-54.504" x2="20.822" y2="-48.51"/>
		
			<line fill="none" stroke="#231F20" stroke-width="0.3" stroke-linecap="square" x1="26.071" y1="-54.628" x2="24.75" y2="-47.754"/>
		
			<line fill="none" stroke="#231F20" stroke-width="0.3" stroke-linecap="square" x1="74.865" y1="-26.803" x2="77.281" y2="-19.254"/>
		
			<line fill="none" stroke="#231F20" stroke-width="0.3" stroke-linecap="square" x1="79.031" y1="-26.754" x2="79.774" y2="-20.258"/>
		
			<line fill="none" stroke="#231F20" stroke-width="0.3" stroke-linecap="square" x1="71.527" y1="-34.544" x2="67.523" y2="-28.803"/>
		
			<line fill="none" stroke="#231F20" stroke-width="0.3" stroke-linecap="square" x1="74.273" y1="-33.212" x2="72.531" y2="-27.754"/>
		
			<line fill="none" stroke="#231F20" stroke-width="0.3" stroke-linecap="square" x1="45.447" y1="-43.207" x2="46.25" y2="-36.254"/>
		
			<line fill="none" stroke="#231F20" stroke-width="0.3" stroke-linecap="square" x1="48.432" y1="-44.016" x2="50.13" y2="-37.225"/>
		
			<line fill="none" stroke="#231F20" stroke-width="0.3" stroke-linecap="square" x1="71.308" y1="-66.128" x2="64.965" y2="-63.168"/>
		
			<line fill="none" stroke="#231F20" stroke-width="0.3" stroke-linecap="square" x1="72.75" y1="-63.254" x2="66.657" y2="-59.544"/>
		
			<line fill="none" stroke="#231F20" stroke-width="0.3" stroke-linecap="square" x1="36.147" y1="-58.528" x2="37.75" y2="-52.004"/>
		
			<line fill="none" stroke="#231F20" stroke-width="0.3" stroke-linecap="square" x1="38.232" y1="-60.801" x2="41.334" y2="-54.526"/>
		<line fill="none" stroke="#231F20" stroke-width="0.3" stroke-linecap="square" x1="56" y1="-56.754" x2="52.5" y2="-50.504"/>
		
			<line fill="none" stroke="#231F20" stroke-width="0.3" stroke-linecap="square" x1="58.635" y1="-55.583" x2="54.686" y2="-49.805"/>
		<line fill="none" stroke="#231F20" stroke-width="0.3" stroke-linecap="square" x1="68.5" y1="-55.254" x2="62.25" y2="-52.754"/>
		<line fill="none" stroke="#231F20" stroke-width="0.3" stroke-linecap="square" x1="69" y1="-50.754" x2="62.75" y2="-50.504"/>
		
			<line fill="none" stroke="#231F20" stroke-width="0.3" stroke-linecap="square" x1="74.723" y1="-53.581" x2="73.031" y2="-47.254"/>
		
			<line fill="none" stroke="#231F20" stroke-width="0.3" stroke-linecap="square" x1="77.444" y1="-51.098" x2="73.973" y2="-45.02"/>
		
			<line fill="none" stroke="#231F20" stroke-width="0.3" stroke-linecap="square" x1="75.64" y1="-17.847" x2="69.302" y2="-14.875"/>
		<line fill="none" stroke="#231F20" stroke-width="0.3" stroke-linecap="square" x1="77.338" y1="-14.226" x2="71" y2="-11.254"/>
		<line fill="none" stroke="#231F20" stroke-width="0.3" stroke-linecap="square" x1="65.75" y1="-34.004" x2="61.5" y2="-38.754"/>
		<line fill="none" stroke="#231F20" stroke-width="0.3" stroke-linecap="square" x1="63" y1="-33.254" x2="58.183" y2="-37.661"/>
		<line fill="none" stroke="#231F20" stroke-width="0.3" stroke-linecap="square" x1="49.031" y1="-31.754" x2="53" y2="-36.754"/>
		
			<line fill="none" stroke="#231F20" stroke-width="0.3" stroke-linecap="square" x1="51.432" y1="-28.555" x2="55.75" y2="-34.504"/>
		
			<line fill="none" stroke="#231F20" stroke-width="0.3" stroke-linecap="square" x1="40.926" y1="-39.481" x2="33.966" y2="-40.227"/>
		<line fill="none" stroke="#231F20" stroke-width="0.3" stroke-linecap="square" x1="40" y1="-36.254" x2="33.155" y2="-37.721"/>
		
			<line fill="none" stroke="#231F20" stroke-width="0.3" stroke-linecap="square" x1="25.251" y1="-34.255" x2="30.851" y2="-30.056"/>
		
			<line fill="none" stroke="#231F20" stroke-width="0.3" stroke-linecap="square" x1="27.651" y1="-37.454" x2="33.25" y2="-33.254"/>
		
			<line fill="none" stroke="#231F20" stroke-width="0.3" stroke-linecap="square" x1="32.491" y1="-21.516" x2="31.921" y2="-14.538"/>
		
			<line fill="none" stroke="#231F20" stroke-width="0.3" stroke-linecap="square" x1="36.25" y1="-21.004" x2="35.306" y2="-13.583"/>
		
			<line fill="none" stroke="#231F20" stroke-width="0.3" stroke-linecap="square" x1="38.671" y1="-30.676" x2="43.621" y2="-25.726"/>
		
			<line fill="none" stroke="#231F20" stroke-width="0.3" stroke-linecap="square" x1="41.5" y1="-33.504" x2="46.449" y2="-28.555"/>
		
			<line fill="none" stroke="#231F20" stroke-width="0.3" stroke-linecap="square" x1="16.819" y1="-17.546" x2="20.75" y2="-11.754"/>
		<line fill="none" stroke="#231F20" stroke-width="0.3" stroke-linecap="square" x1="27" y1="-24.754" x2="22.431" y2="-20.549"/>
		
			<line fill="none" stroke="#231F20" stroke-width="0.3" stroke-linecap="square" x1="29.274" y1="-22.302" x2="23.75" y2="-18.004"/>
		
			<line fill="none" stroke="#231F20" stroke-width="0.3" stroke-linecap="square" x1="74.621" y1="-56.414" x2="81.595" y2="-57.019"/>
		
			<line fill="none" stroke="#231F20" stroke-width="0.3" stroke-linecap="square" x1="74.75" y1="-59.754" x2="81.25" y2="-61.004"/>
		<line fill="none" stroke="#231F20" stroke-width="0.3" stroke-linecap="square" x1="54.75" y1="-47.754" x2="55.5" y2="-40.754"/>
		
			<line fill="none" stroke="#231F20" stroke-width="0.3" stroke-linecap="square" x1="58.75" y1="-47.754" x2="58.25" y2="-42.254"/>
		
			<line fill="none" stroke="#231F20" stroke-width="0.3" stroke-linecap="square" x1="30.463" y1="-69.895" x2="27.598" y2="-64.924"/>
		
			<line fill="none" stroke="#231F20" stroke-width="0.3" stroke-linecap="square" x1="24.961" y1="-38.777" x2="30.714" y2="-42.767"/>
		
			<line fill="none" stroke="#231F20" stroke-width="0.3" stroke-linecap="square" x1="22.682" y1="-42.065" x2="28.436" y2="-46.054"/>
		<line fill="none" stroke="#231F20" stroke-width="0.3" stroke-linecap="square" x1="22.636" y1="-12.77" x2="27" y2="-8.504"/>
		<line fill="none" stroke="#231F20" stroke-width="0.3" stroke-linecap="square" x1="25.065" y1="-14.442" x2="29" y2="-11.004"/>
		
			<line fill="none" stroke="#231F20" stroke-width="0.3" stroke-linecap="square" x1="79.25" y1="-48.754" x2="83.568" y2="-43.244"/>
		
			<line fill="none" stroke="#231F20" stroke-width="0.3" stroke-linecap="square" x1="81.897" y1="-50.972" x2="86.216" y2="-45.462"/>
		
			<line fill="none" stroke="#231F20" stroke-width="0.3" stroke-linecap="square" x1="76.996" y1="-42.376" x2="70.22" y2="-40.619"/>
		<line fill="none" stroke="#231F20" stroke-width="0.3" stroke-linecap="square" x1="78" y1="-38.504" x2="71.224" y2="-36.747"/>
		
			<line fill="none" stroke="#231F20" stroke-width="0.3" stroke-linecap="square" x1="20.978" y1="-31.52" x2="15.75" y2="-29.004"/>
		
			<line fill="none" stroke="#231F20" stroke-width="0.3" stroke-linecap="square" x1="23.812" y1="-28.927" x2="17.702" y2="-25.513"/>
		
			<line fill="none" stroke="#231F20" stroke-width="0.3" stroke-linecap="square" x1="34.25" y1="-51.504" x2="27.341" y2="-51.934"/>
		
			<line fill="none" stroke="#231F20" stroke-width="0.3" stroke-linecap="square" x1="34.75" y1="-48.754" x2="27.795" y2="-47.959"/>
		
			<line fill="none" stroke="#231F20" stroke-width="0.3" stroke-linecap="square" x1="20.794" y1="-9.411" x2="15.269" y2="-5.114"/>
		
			<line fill="none" stroke="#231F20" stroke-width="0.3" stroke-linecap="square" x1="78.759" y1="-15.301" x2="82.689" y2="-9.508"/>
		<line fill="none" stroke="#231F20" stroke-width="0.3" stroke-linecap="square" x1="82.068" y1="-17.546" x2="86" y2="-11.754"/>
		
			<line fill="none" stroke="#231F20" stroke-width="0.3" stroke-linecap="square" x1="82.25" y1="-40.254" x2="78.539" y2="-35.914"/>
		
			<line fill="none" stroke="#231F20" stroke-width="0.3" stroke-linecap="square" x1="85.632" y1="-39.748" x2="81.937" y2="-33.804"/>
		
			<line fill="none" stroke="#231F20" stroke-width="0.3" stroke-linecap="square" x1="86.044" y1="-9.411" x2="80.519" y2="-5.114"/>
		<line fill="none" stroke="#231F20" stroke-width="0.3" stroke-linecap="square" x1="74.75" y1="-7.754" x2="77.5" y2="-1.004"/>
		
			<line fill="none" stroke="#231F20" stroke-width="0.3" stroke-linecap="square" x1="82.442" y1="-60.502" x2="88.624" y2="-57.221"/>
		
			<line fill="none" stroke="#231F20" stroke-width="0.3" stroke-linecap="square" x1="35.077" y1="-61.535" x2="39.5" y2="-64.254"/>
		
			<line fill="none" stroke="#231F20" stroke-width="0.3" stroke-linecap="square" x1="32.338" y1="-63.933" x2="38.694" y2="-66.863"/>
		
			<line fill="none" stroke="#231F20" stroke-width="0.3" stroke-linecap="square" x1="54.625" y1="-62.879" x2="59.375" y2="-58.129"/>
		
			<line fill="none" stroke="#231F20" stroke-width="0.3" stroke-linecap="square" x1="57.772" y1="-65.347" x2="62.091" y2="-59.837"/>
		
			<line fill="none" stroke="#231F20" stroke-width="0.3" stroke-linecap="square" x1="20.382" y1="-39.748" x2="16.688" y2="-33.804"/>
		<line fill="none" stroke="#231F20" stroke-width="0.3" stroke-linecap="square" x1="14" y1="-48.754" x2="18.318" y2="-43.244"/>
		
			<line fill="none" stroke="#231F20" stroke-width="0.3" stroke-linecap="square" x1="16.647" y1="-50.972" x2="20.966" y2="-45.462"/>
		<line fill="none" stroke="#231F20" stroke-width="0.3" stroke-linecap="square" x1="86.228" y1="-31.52" x2="81" y2="-29.004"/>
		
			<line fill="none" stroke="#231F20" stroke-width="0.3" stroke-linecap="square" x1="89.062" y1="-28.927" x2="82.951" y2="-25.513"/>
		<line fill="none" stroke="#231F20" stroke-width="0.3" stroke-linecap="square" x1="48.5" y1="-67.254" x2="49.75" y2="-67.004"/>
		<line fill="none" stroke="#231F20" stroke-width="0.3" stroke-linecap="square" x1="47.75" y1="-64.254" x2="47.5" y2="-65.004"/>
		<line fill="none" stroke="#231F20" stroke-width="0.3" stroke-linecap="square" x1="52.5" y1="-58.754" x2="53.25" y2="-59.254"/>
		<line fill="none" stroke="#231F20" stroke-width="0.3" stroke-linecap="square" x1="63.5" y1="-61.004" x2="64.75" y2="-61.004"/>
		<line fill="none" stroke="#231F20" stroke-width="0.3" stroke-linecap="square" x1="70.25" y1="-56.504" x2="71" y2="-55.754"/>
		<line fill="none" stroke="#231F20" stroke-width="0.3" stroke-linecap="square" x1="79.25" y1="-53.004" x2="80" y2="-53.754"/>
		
			<line fill="none" stroke="#231F20" stroke-width="0.3" stroke-linecap="square" x1="80.75" y1="-65.254" x2="80.25" y2="-64.254"/>
		<line fill="none" stroke="#231F20" stroke-width="0.3" stroke-linecap="square" x1="24.5" y1="-57.504" x2="25.25" y2="-57.004"/>
		
			<line fill="none" stroke="#231F20" stroke-width="0.3" stroke-linecap="square" x1="30.75" y1="-40.254" x2="30.75" y2="-39.504"/>
		<line fill="none" stroke="#231F20" stroke-width="0.3" stroke-linecap="square" x1="24" y1="-36.254" x2="22.5" y2="-36.254"/>
		<line fill="none" stroke="#231F20" stroke-width="0.3" stroke-linecap="square" x1="17.75" y1="-23.004" x2="19" y2="-22.254"/>
		
			<line fill="none" stroke="#231F20" stroke-width="0.3" stroke-linecap="square" x1="28.25" y1="-16.504" x2="28.75" y2="-17.754"/>
		<line fill="none" stroke="#231F20" stroke-width="0.3" stroke-linecap="square" x1="36.75" y1="-33.254" x2="36" y2="-34.254"/>
		<line fill="none" stroke="#231F20" stroke-width="0.3" stroke-linecap="square" x1="67.75" y1="-36.754" x2="68.5" y2="-37.504"/>
		
			<line fill="none" stroke="#231F20" stroke-width="0.3" stroke-linecap="square" x1="57.781" y1="-34.004" x2="58.281" y2="-33.004"/>
		<line fill="none" stroke="#231F20" stroke-width="0.3" stroke-linecap="square" x1="44" y1="-52.254" x2="44.75" y2="-53.004"/>
		<line fill="none" stroke="#231F20" stroke-width="0.3" stroke-linecap="square" x1="41.75" y1="-43.254" x2="43" y2="-42.504"/>
		<line fill="none" stroke="#231F20" stroke-width="0.3" stroke-linecap="square" x1="27.75" y1="-6.504" x2="27.5" y2="-5.004"/>
		
			<line fill="none" stroke="#231F20" stroke-width="0.3" stroke-linecap="square" x1="56.75" y1="-37.254" x2="56.25" y2="-38.504"/>
		
			<line fill="none" stroke="#231F20" stroke-width="0.3" stroke-linecap="square" x1="86.044" y1="-74.661" x2="80.519" y2="-70.364"/>
		
			<line fill="none" stroke="#231F20" stroke-width="0.3" stroke-linecap="square" x1="88.5" y1="-71.504" x2="82.974" y2="-67.207"/>
		<line fill="none" stroke="#231F20" stroke-width="0.3" stroke-linecap="square" x1="65.689" y1="-73.728" x2="62" y2="-68.254"/>
		
			<line fill="none" stroke="#231F20" stroke-width="0.3" stroke-linecap="square" x1="68.431" y1="-70.814" x2="63.33" y2="-66.02"/>
		<line fill="none" stroke="#231F20" stroke-width="0.3" stroke-linecap="square" x1="71.632" y1="-71.782" x2="74" y2="-66.004"/>
		<line fill="none" stroke="#231F20" stroke-width="0.3" stroke-linecap="square" x1="74.75" y1="-73.004" x2="77.5" y2="-66.254"/>
		
			<line fill="none" stroke="#231F20" stroke-width="0.3" stroke-linecap="square" x1="46.5" y1="-72.504" x2="40.807" y2="-68.121"/>
		
			<line fill="none" stroke="#231F20" stroke-width="0.3" stroke-linecap="square" x1="50.5" y1="-71.504" x2="43.796" y2="-65.462"/>
		<line fill="none" stroke="#231F20" stroke-width="0.3" stroke-linecap="square" x1="27.75" y1="-71.754" x2="27.5" y2="-70.254"/>
		<line fill="none" stroke="#231F20" stroke-width="0.3" stroke-linecap="square" x1="32.722" y1="-73.581" x2="37" y2="-67.754"/>
		
			<line fill="none" stroke="#231F20" stroke-width="0.3" stroke-linecap="square" x1="35.55" y1="-76.409" x2="39.829" y2="-70.581"/>
		
			<line fill="none" stroke="#231F20" stroke-width="0.3" stroke-linecap="square" x1="77.031" y1="-11.504" x2="77.531" y2="-10.254"/>
		
			<line fill="none" stroke="#231F20" stroke-width="0.3" stroke-linecap="square" x1="57.25" y1="-73.504" x2="57.75" y2="-67.004"/>
		<line fill="none" stroke="#231F20" stroke-width="0.3" stroke-linecap="square" x1="54.5" y1="-74.254" x2="53" y2="-67.504"/>
		<line fill="none" stroke="#231F20" stroke-width="0.3" stroke-linecap="square" x1="64.25" y1="-57.254" x2="65" y2="-56.504"/>
		<line fill="none" stroke="#231F20" stroke-width="0.3" stroke-linecap="square" x1="51.25" y1="-45.504" x2="52.5" y2="-45.254"/>
		<line fill="none" stroke="#231F20" stroke-width="0.3" stroke-linecap="square" x1="82" y1="-20.004" x2="82.75" y2="-20.754"/>
		
			<line fill="none" stroke="#231F20" stroke-width="0.3" stroke-linecap="square" x1="26.75" y1="-69.254" x2="23.348" y2="-64.924"/>
		<line fill="none" stroke="#231F20" stroke-width="0.3" stroke-linecap="square" x1="80" y1="-32.754" x2="81.25" y2="-32.504"/>
		
			<line fill="none" stroke="#231F20" stroke-width="0.3" stroke-linecap="square" x1="41.75" y1="-61.004" x2="42.75" y2="-60.254"/>
		<line fill="none" stroke="#231F20" stroke-width="0.3" stroke-linecap="square" x1="54.75" y1="-66.504" x2="55" y2="-65.254"/>
		<line fill="none" stroke="#231F20" stroke-width="0.3" stroke-linecap="square" x1="29.5" y1="-62.504" x2="30" y2="-64.004"/>
		<line fill="none" stroke="#231F20" stroke-width="0.3" stroke-linecap="square" x1="23.25" y1="-6.254" x2="17.724" y2="-1.957"/>
		
			<line fill="none" stroke="#231F20" stroke-width="0.3" stroke-linecap="square" x1="23.25" y1="-71.504" x2="17.724" y2="-67.207"/>
		<line fill="none" stroke="#231F20" stroke-width="0.3" stroke-linecap="square" x1="8.5" y1="-64.129" x2="3.5" y2="-59.879"/>
		
			<line fill="none" stroke="#231F20" stroke-width="0.75" stroke-linecap="round" x1="21.75" y1="-67.254" x2="21.75" y2="-67.254"/>
		
			<line fill="none" stroke="#231F20" stroke-width="0.75" stroke-linecap="round" x1="24.75" y1="-64.004" x2="24.75" y2="-64.004"/>
		<line fill="none" stroke="#231F20" stroke-width="0.75" stroke-linecap="round" x1="31.5" y1="-69.504" x2="31.5" y2="-69.504"/>
		
			<line fill="none" stroke="#231F20" stroke-width="0.75" stroke-linecap="round" x1="41.75" y1="-62.504" x2="41.75" y2="-62.504"/>
		<line fill="none" stroke="#231F20" stroke-width="0.75" stroke-linecap="round" x1="35.5" y1="-55.754" x2="35.5" y2="-55.754"/>
		<line fill="none" stroke="#231F20" stroke-width="0.75" stroke-linecap="round" x1="33" y1="-46.004" x2="33" y2="-46.004"/>
		
			<line fill="none" stroke="#231F20" stroke-width="0.75" stroke-linecap="round" x1="22.25" y1="-47.004" x2="22.25" y2="-47.004"/>
		<line fill="none" stroke="#231F20" stroke-width="0.75" stroke-linecap="round" x1="39" y1="-35.004" x2="39" y2="-35.004"/>
		
			<line fill="none" stroke="#231F20" stroke-width="0.75" stroke-linecap="round" x1="44.25" y1="-39.254" x2="44.25" y2="-39.254"/>
		<line fill="none" stroke="#231F20" stroke-width="0.75" stroke-linecap="round" x1="52" y1="-47.754" x2="52" y2="-47.754"/>
		<line fill="none" stroke="#231F20" stroke-width="0.75" stroke-linecap="round" x1="46.5" y1="-30.754" x2="46.5" y2="-30.754"/>
		
			<line fill="none" stroke="#231F20" stroke-width="0.75" stroke-linecap="round" x1="51.25" y1="-28.004" x2="51.25" y2="-28.004"/>
		
			<line fill="none" stroke="#231F20" stroke-width="0.75" stroke-linecap="round" x1="37.25" y1="-23.754" x2="37.25" y2="-23.754"/>
		<line fill="none" stroke="#231F20" stroke-width="0.75" stroke-linecap="round" x1="60.5" y1="-46.254" x2="60.5" y2="-46.254"/>
		
			<line fill="none" stroke="#231F20" stroke-width="0.75" stroke-linecap="round" x1="60.25" y1="-54.754" x2="60.25" y2="-54.754"/>
		
			<line fill="none" stroke="#231F20" stroke-width="0.75" stroke-linecap="round" x1="76.75" y1="-63.504" x2="76.75" y2="-63.504"/>
		
			<line fill="none" stroke="#231F20" stroke-width="0.75" stroke-linecap="round" x1="68.75" y1="-67.004" x2="68.75" y2="-67.004"/>
		<line fill="none" stroke="#231F20" stroke-width="0.75" stroke-linecap="round" x1="79.5" y1="-43.754" x2="79.5" y2="-43.754"/>
		<line fill="none" stroke="#231F20" stroke-width="0.75" stroke-linecap="round" x1="78" y1="-32.754" x2="78" y2="-32.754"/>
		<line fill="none" stroke="#231F20" stroke-width="0.75" stroke-linecap="round" x1="72.5" y1="-26.004" x2="72.5" y2="-26.004"/>
		<line fill="none" stroke="#231F20" stroke-width="0.75" stroke-linecap="round" x1="76" y1="-16.004" x2="76" y2="-16.004"/>
		<line fill="none" stroke="#231F20" stroke-width="0.75" stroke-linecap="round" x1="68.5" y1="-11.254" x2="68.5" y2="-11.254"/>
		<line fill="none" stroke="#231F20" stroke-width="0.75" stroke-linecap="round" x1="47" y1="-10.004" x2="47" y2="-10.004"/>
		<line fill="none" stroke="#231F20" stroke-width="0.75" stroke-linecap="round" x1="58" y1="-7.504" x2="58" y2="-7.504"/>
		
			<line fill="none" stroke="#231F20" stroke-width="0.75" stroke-linecap="round" x1="43.75" y1="-55.254" x2="43.75" y2="-55.254"/>
		<line fill="none" stroke="#231F20" stroke-width="0.75" stroke-linecap="round" x1="29.25" y1="-8.254" x2="29.25" y2="-8.254"/>
		
			<line fill="none" stroke="#231F20" stroke-width="0.75" stroke-linecap="round" x1="19.25" y1="-19.504" x2="19.25" y2="-19.504"/>
		
			<line fill="none" stroke="#231F20" stroke-width="0.75" stroke-linecap="round" x1="22.25" y1="-26.754" x2="22.25" y2="-26.754"/>
		<line fill="none" stroke="#231F20" stroke-width="0.75" stroke-linecap="round" x1="27.5" y1="-30.504" x2="27.5" y2="-30.504"/>
		
			<line fill="none" stroke="#231F20" stroke-width="0.75" stroke-linecap="round" x1="28.25" y1="-26.754" x2="28.25" y2="-26.754"/>
		
			<line fill="none" stroke="#231F20" stroke-width="0.75" stroke-linecap="round" x1="69.25" y1="-48.504" x2="69.25" y2="-48.504"/>
		<line fill="none" stroke="#231F20" stroke-width="0.75" stroke-linecap="round" x1="66.5" y1="-38.754" x2="66.5" y2="-38.754"/>
		
			<line fill="none" stroke="#231F20" stroke-width="0.75" stroke-linecap="round" x1="64.75" y1="-30.504" x2="64.75" y2="-30.504"/>
		
			<line fill="none" stroke="#231F20" stroke-width="0.75" stroke-linecap="round" x1="46.25" y1="-46.254" x2="46.25" y2="-46.254"/>
		
			<line fill="none" stroke="#231F20" stroke-width="0.75" stroke-linecap="round" x1="42.75" y1="-15.504" x2="42.75" y2="-15.504"/>
		<line fill="none" stroke="#231F20" stroke-width="0.75" stroke-linecap="round" x1="42.75" y1="-7.504" x2="42.75" y2="-7.504"/>
		
			<line fill="none" stroke="#231F20" stroke-width="0.75" stroke-linecap="round" x1="37.375" y1="-11.504" x2="37.375" y2="-11.504"/>
		
			<line fill="none" stroke="#231F20" stroke-width="0.75" stroke-linecap="round" x1="45.125" y1="-34.004" x2="45.125" y2="-34.004"/>
		<line fill="none" stroke="#231F20" stroke-width="0.75" stroke-linecap="round" x1="79.5" y1="-9.004" x2="79.5" y2="-9.004"/>
		<line fill="none" stroke="#231F20" stroke-width="0.75" stroke-linecap="round" x1="23" y1="-15.004" x2="23" y2="-15.004"/>
		
			<line fill="none" stroke="#231F20" stroke-width="0.75" stroke-linecap="round" x1="52.25" y1="-41.254" x2="52.25" y2="-41.254"/>
		
			<line fill="none" stroke="#231F20" stroke-width="0.75" stroke-linecap="round" x1="51.75" y1="-56.254" x2="51.75" y2="-56.254"/>
		<line fill="none" stroke="#231F20" stroke-width="0.75" stroke-linecap="round" x1="53" y1="-63.004" x2="53" y2="-63.004"/>
		
			<line fill="none" stroke="#231F20" stroke-width="0.75" stroke-linecap="round" x1="68.25" y1="-15.254" x2="68.25" y2="-15.254"/>
		<line fill="none" stroke="#231F20" stroke-width="0.75" stroke-linecap="round" x1="67.5" y1="-26.254" x2="67.5" y2="-26.254"/>
		
			<line fill="none" stroke="#231F20" stroke-width="0.75" stroke-linecap="round" x1="81.25" y1="-23.754" x2="81.25" y2="-23.754"/>
		
			<line fill="none" stroke="#231F20" stroke-width="0.75" stroke-linecap="round" x1="70.75" y1="-53.504" x2="70.75" y2="-53.504"/>
		<line fill="none" stroke="#231F20" stroke-width="0.75" stroke-linecap="round" x1="71.5" y1="-51.754" x2="71.5" y2="-51.754"/>
		
			<line fill="none" stroke="#231F20" stroke-width="0.75" stroke-linecap="round" x1="71.75" y1="-60.504" x2="71.75" y2="-60.504"/>
		<line fill="none" stroke="#231F20" stroke-width="0.75" stroke-linecap="round" x1="58.5" y1="-51.254" x2="58.5" y2="-51.254"/>
		<line fill="none" stroke="#231F20" stroke-width="0.75" stroke-linecap="round" x1="67.5" y1="-43.754" x2="67.5" y2="-43.754"/>
		<line fill="none" stroke="#231F20" stroke-width="0.75" stroke-linecap="round" x1="78" y1="-47.004" x2="78" y2="-47.004"/>
		<line fill="none" stroke="#231F20" stroke-width="0.75" stroke-linecap="round" x1="79.5" y1="-39.754" x2="79.5" y2="-39.754"/>
		<line fill="none" stroke="#231F20" stroke-width="0.75" stroke-linecap="round" x1="19.5" y1="-54.754" x2="19.5" y2="-54.754"/>
		
			<line fill="none" stroke="#231F20" stroke-width="0.75" stroke-linecap="round" x1="84.75" y1="-54.754" x2="84.75" y2="-54.754"/>
		<path fill="none" stroke="#231F20" stroke-width="0.75" stroke-linecap="round" d="M8.5-60.629c0.208,0,0.375-0.167,0.375-0.375
			c0-0.207-0.167-0.375-0.375-0.375c-0.207,0-0.375,0.168-0.375,0.375C8.125-60.796,8.293-60.629,8.5-60.629z"/>
	</g>
</pattern>
<pattern  x="-387.5" y="312.5" width="72" height="72" patternUnits="userSpaceOnUse" id="USGS_19_Land_Inundation" viewBox="17.32 -73.15 72 72" overflow="visible">
	<g>
		<polygon fill="none" points="17.32,-1.149 17.32,-73.149 89.32,-73.149 89.32,-1.149 		"/>
		<line fill="none" stroke="#231F20" stroke-width="0.3" stroke-dasharray="2,2" x1="16.32" y1="-2.149" x2="89.76" y2="-2.149"/>
		<line fill="none" stroke="#231F20" stroke-width="0.3" stroke-dasharray="2,2" x1="16.32" y1="-6.149" x2="89.76" y2="-6.149"/>
		<line fill="none" stroke="#231F20" stroke-width="0.3" stroke-dasharray="2,2" x1="16.32" y1="-10.149" x2="89.76" y2="-10.149"/>
		<line fill="none" stroke="#231F20" stroke-width="0.3" stroke-dasharray="2,2" x1="16.32" y1="-14.149" x2="89.76" y2="-14.149"/>
		<line fill="none" stroke="#231F20" stroke-width="0.3" stroke-dasharray="2,2" x1="16.32" y1="-18.149" x2="89.76" y2="-18.149"/>
		<line fill="none" stroke="#231F20" stroke-width="0.3" stroke-dasharray="2,2" x1="16.32" y1="-22.149" x2="89.76" y2="-22.149"/>
		<line fill="none" stroke="#231F20" stroke-width="0.3" stroke-dasharray="2,2" x1="16.32" y1="-26.149" x2="89.76" y2="-26.149"/>
		<line fill="none" stroke="#231F20" stroke-width="0.3" stroke-dasharray="2,2" x1="16.32" y1="-30.149" x2="89.76" y2="-30.149"/>
		<line fill="none" stroke="#231F20" stroke-width="0.3" stroke-dasharray="2,2" x1="16.32" y1="-34.149" x2="89.76" y2="-34.149"/>
		<line fill="none" stroke="#231F20" stroke-width="0.3" stroke-dasharray="2,2" x1="16.32" y1="-38.149" x2="89.76" y2="-38.149"/>
		<line fill="none" stroke="#231F20" stroke-width="0.3" stroke-dasharray="2,2" x1="16.32" y1="-42.149" x2="89.76" y2="-42.149"/>
		<line fill="none" stroke="#231F20" stroke-width="0.3" stroke-dasharray="2,2" x1="16.32" y1="-46.149" x2="89.76" y2="-46.149"/>
		<line fill="none" stroke="#231F20" stroke-width="0.3" stroke-dasharray="2,2" x1="16.32" y1="-50.149" x2="89.76" y2="-50.149"/>
		<line fill="none" stroke="#231F20" stroke-width="0.3" stroke-dasharray="2,2" x1="16.32" y1="-54.149" x2="89.76" y2="-54.149"/>
		<line fill="none" stroke="#231F20" stroke-width="0.3" stroke-dasharray="2,2" x1="16.32" y1="-58.149" x2="89.76" y2="-58.149"/>
		<line fill="none" stroke="#231F20" stroke-width="0.3" stroke-dasharray="2,2" x1="16.32" y1="-62.149" x2="89.76" y2="-62.149"/>
		<line fill="none" stroke="#231F20" stroke-width="0.3" stroke-dasharray="2,2" x1="16.32" y1="-66.149" x2="89.76" y2="-66.149"/>
		<line fill="none" stroke="#231F20" stroke-width="0.3" stroke-dasharray="2,2" x1="16.32" y1="-70.149" x2="89.76" y2="-70.149"/>
		<line fill="none" stroke="#231F20" stroke-width="0.3" stroke-dasharray="2,2" x1="16.32" y1="-74.149" x2="89.76" y2="-74.149"/>
		<line fill="none" stroke="#231F20" stroke-width="0.3" stroke-dasharray="2,2" x1="18.36" y1="-0.149" x2="91.8" y2="-0.149"/>
		<line fill="none" stroke="#231F20" stroke-width="0.3" stroke-dasharray="2,2" x1="18.36" y1="-4.149" x2="91.8" y2="-4.149"/>
		<line fill="none" stroke="#231F20" stroke-width="0.3" stroke-dasharray="2,2" x1="18.36" y1="-8.149" x2="91.8" y2="-8.149"/>
		<line fill="none" stroke="#231F20" stroke-width="0.3" stroke-dasharray="2,2" x1="18.36" y1="-12.149" x2="91.8" y2="-12.149"/>
		<line fill="none" stroke="#231F20" stroke-width="0.3" stroke-dasharray="2,2" x1="18.36" y1="-16.149" x2="91.8" y2="-16.149"/>
		<line fill="none" stroke="#231F20" stroke-width="0.3" stroke-dasharray="2,2" x1="18.36" y1="-20.149" x2="91.8" y2="-20.149"/>
		<line fill="none" stroke="#231F20" stroke-width="0.3" stroke-dasharray="2,2" x1="18.36" y1="-24.149" x2="91.8" y2="-24.149"/>
		<line fill="none" stroke="#231F20" stroke-width="0.3" stroke-dasharray="2,2" x1="18.36" y1="-28.149" x2="91.8" y2="-28.149"/>
		<line fill="none" stroke="#231F20" stroke-width="0.3" stroke-dasharray="2,2" x1="18.36" y1="-32.149" x2="91.8" y2="-32.149"/>
		<line fill="none" stroke="#231F20" stroke-width="0.3" stroke-dasharray="2,2" x1="18.36" y1="-36.149" x2="91.8" y2="-36.149"/>
		<line fill="none" stroke="#231F20" stroke-width="0.3" stroke-dasharray="2,2" x1="18.36" y1="-40.149" x2="91.8" y2="-40.149"/>
		<line fill="none" stroke="#231F20" stroke-width="0.3" stroke-dasharray="2,2" x1="18.36" y1="-44.149" x2="91.8" y2="-44.149"/>
		<line fill="none" stroke="#231F20" stroke-width="0.3" stroke-dasharray="2,2" x1="18.36" y1="-48.149" x2="91.8" y2="-48.149"/>
		<line fill="none" stroke="#231F20" stroke-width="0.3" stroke-dasharray="2,2" x1="18.36" y1="-52.149" x2="91.8" y2="-52.149"/>
		<line fill="none" stroke="#231F20" stroke-width="0.3" stroke-dasharray="2,2" x1="18.36" y1="-56.149" x2="91.8" y2="-56.149"/>
		<line fill="none" stroke="#231F20" stroke-width="0.3" stroke-dasharray="2,2" x1="18.36" y1="-60.149" x2="91.8" y2="-60.149"/>
		<line fill="none" stroke="#231F20" stroke-width="0.3" stroke-dasharray="2,2" x1="18.36" y1="-64.149" x2="91.8" y2="-64.149"/>
		<line fill="none" stroke="#231F20" stroke-width="0.3" stroke-dasharray="2,2" x1="18.36" y1="-68.149" x2="91.8" y2="-68.149"/>
		<line fill="none" stroke="#231F20" stroke-width="0.3" stroke-dasharray="2,2" x1="18.36" y1="-72.149" x2="91.8" y2="-72.149"/>
		<line fill="none" stroke="#231F20" stroke-width="0.3" stroke-dasharray="2,2" x1="0" y1="-68.149" x2="10.2" y2="-68.149"/>
	</g>
</pattern>
<pattern  id="SVGID_1_" xlink:href="#Bird_Feet" patternTransform="matrix(1.2656 0 0 1.2656 1933.2031 2323.9795)">
</pattern>
<circle fill="url(#SVGID_1_)" cx="11.873" cy="13.376" r="10.125"/>
<pattern  id="SVGID_2_" xlink:href="#USGS_19_Land_Inundation" patternTransform="matrix(1 0 0 1 -30 0)">
</pattern>
<text transform="matrix(1 0 0 1 -28.625 19.7256)" fill="url(#SVGID_2_)" font-family="'LakesightPersonalUseOnly'" font-size="28"><pattern  id="SVGID_3_" xlink:href="#USGS_19_Land_Inundation" patternTransform="matrix(1 0 0 1 -30 0)">
</pattern>
S</text>
<g>
	<path d="M16.025,16.115c-0.984,1.178-2.496,1.922-4.152,1.922c-3.024,0-5.497-2.473-5.497-5.498c0-3.047,2.473-5.496,5.497-5.496
		c3.023,0,5.496,2.448,5.496,5.496c0,0.336-0.024,0.648-0.096,0.984H9.545c0.144,0.385,0.336,0.721,0.6,1.008
		c0.504,0.553,1.152,0.842,1.849,0.842c0.647,0,1.296-0.289,1.775-0.77L16.025,16.115z M14.465,11.7
		c-0.12-0.432-0.336-0.84-0.648-1.176c-0.479-0.528-1.151-0.816-1.823-0.816c-0.696,0-1.345,0.288-1.849,0.816
		C9.856,10.86,9.641,11.268,9.497,11.7H14.465z"/>
</g>
<g>
	
		<image overflow="visible" width="236" height="177" id="at0ZWT" xlink:href="D6292BC7.jpg"  transform="matrix(0.2236 0 0 0.2236 -8.167 36.833)">
	</image>
</g>
</svg>
