<?xml version="1.0" encoding="utf-8"?>
<!-- Generator: Adobe Illustrator 15.0.0, SVG Export Plug-In . SVG Version: 6.00 Build 0)  -->
<!DOCTYPE svg PUBLIC "-//W3C//DTD SVG 1.1//EN" "http://www.w3.org/Graphics/SVG/1.1/DTD/svg11.dtd">
<svg version="1.1" id="Layer_1" zoomAndPan="disable"
	 xmlns="http://www.w3.org/2000/svg" xmlns:xlink="http://www.w3.org/1999/xlink" x="0px" y="0px" width="32px" height="16px"
	 viewBox="0 0 32 16" enable-background="new 0 0 32 16" xml:space="preserve">
<pattern  x="-383.5" y="308.5" width="72" height="72" patternUnits="userSpaceOnUse" id="Hatching2" viewBox="18.836 -74.32 72 72" overflow="visible">
	<g>
		<polygon fill="none" points="18.836,-2.32 90.836,-2.32 90.836,-74.32 18.836,-74.32 		"/>
		<g>
			<polygon fill="none" points="18.836,-74.32 18.836,-2.32 90.836,-2.32 90.836,-74.32 			"/>
			<line fill="none" x1="2.836" y1="-68.32" x2="8.836" y2="-74.32"/>
			<line fill="none" x1="2.836" y1="-74.32" x2="8.836" y2="-68.32"/>
			<line fill="none" stroke="#231F20" stroke-width="0.3" x1="24.586" y1="-13.07" x2="21.836" y2="-15.07"/>
			<line fill="none" stroke="#231F20" stroke-width="0.3" x1="23.086" y1="-69.32" x2="20.836" y2="-71.07"/>
			<line fill="none" stroke="#231F20" stroke-width="0.3" x1="92.086" y1="-9.32" x2="88.836" y2="-10.07"/>
			<line fill="none" stroke="#231F20" stroke-width="0.3" x1="90.836" y1="-21.07" x2="88.336" y2="-22.82"/>
			<line fill="none" stroke="#231F20" stroke-width="0.3" x1="93.586" y1="-26.32" x2="90.586" y2="-26.32"/>
			<line fill="none" stroke="#231F20" stroke-width="0.3" x1="90.336" y1="-33.82" x2="87.586" y2="-32.07"/>
			<line fill="none" stroke="#231F20" stroke-width="0.3" x1="92.586" y1="-42.07" x2="90.586" y2="-43.57"/>
			<line fill="none" stroke="#231F20" stroke-width="0.3" x1="90.086" y1="-54.07" x2="87.336" y2="-51.82"/>
			<line fill="none" stroke="#231F20" stroke-width="0.3" x1="92.086" y1="-65.07" x2="87.836" y2="-64.32"/>
			<line fill="none" stroke="#231F20" stroke-width="0.3" x1="82.336" y1="-63.32" x2="80.086" y2="-65.07"/>
			<line fill="none" stroke="#231F20" stroke-width="0.3" x1="90.586" y1="-47.32" x2="87.586" y2="-47.32"/>
			<line fill="none" stroke="#231F20" stroke-width="0.3" x1="76.836" y1="-19.82" x2="74.943" y2="-16.996"/>
			<line fill="none" stroke="#231F20" stroke-width="0.3" x1="46.836" y1="-18.32" x2="45.182" y2="-15.758"/>
			<line fill="none" stroke="#231F20" stroke-width="0.3" x1="61.877" y1="-13.877" x2="63.731" y2="-11.195"/>
			<line fill="none" stroke="#231F20" stroke-width="0.3" x1="86.8" y1="-75.17" x2="87.915" y2="-72.209"/>
			<line fill="none" stroke="#231F20" stroke-width="0.3" x1="81.962" y1="-75.305" x2="81.336" y2="-72.028"/>
			<line fill="none" stroke="#231F20" stroke-width="0.3" x1="75.836" y1="-50.32" x2="73.943" y2="-47.496"/>
			<line fill="none" stroke="#231F20" stroke-width="0.3" x1="67.491" y1="-21.885" x2="65.836" y2="-19.32"/>
			<line fill="none" stroke="#231F20" stroke-width="0.3" x1="66.749" y1="-76.158" x2="66.863" y2="-73.162"/>
			<line fill="none" stroke="#231F20" stroke-width="0.3" x1="59.377" y1="-72.627" x2="61.231" y2="-69.945"/>
			<line fill="none" stroke="#231F20" stroke-width="0.3" x1="51.048" y1="-74.563" x2="49.625" y2="-72.508"/>
			<line fill="none" stroke="#231F20" stroke-width="0.3" x1="69.152" y1="-43.109" x2="71.504" y2="-40.446"/>
			<line fill="none" stroke="#231F20" stroke-width="0.3" x1="34.782" y1="-74.695" x2="36.107" y2="-72.744"/>
			<line fill="none" stroke="#231F20" stroke-width="0.3" x1="28.083" y1="-73.191" x2="28.995" y2="-68.973"/>
			<line fill="none" stroke="#231F20" stroke-width="0.3" x1="23.722" y1="-76.027" x2="22.059" y2="-73.713"/>
			<line fill="none" stroke="#231F20" stroke-width="0.3" x1="45.877" y1="-72.364" x2="45.992" y2="-69.366"/>
			<line fill="none" stroke="#231F20" stroke-width="0.3" x1="26.086" y1="-7.57" x2="29.586" y2="-9.07"/>
			<line fill="none" stroke="#231F20" stroke-width="0.3" x1="23.336" y1="-23.07" x2="23.586" y2="-19.82"/>
			<line fill="none" stroke="#231F20" stroke-width="0.3" x1="26.836" y1="-46.07" x2="28.336" y2="-49.82"/>
			<line fill="none" stroke="#231F20" stroke-width="0.3" x1="24.086" y1="-40.57" x2="26.336" y2="-36.82"/>
			<line fill="none" stroke="#231F20" stroke-width="0.3" x1="48.086" y1="-6.82" x2="45.836" y2="-9.32"/>
			<line fill="none" stroke="#231F20" stroke-width="0.3" x1="52.336" y1="-6.82" x2="55.586" y2="-9.57"/>
			<line fill="none" stroke="#231F20" stroke-width="0.3" x1="69.086" y1="-6.82" x2="72.336" y2="-8.82"/>
			<line fill="none" stroke="#231F20" stroke-width="0.3" x1="71.336" y1="-12.82" x2="69.336" y2="-16.07"/>
			<line fill="none" stroke="#231F20" stroke-width="0.3" x1="78.336" y1="-11.57" x2="83.336" y2="-9.32"/>
			<line fill="none" stroke="#231F20" stroke-width="0.3" x1="85.836" y1="-15.07" x2="83.336" y2="-16.82"/>
			<line fill="none" stroke="#231F20" stroke-width="0.3" x1="37.586" y1="-7.07" x2="37.586" y2="-10.07"/>
			<line fill="none" stroke="#231F20" stroke-width="0.3" x1="34.586" y1="-12.07" x2="31.336" y2="-12.57"/>
			<line fill="none" stroke="#231F20" stroke-width="0.3" x1="38.836" y1="-16.57" x2="39.336" y2="-19.82"/>
			<line fill="none" stroke="#231F20" stroke-width="0.3" x1="39.836" y1="-12.07" x2="43.336" y2="-11.32"/>
			<line fill="none" stroke="#231F20" stroke-width="0.3" x1="28.086" y1="-23.82" x2="30.836" y2="-21.82"/>
			<line fill="none" stroke="#231F20" stroke-width="0.3" x1="26.336" y1="-66.32" x2="26.586" y2="-62.32"/>
			<line fill="none" stroke="#231F20" stroke-width="0.3" x1="26.086" y1="-58.07" x2="28.336" y2="-55.57"/>
			<line fill="none" stroke="#231F20" stroke-width="0.3" x1="40.086" y1="-68.07" x2="37.586" y2="-64.57"/>
			<line fill="none" stroke="#231F20" stroke-width="0.3" x1="48.586" y1="-30.82" x2="46.086" y2="-32.57"/>
			<line fill="none" stroke="#231F20" stroke-width="0.3" x1="76.586" y1="-36.07" x2="73.836" y2="-34.57"/>
			<line fill="none" stroke="#231F20" stroke-width="0.3" x1="45.586" y1="-42.32" x2="41.836" y2="-41.57"/>
			<line fill="none" stroke="#231F20" stroke-width="0.3" x1="50.336" y1="-51.82" x2="48.336" y2="-53.32"/>
			<line fill="none" stroke="#231F20" stroke-width="0.3" x1="47.836" y1="-63.82" x2="45.086" y2="-61.57"/>
			<line fill="none" stroke="#231F20" stroke-width="0.3" x1="51.086" y1="-68.07" x2="49.086" y2="-66.82"/>
			<line fill="none" stroke="#231F20" stroke-width="0.3" x1="48.336" y1="-57.07" x2="45.336" y2="-57.07"/>
			<line fill="none" stroke="#231F20" stroke-width="0.3" x1="58.586" y1="-21.32" x2="56.086" y2="-23.07"/>
			<line fill="none" stroke="#231F20" stroke-width="0.3" x1="61.336" y1="-26.57" x2="58.336" y2="-26.57"/>
			<line fill="none" stroke="#231F20" stroke-width="0.3" x1="58.086" y1="-34.07" x2="55.336" y2="-32.32"/>
			<line fill="none" stroke="#231F20" stroke-width="0.3" x1="57.336" y1="-44.82" x2="56.586" y2="-47.32"/>
			<line fill="none" stroke="#231F20" stroke-width="0.3" x1="57.836" y1="-54.32" x2="55.086" y2="-52.07"/>
			<line fill="none" stroke="#231F20" stroke-width="0.3" x1="58.336" y1="-62.32" x2="56.336" y2="-61.07"/>
			<line fill="none" stroke="#231F20" stroke-width="0.3" x1="81.809" y1="-46.838" x2="78.809" y2="-46.838"/>
			<line fill="none" stroke="#231F20" stroke-width="0.3" x1="41.086" y1="-45.32" x2="43.586" y2="-47.07"/>
			<line fill="none" stroke="#231F20" stroke-width="0.3" x1="45.836" y1="-22.82" x2="48.836" y2="-22.82"/>
			<line fill="none" stroke="#231F20" stroke-width="0.3" x1="33.586" y1="-37.07" x2="36.086" y2="-38.82"/>
			<line fill="none" stroke="#231F20" stroke-width="0.3" x1="30.836" y1="-42.32" x2="33.836" y2="-42.32"/>
			<line fill="none" stroke="#231F20" stroke-width="0.3" x1="34.086" y1="-49.82" x2="36.836" y2="-48.07"/>
			<line fill="none" stroke="#231F20" stroke-width="0.3" x1="66.086" y1="-35.32" x2="68.47" y2="-33.76"/>
			<line fill="none" stroke="#231F20" stroke-width="0.3" x1="66.423" y1="-27.791" x2="68.807" y2="-29.612"/>
			<line fill="none" stroke="#231F20" stroke-width="0.3" x1="73.558" y1="-23.805" x2="73.336" y2="-26.82"/>
			<line fill="none" stroke="#231F20" stroke-width="0.3" x1="64.171" y1="-67.883" x2="67.22" y2="-68.01"/>
			<line fill="none" stroke="#231F20" stroke-width="0.3" x1="65.173" y1="-62.041" x2="67.557" y2="-63.862"/>
			<line fill="none" stroke="#231F20" stroke-width="0.3" x1="72.308" y1="-58.055" x2="73.431" y2="-61.114"/>
			<line fill="none" stroke="#231F20" stroke-width="0.3" x1="67.086" y1="-45.82" x2="64.586" y2="-47.57"/>
			<line fill="none" stroke="#231F20" stroke-width="0.3" x1="66.836" y1="-53.32" x2="63.586" y2="-52.32"/>
			<line fill="none" stroke="#231F20" stroke-width="0.3" x1="75.836" y1="-68.82" x2="73.086" y2="-67.07"/>
			<line fill="none" stroke="#231F20" stroke-width="0.3" x1="83.336" y1="-43.32" x2="80.586" y2="-41.57"/>
			<line fill="none" stroke="#231F20" stroke-width="0.3" x1="81.086" y1="-54.32" x2="79.086" y2="-55.82"/>
			<line fill="none" stroke="#231F20" stroke-width="0.3" x1="38.421" y1="-31.883" x2="41.47" y2="-32.01"/>
			<line fill="none" stroke="#231F20" stroke-width="0.3" x1="39.423" y1="-26.041" x2="41.807" y2="-27.862"/>
			<line fill="none" stroke="#231F20" stroke-width="0.3" x1="76.586" y1="-30.82" x2="79.307" y2="-31.362"/>
			<line fill="none" stroke="#231F20" stroke-width="0.3" x1="33.836" y1="-58.07" x2="34.336" y2="-61.32"/>
			<line fill="none" stroke="#231F20" stroke-width="0.3" x1="35.836" y1="-56.07" x2="39.336" y2="-55.32"/>
			<line fill="none" stroke="#231F20" stroke-width="0.3" x1="51.586" y1="-15.07" x2="55.586" y2="-15.82"/>
			<line fill="none" stroke="#231F20" stroke-width="0.3" x1="52.309" y1="-35.838" x2="52.809" y2="-39.338"/>
			<line fill="none" stroke="#231F20" stroke-width="0.3" x1="83.336" y1="-25.32" x2="80.836" y2="-24.07"/>
			<line fill="none" stroke="#231F20" stroke-width="0.3" x1="28.836" y1="-15.82" x2="32.086" y2="-18.57"/>
			<line fill="none" stroke="#231F20" stroke-width="0.3" x1="23.586" y1="-31.82" x2="21.086" y2="-33.57"/>
			<line fill="none" stroke="#231F20" stroke-width="0.3" x1="34.586" y1="-26.32" x2="32.586" y2="-27.82"/>
			<line fill="none" stroke="#231F20" stroke-width="0.3" x1="60.127" y1="-7.127" x2="61.981" y2="-4.445"/>
			<line fill="none" stroke="#231F20" stroke-width="0.3" x1="83.377" y1="-37.377" x2="85.231" y2="-34.695"/>
			<line fill="none" stroke="#231F20" stroke-width="0.3" x1="52.627" y1="-28.627" x2="53.336" y2="-25.82"/>
			<line fill="none" stroke="#231F20" stroke-width="0.3" x1="39.127" y1="-61.127" x2="39.836" y2="-58.32"/>
			<line fill="none" stroke="#231F20" stroke-width="0.3" x1="50.586" y1="-45.07" x2="48.586" y2="-46.57"/>
			<line fill="none" stroke="#231F20" stroke-width="0.3" x1="20.086" y1="-9.32" x2="16.836" y2="-10.07"/>
			<line fill="none" stroke="#231F20" stroke-width="0.3" x1="18.836" y1="-21.07" x2="16.336" y2="-22.82"/>
			<line fill="none" stroke="#231F20" stroke-width="0.3" x1="21.586" y1="-26.32" x2="18.586" y2="-26.32"/>
			<line fill="none" stroke="#231F20" stroke-width="0.3" x1="20.586" y1="-42.07" x2="18.586" y2="-43.57"/>
			<line fill="none" stroke="#231F20" stroke-width="0.3" x1="20.086" y1="-65.07" x2="15.836" y2="-64.32"/>
			<line fill="none" stroke="#231F20" stroke-width="0.3" x1="18.586" y1="-47.32" x2="15.586" y2="-47.32"/>
			<line fill="none" stroke="#231F20" stroke-width="0.3" x1="86.8" y1="-3.17" x2="87.915" y2="-0.209"/>
			<line fill="none" stroke="#231F20" stroke-width="0.3" x1="81.962" y1="-3.305" x2="81.336" y2="-0.028"/>
			<line fill="none" stroke="#231F20" stroke-width="0.3" x1="66.749" y1="-4.158" x2="66.863" y2="-1.162"/>
			<line fill="none" stroke="#231F20" stroke-width="0.3" x1="51.048" y1="-2.563" x2="49.625" y2="-0.508"/>
			<line fill="none" stroke="#231F20" stroke-width="0.3" x1="34.782" y1="-2.695" x2="36.107" y2="-0.744"/>
			<line fill="none" stroke="#231F20" stroke-width="0.3" x1="23.722" y1="-4.027" x2="22.059" y2="-1.713"/>
			<line fill="none" stroke="#231F20" stroke-width="0.3" x1="0.059" y1="-11.82" x2="3.559" y2="-13.32"/>
			<line fill="none" stroke="#231F20" stroke-width="0.3" x1="24.086" y1="-54.32" x2="20.336" y2="-53.57"/>
			<line fill="none" stroke="#231F20" stroke-width="0.3" x1="87.204" y1="-59.662" x2="85.309" y2="-56.838"/>
			<line fill="none" stroke="#231F20" stroke-width="0.3" x1="42.809" y1="-38.338" x2="43.492" y2="-35.549"/>
			<line fill="none" stroke="#231F20" stroke-width="0.3" x1="63.586" y1="-39.32" x2="61.586" y2="-40.82"/>
			<line fill="none" stroke="#231F20" stroke-width="0.3" x1="74.309" y1="-4.338" x2="76.309" y2="-1.338"/>
			<line fill="none" stroke="#231F20" stroke-width="0.3" x1="74.309" y1="-76.338" x2="76.309" y2="-73.338"/>
		</g>
	</g>
</pattern>
<pattern  x="-383.5" y="308.5" width="48" height="48" patternUnits="userSpaceOnUse" id="SVGID_3_" viewBox="57.6 -60 48 48" overflow="visible">
	<g>
		<polygon fill="none" points="57.6,-12 105.6,-12 105.6,-60 57.6,-60 		"/>
		<g>
			<polygon fill="none" points="57.6,-60 57.6,-12 105.6,-12 105.6,-60 			"/>
			<path fill="#231F20" d="M57.6-69.6c5.301,0,9.6,4.298,9.6,9.6c0,5.301-4.299,9.6-9.6,9.6c-5.302,0-9.6-4.299-9.6-9.6
				C48-65.302,52.298-69.6,57.6-69.6z"/>
			<path fill="#231F20" d="M81.6-69.6c5.301,0,9.6,4.298,9.6,9.6c0,5.301-4.299,9.6-9.6,9.6c-5.302,0-9.6-4.299-9.6-9.6
				C72-65.302,76.298-69.6,81.6-69.6z"/>
			<path fill="#231F20" d="M105.6-69.6c5.301,0,9.6,4.298,9.6,9.6c0,5.301-4.299,9.6-9.6,9.6c-5.302,0-9.6-4.299-9.6-9.6
				C96-65.302,100.298-69.6,105.6-69.6z"/>
			<path fill="#231F20" d="M57.6-45.6c5.301,0,9.6,4.298,9.6,9.6c0,5.301-4.299,9.6-9.6,9.6c-5.302,0-9.6-4.299-9.6-9.6
				C48-41.302,52.298-45.6,57.6-45.6z"/>
			<path fill="#231F20" d="M81.6-45.6c5.301,0,9.6,4.298,9.6,9.6c0,5.301-4.299,9.6-9.6,9.6c-5.302,0-9.6-4.299-9.6-9.6
				C72-41.302,76.298-45.6,81.6-45.6z"/>
			<path fill="#231F20" d="M105.6-45.6c5.301,0,9.6,4.298,9.6,9.6c0,5.301-4.299,9.6-9.6,9.6c-5.302,0-9.6-4.299-9.6-9.6
				C96-41.302,100.298-45.6,105.6-45.6z"/>
			<path fill="#231F20" d="M57.6-21.6c5.301,0,9.6,4.298,9.6,9.6c0,5.301-4.299,9.6-9.6,9.6C52.298-2.4,48-6.699,48-12
				C48-17.302,52.298-21.6,57.6-21.6z"/>
			<path fill="#231F20" d="M81.6-21.6c5.301,0,9.6,4.298,9.6,9.6c0,5.301-4.299,9.6-9.6,9.6C76.298-2.4,72-6.699,72-12
				C72-17.302,76.298-21.6,81.6-21.6z"/>
			<path fill="#231F20" d="M105.6-21.6c5.301,0,9.6,4.298,9.6,9.6c0,5.301-4.299,9.6-9.6,9.6c-5.302,0-9.6-4.299-9.6-9.6
				C96-17.302,100.298-21.6,105.6-21.6z"/>
			<path fill="#231F20" d="M9.6-21.6c5.301,0,9.6,4.298,9.6,9.6c0,5.301-4.299,9.6-9.6,9.6C4.298-2.4,0-6.699,0-12
				C0-17.302,4.298-21.6,9.6-21.6z"/>
			<path fill="#231F20" d="M9.6-12"/>
			<path fill="#231F20" d="M117.6-38.4c-5.302,0-9.6-4.299-9.6-9.6c0-5.302,4.298-9.6,9.6-9.6V-38.4z"/>
			<path fill="#231F20" d="M93.6-57.6c5.301,0,9.6,4.298,9.6,9.6c0,5.301-4.299,9.6-9.6,9.6c-5.302,0-9.6-4.299-9.6-9.6
				C84-53.302,88.298-57.6,93.6-57.6z"/>
			<path fill="#231F20" d="M69.6-57.6c5.301,0,9.6,4.298,9.6,9.6c0,5.301-4.299,9.6-9.6,9.6c-5.302,0-9.6-4.299-9.6-9.6
				C60-53.302,64.298-57.6,69.6-57.6z"/>
			<path fill="#231F20" d="M45.6-57.6c5.301,0,9.6,4.298,9.6,9.6c0,5.301-4.299,9.6-9.6,9.6V-57.6z"/>
			<path fill="#231F20" d="M117.6-14.4c-5.302,0-9.6-4.299-9.6-9.6c0-5.302,4.298-9.6,9.6-9.6V-14.4z"/>
			<path fill="#231F20" d="M93.6-33.6c5.301,0,9.6,4.298,9.6,9.6c0,5.301-4.299,9.6-9.6,9.6c-5.302,0-9.6-4.299-9.6-9.6
				C84-29.302,88.298-33.6,93.6-33.6z"/>
			<path fill="#231F20" d="M69.6-33.6c5.301,0,9.6,4.298,9.6,9.6c0,5.301-4.299,9.6-9.6,9.6c-5.302,0-9.6-4.299-9.6-9.6
				C60-29.302,64.298-33.6,69.6-33.6z"/>
			<path fill="#231F20" d="M45.6-33.6c5.301,0,9.6,4.298,9.6,9.6c0,5.301-4.299,9.6-9.6,9.6V-33.6z"/>
			<path fill="#231F20" d="M84,0c0-5.302,4.298-9.6,9.6-9.6c5.301,0,9.6,4.298,9.6,9.6H84z"/>
			<path fill="#231F20" d="M60,0c0-5.302,4.298-9.6,9.6-9.6c5.301,0,9.6,4.298,9.6,9.6H60z"/>
			<path fill="#231F20" d="M103.2-72c0,5.301-4.299,9.6-9.6,9.6c-5.302,0-9.6-4.299-9.6-9.6H103.2z"/>
			<path fill="#231F20" d="M79.2-72c0,5.301-4.299,9.6-9.6,9.6c-5.302,0-9.6-4.299-9.6-9.6H79.2z"/>
			<path fill="#231F20" d="M21.6-33.6c5.301,0,9.6,4.298,9.6,9.6c0,5.301-4.299,9.6-9.6,9.6c-5.302,0-9.6-4.299-9.6-9.6
				C12-29.302,16.298-33.6,21.6-33.6z"/>
			<path fill="#231F20" d="M21.6-24"/>
		</g>
	</g>
</pattern>
<pattern  x="-383.5" y="308.5" width="48" height="48" patternUnits="userSpaceOnUse" id="SVGID_4_" viewBox="57.6 -60 48 48" overflow="visible">
	<g>
		<polygon fill="none" points="57.6,-12 105.6,-12 105.6,-60 57.6,-60 		"/>
		<g>
			<polygon fill="none" points="57.6,-60 57.6,-12 105.6,-12 105.6,-60 			"/>
			<path fill="#231F20" d="M57.6-69.6c5.301,0,9.6,4.298,9.6,9.6c0,5.301-4.299,9.6-9.6,9.6c-5.302,0-9.6-4.299-9.6-9.6
				C48-65.302,52.298-69.6,57.6-69.6z"/>
			<path fill="#231F20" d="M81.6-69.6c5.301,0,9.6,4.298,9.6,9.6c0,5.301-4.299,9.6-9.6,9.6c-5.302,0-9.6-4.299-9.6-9.6
				C72-65.302,76.298-69.6,81.6-69.6z"/>
			<path fill="#231F20" d="M105.6-69.6c5.301,0,9.6,4.298,9.6,9.6c0,5.301-4.299,9.6-9.6,9.6c-5.302,0-9.6-4.299-9.6-9.6
				C96-65.302,100.298-69.6,105.6-69.6z"/>
			<path fill="#231F20" d="M57.6-45.6c5.301,0,9.6,4.298,9.6,9.6c0,5.301-4.299,9.6-9.6,9.6c-5.302,0-9.6-4.299-9.6-9.6
				C48-41.302,52.298-45.6,57.6-45.6z"/>
			<path fill="#231F20" d="M81.6-45.6c5.301,0,9.6,4.298,9.6,9.6c0,5.301-4.299,9.6-9.6,9.6c-5.302,0-9.6-4.299-9.6-9.6
				C72-41.302,76.298-45.6,81.6-45.6z"/>
			<path fill="#231F20" d="M105.6-45.6c5.301,0,9.6,4.298,9.6,9.6c0,5.301-4.299,9.6-9.6,9.6c-5.302,0-9.6-4.299-9.6-9.6
				C96-41.302,100.298-45.6,105.6-45.6z"/>
			<path fill="#231F20" d="M57.6-21.6c5.301,0,9.6,4.298,9.6,9.6c0,5.301-4.299,9.6-9.6,9.6C52.298-2.4,48-6.699,48-12
				C48-17.302,52.298-21.6,57.6-21.6z"/>
			<path fill="#231F20" d="M81.6-21.6c5.301,0,9.6,4.298,9.6,9.6c0,5.301-4.299,9.6-9.6,9.6C76.298-2.4,72-6.699,72-12
				C72-17.302,76.298-21.6,81.6-21.6z"/>
			<path fill="#231F20" d="M105.6-21.6c5.301,0,9.6,4.298,9.6,9.6c0,5.301-4.299,9.6-9.6,9.6c-5.302,0-9.6-4.299-9.6-9.6
				C96-17.302,100.298-21.6,105.6-21.6z"/>
			<path fill="#231F20" d="M9.6-21.6c5.301,0,9.6,4.298,9.6,9.6c0,5.301-4.299,9.6-9.6,9.6C4.298-2.4,0-6.699,0-12
				C0-17.302,4.298-21.6,9.6-21.6z"/>
			<path fill="#231F20" d="M9.6-12"/>
			<path fill="#231F20" d="M117.6-38.4c-5.302,0-9.6-4.299-9.6-9.6c0-5.302,4.298-9.6,9.6-9.6V-38.4z"/>
			<path fill="#231F20" d="M93.6-57.6c5.301,0,9.6,4.298,9.6,9.6c0,5.301-4.299,9.6-9.6,9.6c-5.302,0-9.6-4.299-9.6-9.6
				C84-53.302,88.298-57.6,93.6-57.6z"/>
			<path fill="#231F20" d="M69.6-57.6c5.301,0,9.6,4.298,9.6,9.6c0,5.301-4.299,9.6-9.6,9.6c-5.302,0-9.6-4.299-9.6-9.6
				C60-53.302,64.298-57.6,69.6-57.6z"/>
			<path fill="#231F20" d="M45.6-57.6c5.301,0,9.6,4.298,9.6,9.6c0,5.301-4.299,9.6-9.6,9.6V-57.6z"/>
			<path fill="#231F20" d="M117.6-14.4c-5.302,0-9.6-4.299-9.6-9.6c0-5.302,4.298-9.6,9.6-9.6V-14.4z"/>
			<path fill="#231F20" d="M93.6-33.6c5.301,0,9.6,4.298,9.6,9.6c0,5.301-4.299,9.6-9.6,9.6c-5.302,0-9.6-4.299-9.6-9.6
				C84-29.302,88.298-33.6,93.6-33.6z"/>
			<path fill="#231F20" d="M69.6-33.6c5.301,0,9.6,4.298,9.6,9.6c0,5.301-4.299,9.6-9.6,9.6c-5.302,0-9.6-4.299-9.6-9.6
				C60-29.302,64.298-33.6,69.6-33.6z"/>
			<path fill="#231F20" d="M45.6-33.6c5.301,0,9.6,4.298,9.6,9.6c0,5.301-4.299,9.6-9.6,9.6V-33.6z"/>
			<path fill="#231F20" d="M84,0c0-5.302,4.298-9.6,9.6-9.6c5.301,0,9.6,4.298,9.6,9.6H84z"/>
			<path fill="#231F20" d="M60,0c0-5.302,4.298-9.6,9.6-9.6c5.301,0,9.6,4.298,9.6,9.6H60z"/>
			<path fill="#231F20" d="M103.2-72c0,5.301-4.299,9.6-9.6,9.6c-5.302,0-9.6-4.299-9.6-9.6H103.2z"/>
			<path fill="#231F20" d="M79.2-72c0,5.301-4.299,9.6-9.6,9.6c-5.302,0-9.6-4.299-9.6-9.6H79.2z"/>
			<path fill="#231F20" d="M21.6-33.6c5.301,0,9.6,4.298,9.6,9.6c0,5.301-4.299,9.6-9.6,9.6c-5.302,0-9.6-4.299-9.6-9.6
				C12-29.302,16.298-33.6,21.6-33.6z"/>
			<path fill="#231F20" d="M21.6-24"/>
		</g>
	</g>
</pattern>
<pattern  x="-383.5" y="308.5" width="48" height="48" patternUnits="userSpaceOnUse" id="SVGID_5_" viewBox="57.6 -60 48 48" overflow="visible">
	<g>
		<polygon fill="none" points="57.6,-12 105.6,-12 105.6,-60 57.6,-60 		"/>
		<g>
			<polygon fill="none" points="57.6,-60 57.6,-12 105.6,-12 105.6,-60 			"/>
			<path fill="#231F20" d="M57.6-69.6c5.301,0,9.6,4.298,9.6,9.6c0,5.301-4.299,9.6-9.6,9.6c-5.302,0-9.6-4.299-9.6-9.6
				C48-65.302,52.298-69.6,57.6-69.6z"/>
			<path fill="#231F20" d="M81.6-69.6c5.301,0,9.6,4.298,9.6,9.6c0,5.301-4.299,9.6-9.6,9.6c-5.302,0-9.6-4.299-9.6-9.6
				C72-65.302,76.298-69.6,81.6-69.6z"/>
			<path fill="#231F20" d="M105.6-69.6c5.301,0,9.6,4.298,9.6,9.6c0,5.301-4.299,9.6-9.6,9.6c-5.302,0-9.6-4.299-9.6-9.6
				C96-65.302,100.298-69.6,105.6-69.6z"/>
			<path fill="#231F20" d="M57.6-45.6c5.301,0,9.6,4.298,9.6,9.6c0,5.301-4.299,9.6-9.6,9.6c-5.302,0-9.6-4.299-9.6-9.6
				C48-41.302,52.298-45.6,57.6-45.6z"/>
			<path fill="#231F20" d="M81.6-45.6c5.301,0,9.6,4.298,9.6,9.6c0,5.301-4.299,9.6-9.6,9.6c-5.302,0-9.6-4.299-9.6-9.6
				C72-41.302,76.298-45.6,81.6-45.6z"/>
			<path fill="#231F20" d="M105.6-45.6c5.301,0,9.6,4.298,9.6,9.6c0,5.301-4.299,9.6-9.6,9.6c-5.302,0-9.6-4.299-9.6-9.6
				C96-41.302,100.298-45.6,105.6-45.6z"/>
			<path fill="#231F20" d="M57.6-21.6c5.301,0,9.6,4.298,9.6,9.6c0,5.301-4.299,9.6-9.6,9.6C52.298-2.4,48-6.699,48-12
				C48-17.302,52.298-21.6,57.6-21.6z"/>
			<path fill="#231F20" d="M81.6-21.6c5.301,0,9.6,4.298,9.6,9.6c0,5.301-4.299,9.6-9.6,9.6C76.298-2.4,72-6.699,72-12
				C72-17.302,76.298-21.6,81.6-21.6z"/>
			<path fill="#231F20" d="M105.6-21.6c5.301,0,9.6,4.298,9.6,9.6c0,5.301-4.299,9.6-9.6,9.6c-5.302,0-9.6-4.299-9.6-9.6
				C96-17.302,100.298-21.6,105.6-21.6z"/>
			<path fill="#231F20" d="M9.6-21.6c5.301,0,9.6,4.298,9.6,9.6c0,5.301-4.299,9.6-9.6,9.6C4.298-2.4,0-6.699,0-12
				C0-17.302,4.298-21.6,9.6-21.6z"/>
			<path fill="#231F20" d="M9.6-12"/>
			<path fill="#231F20" d="M117.6-38.4c-5.302,0-9.6-4.299-9.6-9.6c0-5.302,4.298-9.6,9.6-9.6V-38.4z"/>
			<path fill="#231F20" d="M93.6-57.6c5.301,0,9.6,4.298,9.6,9.6c0,5.301-4.299,9.6-9.6,9.6c-5.302,0-9.6-4.299-9.6-9.6
				C84-53.302,88.298-57.6,93.6-57.6z"/>
			<path fill="#231F20" d="M69.6-57.6c5.301,0,9.6,4.298,9.6,9.6c0,5.301-4.299,9.6-9.6,9.6c-5.302,0-9.6-4.299-9.6-9.6
				C60-53.302,64.298-57.6,69.6-57.6z"/>
			<path fill="#231F20" d="M45.6-57.6c5.301,0,9.6,4.298,9.6,9.6c0,5.301-4.299,9.6-9.6,9.6V-57.6z"/>
			<path fill="#231F20" d="M117.6-14.4c-5.302,0-9.6-4.299-9.6-9.6c0-5.302,4.298-9.6,9.6-9.6V-14.4z"/>
			<path fill="#231F20" d="M93.6-33.6c5.301,0,9.6,4.298,9.6,9.6c0,5.301-4.299,9.6-9.6,9.6c-5.302,0-9.6-4.299-9.6-9.6
				C84-29.302,88.298-33.6,93.6-33.6z"/>
			<path fill="#231F20" d="M69.6-33.6c5.301,0,9.6,4.298,9.6,9.6c0,5.301-4.299,9.6-9.6,9.6c-5.302,0-9.6-4.299-9.6-9.6
				C60-29.302,64.298-33.6,69.6-33.6z"/>
			<path fill="#231F20" d="M45.6-33.6c5.301,0,9.6,4.298,9.6,9.6c0,5.301-4.299,9.6-9.6,9.6V-33.6z"/>
			<path fill="#231F20" d="M84,0c0-5.302,4.298-9.6,9.6-9.6c5.301,0,9.6,4.298,9.6,9.6H84z"/>
			<path fill="#231F20" d="M60,0c0-5.302,4.298-9.6,9.6-9.6c5.301,0,9.6,4.298,9.6,9.6H60z"/>
			<path fill="#231F20" d="M103.2-72c0,5.301-4.299,9.6-9.6,9.6c-5.302,0-9.6-4.299-9.6-9.6H103.2z"/>
			<path fill="#231F20" d="M79.2-72c0,5.301-4.299,9.6-9.6,9.6c-5.302,0-9.6-4.299-9.6-9.6H79.2z"/>
			<path fill="#231F20" d="M21.6-33.6c5.301,0,9.6,4.298,9.6,9.6c0,5.301-4.299,9.6-9.6,9.6c-5.302,0-9.6-4.299-9.6-9.6
				C12-29.302,16.298-33.6,21.6-33.6z"/>
			<path fill="#231F20" d="M21.6-24"/>
		</g>
	</g>
</pattern>
<pattern  x="-383.5" y="308.5" width="48" height="48" patternUnits="userSpaceOnUse" id="SVGID_6_" viewBox="57.6 -60 48 48" overflow="visible">
	<g>
		<polygon fill="none" points="57.6,-12 105.6,-12 105.6,-60 57.6,-60 		"/>
		<g>
			<polygon fill="none" points="57.6,-60 57.6,-12 105.6,-12 105.6,-60 			"/>
			<path fill="#231F20" d="M57.6-69.6c5.301,0,9.6,4.298,9.6,9.6c0,5.301-4.299,9.6-9.6,9.6c-5.302,0-9.6-4.299-9.6-9.6
				C48-65.302,52.298-69.6,57.6-69.6z"/>
			<path fill="#231F20" d="M81.6-69.6c5.301,0,9.6,4.298,9.6,9.6c0,5.301-4.299,9.6-9.6,9.6c-5.302,0-9.6-4.299-9.6-9.6
				C72-65.302,76.298-69.6,81.6-69.6z"/>
			<path fill="#231F20" d="M105.6-69.6c5.301,0,9.6,4.298,9.6,9.6c0,5.301-4.299,9.6-9.6,9.6c-5.302,0-9.6-4.299-9.6-9.6
				C96-65.302,100.298-69.6,105.6-69.6z"/>
			<path fill="#231F20" d="M57.6-45.6c5.301,0,9.6,4.298,9.6,9.6c0,5.301-4.299,9.6-9.6,9.6c-5.302,0-9.6-4.299-9.6-9.6
				C48-41.302,52.298-45.6,57.6-45.6z"/>
			<path fill="#231F20" d="M81.6-45.6c5.301,0,9.6,4.298,9.6,9.6c0,5.301-4.299,9.6-9.6,9.6c-5.302,0-9.6-4.299-9.6-9.6
				C72-41.302,76.298-45.6,81.6-45.6z"/>
			<path fill="#231F20" d="M105.6-45.6c5.301,0,9.6,4.298,9.6,9.6c0,5.301-4.299,9.6-9.6,9.6c-5.302,0-9.6-4.299-9.6-9.6
				C96-41.302,100.298-45.6,105.6-45.6z"/>
			<path fill="#231F20" d="M57.6-21.6c5.301,0,9.6,4.298,9.6,9.6c0,5.301-4.299,9.6-9.6,9.6C52.298-2.4,48-6.699,48-12
				C48-17.302,52.298-21.6,57.6-21.6z"/>
			<path fill="#231F20" d="M81.6-21.6c5.301,0,9.6,4.298,9.6,9.6c0,5.301-4.299,9.6-9.6,9.6C76.298-2.4,72-6.699,72-12
				C72-17.302,76.298-21.6,81.6-21.6z"/>
			<path fill="#231F20" d="M105.6-21.6c5.301,0,9.6,4.298,9.6,9.6c0,5.301-4.299,9.6-9.6,9.6c-5.302,0-9.6-4.299-9.6-9.6
				C96-17.302,100.298-21.6,105.6-21.6z"/>
			<path fill="#231F20" d="M9.6-21.6c5.301,0,9.6,4.298,9.6,9.6c0,5.301-4.299,9.6-9.6,9.6C4.298-2.4,0-6.699,0-12
				C0-17.302,4.298-21.6,9.6-21.6z"/>
			<path fill="#231F20" d="M9.6-12"/>
			<path fill="#231F20" d="M117.6-38.4c-5.302,0-9.6-4.299-9.6-9.6c0-5.302,4.298-9.6,9.6-9.6V-38.4z"/>
			<path fill="#231F20" d="M93.6-57.6c5.301,0,9.6,4.298,9.6,9.6c0,5.301-4.299,9.6-9.6,9.6c-5.302,0-9.6-4.299-9.6-9.6
				C84-53.302,88.298-57.6,93.6-57.6z"/>
			<path fill="#231F20" d="M69.6-57.6c5.301,0,9.6,4.298,9.6,9.6c0,5.301-4.299,9.6-9.6,9.6c-5.302,0-9.6-4.299-9.6-9.6
				C60-53.302,64.298-57.6,69.6-57.6z"/>
			<path fill="#231F20" d="M45.6-57.6c5.301,0,9.6,4.298,9.6,9.6c0,5.301-4.299,9.6-9.6,9.6V-57.6z"/>
			<path fill="#231F20" d="M117.6-14.4c-5.302,0-9.6-4.299-9.6-9.6c0-5.302,4.298-9.6,9.6-9.6V-14.4z"/>
			<path fill="#231F20" d="M93.6-33.6c5.301,0,9.6,4.298,9.6,9.6c0,5.301-4.299,9.6-9.6,9.6c-5.302,0-9.6-4.299-9.6-9.6
				C84-29.302,88.298-33.6,93.6-33.6z"/>
			<path fill="#231F20" d="M69.6-33.6c5.301,0,9.6,4.298,9.6,9.6c0,5.301-4.299,9.6-9.6,9.6c-5.302,0-9.6-4.299-9.6-9.6
				C60-29.302,64.298-33.6,69.6-33.6z"/>
			<path fill="#231F20" d="M45.6-33.6c5.301,0,9.6,4.298,9.6,9.6c0,5.301-4.299,9.6-9.6,9.6V-33.6z"/>
			<path fill="#231F20" d="M84,0c0-5.302,4.298-9.6,9.6-9.6c5.301,0,9.6,4.298,9.6,9.6H84z"/>
			<path fill="#231F20" d="M60,0c0-5.302,4.298-9.6,9.6-9.6c5.301,0,9.6,4.298,9.6,9.6H60z"/>
			<path fill="#231F20" d="M103.2-72c0,5.301-4.299,9.6-9.6,9.6c-5.302,0-9.6-4.299-9.6-9.6H103.2z"/>
			<path fill="#231F20" d="M79.2-72c0,5.301-4.299,9.6-9.6,9.6c-5.302,0-9.6-4.299-9.6-9.6H79.2z"/>
			<path fill="#231F20" d="M21.6-33.6c5.301,0,9.6,4.298,9.6,9.6c0,5.301-4.299,9.6-9.6,9.6c-5.302,0-9.6-4.299-9.6-9.6
				C12-29.302,16.298-33.6,21.6-33.6z"/>
			<path fill="#231F20" d="M21.6-24"/>
		</g>
	</g>
</pattern>
<pattern  id="SVGID_1_" xlink:href="#Hatching2" patternTransform="matrix(1 0 0 -1 -382.8359 -17488.7422)">
</pattern>
<polygon fill="url(#SVGID_1_)" stroke="#000000" stroke-width="0.25" points="47.938,54 20.312,54 20.312,44.251 20.312,32.5 
	47.938,32.5 "/>
<polyline fill="#FFFFFF" points="25.084,42.425 25.084,39.25 32.562,39.234 32.712,38.25 42.938,38.25 42.938,42.62 "/>
<g>
	<path d="M-41.415,18.091c-0.883,1.062-2.244,1.729-3.734,1.729c-2.721,0-4.946-2.223-4.946-4.943c0-2.744,2.226-4.947,4.946-4.947
		c2.72,0,4.945,2.203,4.945,4.947c0,0.3-0.023,0.58-0.085,0.884h-6.954c0.127,0.345,0.302,0.647,0.539,0.906
		c0.454,0.497,1.036,0.759,1.664,0.759c0.58,0,1.164-0.262,1.595-0.695L-41.415,18.091z M-42.816,14.118
		c-0.11-0.388-0.302-0.753-0.582-1.06c-0.434-0.474-1.037-0.731-1.642-0.731c-0.628,0-1.21,0.259-1.664,0.731
		c-0.26,0.307-0.454,0.672-0.583,1.06H-42.816z"/>
</g>
<path fill="none" stroke="#FFFFFF" stroke-width="0.9872" stroke-linecap="square" d="M-42.275,21.234c0,0,0.904-0.265,1.561-0.814
	c0.636-0.537,1.392-1.245,1.392-1.245"/>
<path fill="none" stroke="#000000" stroke-width="2.6532" d="M-37.598,14.875c0,4.168-3.381,7.551-7.553,7.551
	c-4.172,0-7.553-3.383-7.553-7.551c0-4.171,3.381-7.552,7.553-7.552"/>
<path fill="none" stroke="#000000" stroke-width="2.6537" d="M-43.494,4.284c0-1.677,1.363-3.04,3.043-3.04
	c1.676,0,3.036,1.362,3.036,3.04c0,1.679-1.36,3.039-3.036,3.039"/>
<line fill="none" stroke="#000000" stroke-width="2.6532" x1="-45.211" y1="7.323" x2="-40.451" y2="7.323"/>
<path fill="none" stroke="#000000" stroke-width="2.6532" d="M-38.775,11.225c0.746,1.168,1.178,2.56,1.178,4.049"/>
<path fill="none" stroke="#000000" stroke-width="2.3075" d="M-45.213,6.672"/>
<path fill="none" stroke="#000000" stroke-width="2.3077" d="M-42.1,23.527"/>
<path fill="none" stroke="#000000" stroke-width="2.3077" d="M-42.1,25.059"/>
<path fill="none" stroke="#000000" stroke-width="2.6532" d="M-52.849,20.58c-1.17,0.746-2.56,1.178-4.049,1.178"/>
<path fill="none" stroke="#000000" stroke-width="2" d="M-57,19"/>
<g>
	<path fill="none" stroke="#050505" stroke-width="0.25" d="M-8.625,45.152c1.719,0,1.719,1.996,3.438,1.996
		c1.719,0,1.72-1.996,3.438-1.996c1.718,0,1.718,1.996,3.436,1.996c1.719,0,1.719-1.996,3.438-1.996s1.72,1.996,3.438,1.996
		c1.721,0,1.721-1.996,3.44-1.996c1.723,0,1.723,1.996,3.445,1.996c1.722,0,1.723-1.996,3.444-1.996"/>
</g>
<path fill="none" stroke="#000000" stroke-width="2" d="M-5.334,13.914"/>
<g>
	<path fill="#F64448" d="M34.925,40.146c0,0.455-0.386,0.815-0.842,0.815s-0.802-0.36-0.802-0.815c0-0.457,0.346-0.857,0.802-0.857
		S34.925,39.689,34.925,40.146z"/>
</g>
<polygon fill="none" stroke="#000000" stroke-width="0.5" points="25.084,48.333 42.417,48.333 42.417,38.417 32.584,38.417 
	32.562,39.234 25.084,39.25 "/>
<g>
	<path fill="#D94448" d="M34.083,40.977c-0.456,0-0.817-0.373-0.817-0.83c0-0.455,0.361-0.856,0.817-0.856"/>
</g>
<rect x="25.084" y="41.875" width="17.333" height="6.458"/>
<pattern  id="SVGID_2_" xlink:href="#SVGID_3_" patternTransform="matrix(1 0 0 -1 -397.6001 -17445.875)">
</pattern>
<line fill="none" stroke="url(#SVGID_2_)" stroke-width="0.33" x1="26.312" y1="41.422" x2="41.414" y2="41.422"/>
<g>
	<g>
		<g>
			<path fill="#FFFFFF" d="M31.98,43.02c0-0.063,0.045-0.125,0.108-0.125s0.112,0.062,0.112,0.125c0,0.064-0.049,0.106-0.112,0.106
				S31.98,43.084,31.98,43.02z"/>
		</g>
		<g>
			<path fill="#FFFFFF" d="M31.439,43.02c0-0.063,0.062-0.106,0.127-0.106c0.065,0,0.115,0.043,0.115,0.106
				c0,0.064-0.051,0.105-0.115,0.105C31.503,43.125,31.439,43.084,31.439,43.02z"/>
		</g>
		<g>
			<path fill="#FFFFFF" d="M30.953,43.02c0-0.063,0.059-0.109,0.123-0.109s0.111,0.046,0.111,0.109c0,0.064-0.047,0.117-0.111,0.117
				S30.953,43.084,30.953,43.02z"/>
		</g>
		<g>
			<path fill="#FFFFFF" d="M29.913,43.02c0-0.063,0.044-0.119,0.108-0.119c0.063,0,0.127,0.056,0.127,0.119
				c0,0.064-0.062,0.121-0.127,0.121C29.956,43.141,29.913,43.084,29.913,43.02z"/>
		</g>
		<g>
			<path fill="#FFFFFF" d="M29.455,43.02c0-0.063,0.048-0.127,0.111-0.127c0.064,0,0.123,0.062,0.123,0.127
				c0,0.065-0.059,0.121-0.123,0.121C29.503,43.141,29.455,43.084,29.455,43.02z"/>
		</g>
		<g>
			<path fill="#FFFFFF" d="M28.947,43.02c0-0.063,0.064-0.123,0.129-0.123s0.125,0.06,0.125,0.123c0,0.064-0.061,0.125-0.125,0.125
				S28.947,43.084,28.947,43.02z"/>
		</g>
		<g>
			<path fill="#FFFFFF" d="M27.505,43.02c0-0.063,0.063-0.123,0.128-0.123c0.065,0,0.125,0.06,0.125,0.123
				c0,0.064-0.061,0.11-0.125,0.11S27.505,43.084,27.505,43.02z"/>
		</g>
		<g>
			<path fill="#FFFFFF" d="M26.962,43.02c0-0.063,0.05-0.109,0.114-0.109s0.128,0.046,0.128,0.109c0,0.064-0.063,0.117-0.128,0.117
				S26.962,43.084,26.962,43.02z"/>
		</g>
		<g>
			<path fill="#FFFFFF" d="M28.477,43.02c0-0.063,0.063-0.112,0.129-0.112c0.064,0,0.104,0.049,0.104,0.112
				c0,0.064-0.041,0.127-0.104,0.127C28.541,43.146,28.477,43.084,28.477,43.02z"/>
		</g>
		<g>
			<path fill="#FFFFFF" d="M28.042,43.02c0-0.063,0.063-0.106,0.128-0.106s0.124,0.043,0.124,0.106c0,0.064-0.06,0.117-0.124,0.117
				S28.042,43.084,28.042,43.02z"/>
		</g>
		<g>
			<path fill="#FFFFFF" d="M25.938,43.02c0-0.063,0.051-0.123,0.115-0.123s0.108,0.06,0.108,0.123c0,0.064-0.044,0.129-0.108,0.129
				S25.938,43.084,25.938,43.02z"/>
		</g>
		<g>
			<path fill="#FFFFFF" d="M26.418,43.02c0-0.063,0.043-0.121,0.107-0.121c0.063,0,0.111,0.058,0.111,0.121
				c0,0.064-0.048,0.116-0.111,0.116C26.461,43.136,26.418,43.084,26.418,43.02z"/>
		</g>
		<g>
			<path fill="#FFFFFF" d="M25.354,43.02c0-0.063,0.051-0.119,0.115-0.119s0.108,0.056,0.108,0.119c0,0.064-0.044,0.119-0.108,0.119
				S25.354,43.084,25.354,43.02z"/>
		</g>
		<g>
			<path fill="#FFFFFF" d="M30.4,43.02c0-0.063,0.063-0.127,0.129-0.127c0.064,0,0.109,0.062,0.109,0.127
				c0,0.065-0.046,0.111-0.109,0.111C30.465,43.131,30.4,43.084,30.4,43.02z"/>
		</g>
	</g>
</g>
<pattern  id="SVGID_7_" xlink:href="#SVGID_4_" patternTransform="matrix(1 0 0 -1 -397.6001 -17445.875)">
</pattern>
<line fill="none" stroke="url(#SVGID_7_)" x1="25.084" y1="39.75" x2="25.084" y2="41.422"/>
<pattern  id="SVGID_8_" xlink:href="#SVGID_5_" patternTransform="matrix(1 0 0 -1 -380.2671 -17445.4355)">
</pattern>
<line fill="none" stroke="url(#SVGID_8_)" x1="42.417" y1="39.311" x2="42.417" y2="40.982"/>
<pattern  id="SVGID_9_" xlink:href="#SVGID_6_" patternTransform="matrix(1 0 0 -1 -397.3735 -17445.875)">
</pattern>
<line fill="none" stroke="url(#SVGID_9_)" stroke-width="0.33" stroke-linecap="square" x1="41.414" y1="41.422" x2="41.414" y2="38.417"/>
<text transform="matrix(1 0 0 1 28.6279 40.5859)" font-family="'ProximaNova-Bold'" font-size="1">ES</text>
<rect x="30.178" y="39.768" width="1.397" height="0.879"/>
<line fill="none" stroke="#FFFFFF" stroke-width="0.2699" x1="25.084" y1="48.229" x2="42.417" y2="48.229"/>
<g>
	<circle fill="#FFFFFF" cx="25.416" cy="42.254" r="0.117"/>
	<circle fill="#FFFFFF" cx="25.938" cy="42.254" r="0.117"/>
	<circle fill="#FFFFFF" cx="26.43" cy="42.254" r="0.117"/>
	<circle fill="#FFFFFF" cx="27.484" cy="42.254" r="0.117"/>
	<circle fill="#FFFFFF" cx="27.938" cy="42.254" r="0.117"/>
	<circle fill="#FFFFFF" cx="28.43" cy="42.254" r="0.117"/>
	<circle fill="#FFFFFF" cx="29.873" cy="42.254" r="0.117"/>
	<circle fill="#FFFFFF" cx="30.43" cy="42.254" r="0.117"/>
	<circle fill="#FFFFFF" cx="28.9" cy="42.254" r="0.117"/>
	<circle fill="#FFFFFF" cx="29.336" cy="42.254" r="0.117"/>
	<circle fill="#FFFFFF" cx="31.453" cy="42.254" r="0.117"/>
	<circle fill="#FFFFFF" cx="30.98" cy="42.254" r="0.117"/>
	<circle fill="#FFFFFF" cx="32.037" cy="42.254" r="0.117"/>
	<circle fill="#FFFFFF" cx="26.977" cy="42.254" r="0.117"/>
</g>
<g>
	<circle fill="#FFFFFF" cx="25.708" cy="42.646" r="0.117"/>
	<circle fill="#FFFFFF" cx="26.23" cy="42.646" r="0.117"/>
	<circle fill="#FFFFFF" cx="26.723" cy="42.646" r="0.117"/>
	<circle fill="#FFFFFF" cx="27.775" cy="42.646" r="0.117"/>
	<circle fill="#FFFFFF" cx="28.23" cy="42.646" r="0.117"/>
	<circle fill="#FFFFFF" cx="28.723" cy="42.646" r="0.117"/>
	<circle fill="#FFFFFF" cx="30.165" cy="42.646" r="0.117"/>
	<circle fill="#FFFFFF" cx="30.723" cy="42.646" r="0.117"/>
	<circle fill="#FFFFFF" cx="29.193" cy="42.646" r="0.117"/>
	<circle fill="#FFFFFF" cx="29.628" cy="42.646" r="0.117"/>
	<circle fill="#FFFFFF" cx="31.745" cy="42.646" r="0.117"/>
	<circle fill="#FFFFFF" cx="31.271" cy="42.646" r="0.117"/>
	<circle fill="#FFFFFF" cx="32.329" cy="42.646" r="0.117"/>
	<circle fill="#FFFFFF" cx="27.27" cy="42.646" r="0.117"/>
</g>
<g>
	<g>
		<g>
			<path fill="#FFFFFF" d="M25.654,43.736c0,0.064-0.062,0.123-0.127,0.123c-0.063,0-0.115-0.059-0.115-0.123
				c0-0.063,0.052-0.118,0.115-0.118C25.592,43.618,25.654,43.673,25.654,43.736z"/>
		</g>
		<g>
			<path fill="#FFFFFF" d="M26.177,43.736c0,0.064-0.062,0.115-0.126,0.115s-0.115-0.051-0.115-0.115
				c0-0.063,0.051-0.116,0.115-0.116S26.177,43.673,26.177,43.736z"/>
		</g>
		<g>
			<path fill="#FFFFFF" d="M26.652,43.736c0,0.064-0.047,0.115-0.11,0.115s-0.127-0.051-0.127-0.115
				c0-0.063,0.062-0.123,0.127-0.123S26.652,43.673,26.652,43.736z"/>
		</g>
		<g>
			<path fill="#FFFFFF" d="M27.71,43.736c0,0.064-0.049,0.115-0.112,0.115c-0.064,0-0.121-0.051-0.121-0.115
				c0-0.063,0.057-0.127,0.121-0.127C27.661,43.609,27.71,43.673,27.71,43.736z"/>
		</g>
		<g>
			<path fill="#FFFFFF" d="M28.18,43.736c0,0.064-0.063,0.115-0.129,0.115c-0.064,0-0.113-0.051-0.113-0.115
				c0-0.063,0.049-0.125,0.113-0.125S28.18,43.673,28.18,43.736z"/>
		</g>
		<g>
			<path fill="#FFFFFF" d="M28.661,43.736c0,0.064-0.056,0.117-0.119,0.117s-0.123-0.053-0.123-0.117
				c0-0.063,0.06-0.105,0.123-0.105S28.661,43.673,28.661,43.736z"/>
		</g>
		<g>
			<path fill="#FFFFFF" d="M30.102,43.736c0,0.064-0.052,0.119-0.115,0.119c-0.064,0-0.129-0.055-0.129-0.119
				c0-0.063,0.063-0.105,0.129-0.105C30.051,43.631,30.102,43.673,30.102,43.736z"/>
		</g>
		<g>
			<path fill="#FFFFFF" d="M30.65,43.736c0,0.064-0.045,0.119-0.108,0.119s-0.108-0.055-0.108-0.119
				c0-0.063,0.045-0.125,0.108-0.125S30.65,43.673,30.65,43.736z"/>
		</g>
		<g>
			<path fill="#FFFFFF" d="M29.122,43.736c0,0.064-0.044,0.123-0.108,0.123c-0.063,0-0.115-0.059-0.115-0.123
				c0-0.063,0.052-0.123,0.115-0.123C29.078,43.613,29.122,43.673,29.122,43.736z"/>
		</g>
		<g>
			<path fill="#FFFFFF" d="M29.562,43.736c0,0.064-0.051,0.107-0.114,0.107c-0.064,0-0.111-0.043-0.111-0.107
				c0-0.063,0.047-0.129,0.111-0.129C29.512,43.607,29.562,43.673,29.562,43.736z"/>
		</g>
		<g>
			<path fill="#FFFFFF" d="M31.682,43.736c0,0.064-0.052,0.106-0.115,0.106c-0.064,0-0.108-0.042-0.108-0.106
				c0-0.063,0.044-0.121,0.108-0.121C31.63,43.615,31.682,43.673,31.682,43.736z"/>
		</g>
		<g>
			<path fill="#FFFFFF" d="M31.216,43.736c0,0.064-0.059,0.125-0.123,0.125c-0.063,0-0.112-0.061-0.112-0.125
				c0-0.063,0.049-0.108,0.112-0.108C31.157,43.628,31.216,43.673,31.216,43.736z"/>
		</g>
		<g>
			<path fill="#FFFFFF" d="M32.258,43.736c0,0.064-0.044,0.128-0.107,0.128c-0.064,0-0.114-0.062-0.114-0.128
				c0-0.064,0.05-0.127,0.114-0.127C32.214,43.609,32.258,43.673,32.258,43.736z"/>
		</g>
		<g>
			<path fill="#FFFFFF" d="M27.218,43.736c0,0.064-0.063,0.117-0.129,0.117s-0.114-0.053-0.114-0.117
				c0-0.063,0.051-0.121,0.114-0.121S27.218,43.673,27.218,43.736z"/>
		</g>
	</g>
</g>
<g>
	<rect x="35.564" y="39.539" fill="#FFFFFF" stroke="#000000" stroke-width="0.1148" width="2.055" height="1.23"/>
	<path fill="none" stroke="#000000" stroke-width="0.287" d="M36.984,40.771"/>
	<path fill="none" stroke="#000000" stroke-width="0.287" d="M36.984,39.562"/>
	<line fill="none" stroke="#000000" stroke-width="0.1148" x1="37.25" y1="39.521" x2="37.25" y2="40.77"/>
	<line fill="none" stroke="#000000" stroke-width="0.1148" x1="37.438" y1="39.521" x2="37.438" y2="40.77"/>
	<line fill="none" stroke="#000000" stroke-width="0.1148" x1="36.984" y1="39.521" x2="36.984" y2="40.77"/>
	<line fill="none" stroke="#000000" stroke-width="0.1" x1="36.734" y1="39.521" x2="36.734" y2="40.771"/>
	<line fill="none" stroke="#000000" stroke-width="0.1" x1="36.484" y1="39.562" x2="36.484" y2="40.771"/>
	<line fill="none" stroke="#000000" stroke-width="0.1148" x1="35.781" y1="39.521" x2="35.781" y2="40.77"/>
	<line fill="none" stroke="#000000" stroke-width="0.1148" x1="35.969" y1="39.521" x2="35.969" y2="40.77"/>
	<line fill="none" stroke="#000000" stroke-width="0.1148" x1="36.219" y1="39.544" x2="36.219" y2="40.791"/>
</g>
<circle cx="33.258" cy="39.094" r="0.324"/>
<rect x="29.219" y="38.417" width="2.701" height="0.803"/>
<line fill="none" stroke="#000000" stroke-width="0.25" x1="29.336" y1="38.417" x2="31.745" y2="38.417"/>
<rect x="26.555" y="38.167" width="2.211" height="1.053"/>
<line fill="none" stroke="#000000" stroke-width="0.259" x1="26.648" y1="38.167" x2="28.622" y2="38.167"/>
<line fill="none" stroke="#000000" stroke-width="0.259" x1="26.766" y1="38.016" x2="28.477" y2="38.016"/>
<g>
	<rect x="26.766" y="38.693" fill="#FFFFFF" width="1.723" height="0.274"/>
	<line fill="none" stroke="#000000" stroke-width="0.25" x1="27.812" y1="38.578" x2="27.82" y2="38.969"/>
	<line fill="none" stroke="#000000" stroke-width="0.1" x1="28.113" y1="38.578" x2="28.113" y2="38.969"/>
	<line fill="none" stroke="#000000" stroke-width="0.1" x1="28.287" y1="38.578" x2="28.287" y2="38.969"/>
</g>
<g>
	<rect x="29.451" y="38.812" fill="#FFFFFF" width="1.722" height="0.16"/>
	<line fill="none" stroke="#000000" stroke-width="0.1907" x1="30.507" y1="38.693" x2="30.507" y2="38.975"/>
	<line fill="none" stroke="#000000" stroke-width="0.0763" x1="30.799" y1="38.693" x2="30.799" y2="38.975"/>
	<line fill="none" stroke="#000000" stroke-width="0.0763" x1="30.973" y1="38.693" x2="30.973" y2="38.975"/>
</g>
<g>
	<rect x="38.361" y="39.07" stroke="#000000" stroke-width="0.1421" width="2.295" height="1.688"/>
	<path stroke="#000000" stroke-width="0.3552" d="M39.947,40.76"/>
	<path stroke="#000000" stroke-width="0.3552" d="M39.947,39.104"/>
</g>
<text transform="matrix(1 0 0 1 34.9336 35.4375)" opacity="0.1" fill="#B7B7B7" enable-background="new    " font-family="'LakesightPersonalUseOnly'" font-size="3">ok.</text>
<text transform="matrix(1 0 0 1 34.8164 35.3125)" fill="#FFFFFF" font-family="'LakesightPersonalUseOnly'" font-size="3">ok</text>
<g>
	<g>
		<g>
			<path fill="#FFFFFF" d="M25.919,44.141c0,0.064-0.052,0.115-0.116,0.115s-0.119-0.051-0.119-0.115
				c0-0.063,0.055-0.119,0.119-0.119S25.919,44.076,25.919,44.141z"/>
		</g>
		<g>
			<circle fill="#FFFFFF" cx="26.323" cy="44.141" r="0.116"/>
		</g>
		<g>
			<circle fill="#FFFFFF" cx="26.818" cy="44.141" r="0.118"/>
		</g>
		<g>
			<circle fill="#FFFFFF" cx="27.873" cy="44.141" r="0.12"/>
		</g>
		<g>
			<path fill="#FFFFFF" d="M28.443,44.141c0,0.064-0.055,0.114-0.118,0.114s-0.122-0.05-0.122-0.114
				c0-0.063,0.059-0.121,0.122-0.121S28.443,44.076,28.443,44.141z"/>
		</g>
		<g>
			<circle fill="#FFFFFF" cx="28.816" cy="44.141" r="0.118"/>
		</g>
		<g>
			<circle fill="#FFFFFF" cx="30.258" cy="44.141" r="0.115"/>
		</g>
		<g>
			<path fill="#FFFFFF" d="M30.934,44.141c0,0.064-0.053,0.121-0.117,0.121c-0.063,0-0.121-0.057-0.121-0.121
				c0-0.063,0.058-0.113,0.121-0.113C30.881,44.027,30.934,44.076,30.934,44.141z"/>
		</g>
		<g>
			<circle fill="#FFFFFF" cx="29.288" cy="44.141" r="0.115"/>
		</g>
		<g>
			<circle fill="#FFFFFF" cx="29.727" cy="44.141" r="0.118"/>
		</g>
		<g>
			<circle fill="#FFFFFF" cx="31.84" cy="44.141" r="0.119"/>
		</g>
		<g>
			<circle fill="#FFFFFF" cx="31.367" cy="44.141" r="0.114"/>
		</g>
		<g>
			<ellipse fill="#FFFFFF" cx="32.423" cy="44.141" rx="0.121" ry="0.115"/>
		</g>
		<g>
			<circle fill="#FFFFFF" cx="27.363" cy="44.141" r="0.119"/>
		</g>
	</g>
</g>
<line fill="none" stroke="#FFFFFF" stroke-width="0.1" x1="38.582" y1="39.32" x2="40.436" y2="39.32"/>
<line fill="none" stroke="#FFFFFF" stroke-width="0.1" x1="38.582" y1="40.32" x2="40.436" y2="40.32"/>
<g>
	<g>
		<g>
			<path fill="#FFFFFF" d="M31.969,45.189c0-0.064,0.045-0.125,0.108-0.125s0.112,0.061,0.112,0.125
				c0,0.063-0.049,0.105-0.112,0.105S31.969,45.254,31.969,45.189z"/>
		</g>
		<g>
			<path fill="#FFFFFF" d="M31.427,45.189c0-0.064,0.063-0.107,0.128-0.107c0.065,0,0.114,0.043,0.114,0.107
				c0,0.063-0.05,0.104-0.114,0.104C31.491,45.294,31.427,45.254,31.427,45.189z"/>
		</g>
		<g>
			<path fill="#FFFFFF" d="M30.939,45.189c0-0.064,0.06-0.11,0.123-0.11c0.064,0,0.112,0.046,0.112,0.11
				c0,0.063-0.048,0.117-0.112,0.117C30.999,45.307,30.939,45.254,30.939,45.189z"/>
		</g>
		<g>
			<path fill="#FFFFFF" d="M29.9,45.189c0-0.064,0.043-0.121,0.107-0.121s0.129,0.057,0.129,0.121c0,0.063-0.063,0.121-0.129,0.121
				C29.943,45.311,29.9,45.254,29.9,45.189z"/>
		</g>
		<g>
			<path fill="#FFFFFF" d="M29.441,45.189c0-0.064,0.049-0.127,0.113-0.127c0.063,0,0.121,0.062,0.121,0.127
				c0,0.064-0.058,0.119-0.121,0.119C29.49,45.309,29.441,45.254,29.441,45.189z"/>
		</g>
		<g>
			<path fill="#FFFFFF" d="M28.936,45.189c0-0.064,0.063-0.123,0.129-0.123c0.064,0,0.125,0.059,0.125,0.123
				c0,0.063-0.062,0.125-0.125,0.125C29,45.314,28.936,45.254,28.936,45.189z"/>
		</g>
		<g>
			<path fill="#FFFFFF" d="M27.492,45.189c0-0.064,0.062-0.125,0.128-0.125s0.125,0.061,0.125,0.125
				c0,0.063-0.062,0.109-0.125,0.109S27.492,45.254,27.492,45.189z"/>
		</g>
		<g>
			<path fill="#FFFFFF" d="M26.949,45.189c0-0.064,0.05-0.11,0.113-0.11c0.064,0,0.129,0.046,0.129,0.11
				c0,0.063-0.063,0.117-0.129,0.117C26.998,45.307,26.949,45.254,26.949,45.189z"/>
		</g>
		<g>
			<path fill="#FFFFFF" d="M28.463,45.189c0-0.064,0.064-0.113,0.129-0.113c0.065,0,0.105,0.049,0.105,0.113
				c0,0.063-0.041,0.125-0.105,0.125S28.463,45.254,28.463,45.189z"/>
		</g>
		<g>
			<path fill="#FFFFFF" d="M28.029,45.189c0-0.064,0.062-0.107,0.128-0.107s0.124,0.043,0.124,0.107
				c0,0.063-0.061,0.117-0.124,0.117C28.093,45.307,28.029,45.254,28.029,45.189z"/>
		</g>
		<g>
			<path fill="#FFFFFF" d="M25.924,45.189c0-0.064,0.053-0.123,0.116-0.123s0.108,0.059,0.108,0.123
				c0,0.063-0.045,0.127-0.108,0.127S25.924,45.254,25.924,45.189z"/>
		</g>
		<g>
			<path fill="#FFFFFF" d="M26.404,45.189c0-0.064,0.044-0.123,0.107-0.123c0.064,0,0.112,0.059,0.112,0.123
				c0,0.063-0.048,0.115-0.112,0.115C26.448,45.305,26.404,45.254,26.404,45.189z"/>
		</g>
		<g>
			<path fill="#FFFFFF" d="M25.34,45.189c0-0.064,0.053-0.121,0.116-0.121s0.108,0.057,0.108,0.121c0,0.063-0.045,0.117-0.108,0.117
				S25.34,45.254,25.34,45.189z"/>
		</g>
		<g>
			<path fill="#FFFFFF" d="M30.389,45.189c0-0.064,0.063-0.127,0.129-0.127c0.064,0,0.109,0.062,0.109,0.127
				c0,0.064-0.046,0.11-0.109,0.11C30.453,45.3,30.389,45.254,30.389,45.189z"/>
		</g>
	</g>
</g>
<g>
	<circle fill="#FFFFFF" cx="25.695" cy="44.815" r="0.117"/>
	<circle fill="#FFFFFF" cx="26.218" cy="44.815" r="0.117"/>
	<circle fill="#FFFFFF" cx="26.709" cy="44.815" r="0.117"/>
	<circle fill="#FFFFFF" cx="27.764" cy="44.815" r="0.117"/>
	<circle fill="#FFFFFF" cx="28.218" cy="44.815" r="0.117"/>
	<circle fill="#FFFFFF" cx="28.709" cy="44.815" r="0.117"/>
	<circle fill="#FFFFFF" cx="30.152" cy="44.815" r="0.117"/>
	<circle fill="#FFFFFF" cx="30.709" cy="44.815" r="0.117"/>
	<circle fill="#FFFFFF" cx="29.182" cy="44.815" r="0.117"/>
	<circle fill="#FFFFFF" cx="29.615" cy="44.815" r="0.117"/>
	<circle fill="#FFFFFF" cx="31.732" cy="44.815" r="0.117"/>
	<circle fill="#FFFFFF" cx="31.26" cy="44.815" r="0.117"/>
	<circle fill="#FFFFFF" cx="32.316" cy="44.815" r="0.117"/>
	<circle fill="#FFFFFF" cx="27.256" cy="44.815" r="0.117"/>
</g>
<circle fill="#FFFFFF" cx="39.508" cy="39.821" r="0.208"/>
<g>
	<circle fill="#FFFFFF" cx="25.745" cy="43.375" r="0.117"/>
	<circle fill="#FFFFFF" cx="26.268" cy="43.375" r="0.117"/>
	<circle fill="#FFFFFF" cx="26.759" cy="43.375" r="0.117"/>
	<circle fill="#FFFFFF" cx="27.812" cy="43.375" r="0.117"/>
	<circle fill="#FFFFFF" cx="28.268" cy="43.375" r="0.117"/>
	<circle fill="#FFFFFF" cx="28.759" cy="43.375" r="0.117"/>
	<circle fill="#FFFFFF" cx="30.202" cy="43.375" r="0.117"/>
	<circle fill="#FFFFFF" cx="30.759" cy="43.375" r="0.117"/>
	<circle fill="#FFFFFF" cx="29.23" cy="43.375" r="0.117"/>
	<circle fill="#FFFFFF" cx="29.665" cy="43.375" r="0.117"/>
	<circle fill="#FFFFFF" cx="31.782" cy="43.375" r="0.117"/>
	<circle fill="#FFFFFF" cx="31.311" cy="43.375" r="0.117"/>
	<circle fill="#FFFFFF" cx="32.366" cy="43.375" r="0.117"/>
	<circle fill="#FFFFFF" cx="27.307" cy="43.375" r="0.117"/>
</g>
<g>
	<circle cx="35.141" cy="44.203" r="3.578"/>
	<circle fill="#FFFFFF" cx="35.141" cy="44.203" r="3.221"/>
	<circle cx="35.141" cy="44.203" r="2.898"/>
	<circle stroke="#FFFFFF" stroke-width="0.095" cx="35.141" cy="44.203" r="2.479"/>
</g>
<g>
	<g>
		<g>
			<path fill="#FFFFFF" d="M25.584,44.488c0,0.063-0.046,0.123-0.109,0.123c-0.064,0-0.111-0.06-0.111-0.123
				c0-0.064,0.047-0.119,0.111-0.119C25.538,44.369,25.584,44.424,25.584,44.488z"/>
		</g>
		<g>
			<path fill="#FFFFFF" d="M26.119,44.488c0,0.063-0.059,0.117-0.123,0.117s-0.109-0.054-0.109-0.117
				c0-0.064,0.045-0.111,0.109-0.111S26.119,44.424,26.119,44.488z"/>
		</g>
		<g>
			<ellipse fill="#FFFFFF" cx="26.49" cy="44.488" rx="0.121" ry="0.114"/>
		</g>
		<g>
			<path fill="#FFFFFF" d="M27.663,44.488c0,0.063-0.058,0.119-0.121,0.119s-0.114-0.056-0.114-0.119
				c0-0.064,0.051-0.117,0.114-0.117S27.663,44.424,27.663,44.488z"/>
		</g>
		<g>
			<path fill="#FFFFFF" d="M28.116,44.488c0,0.063-0.056,0.111-0.12,0.111s-0.113-0.048-0.113-0.111c0-0.064,0.049-0.11,0.113-0.11
				S28.116,44.424,28.116,44.488z"/>
		</g>
		<g>
			<ellipse fill="#FFFFFF" cx="28.488" cy="44.488" rx="0.111" ry="0.121"/>
		</g>
		<g>
			<path fill="#FFFFFF" d="M30.052,44.488c0,0.063-0.057,0.123-0.12,0.123c-0.064,0-0.111-0.06-0.111-0.123
				c0-0.064,0.047-0.111,0.111-0.111C29.995,44.377,30.052,44.424,30.052,44.488z"/>
		</g>
		<g>
			<circle fill="#FFFFFF" cx="30.488" cy="44.488" r="0.115"/>
		</g>
		<g>
			<path fill="#FFFFFF" d="M29.081,44.488c0,0.063-0.058,0.123-0.122,0.123s-0.117-0.06-0.117-0.123
				c0-0.064,0.053-0.114,0.117-0.114S29.081,44.424,29.081,44.488z"/>
		</g>
		<g>
			<circle fill="#FFFFFF" cx="29.391" cy="44.488" r="0.122"/>
		</g>
		<g>
			<path fill="#FFFFFF" d="M31.629,44.488c0,0.063-0.054,0.113-0.117,0.113c-0.064,0-0.123-0.05-0.123-0.113
				c0-0.064,0.059-0.122,0.123-0.122C31.575,44.366,31.629,44.424,31.629,44.488z"/>
		</g>
		<g>
			<path fill="#FFFFFF" d="M31.148,44.488c0,0.063-0.047,0.113-0.11,0.113s-0.111-0.05-0.111-0.113c0-0.064,0.048-0.111,0.111-0.111
				S31.148,44.424,31.148,44.488z"/>
		</g>
		<g>
			<path fill="#FFFFFF" d="M32.211,44.488c0,0.063-0.052,0.123-0.115,0.123c-0.064,0-0.123-0.06-0.123-0.123
				c0-0.064,0.059-0.11,0.123-0.11C32.159,44.378,32.211,44.424,32.211,44.488z"/>
		</g>
		<g>
			<path fill="#FFFFFF" d="M27.146,44.488c0,0.063-0.047,0.121-0.111,0.121s-0.119-0.058-0.119-0.121
				c0-0.064,0.055-0.122,0.119-0.122S27.146,44.424,27.146,44.488z"/>
		</g>
	</g>
</g>
<g>
	<g>
		<g>
			<path fill="#FFFFFF" d="M25.643,45.907c0,0.063-0.062,0.123-0.127,0.123c-0.063,0-0.115-0.06-0.115-0.123
				c0-0.064,0.052-0.119,0.115-0.119C25.58,45.788,25.643,45.843,25.643,45.907z"/>
		</g>
		<g>
			<path fill="#FFFFFF" d="M26.164,45.907c0,0.063-0.062,0.114-0.126,0.114s-0.115-0.051-0.115-0.114
				c0-0.064,0.052-0.117,0.115-0.117S26.164,45.843,26.164,45.907z"/>
		</g>
		<g>
			<path fill="#FFFFFF" d="M26.641,45.907c0,0.063-0.047,0.114-0.111,0.114c-0.063,0-0.127-0.051-0.127-0.114
				c0-0.064,0.062-0.124,0.127-0.124C26.596,45.783,26.641,45.843,26.641,45.907z"/>
		</g>
		<g>
			<path fill="#FFFFFF" d="M27.697,45.907c0,0.063-0.049,0.114-0.113,0.114s-0.12-0.051-0.12-0.114c0-0.064,0.056-0.128,0.12-0.128
				S27.697,45.843,27.697,45.907z"/>
		</g>
		<g>
			<path fill="#FFFFFF" d="M28.166,45.907c0,0.063-0.062,0.114-0.128,0.114s-0.114-0.051-0.114-0.114
				c0-0.064,0.051-0.125,0.114-0.125S28.166,45.843,28.166,45.907z"/>
		</g>
		<g>
			<path fill="#FFFFFF" d="M28.648,45.907c0,0.063-0.056,0.116-0.119,0.116c-0.064,0-0.123-0.053-0.123-0.116
				c0-0.064,0.059-0.106,0.123-0.106C28.593,45.801,28.648,45.843,28.648,45.907z"/>
		</g>
		<g>
			<path fill="#FFFFFF" d="M30.089,45.907c0,0.063-0.052,0.118-0.116,0.118c-0.063,0-0.127-0.055-0.127-0.118
				c0-0.064,0.062-0.106,0.127-0.106C30.038,45.801,30.089,45.843,30.089,45.907z"/>
		</g>
		<g>
			<path fill="#FFFFFF" d="M30.639,45.907c0,0.063-0.045,0.118-0.109,0.118c-0.063,0-0.107-0.055-0.107-0.118
				c0-0.064,0.044-0.125,0.107-0.125C30.594,45.782,30.639,45.843,30.639,45.907z"/>
		</g>
		<g>
			<path fill="#FFFFFF" d="M29.109,45.907c0,0.063-0.045,0.122-0.108,0.122s-0.116-0.059-0.116-0.122
				c0-0.064,0.053-0.124,0.116-0.124S29.109,45.843,29.109,45.907z"/>
		</g>
		<g>
			<path fill="#FFFFFF" d="M29.55,45.907c0,0.063-0.05,0.106-0.114,0.106c-0.063,0-0.11-0.043-0.11-0.106
				c0-0.064,0.047-0.13,0.11-0.13C29.5,45.777,29.55,45.843,29.55,45.907z"/>
		</g>
		<g>
			<path fill="#FFFFFF" d="M31.668,45.907c0,0.063-0.051,0.106-0.115,0.106s-0.107-0.043-0.107-0.106
				c0-0.064,0.043-0.122,0.107-0.122S31.668,45.843,31.668,45.907z"/>
		</g>
		<g>
			<path fill="#FFFFFF" d="M31.203,45.907c0,0.063-0.059,0.124-0.123,0.124s-0.113-0.061-0.113-0.124
				c0-0.064,0.049-0.109,0.113-0.109S31.203,45.843,31.203,45.907z"/>
		</g>
		<g>
			<path fill="#FFFFFF" d="M32.245,45.907c0,0.063-0.044,0.127-0.108,0.127s-0.113-0.062-0.113-0.127s0.05-0.128,0.113-0.128
				C32.201,45.779,32.245,45.843,32.245,45.907z"/>
		</g>
		<g>
			<path fill="#FFFFFF" d="M27.205,45.907c0,0.063-0.064,0.116-0.129,0.116s-0.115-0.053-0.115-0.116
				c0-0.064,0.051-0.122,0.115-0.122S27.205,45.843,27.205,45.907z"/>
		</g>
	</g>
</g>
<g>
	<g>
		<g>
			<path fill="#FFFFFF" d="M25.906,46.311c0,0.064-0.053,0.115-0.116,0.115s-0.119-0.051-0.119-0.115
				c0-0.063,0.056-0.119,0.119-0.119S25.906,46.246,25.906,46.311z"/>
		</g>
		<g>
			<circle fill="#FFFFFF" cx="26.311" cy="46.311" r="0.116"/>
		</g>
		<g>
			<circle fill="#FFFFFF" cx="26.805" cy="46.312" r="0.118"/>
		</g>
		<g>
			<circle fill="#FFFFFF" cx="27.859" cy="46.312" r="0.12"/>
		</g>
		<g>
			<path fill="#FFFFFF" d="M28.432,46.311c0,0.064-0.055,0.114-0.119,0.114c-0.063,0-0.121-0.05-0.121-0.114
				c0-0.063,0.058-0.121,0.121-0.121C28.377,46.189,28.432,46.246,28.432,46.311z"/>
		</g>
		<g>
			<circle fill="#FFFFFF" cx="28.805" cy="46.312" r="0.118"/>
		</g>
		<g>
			<circle fill="#FFFFFF" cx="30.245" cy="46.311" r="0.115"/>
		</g>
		<g>
			<path fill="#FFFFFF" d="M30.92,46.311c0,0.064-0.052,0.121-0.115,0.121c-0.064,0-0.121-0.057-0.121-0.121
				c0-0.063,0.057-0.112,0.121-0.112C30.868,46.198,30.92,46.246,30.92,46.311z"/>
		</g>
		<g>
			<circle fill="#FFFFFF" cx="29.275" cy="46.311" r="0.115"/>
		</g>
		<g>
			<circle fill="#FFFFFF" cx="29.713" cy="46.312" r="0.118"/>
		</g>
		<g>
			<circle fill="#FFFFFF" cx="31.828" cy="46.311" r="0.119"/>
		</g>
		<g>
			<circle fill="#FFFFFF" cx="31.354" cy="46.311" r="0.114"/>
		</g>
		<g>
			<ellipse fill="#FFFFFF" cx="32.411" cy="46.311" rx="0.121" ry="0.115"/>
		</g>
		<g>
			<circle fill="#FFFFFF" cx="27.352" cy="46.311" r="0.119"/>
		</g>
	</g>
</g>
<g>
	<circle fill="#FFFFFF" cx="25.732" cy="45.545" r="0.117"/>
	<circle fill="#FFFFFF" cx="26.255" cy="45.545" r="0.117"/>
	<circle fill="#FFFFFF" cx="26.746" cy="45.545" r="0.117"/>
	<circle fill="#FFFFFF" cx="27.801" cy="45.545" r="0.117"/>
	<circle fill="#FFFFFF" cx="28.255" cy="45.545" r="0.117"/>
	<circle fill="#FFFFFF" cx="28.746" cy="45.545" r="0.117"/>
	<circle fill="#FFFFFF" cx="30.189" cy="45.545" r="0.117"/>
	<circle fill="#FFFFFF" cx="30.746" cy="45.545" r="0.117"/>
	<circle fill="#FFFFFF" cx="29.218" cy="45.545" r="0.117"/>
	<circle fill="#FFFFFF" cx="29.652" cy="45.545" r="0.117"/>
	<circle fill="#FFFFFF" cx="31.77" cy="45.545" r="0.117"/>
	<circle fill="#FFFFFF" cx="31.297" cy="45.545" r="0.117"/>
	<circle fill="#FFFFFF" cx="32.354" cy="45.545" r="0.117"/>
	<circle fill="#FFFFFF" cx="27.293" cy="45.545" r="0.117"/>
</g>
<g>
	<g>
		<g>
			<path fill="#FFFFFF" d="M25.57,46.658c0,0.064-0.045,0.123-0.109,0.123s-0.109-0.059-0.109-0.123s0.045-0.119,0.109-0.119
				S25.57,46.594,25.57,46.658z"/>
		</g>
		<g>
			<path fill="#FFFFFF" d="M26.105,46.658c0,0.064-0.059,0.117-0.123,0.117c-0.063,0-0.109-0.053-0.109-0.117
				s0.046-0.111,0.109-0.111C26.047,46.547,26.105,46.594,26.105,46.658z"/>
		</g>
		<g>
			<ellipse fill="#FFFFFF" cx="26.477" cy="46.658" rx="0.123" ry="0.114"/>
		</g>
		<g>
			<path fill="#FFFFFF" d="M27.65,46.658c0,0.064-0.058,0.119-0.121,0.119c-0.064,0-0.114-0.055-0.114-0.119s0.05-0.117,0.114-0.117
				C27.593,46.541,27.65,46.594,27.65,46.658z"/>
		</g>
		<g>
			<path fill="#FFFFFF" d="M28.104,46.658c0,0.064-0.056,0.111-0.119,0.111c-0.064,0-0.113-0.047-0.113-0.111s0.049-0.11,0.113-0.11
				C28.048,46.548,28.104,46.594,28.104,46.658z"/>
		</g>
		<g>
			<ellipse fill="#FFFFFF" cx="28.475" cy="46.658" rx="0.112" ry="0.121"/>
		</g>
		<g>
			<path fill="#FFFFFF" d="M30.039,46.658c0,0.064-0.057,0.124-0.121,0.124s-0.109-0.06-0.109-0.124s0.045-0.111,0.109-0.111
				S30.039,46.594,30.039,46.658z"/>
		</g>
		<g>
			<circle fill="#FFFFFF" cx="30.477" cy="46.658" r="0.115"/>
		</g>
		<g>
			<path fill="#FFFFFF" d="M29.068,46.658c0,0.064-0.059,0.123-0.123,0.123c-0.063,0-0.116-0.059-0.116-0.123
				s0.053-0.114,0.116-0.114C29.01,46.544,29.068,46.594,29.068,46.658z"/>
		</g>
		<g>
			<circle fill="#FFFFFF" cx="29.378" cy="46.658" r="0.122"/>
		</g>
		<g>
			<path fill="#FFFFFF" d="M31.616,46.658c0,0.064-0.054,0.113-0.118,0.113s-0.123-0.049-0.123-0.113s0.059-0.122,0.123-0.122
				S31.616,46.594,31.616,46.658z"/>
		</g>
		<g>
			<path fill="#FFFFFF" d="M31.137,46.658c0,0.064-0.047,0.113-0.111,0.113c-0.063,0-0.11-0.049-0.11-0.113s0.047-0.111,0.11-0.111
				C31.09,46.547,31.137,46.594,31.137,46.658z"/>
		</g>
		<g>
			<path fill="#FFFFFF" d="M32.198,46.658c0,0.064-0.052,0.124-0.116,0.124s-0.123-0.06-0.123-0.124s0.059-0.11,0.123-0.11
				S32.198,46.594,32.198,46.658z"/>
		</g>
		<g>
			<path fill="#FFFFFF" d="M27.133,46.658c0,0.064-0.047,0.121-0.111,0.121c-0.063,0-0.119-0.057-0.119-0.121
				s0.056-0.122,0.119-0.122C27.086,46.536,27.133,46.594,27.133,46.658z"/>
		</g>
	</g>
</g>
<g>
	<path fill="#2E3842" d="M10.877,15.176c-1.989,0-3.696-0.709-5.125-2.125C4.324,11.633,3.611,9.92,3.611,7.91
		c0-2.011,0.707-3.724,2.125-5.141s3.131-2.125,5.141-2.125c2.009,0,3.723,0.708,5.14,2.125c1.416,1.417,2.126,3.13,2.126,5.141
		c0,0.465-0.042,0.897-0.126,1.301H7.8c0.188,0.528,0.454,0.973,0.793,1.332c0.676,0.742,1.491,1.11,2.442,1.11 M7.736,6.8h6.567
		c-0.17-0.593-0.455-1.111-0.856-1.556c-0.656-0.719-1.459-1.079-2.41-1.079c-0.953,0-1.769,0.36-2.443,1.079
		C8.232,5.668,7.947,6.187,7.736,6.8z"/>
</g>
<path fill="none" stroke="#2E3842" stroke-width="3.56" d="M10.877,13.426c2.447,0,3.01-1.166,4.388-1.166"/>
<g>
	<path fill="none" stroke="#2E3842" stroke-width="3.56" d="M16.265,12.207c2.117,0,2.117,1.271,4.233,1.271
		c2.119,0,2.119-1.271,4.238-1.271c2.117,0,2.118,1.271,4.236,1.271"/>
</g>
<circle fill="#FFFFFF" cx="39.576" cy="39.821" r="0.208"/>
<circle fill="#FFFFFF" cx="34.049" cy="43.376" r="0.208"/>
<g>
	<path fill="#FFFFFF" d="M34.117,43.182c0.115,0,0.204,0.08,0.204,0.194s-0.089,0.195-0.204,0.195s-0.21-0.081-0.21-0.195
		S34.002,43.182,34.117,43.182z"/>
</g>
</svg>
