<?xml version="1.0" encoding="utf-8"?>
<!-- Generator: Adobe Illustrator 15.0.0, SVG Export Plug-In . SVG Version: 6.00 Build 0)  -->
<!DOCTYPE svg PUBLIC "-//W3C//DTD SVG 1.1//EN" "http://www.w3.org/Graphics/SVG/1.1/DTD/svg11.dtd">
<svg version="1.1" xmlns="http://www.w3.org/2000/svg" xmlns:xlink="http://www.w3.org/1999/xlink" x="0px" y="0px" width="724px"
	 height="534px" viewBox="0 0 724 534" enable-background="new 0 0 724 534" xml:space="preserve">
<g id="Background_xA0_Image_1_">
</g>
<g id="Layer_1_xA0_Image_1_">
	<g opacity="0.6">
		<path fill-rule="evenodd" clip-rule="evenodd" fill="none" stroke="#000000" stroke-miterlimit="10" d="M694,0
			c1.333,0,2.667,0,4,0c0,2.667,0,5.333,0,8c8.667,0,17.333,0,26,0c0,1.333,0,2.667,0,4c-9.406-0.364-19.242,0.589-26,0
			c0,6.667,0,13.333,0,20c6.676,2.324,17.66,0.34,26,1c0,1.333,0,2.667,0,4c-10,0-20,0-30,0C694,24.667,694,12.333,694,0z"/>
		<path fill-rule="evenodd" clip-rule="evenodd" fill="none" stroke="#000000" stroke-miterlimit="10" d="M313,13
			c8.818-1.098,16.866,3.172,18,13c3.07,26.61-38.375,22.048-32-3C300.056,18.852,303.987,14.123,313,13z"/>
		<path fill-rule="evenodd" clip-rule="evenodd" fill="none" stroke="#000000" stroke-miterlimit="10" d="M362,13
			c9.977-1.377,19.597,3.542,18,18c-1.994,18.055-34.406,18.74-32-5C348.733,18.761,352.834,14.265,362,13z"/>
		<path fill-rule="evenodd" clip-rule="evenodd" fill="none" stroke="#000000" stroke-miterlimit="10" d="M411,13
			c7.57-1.108,14.113,2.89,16,6c15.391,25.36-30.387,36.039-30,9C397.121,19.525,399.758,14.646,411,13z"/>
		<path fill-rule="evenodd" clip-rule="evenodd" fill="none" stroke="#000000" stroke-miterlimit="10" d="M461,13
			c6.858-0.854,14.664,2.371,17,9c9.43,26.76-38.514,30.523-31,1C448.175,18.385,452.934,14.004,461,13z"/>
		<path fill-rule="evenodd" clip-rule="evenodd" fill="none" stroke="#000000" stroke-miterlimit="10" d="M360,119
			c26.533-6.197,25.3,34.388,1,31C349.468,148.392,339.898,123.695,360,119z"/>
		<path fill-rule="evenodd" clip-rule="evenodd" fill="none" stroke="#000000" stroke-miterlimit="10" d="M409,119
			c8.354-2.055,18.36,3.083,20,10c5.781,24.393-32,29.672-32,5C397,125.638,400.795,121.019,409,119z"/>
		<path fill-rule="evenodd" clip-rule="evenodd" fill="none" stroke="#000000" stroke-miterlimit="10" d="M459,119
			c12.921-2.844,19.589,5.034,20,14c1.047,22.832-38.618,23.2-32-4C447.771,125.829,451.778,120.59,459,119z"/>
		<path fill-rule="evenodd" clip-rule="evenodd" fill="none" stroke="#000000" stroke-miterlimit="10" d="M360,172
			c13.297-3.105,24.594,7.585,19,22c-5.526,14.242-33.088,13.201-31-9C348.541,179.245,351.478,173.99,360,172z"/>
		<path fill-rule="evenodd" clip-rule="evenodd" fill="none" stroke="#000000" stroke-miterlimit="10" d="M409,172
			c9.53-2.377,18.329,2.23,20,11c4.136,21.707-32,29.675-32,4C397,178.615,400.796,174.046,409,172z"/>
		<path fill-rule="evenodd" clip-rule="evenodd" fill="none" stroke="#000000" stroke-miterlimit="10" d="M458,172
			c24.466-6.457,26.016,28.202,8,31C445.062,206.251,440.266,176.681,458,172z"/>
		<path fill-rule="evenodd" clip-rule="evenodd" fill="none" stroke="#000000" stroke-miterlimit="10" d="M359,225
			c25.374-7.21,27.473,31,5,31C346.751,256,341.884,229.863,359,225z"/>
		<path fill-rule="evenodd" clip-rule="evenodd" fill="none" stroke="#000000" stroke-miterlimit="10" d="M408,225
			c26.044-7.554,26.327,31.305,5,31C396.02,255.757,390.249,230.148,408,225z"/>
		<path fill-rule="evenodd" clip-rule="evenodd" fill="none" stroke="#000000" stroke-miterlimit="10" d="M458,225
			c27.062-7.195,24.789,29.879,6,31C447.545,256.982,439.183,230.003,458,225z"/>
		<path fill-rule="evenodd" clip-rule="evenodd" fill="none" stroke="#000000" stroke-miterlimit="10" d="M691,244
			c0.667,0,1.333,0,2,0c3.862,3.665,2.062,20.676,1,27c-6.536-1.238-1.331-17.128-3-24C691,246,691,245,691,244z"/>
		<path fill-rule="evenodd" clip-rule="evenodd" fill="none" stroke="#000000" stroke-miterlimit="10" d="M81,276
			c1.711-2.288,7.633-0.367,11-1C90.289,277.288,84.367,275.367,81,276z"/>
		<path fill-rule="evenodd" clip-rule="evenodd" fill="none" stroke="#000000" stroke-miterlimit="10" d="M111,275
			c-5.396,0.063-15.32,3.68-18,1C94.087,277.087,106.892,273.172,111,275z"/>
		<path fill-rule="evenodd" clip-rule="evenodd" fill="none" stroke="#000000" stroke-miterlimit="10" d="M309,278
			c9.078-2.819,18.253,0.646,21,8c10.019,26.816-37.551,31.418-31,2C299.763,284.573,303.116,279.827,309,278z"/>
		<path fill-rule="evenodd" clip-rule="evenodd" fill="none" stroke="#000000" stroke-miterlimit="10" d="M359,278
			c25.706-7.359,27.23,30.058,6,31C348.393,309.737,340.804,283.21,359,278z"/>
		<path fill-rule="evenodd" clip-rule="evenodd" fill="none" stroke="#000000" stroke-miterlimit="10" d="M408,278
			c13.587-3.993,24.73,5.127,21,20c-3.891,15.513-30.927,13.992-32-4C396.616,287.569,398.712,280.729,408,278z"/>
		<path fill-rule="evenodd" clip-rule="evenodd" fill="none" stroke="#000000" stroke-miterlimit="10" d="M313,330
			c8.353-1.023,14.993,3.479,17,9c9.729,26.76-38.642,31.027-31,1C300.171,335.397,304.935,330.988,313,330z"/>
		<path fill-rule="evenodd" clip-rule="evenodd" fill="none" stroke="#000000" stroke-miterlimit="10" d="M74,471
			c-8.34,2.327-20.995,0.338-31,1C48.341,469.431,67.319,471.688,74,471z"/>
		<path fill-rule="evenodd" clip-rule="evenodd" fill="none" stroke="#000000" stroke-miterlimit="10" d="M383,470
			c-15.336,2.331-34.998,0.335-52,1c2.367-2.3,8.975-0.358,13-1"/>
		<path fill-rule="evenodd" clip-rule="evenodd" fill="none" stroke="#000000" stroke-miterlimit="10" d="M39,487
			c2.696-2.305,9.645-0.355,14-1c4.667,0,9.333,0,14,0C59.659,488.325,48.006,486.339,39,487z"/>
		<path fill-rule="evenodd" clip-rule="evenodd" fill="none" stroke="#000000" stroke-miterlimit="10" d="M409,489
			c11.842-2.913,23.639,4.647,20,20c-3.853,16.253-32,14.713-32-5C397,495.567,400.667,491.05,409,489z"/>
		<path fill-rule="evenodd" clip-rule="evenodd" fill="none" stroke="#000000" stroke-miterlimit="10" d="M379,494
			c-0.221,6.39-0.752,0.23-2,0c-10.476-1.931-31.367,1.436-44,0c-4.5-1.69,5.62-0.931,9-1c10.941-0.224,22.748-0.993,35,0
			C376.5,492.959,383.65,492.914,379,494z"/>
		<path fill-rule="evenodd" clip-rule="evenodd" fill="none" stroke="#000000" stroke-miterlimit="10" d="M324,526
			c-2.333,0-4.667,0-7,0C319.138,524.248,324.12,522.836,324,526z"/>
		<path fill-rule="evenodd" clip-rule="evenodd" fill="none" stroke="#000000" stroke-miterlimit="10" d="M215.833,289.918
			C212.921,291.689,195.1,322.087,194,329 M203.833,307.168 M272.833,330.168c-10.537-23.463-25.098-42.901-42-60
			c-2.22,2.527-5.346,5.076-9,10c-3.513,4.733-2.583,7.26-6,9.75 M208,469c-1.651-1.379-3.9-5.195-8-10
			c-3.198-3.748-6.518-8.085-11-10c0,28.333,0,56.667,0,85c-1.667,0-3.333,0-5,0c0-29.667,0-59.333,0-89
			c-3.621-1.713-6.217-4.449-11-5c0,31.333,0,62.667,0,94c-57.667,0-115.333,0-173,0c0-118.334,0-236.664,0-355
			c2.503,0.169,3.13-1.536,4-3c-1.479-0.521-2.521-1.479-4-2c0-1.333,0-2.667,0-4c3.069,2.745,6.387,2.009,9,3
			c1.361,0.517,3.003,3.781,5,5c2.553,1.559,6.593,2.236,10,4c9.434,4.884,19.489,12.472,29,16c7.6,5.815,17.909,13.328,25,19
			c2.071,1.656,5.219,6.437,7,4c-1.155-69.806-4.434-146.771-8-221c68,0,136,0,204,0c0.101,21.608,0.063,37.228,0,59
			c6.5,0.789,9.959,6.671,9,12c3.814,0.852,6.36,2.973,10,4c3.773-13.655,30.196-12.66,30,4c13.206-3.539,8.276,11.057,19,10
			c-11.116-29.46,39.917-31.696,30-1c-0.224,0.692-4.911,3.928-1,4c6.06,1.34,7.389-6.313,13-6c3.913,0.218,6.194,2.535,8,8
			c-1.831,3.169-3.384,6.616-8,7c-6.553-5.848-21.162-6.517-30-2c-4.975-0.791-5.908-4.584-10-6c-8.301-2.872-17.13,2.641-24-2
			c-7.345,11.681-31.871,5.507-28-12c-6.101-2.548-10.137-6.722-18-5c0,18.333,0,36.667,0,55c7-0.667,11.371,1.296,17,2
			c9.625-29.024,48.786-1.778,26,17c20.04,14.752,20.701,63.057,3,81c8.82,9.747,1.115,27.441-13,27c-6.954-0.217-9.598-4.672-15-9
			c-4.257,3.076-12.101,2.566-18,4c3.302,30.077-4.28,60.611,0,89c1.696,11.251,8.745,22.731,8,34c26.168-1.499,50.204-5.13,69-14
			c-5.969-2.79-9.52-6.647-10-13c-1.794-23.747,38.812-23.677,31,5c7.209-1.458,11.345-5.989,18-8c1.647-9.78,9.823-16.915,21-14
			c11.718-7.615,21.48-17.186,32-26c-10.124-15.09,4.65-34.45,22-25c15.408-22.592,28.965-47.035,38-76
			c-22.896-2.138-14.175-39.459,8-32c-0.749-8.097,3.577-16.403,1-23c-28.1,14.095-31.375-41.25,1-28c0.334-8.667-1.349-15.318-2-23
			c-17.914,3.302-23.624-9.993-22-23c-6.942,1.907-12.583-2.773-18,3c6.515,16.516-19.396,27.54-28,14c-8.229,1.86-14.184-2.36-23,1
			c-3.042,0.958-2.025,5.975-7,5c-5.417,1.735-15.83-2.222-20-2c1.516-5.286-3.131-8.798-3-14c0.548-21.747,38.305-21.304,31,7
			c3.708,0.708,4.292-1.708,8-1c2.043-4.624,2.817-10.516,11-9c1.996-15.439,23.576-15.318,31-5c7.538-0.796,6.199-10.467,13-12
			c8.116,2.833,10.807-0.507,17-4c-0.453-14.213-13.117-16.216-12-32c-5.686-7.647-9.415-17.252-15-25c10.333,0,20.667,0,31,0
			c0,7.667,0,15.333,0,23c13,0,26,0,39,0c0-7.667,0-15.333,0-23c16.333,0,32.667,0,49,0c-3.983,16.017-9.934,30.066-14,46
			c17.112,21.661,41.692,53.698,87,44c0-30,0-60,0-90c1.333,0,2.667,0,4,0c0,39,0,78,0,117c5.667,0,11.333,0,17,0
			c0.665-21.001-1.332-44.665,1-64c9.667,0,19.333,0,29,0c0,22.667,0,45.333,0,68c-1.453,0.547-5.169-1.168-5,1
			c2.507,0.827,3.163,3.503,5,5c0,4.667,0,9.333,0,14c-0.333,0-0.667,0-1,0c-10.97,20.093-37.812,2.979-27-16
			c0.392-0.687,4.83-4.075,1-4c-6.333,0-12.667,0-19,0c-0.035,25.035,7.101,42.899,17,58c4.372-11.137,25.284-9.562,29,1
			c0,4.667,0,9.333,0,14c-0.333,0-0.667,0-1,0c-1.084,4.916-5.791,6.208-9,9c3.385,2.615,6.341,5.659,10,8c0,1.333,0,2.667,0,4
			c-35.214-22.453-52.794-62.54-52-121c-46.101,10.211-67.162-21.341-89-42c-1.151,2.515-0.474,6.859-4,7
			c-21.668,0.666-45.999-1.332-66,1c12.515,32.09,14.409,86.57,6,125c7.749,18.399,27.93,19.213,51,15
			c5.437-0.993,12.005-1.076,16-2c5.448-1.26,9.886-5.27,15-6c36.815-5.259,49.597,25.505,44,63c5.485,7.182,8.038,17.295,15,23
			c9.099-2.188,16.865-5.272,25-5c15.443,0.517,25.068,14.249,39,16c0,2,0,4,0,6c-28.971-19.312-70.299-1.423-87,18
			c17.279,17.91,56.745,32.974,87,17c0,3,0,6,0,9c-0.773-0.189-1.044,0.397-1,1c-0.55-7.491-10.414,0.609-19,1
			c-2.144,32.286-23.625,50.245-57,48c0.428,1.737,5.077,8.469,8,9c3.309,0.602-0.507-0.268,3,3c4.531,4.222,11.219,7.011,15,14
			c-1.667,0-3.333,0-5,0c0,19,0,38,0,57c9.006,2.327,22.329,0.338,33,1c-1.521-24.146,3.329-54.662-3-74
			c2.056-2.926,3.822-3.164,2-8c7.606,1.394,16.82,1.18,24,3c0,46.667,0,93.333,0,140c-11.667,0-23.333,0-35,0
			c-13.279-14.721-25.483-30.517-25-59c-13.193-9.807-26.357-19.643-40-29c1.036,9.828-1.442,17.688,0,25
			c1.668,8.453,9.514,13.555,11,21c19.268,6.398,32.307,19.027,35,42c-56.333,0-112.667,0-169,0c0-0.333,0-0.667,0-1
			c-2.973-17.36-3.394-37.273-6-55c1.301-4.032,5.987-4.68,7-9c-6.125-2.208-16.242-0.425-24-1c0,22,0,44,0,66c-1.333,0-2.667,0-4,0
			c-0.633-3.367,1.288-9.288-1-11c-1.598,4.402-4.808,7.192-7,11c-1.667,0-3.333,0-5,0c3.545-5.122,7.944-9.389,10-16
			c-25.052,11.864-32.295-26.748-12-30c6.357-1.019,8.962,0.95,14,3c-6.11-19.89-19.789-32.211-44-34
			c-3.356,7.031-14.287,13.541-24,8c-21.395,9.83-25.145,53.637-6,69c-1.667,0-3.333,0-5,0c0-0.333,0-0.667,0-1
			c-2.57-0.097-1.43-3.903-4-4c0,1.667,0,3.333,0,5c-1.333,0-2.667,0-4,0c0-2.667,0-5.333,0-8c-14.126,0.256-29.761-0.339-45,0
			c-3.784,0.084-9.714-1.792-12,2c0,2,0,4,0,6c-1.333,0-2.667,0-4,0c0-21.667,0-43.333,0-65c-0.745-2.255-5.609-0.391-8-1
			c-3.917,21.2,0.145,44-2,66c-10.333,0-20.667,0-31,0c-3.747-52.406,5.009-114.89,0-165c-0.224-2.238-2.004-7.02-2-7
			c-1.445-6.774-0.513-9.567-3-15c-0.529-1.539-1.043-0.063-1,1c0.39-5.245-3.524-11.641-5-18 M207,472 M243,449 M243,449 M216,417
			 M212,416 M194,329c-6.569,19.432-4.898,47.102-5,73c3.538,2.569,7.748,4.822,10,4c-0.519,3.801,12.964,6.669,11,9 M533,38
			c4.43-3.903,10.379-6.288,14-11c-9.672,0.662-21.993-1.326-30,1C522.543,31.123,526.296,36.038,533,38z M531,44
			c-4.448,3.885-10.002,6.665-14,11c10.005-0.662,22.66,1.327,31-1C541.52,51.48,538.553,45.447,531,44z M500,69
			c3.88-1.453,7.989-2.678,11-5c-2.396,0.396,0.555-4.555-3-3C505.849,64.182,499.656,63.323,500,69z M278,67
			c0.888,3.841,8.262,4.202,8-1C284.099,63.241,279.137,63.751,278,67z M489,67c-0.396,3.746,4.549,5.158,7,3c0-1.333,0-2.667,0-4
			C493.023,64.675,490.926,64.975,489,67z M466,78c1.789,2.647,7.34,2.726,8-1c-1.617-1.382-2.462-3.538-6-3
			C467.479,75.479,466.521,76.521,466,78z M304,77c0,0.667,0,1.333,0,2c1.413,1.512,4.857,3.158,7,1c0-1.333,0-2.667,0-4
			C308.857,73.842,305.413,75.488,304,77z M442,83c0,1.333,0,2.667,0,4c2.143,2.158,5.587,0.512,7-1c0-0.667,0-1.333,0-2
			C447.587,82.488,444.143,80.842,442,83z M331,84c0,1.333,0,2.667,0,4c2.245,2.126,6.589,0.712,7-2c-1.406-0.261-1.14-2.193-2-3
			C333.174,82.174,333.409,84.409,331,84z M415,92c1.334,1.427,5.666,1.427,7,0c0.261-3.26-1.188-4.813-4-5
			C416.247,87.914,414.525,88.859,415,92z M358,90c-0.26,3.26,1.187,4.813,4,5c1.278-0.055,1.385-1.282,3-1c0-1.333,0-2.667,0-4
			C363.666,88.573,359.334,88.573,358,90z M387,92c-0.224,1.891,1.127,2.206,1,4c2.465,0.132,4.818,0.151,6-1c0-1.333,0-2.667,0-4
			C390.927,89.578,389.503,90.551,387,92z M222,189c-0.188,24.113,16.32,46.354,35,54c41.016,16.789,80.245-16.043,80-54
			c-0.213-33.025-28.204-58.273-61-56C243.12,135.279,222.232,159.209,222,189z M15,224c14.188-5.812,28.71-11.29,41-19
			c-13.569-7.764-26.458-16.209-41-23C15,196,15,210,15,224z M390,352c0,9,0,18,0,27c39.334,0,78.667,0,118,0
			c-19.708-20.292-11.245-68.755-13-107c13,0,26,0,39,0c0,9.333,0,18.667,0,28c-11.333,0-22.667,0-34,0c0,12.667,0,25.333,0,38
			c8,0,16,0,24,0c2.868-28.466,18.046-44.62,46-48c1.188-26.351-3.629-65.562,5-81c0.884-1.581,5.945-4.857,2-6
			c-10.889,0.362-20.624,5.685-31,5c-13.122-0.866-20.84-9.466-29-16C497.846,268.511,452.425,318.759,390,352z M642,263
			c0-15.49,1.077-30.365,0-39c-4.139-33.177-54.592-38.519-66-9c-7.824,20.246,1.728,46.854-2,74c31.625,4.375,50.221,21.779,50,58
			c4.209,2.124,12.182,0.485,18,1c0-8.333,0-16.667,0-25c-3.202-4.131-8.698-5.969-11-11C646.537,305.827,642,287.751,642,263z
			 M59,210c-14.304,7.029-29.575,13.091-44,20c0.665,16.668-1.331,35.998,1,51c13.67-3.663,29.424-5.242,44-8
			C59.334,252.332,61.332,229.001,59,210z M102,221c-4.401,3.86-6.903,9.852-13,12c-7.322-8.345-15.536-15.797-25-22
			c0.171,16.86-0.121,40.954,0,61c18.231-2.77,35.913-6.087,54-9c-0.704-13.144,1.292-41.523-1-53
			C112.357,214.59,106.632,216.937,102,221z M276,326c-0.002,0.556,0.809,1.135,1,0c2.977-17.654-2.199-51.977,0-75
			c-10.287,1.659-17.808-5.518-27-6c-15.996-0.838-31.419,8.367-49,8c0.664,13.003-1.33,28.663,1,40
			c7.629-11.704,18.115-20.552,28-30C248.239,281.094,263.807,301.859,276,326z M122,267c0,25.333,0,50.667,0,76
			c17.7,0.967,33.67,3.664,51,5c1.725-9.19,5.06-17.66,10-27c4.233-8.005,12.362-15.68,14-23c1.993-8.91,0.476-26.377,0-35
			c-0.125-2.27,2.297-9.181-3-9C170.354,258.688,145.404,262.071,122,267z M646,278c2.071-0.595,6.569,1.236,7-1
			c-2.768-3.232-4.094-7.906-7-11C646,270,646,274,646,278z M118,268c-0.221-0.779-0.837-1.163-2-1c-11.944,2.859-29.712,5.53-42,9
			c-3.717,1.05-12.025-0.553-9,6c12.484,2.07,34.859,0.51,52,1C115.839,275.108,118.196,275.753,118,268z M500,276
			c-1.624,4.608-1.624,15.392,0,20c10,0,20,0,30,0c0-6.667,0-13.333,0-20C520,276,510,276,500,276z M15,285c0,15.333,0,30.667,0,46
			c15.764,0.569,29.333,3.333,45,4c-0.18-14.189,0.241-30.663,0-44c-0.077-4.269,1.78-10.364-2-13
			C43.808,280.474,30.214,283.548,15,285z M646,282c0.651,5.349-1.313,13.313,1,17c12.554-10.78,29.593-17.073,52-18
			C682.474,271.933,663.049,285.491,646,282z M65,323c0,1.667,0,3.333,0,5c5.525,3.419,17.366,2,28,2c8.948,0,24.362,3.616,24-6
			C104.651,321.76,78.939,323.726,65,323z M118,297c0-4.333,0-8.667,0-13c-18,0-36,0-54,0c0,4.667,0,9.333,0,14
			c15.669,0.665,33.997-1.33,48,1c-15.512-0.254-34.613,0.365-47,0c0.247,8.247-1.761,14.239-1,23c15.12,0.077,38.88,0.077,54,0
			c0.761-8.761-1.247-14.753-1-23c-2.615-1.169-4.301,3.085-4-1C115.863,296.593,118.458,301.104,118,297z M173,398
			c4.532,0.134,7.236,2.097,11,3c-2.973-40.641,3.531-77.135,16-99C182.942,325.942,169.464,353.465,173,398z M553,358
			c12.337-0.663,27.329,1.329,38-1c-7.696-9.304-11.148-22.852-20-31C565.714,337.38,557.958,346.292,553,358z M646,369
			c22.67,4.15,36.335-8.862,39-28c-16.627-1.373-27.712-8.288-39-15C646,340.333,646,354.667,646,369z M64,336
			c17.289,2.711,35.727,4.272,54,6c0-3.667,0-7.333,0-11c-18,0-36,0-54,0C64,332.667,64,334.333,64,336z M642,367c0-5,0-10,0-15
			c-5.017,0.649-12.644-1.311-16,1C630.66,358.34,633.674,365.326,642,367z M385,354c-12.938,7.643-30.561,11.354-46,16
			c-4.369,1.314-12.248,2.026-10,9c17.002,2.331,38.332,0.335,57,1C385.34,371.66,387.324,360.676,385,354z M545,399
			c-3.281,7.509,2.076,17.465-1,25c9.454,1.546,12.445,9.555,19,14c3.333,0,6.667,0,10,0c7.577-5.683,11.531-14.204,21-14
			c11.059,0.238,13.808,14.712,26,14c0-7.667,0-15.333,0-23c0.168-2.169-3.547-0.453-5-1c7.829-9.838,20.107-15.226,27-26
			c-13.127-4.873-24.774-11.226-30-24c-1.278-0.055-1.385-1.282-3-1C600.053,386.785,577.928,402.507,545,399z M315,380
			c3.333,0,6.667,0,10,0c0-2,0-4,0-6C320.707,375.04,313.604,373.271,315,380z M315,384c0.657,26.676-1.321,55.987,1,81c3,0,6,0,9,0
			c0-27,0-54,0-81C321.667,384,318.333,384,315,384z M329,384c0,27,0,54,0,81c18.333,0,36.667,0,55,0
			c-11.494-15.703-16.033-35.648-8-54c4.062-9.277,13.575-13.387,10-27C367,384,348,384,329,384z M391,393
			c3.49-4.51,10.08-5.92,15-9c-5.333,0-10.667,0-16,0C390.619,386.714,388.73,391.937,391,393z M472,438
			c-1.437,12.346-8.511,18.887-11,27c4.333,0,8.667,0,13,0c0-27,0-54,0-81c-11.337,0.663-25.328-1.328-35,1
			C458.404,391.313,475.054,411.755,472,438z M478,464c7,0,14,0,21,0c17.394-17.208,71.488-17.194,90-1c0.484,3.817-0.284,6.383-2,8
			c11.344,1.594,4.661,19.632,6,27c4.219-3.448,9.336-5.998,16-7c1.984-8.487,9.455-11.903,11-20c1.28-6.712-2.914-16.385-1-28
			c-15.823-1.413-13.905-16.109-28-14c-10.281,1.539-13.471,15.021-25,14c-11.976-1.061-11.569-14.495-26-15c0-10,0-20,0-30
			c-11.689,1.172-17.941-11.581-28-14c-10.175-2.446-20.17,1.751-34,0C478,410.667,478,437.333,478,464z M408,414
			c-6.854-1.657-12.924-10.785-10-21c-10.585,4.381-25.287,23.14-22,45c0.235,1.566,3.192,12.13,4,14
			c5.033,11.663,17.365,22.591,22,10c-20.983-21.623,28.278-43.115,27-8c7.511-0.511,13.211,0.789,18,3
			c-2.419-15.815,7.438-24.478,21-21c0.681-9.015-0.798-15.868-3-22c-14.066,0.732-19.495-7.172-18-22
			c-6.809-3.191-14.231-5.769-23-7C435.982,398.112,425.319,418.188,408,414z M192,409c-9.667-4.645-22.293-9.038-33-8
			c1.177,0.156,2.838-0.172,3,1c-3.457,0.124-4.713-1.954-7-3c-7.009-0.196-19.833-2.833-30.411,2.55
			C104.098,398.77,95.701,408.722,83,418c-3.384,2.472-7.317,4.794-10,7c-7.796,6.409-11.769,13.889-17,21
			c-9.082,12.346-19.197,30.808-19,49c9.339,0.661,21.326-1.326,29,1c-10,0-20,0-30,0c0.701,4.367-1.701,5.633-1,10
			c10.667,0,21.333,0,32,0c-0.084-35.085,18.854-51.146,38-67c9.271-1.834,18.363-7.808,30-9c18.592-1.904,36.281,3.77,50,9
			 M203,417 M204,417 M663,468c0-8.333,0-16.667,0-25c-11.004,0.662-24.661-1.328-34,1C640.471,451.862,650.827,460.84,663,468z
			 M551,456c-17.362-0.987-38.283,1.016-46,10c15.137,12.886,63.882,12.996,79,0C578.689,458.547,563.852,456.73,551,456z M384,477
			c-0.556,0.003-1.135-0.81,0-1c2.479,0.888-0.924-7.073,2-8c-19,0-38,0-57,0c1.036,2.631,1.197,6.137,1,10
			C347.668,477.335,367.998,479.331,384,477z M474,481c0-4.333,0-8.667,0-13c-2.714,0.619-7.937-1.27-9,1
			C468.861,472.139,470.912,477.088,474,481z M555,480c-6.951,0.466-15.65,0.566-23,0c-12.74-0.981-26.291-10.461-32-1
			c8.84,10.817,36.016,12.431,57,11c13.334-0.909,28.714-3.194,32-12C581.279,470.775,569.199,479.048,555,480z M614,490
			c4.873,0.46,11.714-1.047,15,1c-1.58-5.753-4.325-10.341-8-14C619.934,482.6,615.937,485.271,614,490z M382,500
			c-1.03-9.363,4.334-12.333,4-21c-19,0-38,0-57,0c1.126,16.584-0.501,29.792,1,46c14.617-0.144,37.127,0.104,55,0c0-2,0-4,0-6
			c-11.651-2.243-40.737-0.368-54-1c15.356-1.685,37.638-1.641,53,0c0.321-6.321-2.568-9.432-2-16"/>
		<path fill-rule="evenodd" clip-rule="evenodd" fill="none" stroke="#000000" stroke-miterlimit="10" d="M273,142
			c35.224-4.593,67.77,29.874,51,68c-19.527,44.395-87.215,32.33-93-13c-1.196-9.374,5.18-31.125,7-34
			C244.138,153.307,255.41,144.294,273,142z M251,155c-30.428,24.665-13.5,82.244,32,79c32.335-2.305,52.926-43.548,32-72
			c-2.831-3.848-7.452-5.564-11-8c0.739,0.507,0.793-1.414,0-2c-4.335-3.202-12.917-4.772-22-7c0,12.333,0,24.667,0,37
			c3.163,2.171,5.9,4.767,5,11c4.762,5.411,20.064,12.543,16,20c-7.327-4.34-12.37-10.964-18-17c-7,2.437-12.619-0.031-13-6
			c-0.288-4.505,2.991-5.295,5-9c0-12,0-24,0-36C270.917,146.805,255.881,152.653,251,155 M276,188c-0.229,3.562,1.438,5.229,5,5
			C285.16,189.117,279.883,183.84,276,188z"/>
		<path fill-rule="evenodd" clip-rule="evenodd" fill="none" stroke="#000000" stroke-miterlimit="10" d="M241,284"/>
		<path fill-rule="evenodd" clip-rule="evenodd" fill="none" stroke="#000000" stroke-miterlimit="10" d="M709,299
			C709.615,297.547,710.209,299.102,709,299c14.08,18.272-10.347,41.765-28,29C658.367,311.635,689.312,277.189,709,299z M678,309
			c-2.362,16.942,11.563,20,20,18c11.311-2.681,12.276-20.08,7-26c-2.902-3.256-8.285-4.88-14-4
			C682.06,298.377,678.731,303.757,678,309z"/>
		<path fill-rule="evenodd" clip-rule="evenodd" fill="none" stroke="#000000" stroke-miterlimit="10" d="M89,424"/>
		<path fill-rule="evenodd" clip-rule="evenodd" fill="none" stroke="#000000" stroke-miterlimit="10" d="M76,425"/>
		<path fill-rule="evenodd" clip-rule="evenodd" fill="none" stroke="#000000" stroke-miterlimit="10" d="M63,440
			c2.197,2.83,16.074-0.777,15,2c-5.793-0.54-14.187,1.521-17-2c11.751-2.583,31.75,0.025,42-1c-0.4,1.45-2.567,1.982-4,2
			C89.975,441.111,74.191,438.856,63,440z"/>
		<path fill-rule="evenodd" clip-rule="evenodd" fill="none" stroke="#000000" stroke-miterlimit="10" d="M87,446
			c0.56-2.896,1.56,1.534,3,1c-4.645,4.134-28.072,1.672-28,1c0.085-3.754,0.943-0.01,1,0c5.07,0.843,17.009-0.626,24,0
			C87.615,447.109,88.208,446.212,87,446z"/>
		<path fill-rule="evenodd" clip-rule="evenodd" fill="none" stroke="#000000" stroke-miterlimit="10" d="M79,463
			c1.7,3.052-3.14,0.439-4,1c-0.1,0.065-1.515,3.066-1,3c-1.668,0.214-0.252-2.756-1-3c-5.239-1.711-26.218,4.463-27,0
			C55.006,461.673,68.329,463.662,79,463z"/>
		<path fill-rule="evenodd" clip-rule="evenodd" fill="none" stroke="#000000" stroke-miterlimit="10" d="M603,203
			c38.488-6.758,42.93,49.068,12,55C576.98,265.292,566.755,209.365,603,203z M604,213c-5.952,3.167-11.713,6.249-13,12
			c-6.843,30.58,40.245,27.322,34,0c-1.338-5.854-6.453-9.505-15-12c-3.088,13.762,6.742,19.914,8,26c-2.304,1.804-5.078-2.326-7-4
			c-4.909,0.576-7.37-1.297-8-5C605.659,227.74,608.524,215.87,604,213z"/>
		<g>
		</g>
	</g>
</g>
</svg>
