<?xml version="1.0" encoding="utf-8"?>
<!-- Generator: Adobe Illustrator 15.0.0, SVG Export Plug-In . SVG Version: 6.00 Build 0)  -->
<!DOCTYPE svg PUBLIC "-//W3C//DTD SVG 1.1//EN" "http://www.w3.org/Graphics/SVG/1.1/DTD/svg11.dtd">
<svg version="1.1" id="Layer_1" xmlns="http://www.w3.org/2000/svg" xmlns:xlink="http://www.w3.org/1999/xlink" x="0px" y="0px"
	 width="724px" height="534px" viewBox="0 0 724 534" enable-background="new 0 0 724 534" xml:space="preserve">
<g id="Background_xA0_Image_1_">
</g>
<g id="Layer_1_xA0_Image_1_">
	<g>
		<path fill="none" stroke="#000000" stroke-miterlimit="10" d="M30,37c-10,0-20,0-30,0c0-1.333,0-2.667,0-4
			c8.34-0.66,19.324,1.324,26-1c0-6.667,0-13.333,0-20c-6.758,0.589-16.594-0.364-26,0c0-1.333,0-2.667,0-4c8.667,0,17.333,0,26,0
			c0-2.667,0-5.333,0-8c1.333,0,2.667,0,4,0C30,12.333,30,24.667,30,37z"/>
		<path fill="none" stroke="#000000" stroke-miterlimit="10" d="M425,23c6.375,25.048-35.07,29.61-32,3
			c1.134-9.828,9.182-14.098,18-13C420.014,14.123,423.943,18.852,425,23z"/>
		<path fill="none" stroke="#000000" stroke-miterlimit="10" d="M376,26c2.406,23.74-30.006,23.055-32,5
			c-1.597-14.458,8.023-19.377,18-18C371.166,14.265,375.267,18.761,376,26z"/>
		<path fill="none" stroke="#000000" stroke-miterlimit="10" d="M327,28c0.387,27.039-45.391,16.36-30-9c1.887-3.11,8.43-7.108,16-6
			C324.242,14.646,326.879,19.525,327,28z"/>
		<path fill="none" stroke="#000000" stroke-miterlimit="10" d="M277,23c7.514,29.523-40.43,25.76-31-1
			c2.336-6.629,10.142-9.854,17-9C271.066,14.004,275.825,18.385,277,23z"/>
		<path fill="none" stroke="#000000" stroke-miterlimit="10" d="M363,150c-24.3,3.388-25.533-37.197,1-31
			C384.102,123.695,374.532,148.392,363,150z"/>
		<path fill="none" stroke="#000000" stroke-miterlimit="10" d="M327,134c0,24.672-37.781,19.393-32-5
			c1.64-6.917,11.646-12.055,20-10C323.205,121.019,327,125.638,327,134z"/>
		<path fill="none" stroke="#000000" stroke-miterlimit="10" d="M277,129c6.618,27.2-33.047,26.832-32,4
			c0.411-8.966,7.079-16.844,20-14C272.222,120.59,276.229,125.829,277,129z"/>
		<path fill="none" stroke="#000000" stroke-miterlimit="10" d="M376,185c2.088,22.201-25.474,23.242-31,9
			c-5.594-14.415,5.703-25.105,19-22C372.522,173.99,375.459,179.245,376,185z"/>
		<path fill="none" stroke="#000000" stroke-miterlimit="10" d="M327,187c0,25.675-36.136,17.707-32-4
			c1.671-8.77,10.47-13.377,20-11C323.204,174.046,327,178.615,327,187z"/>
		<path fill="none" stroke="#000000" stroke-miterlimit="10" d="M258,203c-18.016-2.798-16.466-37.457,8-31
			C283.734,176.681,278.938,206.251,258,203z"/>
		<path fill="none" stroke="#000000" stroke-miterlimit="10" d="M360,256c-22.473,0-20.374-38.21,5-31
			C382.116,229.863,377.249,256,360,256z"/>
		<path fill="none" stroke="#000000" stroke-miterlimit="10" d="M311,256c-21.327,0.305-21.044-38.554,5-31
			C333.751,230.148,327.98,255.757,311,256z"/>
		<path fill="none" stroke="#000000" stroke-miterlimit="10" d="M260,256c-18.789-1.121-21.062-38.195,6-31
			C284.817,230.003,276.455,256.982,260,256z"/>
		<path fill="none" stroke="#000000" stroke-miterlimit="10" d="M33,247c-1.669,6.872,3.536,22.762-3,24
			c-1.062-6.324-2.862-23.335,1-27c0.667,0,1.333,0,2,0C33,245,33,246,33,247z"/>
		<path fill="none" stroke="#000000" stroke-miterlimit="10" d="M632,275c3.367,0.633,9.289-1.288,11,1
			C639.633,275.367,633.711,277.288,632,275z"/>
		<path fill="none" stroke="#000000" stroke-miterlimit="10" d="M631,276c-2.68,2.68-12.604-0.938-18-1
			C617.107,273.172,629.913,277.087,631,276z"/>
		<path fill="none" stroke="#000000" stroke-miterlimit="10" d="M425,288c6.551,29.418-41.019,24.816-31-2
			c2.747-7.354,11.922-10.818,21-8C420.884,279.827,424.236,284.573,425,288z"/>
		<path fill="none" stroke="#000000" stroke-miterlimit="10" d="M359,309c-21.23-0.941-19.706-38.359,6-31
			C383.196,283.21,375.607,309.736,359,309z"/>
		<path fill="none" stroke="#000000" stroke-miterlimit="10" d="M327,294c-1.073,17.992-28.109,19.514-32,4
			c-3.73-14.873,7.413-23.993,21-20C325.288,280.729,327.384,287.568,327,294z"/>
		<path fill="none" stroke="#000000" stroke-miterlimit="10" d="M425,340c7.643,30.027-40.729,25.76-31-1
			c2.007-5.521,8.647-10.023,17-9C419.064,330.988,423.829,335.396,425,340z"/>
		<path fill="none" stroke="#000000" stroke-miterlimit="10" d="M681,472c-10.005-0.662-22.66,1.327-31-1
			C656.682,471.688,675.659,469.431,681,472z"/>
		<path fill="none" stroke="#000000" stroke-miterlimit="10" d="M380,470c4.025,0.642,10.633-1.3,13,1
			c-17.002-0.665-36.664,1.331-52-1"/>
		<path fill="none" stroke="#000000" stroke-miterlimit="10" d="M657,486c4.667,0,9.333,0,14,0c4.355,0.645,11.305-1.305,14,1
			C675.994,486.339,664.341,488.325,657,486z"/>
		<path fill="none" stroke="#000000" stroke-miterlimit="10" d="M327,504c0,19.713-28.147,21.253-32,5
			c-3.639-15.353,8.158-22.913,20-20C323.333,491.05,327,495.567,327,504z"/>
		<path fill="none" stroke="#000000" stroke-miterlimit="10" d="M347,493c12.252-0.993,24.059-0.224,35,0c3.38,0.069,13.5-0.69,9,1
			c-12.633,1.436-33.524-1.931-44,0c-1.248,0.23-1.779,6.39-2,0C340.35,492.914,347.5,492.959,347,493z"/>
		<path fill="none" stroke="#000000" stroke-miterlimit="10" d="M407,526c-2.333,0-4.667,0-7,0
			C399.88,522.836,404.862,524.248,407,526z"/>
		<path fill="none" stroke="#000000" stroke-miterlimit="10" d="M530,329c-1.1-6.913-18.921-37.311-21.833-39.082 M508.167,289.918
			c-3.417-2.49-2.487-5.018-6-9.75c-3.653-4.924-6.78-7.473-9-10c-16.901,17.1-31.463,36.537-42,60 M451,330
			c-1.477,6.359-5.391,12.755-5,18c0.043-1.062-0.471-2.539-1-1c-2.486,5.434-1.555,8.227-3,15c0.004-0.02-1.775,4.762-2,7
			c-5.009,50.11,3.747,112.594,0,165c-10.333,0-20.667,0-31,0c-2.145-22,1.917-44.8-2-66c-2.391,0.609-7.255-1.255-8,1
			c0,21.667,0,43.333,0,65c-1.333,0-2.667,0-4,0c0-2,0-4,0-6c-2.286-3.792-8.216-1.916-12-2c-15.239-0.339-30.874,0.256-45,0
			c0,2.667,0,5.333,0,8c-1.333,0-2.667,0-4,0c0-1.667,0-3.333,0-5c-2.57,0.097-1.43,3.903-4,4c0,0.333,0,0.667,0,1
			c-1.667,0-3.333,0-5,0c19.145-15.363,15.395-59.17-6-69c-9.713,5.541-20.644-0.969-24-8c-24.211,1.789-37.89,14.11-44,34
			c5.038-2.05,7.643-4.019,14-3c20.295,3.252,13.052,41.864-12,30c2.056,6.611,6.455,10.878,10,16c-1.667,0-3.333,0-5,0
			c-2.192-3.808-5.402-6.598-7-11c-2.288,1.712-0.367,7.633-1,11c-1.333,0-2.667,0-4,0c0-22,0-44,0-66
			c-7.758,0.575-17.875-1.208-24,1c1.013,4.32,5.699,4.968,7,9c-2.606,17.727-3.027,37.64-6,55c0,0.333,0,0.667,0,1
			c-56.333,0-112.667,0-169,0c2.693-22.973,15.732-35.602,35-42c1.486-7.445,9.332-12.547,11-21c1.442-7.312-1.036-15.172,0-25
			c-13.643,9.357-26.807,19.193-40,29c0.483,28.483-11.721,44.279-25,59c-11.667,0-23.333,0-35,0c0-46.667,0-93.333,0-140
			c7.18-1.82,16.394-1.605,24-3c-1.822,4.836-0.056,5.074,2,8c-6.329,19.338-1.479,49.854-3,74c10.671-0.662,23.994,1.327,33-1
			c0-19,0-38,0-57c-1.667,0-3.333,0-5,0c3.781-6.989,10.469-9.778,15-14c3.507-3.268-0.309-2.398,3-3c2.923-0.531,7.572-7.264,8-9
			c-33.375,2.245-54.856-15.714-57-48c-8.586-0.391-18.45-8.491-19-1c0.044-0.604-0.227-1.189-1-1c0-3,0-6,0-9
			c30.255,15.975,69.721,0.91,87-17c-16.701-19.423-58.029-37.312-87-18c0-2,0-4,0-6c13.932-1.751,23.557-15.482,39-16
			c8.135-0.271,15.901,2.812,25,5c6.962-5.705,9.515-15.818,15-23c-5.597-37.495,7.185-68.259,44-63c5.114,0.73,9.552,4.74,15,6
			c3.995,0.924,10.562,1.007,16,2c23.07,4.213,43.251,3.399,51-15c-8.409-38.43-6.515-92.91,6-125c-20.001-2.332-44.332-0.334-66-1
			c-3.526-0.141-2.849-4.485-4-7c-21.838,20.659-42.899,52.211-89,42c0.794,58.46-16.786,98.547-52,121c0-1.333,0-2.667,0-4
			c3.659-2.341,6.615-5.385,10-8c-3.209-2.792-7.916-4.084-9-9c-0.333,0-0.667,0-1,0c0-4.667,0-9.333,0-14
			c3.716-10.562,24.628-12.137,29-1c9.899-15.101,17.035-32.965,17-58c-6.333,0-12.667,0-19,0c-3.83-0.075,0.608,3.313,1,4
			c10.812,18.979-16.03,36.093-27,16c-0.333,0-0.667,0-1,0c0-4.667,0-9.333,0-14c1.837-1.497,2.493-4.173,5-5
			c0.169-2.168-3.547-0.453-5-1c0-22.667,0-45.333,0-68c9.667,0,19.333,0,29,0c2.332,19.335,0.335,42.999,1,64
			c5.667,0,11.333,0,17,0c0-39,0-78,0-117c1.333,0,2.667,0,4,0c0,30,0,60,0,90c45.308,9.698,69.888-22.339,87-44
			c-4.066-15.934-10.017-29.983-14-46c16.333,0,32.667,0,49,0c0,7.667,0,15.333,0,23c13,0,26,0,39,0c0-7.667,0-15.333,0-23
			c10.333,0,20.667,0,31,0c-5.585,7.748-9.314,17.353-15,25c1.117,15.784-11.547,17.787-12,32c6.193,3.493,8.884,6.833,17,4
			c6.801,1.533,5.462,11.204,13,12c7.424-10.318,29.004-10.439,31,5c8.183-1.516,8.957,4.376,11,9c3.708-0.708,4.292,1.708,8,1
			c-7.305-28.304,30.452-28.747,31-7c0.131,5.202-4.516,8.714-3,14c-4.17-0.222-14.583,3.735-20,2c-4.975,0.975-3.958-4.042-7-5
			c-8.816-3.36-14.771,0.86-23-1c-8.604,13.54-34.515,2.516-28-14c-5.417-5.773-11.058-1.093-18-3c1.624,13.007-4.086,26.302-22,23
			c-0.651,7.682-2.334,14.333-2,23c32.375-13.25,29.1,42.095,1,28c-2.577,6.597,1.749,14.903,1,23c22.175-7.459,30.896,29.862,8,32
			c9.035,28.965,22.592,53.408,38,76c17.35-9.45,32.124,9.91,22,25c10.52,8.814,20.282,18.385,32,26
			c11.177-2.915,19.353,4.221,21,14c6.655,2.011,10.791,6.542,18,8c-7.812-28.677,32.794-28.747,31-5c-0.48,6.354-4.031,10.21-10,13
			c18.796,8.87,42.832,12.501,69,14c-0.745-11.27,6.305-22.749,8-34c4.279-28.389-3.302-58.923,0-89c-5.898-1.434-13.743-0.924-18-4
			c-5.402,4.328-8.046,8.783-15,9c-14.115,0.441-21.82-17.253-13-27c-17.701-17.943-17.04-66.248,3-81
			c-22.786-18.778,16.375-46.024,26-17c5.629-0.704,10-2.667,17-2c0-18.333,0-36.667,0-55c-7.863-1.722-11.898,2.452-18,5
			c3.871,17.507-20.655,23.681-28,12c-6.87,4.641-15.699-0.872-24,2c-4.092,1.416-5.025,5.209-10,6c-8.838-4.517-23.447-3.848-30,2
			c-4.616-0.384-6.169-3.831-8-7c1.806-5.465,4.087-7.782,8-8c5.611-0.313,6.94,7.34,13,6c3.911-0.072-0.776-3.308-1-4
			c-9.917-30.696,41.116-28.46,30,1c10.724,1.057,5.794-13.539,19-10c-0.196-16.66,26.227-17.655,30-4c3.641-1.027,6.186-3.148,10-4
			c-0.959-5.329,2.5-11.211,9-12c-0.062-21.772-0.102-37.392,0-59c68,0,136,0,204,0c-3.566,74.229-6.846,151.194-8,221
			c1.781,2.437,4.93-2.344,7-4c7.091-5.672,17.4-13.185,25-19c9.512-3.528,19.566-11.116,29-16c3.407-1.764,7.447-2.441,10-4
			c1.997-1.219,3.639-4.483,5-5c2.613-0.991,5.932-0.255,9-3c0,1.333,0,2.667,0,4c-1.479,0.521-2.521,1.479-4,2
			c0.87,1.464,1.497,3.169,4,3c0,118.336,0,236.666,0,355c-57.667,0-115.333,0-173,0c0-31.333,0-62.667,0-94
			c-4.783,0.551-7.379,3.287-11,5c0,29.667,0,59.333,0,89c-1.667,0-3.333,0-5,0c0-28.333,0-56.667,0-85
			c-4.482,1.915-7.802,6.252-11,10c-4.1,4.805-6.35,8.621-8,10 M514,415c-1.964-2.331,11.52-5.199,11-9
			c2.252,0.822,6.462-1.431,10-4c-0.102-25.898,1.568-53.568-5-73 M207,28c-8.007-2.326-20.328-0.338-30-1
			c3.621,4.712,9.57,7.097,14,11C197.704,36.038,201.457,31.123,207,28z M176,54c8.34,2.327,20.995,0.338,31,1
			c-3.998-4.335-9.552-7.115-14-11C185.447,45.447,182.48,51.48,176,54z M216,61c-3.555-1.555-0.604,3.396-3,3
			c3.011,2.322,7.12,3.547,11,5C224.344,63.323,218.151,64.182,216,61z M438,66c-0.262,5.202,7.111,4.841,8,1
			C444.863,63.751,439.9,63.241,438,66z M228,66c0,1.333,0,2.667,0,4c2.451,2.158,7.396,0.746,7-3
			C233.074,64.975,230.977,64.675,228,66z M256,74c-3.538-0.538-4.383,1.618-6,3c0.66,3.726,6.211,3.647,8,1
			C257.479,76.521,256.521,75.479,256,74z M413,76c0,1.333,0,2.667,0,4c2.143,2.158,5.587,0.512,7-1c0-0.667,0-1.333,0-2
			C418.587,75.488,415.143,73.842,413,76z M275,84c0,0.667,0,1.333,0,2c1.413,1.512,4.857,3.158,7,1c0-1.333,0-2.667,0-4
			C279.857,80.842,276.413,82.488,275,84z M388,83c-0.86,0.807-0.594,2.739-2,3c0.411,2.712,4.755,4.126,7,2c0-1.333,0-2.667,0-4
			C390.591,84.409,390.826,82.174,388,83z M306,87c-2.812,0.187-4.261,1.74-4,5c1.334,1.427,5.666,1.427,7,0
			C309.475,88.859,307.753,87.914,306,87z M359,90c0,1.333,0,2.667,0,4c1.615-0.282,1.722,0.945,3,1c2.812-0.187,4.26-1.74,4-5
			C364.666,88.573,360.334,88.573,359,90z M330,91c0,1.333,0,2.667,0,4c1.182,1.151,3.535,1.132,6,1c-0.127-1.794,1.224-2.109,1-4
			C334.497,90.551,333.073,89.578,330,91z M448,133c-32.796-2.273-60.787,22.975-61,56c-0.245,37.957,38.984,70.789,80,54
			c18.68-7.646,35.188-29.887,35-54C501.768,159.209,480.88,135.279,448,133z M709,182c-14.542,6.791-27.432,15.236-41,23
			c12.29,7.71,26.812,13.188,41,19C709,210,709,196,709,182z M207,192c-8.16,6.534-15.878,15.134-29,16
			c-10.376,0.685-20.111-4.638-31-5c-3.945,1.143,1.116,4.419,2,6c8.629,15.438,3.812,54.649,5,81c27.954,3.38,43.132,19.534,46,48
			c8,0,16,0,24,0c0-12.667,0-25.333,0-38c-11.333,0-22.667,0-34,0c0-9.333,0-18.667,0-28c13,0,26,0,39,0
			c-1.755,38.245,6.708,86.708-13,107c39.333,0,78.666,0,118,0c0-9,0-18,0-27C271.575,318.759,226.154,268.511,207,192z M93,312
			c-2.302,5.031-7.798,6.869-11,11c0,8.333,0,16.667,0,25c5.818-0.516,13.791,1.124,18-1c-0.221-36.221,18.375-53.625,50-58
			c-3.729-27.146,5.824-53.754-2-74c-11.408-29.519-61.861-24.177-66,9c-1.077,8.635,0,23.51,0,39C82,287.751,77.463,305.827,93,312
			z M664,273c14.576,2.758,30.33,4.337,44,8c2.331-15.002,0.335-34.332,1-51c-14.425-6.909-29.695-12.971-44-20
			C662.668,229.001,664.666,252.332,664,273z M607,210c-2.292,11.477-0.296,39.856-1,53c18.087,2.913,35.77,6.23,54,9
			c0.121-20.046-0.171-44.14,0-61c-9.464,6.203-17.678,13.655-25,22c-6.098-2.148-8.6-8.14-13-12
			C617.368,216.937,611.643,214.59,607,210z M494,263c9.885,9.448,20.371,18.296,28,30c2.33-11.337,0.336-26.997,1-40
			c-17.581,0.367-33.004-8.838-49-8c-9.191,0.482-16.713,7.659-27,6c2.199,23.023-2.977,57.346,0,75c0.191,1.135,1.002,0.557,1,0
			C460.193,301.859,475.762,281.094,494,263z M530,254c-5.297-0.181-2.875,6.73-3,9c-0.477,8.623-1.993,26.09,0,35
			c1.639,7.32,9.768,14.995,14,23c4.939,9.34,8.275,17.811,10,27c17.33-1.336,33.3-4.033,51-5c0-25.333,0-50.667,0-76
			C578.596,262.071,553.646,258.688,530,254z M78,266c-2.906,3.094-4.232,7.768-7,11c0.431,2.236,4.929,0.404,7,1
			C78,274,78,270,78,266z M607,283c17.141-0.49,39.516,1.07,52-1c3.025-6.553-5.283-4.95-9-6c-12.288-3.471-30.057-6.141-42-9
			c-1.163-0.163-1.779,0.221-2,1C605.805,275.753,608.161,275.107,607,283z M194,276c0,6.667,0,13.333,0,20c10,0,20,0,30,0
			c1.624-4.607,1.624-15.393,0-20C214,276,204,276,194,276z M666,278c-3.779,2.636-1.923,8.73-2,13c-0.241,13.337,0.18,29.811,0,44
			c15.667-0.667,29.236-3.432,45-4c0-15.333,0-30.667,0-46C693.786,283.548,680.191,280.475,666,278z M25,281
			c22.407,0.927,39.446,7.221,52,18c2.312-3.688,0.349-11.65,1-17C60.951,285.491,41.526,271.934,25,281z M607,324
			c-0.361,9.616,15.052,6,24,6c10.634,0,22.475,1.419,28-2c0-1.667,0-3.333,0-5C645.061,323.727,619.35,321.76,607,324z M611,298
			c0.301,4.085-1.385-0.169-4,1c0.247,8.247-1.762,14.239-1,23c15.12,0.077,38.88,0.077,54,0c0.762-8.761-1.247-14.753-1-23
			c-12.387,0.365-31.488-0.254-47,0c14.003-2.33,32.331-0.335,48-1c0-4.667,0-9.333,0-14c-18,0-36,0-54,0c0,4.333,0,8.667,0,13
			C605.542,301.104,608.137,296.593,611,298z M524,302c12.469,21.865,18.973,58.359,16,99c3.764-0.903,6.468-2.866,11-3
			C554.536,353.465,541.059,325.941,524,302z M153,326c-8.852,8.148-12.304,21.695-20,31c10.671,2.329,25.663,0.337,38,1
			C166.042,346.292,158.286,337.38,153,326z M78,326c-11.288,6.712-22.373,13.627-39,15c2.665,19.139,16.33,32.15,39,28
			C78,354.667,78,340.333,78,326z M660,331c-18,0-36,0-54,0c0,3.667,0,7.333,0,11c18.273-1.729,36.711-3.289,54-6
			C660,334.333,660,332.667,660,331z M98,353c-3.356-2.311-10.983-0.352-16-1c0,5,0,10,0,15C90.326,365.326,93.34,358.34,98,353z
			 M338,380c18.668-0.665,39.998,1.331,57-1c2.248-6.975-5.631-7.686-10-9c-15.439-4.646-33.062-8.357-46-16
			C336.676,360.676,338.66,371.66,338,380z M115,363c-1.615-0.282-1.722,0.945-3,1c-5.226,12.773-16.873,19.127-30,24
			c6.893,10.774,19.171,16.162,27,26c-1.453,0.547-5.168-1.169-5,1c0,7.667,0,15.333,0,23c12.192,0.712,14.941-13.762,26-14
			c9.469-0.204,13.423,8.317,21,14c3.333,0,6.667,0,10,0c6.555-4.445,9.546-12.454,19-14c-3.076-7.535,2.281-17.491-1-25
			C146.072,402.507,123.947,386.785,115,363z M399,374c0,2,0,4,0,6c3.333,0,6.667,0,10,0C410.396,373.271,403.293,375.04,399,374z
			 M399,384c0,27,0,54,0,81c3,0,6,0,9,0c2.321-25.013,0.343-54.324,1-81C405.667,384,402.333,384,399,384z M338,384
			c-3.575,13.613,5.938,17.723,10,27c8.033,18.352,3.494,38.297-8,54c18.333,0,36.667,0,55,0c0-27,0-54,0-81
			C376,384,357,384,338,384z M334,384c-5.333,0-10.667,0-16,0c4.92,3.08,11.51,4.49,15,9C335.27,391.938,333.381,386.714,334,384z
			 M285,385c-9.672-2.328-23.663-0.337-35-1c0,27,0,54,0,81c4.333,0,8.667,0,13,0c-2.489-8.113-9.562-14.654-11-27
			C248.946,411.755,265.596,391.312,285,385z M246,384c-13.83,1.751-23.825-2.445-34,0c-10.059,2.419-16.311,15.172-28,14
			c0,10,0,20,0,30c-14.431,0.505-14.024,13.939-26,15c-11.529,1.021-14.719-12.461-25-14c-14.095-2.109-12.177,12.587-28,14
			c1.914,11.615-2.28,21.288-1,28c1.545,8.097,9.016,11.513,11,20c6.664,1.002,11.781,3.552,16,7c1.339-7.368-5.344-25.406,6-27
			c-1.716-1.617-2.484-4.183-2-8c18.512-16.194,72.606-16.208,90,1c7,0,14,0,21,0C246,437.333,246,410.667,246,384z M300,385
			c-8.769,1.23-16.191,3.809-23,7c1.495,14.828-3.934,22.732-18,22c-2.202,6.132-3.681,12.985-3,22c13.562-3.478,23.419,5.185,21,21
			c4.789-2.211,10.489-3.511,18-3c-1.278-35.115,47.983-13.623,27,8c4.635,12.591,16.967,1.663,22-10c0.808-1.87,3.765-12.434,4-14
			c3.287-21.86-11.415-40.619-22-45c2.924,10.215-3.146,19.343-10,21C298.681,418.188,288.018,398.112,300,385z M539,439
			c13.719-5.23,31.408-10.904,50-9c11.637,1.192,20.729,7.166,30,9c19.146,15.854,38.084,31.915,38,67c10.667,0,21.333,0,32,0
			c0.701-4.367-1.701-5.633-1-10c-10,0-20,0-30,0c7.674-2.326,19.661-0.339,29-1c0.197-18.192-9.918-36.654-19-49
			c-5.23-7.111-9.204-14.591-17-21c-2.684-2.206-6.616-4.528-10-7c-12.701-9.278-21.098-19.23-41.589-16.45
			c-10.578-5.383-23.402-2.746-30.411-2.55c-2.287,1.046-3.543,3.124-7,3c0.162-1.172,1.823-0.844,3-1
			c-10.707-1.038-23.333,3.355-33,8 M95,444c-9.339-2.328-22.996-0.338-34-1c0,8.333,0,16.667,0,25
			C73.173,460.84,83.529,451.862,95,444z M140,466c15.118,12.996,63.863,12.886,79,0c-7.717-8.984-28.638-10.987-46-10
			C160.148,456.73,145.311,458.547,140,466z M394,478c-0.197-3.863-0.036-7.369,1-10c-19,0-38,0-57,0c2.924,0.927-0.479,8.888,2,8
			c1.135,0.19,0.556,1.003,0,1C356.002,479.331,376.332,477.335,394,478z M259,469c-1.062-2.27-6.286-0.381-9-1
			c0,4.333,0,8.667,0,13C253.088,477.088,255.139,472.139,259,469z M135,478c3.286,8.806,18.666,11.091,32,12
			c20.984,1.431,48.16-0.183,57-11c-5.709-9.461-19.26,0.019-32,1c-7.35,0.566-16.049,0.466-23,0
			C154.801,479.048,142.721,470.775,135,478z M103,477c-3.675,3.659-6.42,8.247-8,14c3.286-2.047,10.127-0.54,15-1
			C108.062,485.271,104.066,482.6,103,477z M342,502c0.568,6.568-2.321,9.679-2,16c15.362-1.641,37.644-1.685,53,0
			c-13.263,0.632-42.349-1.243-54,1c0,2,0,4,0,6c17.873,0.104,40.383-0.144,55,0c1.501-16.208-0.126-29.416,1-46c-19,0-38,0-57,0
			c-0.334,8.667,5.03,11.637,4,21"/>
		<path fill="none" stroke="#000000" stroke-miterlimit="10" d="M486,163c1.82,2.875,8.195,24.626,7,34
			c-5.785,45.33-73.473,57.395-93,13c-16.77-38.126,15.776-72.593,51-68C468.59,144.294,479.861,153.307,486,163z M473,155
			c-4.881-2.347-19.917-8.195-26-10c0,12,0,24,0,36c2.009,3.705,5.288,4.495,5,9c-0.381,5.969-6,8.437-13,6
			c-5.63,6.036-10.673,12.66-18,17c-4.064-7.457,11.238-14.589,16-20c-0.9-6.233,1.837-8.829,5-11c0-12.333,0-24.667,0-37
			c-9.083,2.228-17.665,3.798-22,7c-0.793,0.586-0.739,2.507,0,2c-3.548,2.436-8.169,4.152-11,8c-20.926,28.452-0.335,69.695,32,72
			C486.5,237.244,503.428,179.665,473,155 M443,193c3.562,0.229,5.229-1.438,5-5C444.117,183.84,438.84,189.117,443,193z"/>
		<path fill="none" stroke="#000000" stroke-miterlimit="10" d="M483,284"/>
		<path fill="none" stroke="#000000" stroke-miterlimit="10" d="M43,328c-17.653,12.766-42.08-10.729-28-29
			c-1.209,0.102-0.615-1.453,0,0C34.688,277.189,65.633,311.635,43,328z M33,297c-5.715-0.88-11.098,0.744-14,4
			c-5.276,5.92-4.311,23.318,7,26c8.438,2,22.362-1.059,20-18C45.269,303.757,41.94,298.377,33,297z"/>
		<path fill="none" stroke="#000000" stroke-miterlimit="10" d="M635,424"/>
		<path fill="none" stroke="#000000" stroke-miterlimit="10" d="M648,425"/>
		<path fill="none" stroke="#000000" stroke-miterlimit="10" d="M625,441c-1.434-0.018-3.6-0.55-4-2c10.25,1.025,30.249-1.583,42,1
			c-2.812,3.521-11.207,1.46-17,2c-1.074-2.777,12.803,0.83,15-2C649.809,438.856,634.025,441.111,625,441z"/>
		<path fill="none" stroke="#000000" stroke-miterlimit="10" d="M637,448c6.991-0.626,18.93,0.843,24,0c0.057-0.01,0.915-3.754,1,0
			c0.072,0.672-23.355,3.134-28-1c1.439,0.534,2.439-3.896,3-1C635.792,446.212,636.385,447.109,637,448z"/>
		<path fill="none" stroke="#000000" stroke-miterlimit="10" d="M678,464c-0.782,4.463-21.762-1.711-27,0
			c-0.748,0.244,0.668,3.214-1,3c0.516,0.066-0.9-2.935-1-3c-0.859-0.561-5.7,2.052-4-1C655.671,463.662,668.994,461.673,678,464z"
			/>
		<path fill="none" stroke="#000000" stroke-miterlimit="10" d="M109,258c-30.93-5.932-26.488-61.758,12-55
			C157.245,209.365,147.02,265.292,109,258z M121,230c-0.63,3.703-3.091,5.576-8,5c-1.922,1.674-4.696,5.804-7,4
			c1.258-6.086,11.088-12.238,8-26c-8.547,2.495-13.662,6.146-15,12c-6.245,27.322,40.843,30.58,34,0
			c-1.287-5.751-7.048-8.833-13-12C115.476,215.87,118.341,227.74,121,230z"/>
	</g>
</g>
</svg>
