<?xml version="1.0" encoding="utf-8"?>
<!-- Generator: Adobe Illustrator 15.0.0, SVG Export Plug-In . SVG Version: 6.00 Build 0)  -->
<!DOCTYPE svg PUBLIC "-//W3C//DTD SVG 1.1//EN" "http://www.w3.org/Graphics/SVG/1.1/DTD/svg11.dtd">
<svg version="1.1" id="Layer_1" xmlns="http://www.w3.org/2000/svg" xmlns:xlink="http://www.w3.org/1999/xlink" x="0px" y="0px"
	 width="99px" height="114px" viewBox="0 0 99 114" enable-background="new 0 0 99 114" xml:space="preserve">
<g enable-background="new    ">
	<path d="M14.258,32.673v-5.807h-1.182v-0.66l2.277-2.804h2.771v7.992l-1.074,1.278L14.258,32.673L14.258,32.673z M15.424,31.298
		h2.594V23.51h-2.594l-1.069,1.3v0.682h1.069V31.298z"/>
	<path d="M19.043,32.673v-2.035l0.87-1.375h-0.87v-4.485l1.069-1.375h5.86v5.962l-2.648,3.309L19.043,32.673L19.043,32.673z
		 M20.208,31.298h4.082l1.574-1.992V23.51h-5.656v4.479h3.314v1.273h-3.314V31.298z"/>
</g>
<text transform="matrix(1 0 0 1 33.2979 30.2041)" fill="none" stroke="#000000" stroke-width="0.1" stroke-linecap="round" stroke-linejoin="bevel" stroke-miterlimit="10" stroke-dasharray="12" font-family="'PioneerITCbyBT-Regular'" font-size="11">19</text>
<g>
	<path fill="none" stroke="#000000" stroke-width="2" stroke-miterlimit="10" d="M33.906,42.417c2.52,0,2.52,2,5.04,2
		c2.521,0,2.521-2,5.042-2s2.521,2,5.043,2"/>
</g>
<g>
	<path fill="none" stroke="#000000" stroke-width="2" stroke-miterlimit="10" d="M33.906,45.253c2.52,0,2.52,2,5.04,2
		c2.521,0,2.521-2,5.042-2s2.521,2,5.043,2"/>
</g>
<path fill="none" stroke="#000000" stroke-width="0.1" stroke-miterlimit="10" d="M30.906,40.417"/>
<path fill="none" stroke="#000000" stroke-width="0.1" stroke-miterlimit="10" d="M30.906,27.417"/>
<g>
	<path fill="none" stroke="#000000" stroke-width="0.2" stroke-linecap="round" stroke-miterlimit="10" d="M32.906,19.125
		c1.758,0,1.758,2,3.516,2c1.758,0,1.758-2,3.516-2s1.758,2,3.517,2c1.761,0,1.761-2,3.523-2c1.761,0,1.761,2,3.522,2"/>
</g>
<g>
	<path fill="none" stroke="#000000" stroke-width="0.2" stroke-linecap="round" stroke-miterlimit="10" d="M32.906,33.125
		c1.758,0,1.758,2,3.516,2c1.758,0,1.758-2,3.516-2s1.758,2,3.517,2c1.761,0,1.761-2,3.523-2c1.761,0,1.761,2,3.522,2"/>
</g>
<rect x="58.375" y="30" fill="none" stroke="#000000" stroke-width="0.1" stroke-linecap="round" stroke-miterlimit="10" width="21" height="21"/>
<line fill="none" stroke="#000000" stroke-width="0.2" stroke-linecap="round" stroke-linejoin="bevel" stroke-miterlimit="10" x1="32.828" y1="40.138" x2="32.828" y2="19.138"/>
<line fill="none" stroke="#000000" stroke-width="0.2" stroke-linecap="round" stroke-linejoin="bevel" stroke-miterlimit="10" x1="50.5" y1="21.125" x2="50.5" y2="37.184"/>
<path fill="none" stroke="#000000" stroke-width="0.1" d="M23.745,25.588"/>
<path fill="none" stroke="#000000" stroke-width="0.1" d="M23.23,25.595"/>
<path fill="none" stroke="#000000" stroke-width="0.1" d="M23.077,26.04"/>
<path fill="none" stroke="#000000" stroke-width="0.1" d="M23.499,26.309"/>
<path fill="none" stroke="#000000" stroke-width="0.1" d="M23.91,26.031"/>
<polyline fill="none" stroke="#000000" stroke-width="0.1" stroke-linecap="square" points="18.005,25.572 16.702,26.413 
	15.435,25.578 "/>
<polyline fill="none" stroke="#000000" stroke-width="0.1" stroke-linecap="square" points="15.435,26.578 16.696,25.619 
	18.005,26.572 "/>
<ellipse fill="none" stroke="#000000" stroke-width="0.1" cx="23.499" cy="25.805" rx="0.583" ry="0.527"/>
<ellipse stroke="#000000" stroke-width="0.1" cx="23.51" cy="25.815" rx="0.3" ry="0.26"/>
<polygon fill="none" stroke="#000000" stroke-width="0.1" stroke-linecap="round" stroke-linejoin="round" points="23.52,26.683 
	22.096,25.814 23.5,24.926 24.924,25.795 "/>
<line fill="none" stroke="#000000" stroke-width="0.1" stroke-linejoin="round" x1="23.52" y1="26.683" x2="23.522" y2="29.262"/>
<path fill="none" stroke="#000000" stroke-width="0.1" stroke-linejoin="round" d="M22.734,29.2"/>
<line fill="none" stroke="#000000" stroke-width="0.1" stroke-linejoin="round" x1="22.734" y1="29.262" x2="22.734" y2="29.262"/>
<line fill="none" stroke="#000000" stroke-width="0.1" stroke-linejoin="round" x1="23.498" y1="23.402" x2="23.5" y2="24.926"/>
<g>
	<path d="M25.625,22.361c1.489,1.485,2.353,3.586,2.335,5.707c0.018,2.12-0.814,4.252-2.345,5.798
		c-1.494,1.539-3.655,2.484-5.855,2.479c-2.201-0.003-4.383-0.904-5.949-2.504c-1.522-1.578-2.388-3.805-2.324-5.999
		c0.062-2.202,1.05-4.325,2.647-5.792c1.569-1.471,3.736-2.257,5.85-2.179C22.104,19.912,24.18,20.832,25.625,22.361z
		 M25.589,22.395c-1.454-1.504-3.517-2.388-5.607-2.406c-2.09-0.035-4.173,0.796-5.663,2.262c-1.5,1.45-2.385,3.511-2.402,5.597
		c-0.035,2.087,0.795,4.166,2.259,5.654c1.444,1.5,3.502,2.389,5.588,2.41c2.086,0.039,4.169-0.786,5.662-2.25
		c1.504-1.447,2.393-3.508,2.415-5.597C27.881,25.976,27.054,23.89,25.589,22.395z"/>
</g>
<g>
	<path fill="none" stroke="#000000" stroke-width="0.2" stroke-linecap="round" stroke-miterlimit="10" d="M0,114.5"/>
</g>
<g>
	<path fill="none" stroke="#000000" stroke-width="0.2" stroke-linecap="round" stroke-miterlimit="10" d="M0,114.5"/>
</g>
<path fill="none" stroke="#000000" stroke-width="0.1" stroke-linecap="round" stroke-linejoin="round" d="M24.5,23.926"/>
<path fill="none" stroke="#000000" stroke-width="0.1" stroke-linecap="round" stroke-linejoin="round" d="M24.5,23.926"/>
</svg>
