<?xml version="1.0" encoding="utf-8"?>
<!-- Generator: Adobe Illustrator 19.0.0, SVG Export Plug-In . SVG Version: 6.00 Build 0)  -->
<svg version="1.1" id="Layer_1" xmlns="http://www.w3.org/2000/svg" xmlns:xlink="http://www.w3.org/1999/xlink" x="0px" y="0px"
	 viewBox="0 0 163 99" style="enable-background:new 0 0 163 99;" xml:space="preserve">
<style type="text/css">
	.st0{fill:none;stroke:#F4A31E;stroke-width:2;stroke-miterlimit:10;}
	.st1{fill:none;}
</style>
<g id="XMLID_13_">
	<path id="XMLID_36_" class="st0" d="M89.9,20.2c1.6-3.1,3.2-6.3,5.2-10.2c-4.8,0-8.1,0-12.8,0c2.1,4,3.8,7.2,5.5,10.3
		C88.5,20.3,89.2,20.3,89.9,20.2z"/>
	<path id="XMLID_31_" class="st0" d="M110.8,54.4c-4.3-9.8-12.1-16.8-19.7-24.1c-0.6-0.6-1.4-1.5-2.3-1.5c-1.1,0-2.2,1.3-2.6,1.8
		c-5.8,6.1-11.8,12.2-16.7,19c-3,4.3-5,9.7-5,14.9C65.9,83,79.7,94.9,95.9,90C109.6,85.9,117,68.4,110.8,54.4z M92.9,48.2
		c-0.6,1.5-2.8,3.6-4,3.4c-1.7-0.3-3.9-2.1-4.4-3.8c-1.6-5.3-0.4-10.2,4.3-14.3C93.2,37.9,95.1,42.6,92.9,48.2z"/>
</g>
<rect id="XMLID_11_" x="50.8" class="st1" width="38" height="99"/>
</svg>
