<?xml version="1.0" encoding="utf-8"?>
<!-- Generator: Adobe Illustrator 15.0.0, SVG Export Plug-In . SVG Version: 6.00 Build 0)  -->
<!DOCTYPE svg PUBLIC "-//W3C//DTD SVG 1.1//EN" "http://www.w3.org/Graphics/SVG/1.1/DTD/svg11.dtd">
<svg version="1.1" id="Layer_1" xmlns="http://www.w3.org/2000/svg" xmlns:xlink="http://www.w3.org/1999/xlink" x="0px" y="0px"
	 width="800px" height="600px" viewBox="0 0 800 600" enable-background="new 0 0 800 600" xml:space="preserve">
<g>
	<linearGradient id="SVGID_1_" gradientUnits="userSpaceOnUse" x1="401.0225" y1="600.1748" x2="401.0224" y2="66.0005">
		<stop  offset="0.4601" style="stop-color:#FFFFF8"/>
		<stop  offset="1" style="stop-color:#EAFFFB"/>
	</linearGradient>
	<path fill-rule="evenodd" clip-rule="evenodd" fill="url(#SVGID_1_)" d="M1.26,66c266.366,0,532.66,0,799.046,0
		c0.261,0,0.521,0,0.782,0c-0.174,177.971,0.347,356.639-0.261,534.175c-266.436,0-532.877,0-799.307,0
		C0.305,423.46,1.346,244.501,1,66.782C0.977,66.412,0.957,66.044,1.26,66z"/>
</g>
<g>
	<line fill="none" x1="-596" y1="-629" x2="1312" y2="-629"/>
	<line fill="none" x1="-147" y1="-377" x2="877" y2="-377"/>
	<line fill="none" x1="302" y1="-125" x2="442" y2="-125"/>
</g>
<path fill="none" stroke="#000000" stroke-width="0.75" d="M422.953,109.891"/>
<g opacity="0.4">
	<path fill="none" stroke="#000000" stroke-width="0.1" stroke-linejoin="round" d="M328.086,175.484"/>
	<path fill="none" stroke="#000000" stroke-width="0.1" stroke-linejoin="round" d="M299.773,158.156"/>
	<path fill="none" stroke="#000000" stroke-width="0.1" stroke-linejoin="round" d="M306.648,168.875"/>
</g>
<g opacity="0.5">
	<polyline fill="none" stroke="#9F7277" stroke-width="0.5" points="-45.143,225.871 -34.283,235.871 -23.432,225.871 
		-12.576,235.871 -1.732,225.871 9.127,235.871 19.99,225.871 30.854,235.871 41.713,225.871 52.592,235.871 63.467,225.871 
		74.357,235.871 85.244,225.871 96.123,235.871 106.994,225.871 117.857,235.871 128.725,225.871 139.592,235.871 150.447,225.871 
		161.318,235.871 172.189,225.871 183.053,235.871 193.932,225.871 204.818,235.871 215.701,225.871 226.592,235.871 
		237.475,225.871 248.354,235.871 259.221,225.871 270.1,235.871 280.975,225.871 291.842,235.871 302.729,225.871 313.607,235.871 
		324.506,225.871 335.4,235.871 346.279,225.871 357.15,235.871 368.037,225.871 378.912,235.871 389.803,225.871 400.689,235.871 
		411.588,225.871 422.475,235.871 433.357,225.871 444.244,235.871 455.131,225.871 466.029,235.871 476.92,225.871 
		487.811,235.871 498.697,225.871 509.596,235.871 520.482,225.871 531.381,235.871 542.271,225.871 553.162,235.871 
		564.061,225.871 574.959,235.871 585.846,225.871 596.732,235.871 607.615,225.871 618.49,235.871 629.381,225.871 
		640.271,235.871 651.17,225.871 662.045,235.871 672.943,225.871 683.842,235.871 694.74,225.871 705.65,235.871 716.549,225.871 
		727.459,235.871 738.357,225.871 749.264,235.871 760.17,225.871 771.068,235.871 781.967,225.871 792.896,235.871 
		803.803,225.871 814.732,235.871 825.67,225.871 836.607,235.871 	"/>
</g>
<path fill="none" stroke="#000000" d="M427.953,210.891"/>
<g opacity="0.8">
	<polyline fill="none" stroke="#9F7277" stroke-width="0.5" points="-45.117,208.871 -34.258,218.871 -23.406,208.871 
		-12.551,218.871 -1.707,208.871 9.152,218.871 20.016,208.871 30.879,218.871 41.738,208.871 52.617,218.871 63.492,208.871 
		74.383,218.871 85.27,208.871 96.148,218.871 107.02,208.871 117.883,218.871 128.75,208.871 139.617,218.871 150.473,208.871 
		161.344,218.871 172.215,208.871 183.078,218.871 193.957,208.871 204.844,218.871 215.727,208.871 226.617,218.871 237.5,208.871 
		248.379,218.871 259.246,208.871 270.125,218.871 281,208.871 291.867,218.871 302.754,208.871 313.633,218.871 324.531,208.871 
		335.426,218.871 346.305,208.871 357.176,218.871 368.062,208.871 378.938,218.871 389.828,208.871 400.715,218.871 
		411.613,208.871 422.5,218.871 433.383,208.871 444.27,218.871 455.156,208.871 466.055,218.871 476.945,208.871 487.836,218.871 
		498.723,208.871 509.621,218.871 520.508,208.871 531.406,218.871 542.297,208.871 553.188,218.871 564.086,208.871 
		574.984,218.871 585.871,208.871 596.758,218.871 607.641,208.871 618.516,218.871 629.406,208.871 640.297,218.871 
		651.195,208.871 662.07,218.871 672.969,208.871 683.867,218.871 694.766,208.871 705.676,218.871 716.574,208.871 
		727.484,218.871 738.383,208.871 749.289,218.871 760.195,208.871 771.094,218.871 781.992,208.871 792.922,218.871 
		803.828,208.871 814.758,218.871 825.695,208.871 836.633,218.871 	"/>
</g>
<g opacity="0">
	<polyline fill="none" stroke="#DAE5CA" stroke-width="10" points="-45.142,201.302 -34.283,211.302 -23.431,201.302 
		-12.576,211.302 -1.732,201.302 9.127,211.302 19.991,201.302 30.854,211.302 41.713,201.302 52.592,211.302 63.467,201.302 
		74.358,211.302 85.245,201.302 96.124,211.302 106.995,201.302 117.858,211.302 128.725,201.302 139.592,211.302 150.448,201.302 
		161.319,211.302 172.19,201.302 183.053,211.302 193.932,201.302 204.819,211.302 215.702,201.302 226.592,211.302 
		237.475,201.302 248.354,211.302 259.221,201.302 270.1,211.302 280.975,201.302 291.842,211.302 302.729,201.302 313.608,211.302 
		324.506,201.302 335.401,211.302 346.28,201.302 357.151,211.302 368.038,201.302 378.913,211.302 389.803,201.302 400.69,211.302 
		411.589,201.302 422.476,211.302 433.358,201.302 444.245,211.302 455.132,201.302 466.03,211.302 476.921,201.302 
		487.812,211.302 498.698,201.302 509.597,211.302 520.483,201.302 531.382,211.302 542.271,201.302 553.163,211.302 
		564.062,201.302 574.96,211.302 585.847,201.302 596.733,211.302 607.616,201.302 618.491,211.302 629.382,201.302 
		640.271,211.302 651.171,201.302 662.046,211.302 672.944,201.302 683.843,211.302 694.741,201.302 705.651,211.302 
		716.55,201.302 727.46,211.302 738.358,201.302 749.265,211.302 760.171,201.302 771.069,211.302 781.968,201.302 792.896,211.302 
		803.804,201.302 814.733,211.302 825.671,201.302 836.608,211.302 	"/>
</g>
<g opacity="0">
	<polyline fill="none" stroke="#E3D2CA" stroke-width="10" points="-44.794,188.056 -33.935,198.056 -23.083,188.056 
		-12.228,198.056 -1.384,188.056 9.476,198.056 20.339,188.056 31.202,198.056 42.062,188.056 52.94,198.056 63.815,188.056 
		74.706,198.056 85.593,188.056 96.472,198.056 107.343,188.056 118.206,198.056 129.073,188.056 139.94,198.056 150.796,188.056 
		161.667,198.056 172.538,188.056 183.401,198.056 194.28,188.056 205.167,198.056 216.05,188.056 226.94,198.056 237.823,188.056 
		248.702,198.056 259.569,188.056 270.448,198.056 281.323,188.056 292.19,198.056 303.077,188.056 313.956,198.056 
		324.854,188.056 335.749,198.056 346.628,188.056 357.499,198.056 368.386,188.056 379.261,198.056 390.151,188.056 
		401.039,198.056 411.938,188.056 422.824,198.056 433.707,188.056 444.594,198.056 455.48,188.056 466.379,198.056 477.27,188.056 
		488.16,198.056 499.047,188.056 509.945,198.056 520.832,188.056 531.73,198.056 542.621,188.056 553.512,198.056 564.41,188.056 
		575.309,198.056 586.195,188.056 597.082,198.056 607.965,188.056 618.84,198.056 629.73,188.056 640.621,198.056 651.52,188.056 
		662.395,198.056 673.293,188.056 684.191,198.056 695.09,188.056 706,198.056 716.898,188.056 727.809,198.056 738.707,188.056 
		749.613,198.056 760.52,188.056 771.418,198.056 782.316,188.056 793.246,198.056 804.152,188.056 815.082,198.056 826.02,188.056 
		836.957,198.056 	"/>
</g>
<g>
	<polyline fill="none" stroke="#ACD2CA" stroke-width="10" points="-44.794,175.056 -33.935,185.056 -23.083,175.056 
		-12.228,185.056 -1.384,175.056 9.476,185.056 20.339,175.056 31.202,185.056 42.062,175.056 52.94,185.056 63.815,175.056 
		74.706,185.056 85.593,175.056 96.472,185.056 107.343,175.056 118.206,185.056 129.073,175.056 139.94,185.056 150.796,175.056 
		161.667,185.056 172.538,175.056 183.401,185.056 194.28,175.056 205.167,185.056 216.05,175.056 226.94,185.056 237.823,175.056 
		248.702,185.056 259.569,175.056 270.448,185.056 281.323,175.056 292.19,185.056 303.077,175.056 313.956,185.056 
		324.854,175.056 335.749,185.056 346.628,175.056 357.499,185.056 368.386,175.056 379.261,185.056 390.151,175.056 
		401.039,185.056 411.938,175.056 422.824,185.056 433.707,175.056 444.594,185.056 455.48,175.056 466.379,185.056 477.27,175.056 
		488.16,185.056 499.047,175.056 509.945,185.056 520.832,175.056 531.73,185.056 542.621,175.056 553.512,185.056 564.41,175.056 
		575.309,185.056 586.195,175.056 597.082,185.056 607.965,175.056 618.84,185.056 629.73,175.056 640.621,185.056 651.52,175.056 
		662.395,185.056 673.293,175.056 684.191,185.056 695.09,175.056 706,185.056 716.898,175.056 727.809,185.056 738.707,175.056 
		749.613,185.056 760.52,175.056 771.418,185.056 782.316,175.056 793.246,185.056 804.152,175.056 815.082,185.056 826.02,175.056 
		836.957,185.056 	"/>
</g>
<linearGradient id="SVGID_2_" gradientUnits="userSpaceOnUse" x1="384.6118" y1="404.9434" x2="384.6118" y2="618" gradientTransform="matrix(1 0 0 -1 12 584)">
	<stop  offset="0" style="stop-color:#ACD2CA"/>
	<stop  offset="1" style="stop-color:#B6DFCA"/>
</linearGradient>
<rect x="-38.794" y="-34" fill="url(#SVGID_2_)" stroke="#ACD2CA" width="870.812" height="213.056"/>
<polyline opacity="0.25" fill="none" stroke="#9F7277" stroke-width="0.5" enable-background="new    " points="-45.143,244.871 
	-34.283,254.871 -23.432,244.871 -12.576,254.871 -1.732,244.871 9.127,254.871 19.99,244.871 30.854,254.871 41.713,244.871 
	52.592,254.871 63.467,244.871 74.357,254.871 85.244,244.871 96.123,254.871 106.994,244.871 117.857,254.871 128.725,244.871 
	139.592,254.871 150.447,244.871 161.318,254.871 172.189,244.871 183.053,254.871 193.932,244.871 204.818,254.871 
	215.701,244.871 226.592,254.871 237.475,244.871 248.354,254.871 259.221,244.871 270.1,254.871 280.975,244.871 291.842,254.871 
	302.729,244.871 313.607,254.871 324.506,244.871 335.4,254.871 346.279,244.871 357.15,254.871 368.037,244.871 378.912,254.871 
	389.803,244.871 400.689,254.871 411.588,244.871 422.475,254.871 433.357,244.871 444.244,254.871 455.131,244.871 
	466.029,254.871 476.92,244.871 487.811,254.871 498.697,244.871 509.596,254.871 520.482,244.871 531.381,254.871 542.271,244.871 
	553.162,254.871 564.061,244.871 574.959,254.871 585.846,244.871 596.732,254.871 607.615,244.871 618.49,254.871 629.381,244.871 
	640.271,254.871 651.17,244.871 662.045,254.871 672.943,244.871 683.842,254.871 694.74,244.871 705.65,254.871 716.549,244.871 
	727.459,254.871 738.357,244.871 749.264,254.871 760.17,244.871 771.068,254.871 781.967,244.871 792.896,254.871 803.803,244.871 
	814.732,254.871 825.67,244.871 836.607,254.871 "/>
<polyline opacity="0.1" fill="none" stroke="#9F7277" stroke-width="0.5" enable-background="new    " points="-45.143,277.686 
	-34.284,287.686 -23.432,277.686 -12.577,287.686 -1.733,277.686 9.126,287.686 19.99,277.686 30.853,287.686 41.712,277.686 
	52.591,287.686 63.466,277.686 74.357,287.686 85.244,277.686 96.123,287.686 106.994,277.686 117.857,287.686 128.724,277.686 
	139.591,287.686 150.447,277.686 161.318,287.686 172.189,277.686 183.052,287.686 193.931,277.686 204.818,287.686 
	215.701,277.686 226.591,287.686 237.474,277.686 248.353,287.686 259.22,277.686 270.099,287.686 280.974,277.686 291.841,287.686 
	302.728,277.686 313.607,287.686 324.505,277.686 335.4,287.686 346.279,277.686 357.15,287.686 368.037,277.686 378.912,287.686 
	389.802,277.686 400.689,287.686 411.588,277.686 422.475,287.686 433.357,277.686 444.244,287.686 455.131,277.686 
	466.029,287.686 476.92,277.686 487.811,287.686 498.697,277.686 509.596,287.686 520.482,277.686 531.381,287.686 542.271,277.686 
	553.162,287.686 564.061,277.686 574.959,287.686 585.846,277.686 596.732,287.686 607.615,277.686 618.49,287.686 629.381,277.686 
	640.271,287.686 651.17,277.686 662.045,287.686 672.943,277.686 683.842,287.686 694.74,277.686 705.65,287.686 716.549,277.686 
	727.459,287.686 738.357,277.686 749.264,287.686 760.17,277.686 771.068,287.686 781.967,277.686 792.896,287.686 803.803,277.686 
	814.732,287.686 825.67,277.686 836.607,287.686 "/>
</svg>
