<?xml version="1.0" encoding="utf-8"?>
<!-- Generator: Adobe Illustrator 15.0.0, SVG Export Plug-In . SVG Version: 6.00 Build 0)  -->
<!DOCTYPE svg PUBLIC "-//W3C//DTD SVG 1.1//EN" "http://www.w3.org/Graphics/SVG/1.1/DTD/svg11.dtd">
<svg version="1.1" id="Layer_1" xmlns="http://www.w3.org/2000/svg" xmlns:xlink="http://www.w3.org/1999/xlink" x="0px" y="0px"
	 width="800px" height="600px" viewBox="0 0 800 600" enable-background="new 0 0 800 600" xml:space="preserve">
<g opacity="0.5">
	<linearGradient id="SVGID_1_" gradientUnits="userSpaceOnUse" x1="401.0225" y1="622.1748" x2="401.0224" y2="88.0005">
		<stop  offset="0.2761" style="stop-color:#FFFFF8"/>
		<stop  offset="1" style="stop-color:#EAFFFB"/>
	</linearGradient>
	<path fill-rule="evenodd" clip-rule="evenodd" fill="url(#SVGID_1_)" d="M1.26,88c266.366,0,532.66,0,799.046,0
		c0.261,0,0.521,0,0.782,0c-0.174,177.971,0.347,356.639-0.261,534.175c-266.436,0-532.877,0-799.307,0
		C0.305,445.46,1.346,266.501,1,88.782C0.977,88.412,0.957,88.044,1.26,88z"/>
</g>
<g>
	<line fill="none" x1="-596" y1="-629" x2="1312" y2="-629"/>
	<line fill="none" x1="-147" y1="-377" x2="877" y2="-377"/>
	<line fill="none" x1="302" y1="-125" x2="442" y2="-125"/>
</g>
<path fill="none" stroke="#000000" stroke-width="0.75" d="M422.953,109.891"/>
<g opacity="0.4">
	<path fill="none" stroke="#000000" stroke-width="0.1" stroke-linejoin="round" d="M328.086,175.484"/>
	<path fill="none" stroke="#000000" stroke-width="0.1" stroke-linejoin="round" d="M299.773,158.156"/>
	<path fill="none" stroke="#000000" stroke-width="0.1" stroke-linejoin="round" d="M306.648,168.875"/>
</g>
<path fill="none" stroke="#000000" d="M427.953,210.891"/>
<g opacity="0">
	<polyline fill="none" stroke="#DAE5CA" stroke-width="10" points="-45.142,201.302 -34.283,211.302 -23.431,201.302 
		-12.576,211.302 -1.732,201.302 9.127,211.302 19.991,201.302 30.854,211.302 41.713,201.302 52.592,211.302 63.467,201.302 
		74.358,211.302 85.245,201.302 96.124,211.302 106.995,201.302 117.858,211.302 128.725,201.302 139.592,211.302 150.448,201.302 
		161.319,211.302 172.19,201.302 183.053,211.302 193.932,201.302 204.819,211.302 215.702,201.302 226.592,211.302 
		237.475,201.302 248.354,211.302 259.221,201.302 270.1,211.302 280.975,201.302 291.842,211.302 302.729,201.302 313.608,211.302 
		324.506,201.302 335.401,211.302 346.28,201.302 357.151,211.302 368.038,201.302 378.913,211.302 389.803,201.302 400.69,211.302 
		411.589,201.302 422.476,211.302 433.358,201.302 444.245,211.302 455.132,201.302 466.03,211.302 476.921,201.302 
		487.812,211.302 498.698,201.302 509.597,211.302 520.483,201.302 531.382,211.302 542.271,201.302 553.163,211.302 
		564.062,201.302 574.96,211.302 585.847,201.302 596.733,211.302 607.616,201.302 618.491,211.302 629.382,201.302 
		640.271,211.302 651.171,201.302 662.046,211.302 672.944,201.302 683.843,211.302 694.741,201.302 705.651,211.302 
		716.55,201.302 727.46,211.302 738.358,201.302 749.265,211.302 760.171,201.302 771.069,211.302 781.968,201.302 792.896,211.302 
		803.804,201.302 814.733,211.302 825.671,201.302 836.608,211.302 	"/>
</g>
<g>
	<polyline fill="none" stroke="#ACD2CA" stroke-width="10" points="-44.794,175.056 -33.935,185.056 -23.083,175.056 
		-12.228,185.056 -1.384,175.056 9.476,185.056 20.339,175.056 31.202,185.056 42.062,175.056 52.94,185.056 63.815,175.056 
		74.706,185.056 85.593,175.056 96.472,185.056 107.343,175.056 118.206,185.056 129.073,175.056 139.94,185.056 150.796,175.056 
		161.667,185.056 172.538,175.056 183.401,185.056 194.28,175.056 205.167,185.056 216.05,175.056 226.94,185.056 237.823,175.056 
		248.702,185.056 259.569,175.056 270.448,185.056 281.323,175.056 292.19,185.056 303.077,175.056 313.956,185.056 
		324.854,175.056 335.749,185.056 346.628,175.056 357.499,185.056 368.386,175.056 379.261,185.056 390.151,175.056 
		401.039,185.056 411.938,175.056 422.824,185.056 433.707,175.056 444.594,185.056 455.48,175.056 466.379,185.056 477.27,175.056 
		488.16,185.056 499.047,175.056 509.945,185.056 520.832,175.056 531.73,185.056 542.621,175.056 553.512,185.056 564.41,175.056 
		575.309,185.056 586.195,175.056 597.082,185.056 607.965,175.056 618.84,185.056 629.73,175.056 640.621,185.056 651.52,175.056 
		662.395,185.056 673.293,175.056 684.191,185.056 695.09,175.056 706,185.056 716.898,175.056 727.809,185.056 738.707,175.056 
		749.613,185.056 760.52,175.056 771.418,185.056 782.316,175.056 793.246,185.056 804.152,175.056 815.082,185.056 826.02,175.056 
		836.957,185.056 	"/>
</g>
<linearGradient id="SVGID_2_" gradientUnits="userSpaceOnUse" x1="384.6118" y1="404.9434" x2="384.6118" y2="618" gradientTransform="matrix(1 0 0 -1 12 584)">
	<stop  offset="0" style="stop-color:#ACD2CA"/>
	<stop  offset="1" style="stop-color:#B6DFCA"/>
</linearGradient>
<rect x="-38.794" y="-34" fill="url(#SVGID_2_)" stroke="#ACD2CA" width="870.812" height="213.056"/>
<g opacity="0.1">
	<polyline fill="none" stroke="#E3D2CA" stroke-width="2" points="-44.793,214.903 -33.935,224.903 -23.083,214.903 
		-12.228,224.903 -1.383,214.903 9.477,224.903 20.339,214.903 31.203,224.903 42.062,214.903 52.94,224.903 63.815,214.903 
		74.707,224.903 85.593,214.903 96.473,224.903 107.343,214.903 118.207,224.903 129.074,214.903 139.94,224.903 150.796,214.903 
		161.667,224.903 172.539,214.903 183.401,224.903 194.28,214.903 205.167,224.903 216.05,214.903 226.94,224.903 237.824,214.903 
		248.703,224.903 259.569,214.903 270.449,224.903 281.324,214.903 292.19,224.903 303.078,214.903 313.957,224.903 
		324.854,214.903 335.75,224.903 346.628,214.903 357.5,224.903 368.386,214.903 379.261,224.903 390.151,214.903 401.039,224.903 
		411.938,214.903 422.824,224.903 433.707,214.903 444.594,224.903 455.48,214.903 466.379,224.903 477.27,214.903 488.16,224.903 
		499.047,214.903 509.945,224.903 520.832,214.903 531.73,224.903 542.621,214.903 553.512,224.903 564.41,214.903 575.309,224.903 
		586.195,214.903 597.082,224.903 607.965,214.903 618.84,224.903 629.73,214.903 640.621,224.903 651.52,214.903 662.395,224.903 
		673.293,214.903 684.191,224.903 695.09,214.903 706,224.903 716.898,214.903 727.809,224.903 738.707,214.903 749.613,224.903 
		760.52,214.903 771.418,224.903 782.316,214.903 793.246,224.903 804.152,214.903 815.082,224.903 826.02,214.903 836.957,224.903 
			"/>
</g>
<g opacity="0.05">
	<polyline fill="none" stroke="#E3D2CA" stroke-width="2" points="-45.793,248.903 -34.935,258.903 -24.083,248.903 
		-13.228,258.903 -2.383,248.903 8.477,258.903 19.339,248.903 30.203,258.903 41.062,248.903 51.94,258.903 62.815,248.903 
		73.707,258.903 84.593,248.903 95.473,258.903 106.343,248.903 117.207,258.903 128.074,248.903 138.94,258.903 149.796,248.903 
		160.667,258.903 171.539,248.903 182.401,258.903 193.28,248.903 204.167,258.903 215.05,248.903 225.94,258.903 236.824,248.903 
		247.703,258.903 258.569,248.903 269.449,258.903 280.324,248.903 291.19,258.903 302.078,248.903 312.957,258.903 
		323.854,248.903 334.75,258.903 345.628,248.903 356.5,258.903 367.386,248.903 378.261,258.903 389.151,248.903 400.039,258.903 
		410.938,248.903 421.824,258.903 432.707,248.903 443.594,258.903 454.48,248.903 465.379,258.903 476.27,248.903 487.16,258.903 
		498.047,248.903 508.945,258.903 519.832,248.903 530.73,258.903 541.621,248.903 552.512,258.903 563.41,248.903 574.309,258.903 
		585.195,248.903 596.082,258.903 606.965,248.903 617.84,258.903 628.73,248.903 639.621,258.903 650.52,248.903 661.395,258.903 
		672.293,248.903 683.191,258.903 694.09,248.903 705,258.903 715.898,248.903 726.809,258.903 737.707,248.903 748.613,258.903 
		759.52,248.903 770.418,258.903 781.316,248.903 792.246,258.903 803.152,248.903 814.082,258.903 825.02,248.903 835.957,258.903 
			"/>
</g>
<g opacity="0.25">
	<polyline fill="none" stroke="#E3D2CA" stroke-width="0.25" points="-45.793,274.903 -34.935,284.903 -24.083,274.903 
		-13.228,284.903 -2.383,274.903 8.477,284.903 19.339,274.903 30.203,284.903 41.062,274.903 51.94,284.903 62.815,274.903 
		73.707,284.903 84.593,274.903 95.473,284.903 106.343,274.903 117.207,284.903 128.074,274.903 138.94,284.903 149.796,274.903 
		160.667,284.903 171.539,274.903 182.401,284.903 193.28,274.903 204.167,284.903 215.05,274.903 225.94,284.903 236.824,274.903 
		247.703,284.903 258.569,274.903 269.449,284.903 280.324,274.903 291.19,284.903 302.078,274.903 312.957,284.903 
		323.854,274.903 334.75,284.903 345.628,274.903 356.5,284.903 367.386,274.903 378.261,284.903 389.151,274.903 400.039,284.903 
		410.938,274.903 421.824,284.903 432.707,274.903 443.594,284.903 454.48,274.903 465.379,284.903 476.27,274.903 487.16,284.903 
		498.047,274.903 508.945,284.903 519.832,274.903 530.73,284.903 541.621,274.903 552.512,284.903 563.41,274.903 574.309,284.903 
		585.195,274.903 596.082,284.903 606.965,274.903 617.84,284.903 628.73,274.903 639.621,284.903 650.52,274.903 661.395,284.903 
		672.293,274.903 683.191,284.903 694.09,274.903 705,284.903 715.898,274.903 726.809,284.903 737.707,274.903 748.613,284.903 
		759.52,274.903 770.418,284.903 781.316,274.903 792.246,284.903 803.152,274.903 814.082,284.903 825.02,274.903 835.957,284.903 
			"/>
</g>
<g opacity="0.1">
	<polyline fill="none" stroke="#E3D2CA" stroke-width="2" points="-44.854,182.221 -33.995,192.221 -23.143,182.221 
		-12.288,192.221 -1.443,182.221 9.417,192.221 20.279,182.221 31.143,192.221 42.002,182.221 52.88,192.221 63.755,182.221 
		74.646,192.221 85.533,182.221 96.413,192.221 107.283,182.221 118.146,192.221 129.014,182.221 139.88,192.221 150.736,182.221 
		161.607,192.221 172.479,182.221 183.341,192.221 194.22,182.221 205.107,192.221 215.99,182.221 226.88,192.221 237.764,182.221 
		248.643,192.221 259.509,182.221 270.389,192.221 281.264,182.221 292.13,192.221 303.018,182.221 313.896,192.221 
		324.794,182.221 335.689,192.221 346.568,182.221 357.439,192.221 368.326,182.221 379.201,192.221 390.091,182.221 
		400.979,192.221 411.878,182.221 422.765,192.221 433.647,182.221 444.534,192.221 455.421,182.221 466.319,192.221 
		477.21,182.221 488.101,192.221 498.987,182.221 509.886,192.221 520.772,182.221 531.671,192.221 542.562,182.221 
		553.452,192.221 564.351,182.221 575.249,192.221 586.136,182.221 597.022,192.221 607.905,182.221 618.78,192.221 
		629.671,182.221 640.562,192.221 651.46,182.221 662.335,192.221 673.233,182.221 684.132,192.221 695.03,182.221 705.94,192.221 
		716.839,182.221 727.749,192.221 738.647,182.221 749.554,192.221 760.46,182.221 771.358,192.221 782.257,182.221 
		793.187,192.221 804.093,182.221 815.022,192.221 825.96,182.221 836.897,192.221 	"/>
</g>
<g opacity="0.05">
	<polyline fill="none" stroke="#E3D2CA" stroke-width="2" points="-44.879,184.928 -34.02,194.928 -23.168,184.928 -12.313,194.928 
		-1.469,184.928 9.391,194.928 20.254,184.928 31.117,194.928 41.977,184.928 52.855,194.928 63.73,184.928 74.621,194.928 
		85.508,184.928 96.387,194.928 107.258,184.928 118.121,194.928 128.988,184.928 139.855,194.928 150.711,184.928 161.582,194.928 
		172.453,184.928 183.316,194.928 194.195,184.928 205.082,194.928 215.965,184.928 226.855,194.928 237.738,184.928 
		248.617,194.928 259.484,184.928 270.363,194.928 281.238,184.928 292.105,194.928 302.992,184.928 313.871,194.928 
		324.769,184.928 335.664,194.928 346.543,184.928 357.414,194.928 368.301,184.928 379.176,194.928 390.066,184.928 
		400.954,194.928 411.853,184.928 422.739,194.928 433.622,184.928 444.509,194.928 455.396,184.928 466.294,194.928 
		477.185,184.928 488.075,194.928 498.962,184.928 509.86,194.928 520.747,184.928 531.646,194.928 542.536,184.928 
		553.427,194.928 564.325,184.928 575.224,194.928 586.11,184.928 596.997,194.928 607.88,184.928 618.755,194.928 629.646,184.928 
		640.536,194.928 651.435,184.928 662.31,194.928 673.208,184.928 684.106,194.928 695.005,184.928 705.915,194.928 
		716.813,184.928 727.724,194.928 738.622,184.928 749.528,194.928 760.435,184.928 771.333,194.928 782.231,184.928 
		793.161,194.928 804.067,184.928 814.997,194.928 825.935,184.928 836.872,194.928 	"/>
</g>
</svg>
