<?xml version="1.0" encoding="utf-8"?>
<!-- Generator: Adobe Illustrator 15.0.0, SVG Export Plug-In . SVG Version: 6.00 Build 0)  -->
<!DOCTYPE svg PUBLIC "-//W3C//DTD SVG 1.1//EN" "http://www.w3.org/Graphics/SVG/1.1/DTD/svg11.dtd">
<svg version="1.1" id="Layer_1" xmlns="http://www.w3.org/2000/svg" xmlns:xlink="http://www.w3.org/1999/xlink" x="0px" y="0px"
	 width="800px" height="600px" viewBox="0 0 800 600" enable-background="new 0 0 800 600" xml:space="preserve">
<image overflow="visible" width="2048" height="2048" xlink:href="bg-mirror.jpg"  transform="matrix(0.3906 0 0 0.293 0 229)">
</image>
<g>
	<line fill="none" x1="-596" y1="-695" x2="1312" y2="-695"/>
	<line fill="none" x1="-147" y1="-443" x2="877" y2="-443"/>
	<line fill="none" x1="302" y1="-191" x2="442" y2="-191"/>
</g>
<polyline fill="none" stroke="#000000" stroke-width="0.75" points="387.533,-11.738 401.021,-34.135 415.951,-11.738 "/>
<polyline fill="none" stroke="#000000" stroke-width="0.75" points="387.675,-11.738 401.162,-5.726 416.093,-11.738 "/>
<g>
	<path fill="none" stroke="#000000" stroke-width="0.75" stroke-linejoin="round" d="M395.151-6.295"/>
	<path fill="none" stroke="#000000" stroke-width="0.75" stroke-linejoin="round" d="M388.922-10.109"/>
	<path fill="none" stroke="#000000" stroke-width="0.75" stroke-linejoin="round" d="M390.435-7.751"/>
</g>
<g>
	<path fill="none" stroke="#000000" stroke-width="0.75" stroke-linejoin="round" d="M414.217-9.489"/>
	<path fill="none" stroke="#000000" stroke-width="0.75" stroke-linejoin="round" d="M407.989-6.295"/>
	<path fill="none" stroke="#000000" stroke-width="0.75" stroke-linejoin="round" d="M412.705-7.132"/>
</g>
<path fill="none" stroke="#000000" stroke-width="0.75" d="M401.162-5.726"/>
<g opacity="0.1">
	<path fill="none" stroke="#000000" stroke-width="0.1" stroke-linejoin="round" d="M403.189-36.698"/>
	<path fill="none" stroke="#000000" stroke-width="0.1" stroke-linejoin="round" d="M397.526-43.164"/>
	<path fill="none" stroke="#000000" stroke-width="0.1" stroke-linejoin="round" d="M398.9-38.021"/>
</g>
<g opacity="0.4">
	<path fill="none" stroke="#000000" stroke-width="0.1" stroke-linejoin="round" d="M426.189,42.393"/>
	<path fill="none" stroke="#000000" stroke-width="0.1" stroke-linejoin="round" d="M420.526,38.927"/>
	<path fill="none" stroke="#000000" stroke-width="0.1" stroke-linejoin="round" d="M421.901,41.071"/>
</g>
<line opacity="0.6" fill="none" stroke="#000000" stroke-width="0.75" x1="401.06" y1="-33.312" x2="401.06" y2="-5.726"/>
<line fill="none" stroke="#000000" stroke-width="0.5" x1="369.833" y1="-25" x2="395.151" y2="-25"/>
<line fill="none" stroke="#000000" stroke-width="0.5" x1="406.833" y1="-25" x2="432.151" y2="-25"/>
<path opacity="0.6" fill="none" stroke="#202422" stroke-width="0.25" stroke-linejoin="round" enable-background="new    " d="
	M375.746,27.135"/>
<path opacity="0.6" fill="none" stroke="#202422" stroke-width="0.25" stroke-linejoin="round" enable-background="new    " d="
	M357.57,44.5"/>
<path opacity="0.6" fill="none" stroke="#202422" stroke-width="0.25" stroke-linejoin="round" enable-background="new    " d="
	M427.312,27.248"/>
<polygon fill="none" stroke="#000000" stroke-width="0.8" points="375,1.292 426.023,1.334 400.479,44.154 "/>
<line fill="none" stroke="#202422" stroke-width="0.75" stroke-linejoin="round" x1="375" y1="1.292" x2="400.512" y2="19.508"/>
<line fill="none" stroke="#202422" stroke-width="0.75" stroke-linejoin="round" x1="400.512" y1="19.508" x2="426.023" y2="1.292"/>
<g opacity="0">
	<g>
		
			<line fill="none" stroke="#000000" stroke-width="0.5" stroke-linejoin="round" x1="377.381" y1="5.006" x2="386.332" y2="10.925"/>
		<line fill="none" stroke="#000000" stroke-width="0.5" stroke-linejoin="round" x1="379.48" y1="8.548" x2="387.75" y2="14.006"/>
		
			<line fill="none" stroke="#000000" stroke-width="0.5" stroke-linejoin="round" x1="381.58" y1="12.089" x2="389.168" y2="17.085"/>
		
			<line fill="none" stroke="#000000" stroke-width="0.5" stroke-linejoin="round" x1="383.681" y1="15.631" x2="390.587" y2="20.165"/>
		
			<line fill="none" stroke="#000000" stroke-width="0.5" stroke-linejoin="round" x1="385.781" y1="19.173" x2="392.005" y2="23.244"/>
		
			<line fill="none" stroke="#000000" stroke-width="0.5" stroke-linejoin="round" x1="387.882" y1="22.715" x2="393.423" y2="26.324"/>
		
			<line fill="none" stroke="#000000" stroke-width="0.5" stroke-linejoin="round" x1="389.982" y1="26.257" x2="394.84" y2="29.404"/>
		
			<line fill="none" stroke="#000000" stroke-width="0.5" stroke-linejoin="round" x1="392.082" y1="29.799" x2="396.258" y2="32.484"/>
		
			<line fill="none" stroke="#000000" stroke-width="0.5" stroke-linejoin="round" x1="394.184" y1="33.34" x2="397.676" y2="35.564"/>
		
			<line fill="none" stroke="#000000" stroke-width="0.5" stroke-linejoin="round" x1="396.283" y1="36.882" x2="399.094" y2="38.645"/>
		
			<line fill="none" stroke="#000000" stroke-width="0.5" stroke-linejoin="round" x1="398.384" y1="40.424" x2="400.512" y2="41.725"/>
	</g>
	<g>
		
			<line fill="none" stroke="#000000" stroke-width="0.5" stroke-linejoin="round" x1="423.514" y1="5.006" x2="414.561" y2="10.925"/>
		
			<line fill="none" stroke="#000000" stroke-width="0.5" stroke-linejoin="round" x1="421.412" y1="8.548" x2="413.143" y2="14.006"/>
		
			<line fill="none" stroke="#000000" stroke-width="0.5" stroke-linejoin="round" x1="419.312" y1="12.089" x2="411.725" y2="17.085"/>
		
			<line fill="none" stroke="#000000" stroke-width="0.5" stroke-linejoin="round" x1="417.212" y1="15.631" x2="410.307" y2="20.165"/>
		
			<line fill="none" stroke="#000000" stroke-width="0.5" stroke-linejoin="round" x1="415.111" y1="19.173" x2="408.889" y2="23.244"/>
		
			<line fill="none" stroke="#000000" stroke-width="0.5" stroke-linejoin="round" x1="413.012" y1="22.715" x2="407.471" y2="26.324"/>
		
			<line fill="none" stroke="#000000" stroke-width="0.5" stroke-linejoin="round" x1="410.91" y1="26.257" x2="406.052" y2="29.404"/>
		
			<line fill="none" stroke="#000000" stroke-width="0.5" stroke-linejoin="round" x1="408.811" y1="29.799" x2="404.635" y2="32.484"/>
		
			<line fill="none" stroke="#000000" stroke-width="0.5" stroke-linejoin="round" x1="406.709" y1="33.34" x2="403.217" y2="35.564"/>
		
			<line fill="none" stroke="#000000" stroke-width="0.5" stroke-linejoin="round" x1="404.609" y1="36.882" x2="401.799" y2="38.645"/>
		
			<line fill="none" stroke="#000000" stroke-width="0.5" stroke-linejoin="round" x1="402.509" y1="40.424" x2="400.381" y2="41.725"/>
	</g>
	<g>
		
			<line fill="none" stroke="#000000" stroke-width="0.5" stroke-linejoin="round" x1="396.027" y1="17.842" x2="400.215" y2="20.592"/>
		
			<line fill="none" stroke="#000000" stroke-width="0.5" stroke-linejoin="round" x1="396.604" y1="20.848" x2="399.951" y2="23.008"/>
		
			<line fill="none" stroke="#000000" stroke-width="0.5" stroke-linejoin="round" x1="397.182" y1="23.854" x2="399.689" y2="25.425"/>
		
			<line fill="none" stroke="#000000" stroke-width="0.5" stroke-linejoin="round" x1="397.758" y1="26.859" x2="399.427" y2="27.842"/>
	</g>
	<line fill="none" stroke="#000000" stroke-width="0.5" stroke-linejoin="round" x1="422.775" y1="2.615" x2="420.012" y2="3.549"/>
</g>
<polygon fill="#FFFFF8" stroke="#FFFFF8" stroke-width="0.5" stroke-linejoin="round" points="400.568,18.698 391.802,12.174 
	391.535,7.301 409.052,7.298 409.052,12.34 "/>
</svg>
