<?xml version="1.0" encoding="utf-8"?>
<!-- Generator: Adobe Illustrator 15.0.0, SVG Export Plug-In . SVG Version: 6.00 Build 0)  -->
<!DOCTYPE svg PUBLIC "-//W3C//DTD SVG 1.1//EN" "http://www.w3.org/Graphics/SVG/1.1/DTD/svg11.dtd">
<svg version="1.1" id="Layer_1" xmlns:svg="http://www.w3.org/2000/svg"
	 xmlns="http://www.w3.org/2000/svg" xmlns:xlink="http://www.w3.org/1999/xlink" x="0px" y="0px" width="776.7px" height="94.2px"
	 viewBox="0 0 776.7 94.2" enable-background="new 0 0 776.7 94.2" xml:space="preserve">
<polygon id="polygon3" fill="#CF0000" points="-92.552,408.195 867.448,408.195 867.448,-311.805 -92.552,-311.805 "/>
<path id="path5" fill="#FFFFFF" d="M138.622,37.067l-0.352,25.967c0,0.764-0.48,0.66-1.111,0.119
	c-0.825-0.704-4.34-4.278-7.859-5.338c-3.551-1.059-3.917-0.988-7.559-0.992c-3.512-0.013-6.622-0.233-7.034-0.415
	c-0.408-0.177-0.994-0.229-0.877-1.636l3.632-25.561c0.176-1.114-0.118-1.698,1.757-1.231c1.877,0.468,6.862,0.396,7.797,0.468
	c1.526,0.119,4.633,0.88,6.802,2.756C135.985,33.082,138.622,35.424,138.622,37.067L138.622,37.067z"/>
<path id="path7" fill="#FFFFFF" d="M139.971,37.067l-0.118,24.502c0,1.174,0.587,1.406,1.289,0.467
	c0.871-1.158,2.013-2.119,3.339-2.752c4.694-2.227,11.142-2.693,11.958-2.753c0.819-0.058,5.045-0.413,5.63-0.591
	c1.425-0.426,1.8-0.019,1.526-2.867l-3.283-24.914c-0.12-1.114-0.351-1.056-1.054-0.88c-0.703,0.177-0.503,0.181-3.812,0.762
	c-1.577,0.277-3.743,0.054-6.267,0.821c-2.454,0.744-4.368,2.062-6.509,3.989C141.863,33.572,140.092,34.958,139.971,37.067
	L139.971,37.067z"/>
<path id="path9" fill="#FFFFFF" d="M210.329,28.695c0.622-0.271,0.956-0.485,1.022,0.312c0.099,1.175,0.532,6.646,0.565,7.151
	c0.034,0.53-0.144,0.586-0.497,0.244c-0.848-0.814-3.718-3.88-8.028-5.054c-3.173-0.864-5.812-0.669-7.685-0.195
	c-2.259,0.577-3.589,1.73-4.373,2.833c-1.222,1.731-0.949,3.955,0.315,5.257c1.395,1.442,4.196,1.927,6.889,2.332
	c2.537,0.385,7.372,1.028,9.772,1.896c2.063,0.743,3.944,2.271,5.091,3.938c1.583,2.301,1.514,6.36-0.267,8.785
	c-1.961,2.681-4.417,4.155-7.246,4.923c-4.008,1.089-8.313,0.854-12.246-0.246c-3.458-0.951-6.292-1.65-8.5-0.417
	c-0.448,0.255-0.576,0.194-0.613-0.396c-0.046-0.624-0.442-6.843-0.46-7.98c-0.004-0.394,0.25-0.302,0.396-0.14
	c1.208,1.354,5.003,4.059,9.181,5.434c3.537,1.16,6.6,1.53,10.661,0.432c1.881-0.518,3.336-1.994,3.815-2.83
	c0.737-1.281,0.721-3.387-0.309-4.566c-0.687-0.783-1.654-1.996-9.605-3.118c-8.307-1.177-10.615-3.212-12.198-5.617
	c-1.944-2.958-1.655-6.334-0.217-8.766c1.537-2.595,3.841-3.847,5.833-4.637c2.619-1.03,6.605-1.388,10.904-0.637
	C206.802,28.393,208.414,29.524,210.329,28.695L210.329,28.695z"/>
<path id="path11" fill="#FFFFFF" d="M264.363,30.52c-0.072-0.484-0.188-0.536-0.663-0.795c-0.792-0.43-3.771-1.42-5.424-1.729
	c-3.853-0.727-8.068-0.82-12.103,0.337c-3.78,1.08-7.616,2.684-11.378,8.114c-2.808,4.059-3.432,10.973-0.216,15.947
	c3.117,4.812,7.432,7.118,11.213,8.381c3.673,1.223,9.123,1.386,13.636,0.285c1.885-0.461,4.126-1.281,4.847-1.659
	c0.493-0.252,0.562-0.252,0.676-0.815c0.186-0.944,0.818-4.35,1.058-5.62c0.086-0.485-0.163-0.571-0.519-0.22
	c-1.586,1.582-4.144,3.223-6.737,4.243c-3.327,1.313-7.752,1.935-11.905-0.134c-4.349-2.157-5.862-5.07-6.678-6.478
	c-1.369-2.376-2.421-8.07,0.723-13.065c2.059-3.263,4.561-4.511,6.712-5.438c2.822-1.213,6.917-1.437,10.19-0.182
	c2.064,0.794,4.892,2.366,6.548,4.334c0.239,0.282,0.613,0.277,0.559-0.249C264.826,35.022,264.363,30.52,264.363,30.52
	L264.363,30.52z"/>
<path id="path13" fill="#FFFFFF" d="M315.772,44.911h-22.088v10.807c0,1.294,0.255,3.949,2.973,4.955
	c0.273,0.102,0.255,0.375-0.046,0.375c-0.694,0-5.017,0-5.017,0h-1.582c0,0-4.324,0-5.022,0c-0.298,0-0.319-0.273-0.042-0.375
	c2.716-1.006,2.97-3.66,2.97-4.955V33.436c0-1.298-0.257-3.949-2.97-4.956c-0.277-0.099-0.256-0.375,0.042-0.375
	c0.697,0,5.022,0,5.022,0h1.582c0,0,4.322,0,5.017,0c0.301,0,0.319,0.275,0.046,0.375c-2.718,1.006-2.973,3.657-2.973,4.956v8.402
	h22.088v-8.402c0-1.298-0.255-3.949-2.967-4.956c-0.282-0.099-0.261-0.375,0.04-0.375c0.697,0,5.017,0,5.017,0h1.588
	c0,0,4.322,0,5.017,0c0.301,0,0.319,0.275,0.043,0.375c-2.717,1.006-2.967,3.657-2.967,4.956v22.28c0,1.295,0.255,3.949,2.967,4.955
	c0.279,0.101,0.258,0.375-0.043,0.375c-0.694,0-5.017,0-5.017,0h-1.588c0,0-4.319,0-5.017,0c-0.301,0-0.319-0.274-0.04-0.375
	c2.714-1.006,2.967-3.659,2.967-4.955V44.911L315.772,44.911z"/>
<path id="path15" fill="#FFFFFF" d="M411.503,58.082V33.472c0-1.624,0.422-3.747,3.348-4.889c0.276-0.104,0.243-0.442-0.055-0.442
	c-0.696,0-5.501,0-5.501,0h-1.584c0,0-4.324,0-5.021,0c-0.299,0-0.314,0.276-0.04,0.376c2.717,1.003,2.97,3.655,2.97,4.952v22.278
	c0,1.305-0.255,4.025-2.97,5.027c-0.274,0.102-0.259,0.378,0.04,0.378c0.696,0,5.021,0,5.021,0h1.584c0,0,11.953,0,13.399,0
	c1.753,0,3.429,0.411,4.704,1.167c0.203,0.111,0.389,0.16,0.529-0.184c0.335-0.838,2.265-5.664,2.582-6.54
	c0.125-0.343-0.08-0.541-0.403-0.255c-0.322,0.281-3.093,2.741-7.173,2.741C418.851,58.087,411.503,58.082,411.503,58.082
	L411.503,58.082z"/>
<path id="path17" fill="#FFFFFF" d="M529.464,28.75c0.626-0.274,0.956-0.485,1.025,0.311c0.097,1.178,0.532,6.652,0.565,7.154
	c0.033,0.531-0.149,0.588-0.498,0.245c-0.847-0.817-3.717-3.877-8.03-5.054c-3.173-0.864-5.808-0.672-7.683-0.192
	c-2.255,0.574-3.59,1.724-4.373,2.833c-1.223,1.728-0.949,3.952,0.312,5.258c1.396,1.437,4.203,1.92,6.892,2.327
	c2.537,0.387,7.37,1.031,9.769,1.897c2.068,0.744,3.947,2.271,5.094,3.938c1.585,2.303,1.515,6.364-0.264,8.787
	c-1.961,2.681-4.42,4.157-7.254,4.919c-4.005,1.088-8.312,0.852-12.242-0.243c-3.458-0.954-6.294-1.653-8.502-0.418
	c-0.449,0.255-0.576,0.194-0.616-0.396c-0.047-0.629-0.439-6.844-0.462-7.978c-0.001-0.397,0.256-0.303,0.398-0.144
	c1.212,1.354,4.997,4.068,9.182,5.432c3.535,1.163,6.603,1.537,10.658,0.436c1.88-0.518,3.339-1.992,3.818-2.833
	c0.73-1.28,0.722-3.39-0.314-4.564c-0.688-0.784-1.648-1.995-9.604-3.122c-8.309-1.174-10.611-3.208-12.2-5.619
	c-1.942-2.949-1.653-6.331-0.216-8.757c1.534-2.599,3.84-3.85,5.834-4.64c2.619-1.03,6.602-1.388,10.9-0.637
	C525.94,28.445,527.554,29.574,529.464,28.75L529.464,28.75z"/>
<path id="path19" fill="#FFFFFF" d="M564.175,31.551c-4.14,0-7.815,0-8.593,0c-1.777,0-2.832-0.025-4.908,1.056
	c-0.529,0.28-0.574-0.072-0.324-0.393c1.008-1.288,3.119-3.961,4.154-5.321c0.17-0.223,0.357-0.201,0.551-0.046
	c0.478,0.387,1.812,1.249,3.794,1.249c2.067,0,18.489,0,20.268,0c1.772,0,3.967-0.211,6.082-0.915
	c0.252-0.084,0.562-0.031,0.28,0.358c-0.854,1.166-3.008,4.007-3.82,5.064c-0.286,0.375-0.441,0.158-0.621,0.051
	c-0.391-0.237-1.156-1.106-3.797-1.106c-1.09,0-3.973,0-7.295,0v24.25c0,1.3,0.254,3.948,2.971,4.951
	c0.271,0.104,0.254,0.378-0.047,0.378c-0.699,0-5.018,0-5.018,0h-1.585c0,0-4.323,0-5.016,0c-0.304,0-0.325-0.273-0.047-0.378
	c2.719-1.003,2.971-3.651,2.971-4.951V31.551L564.175,31.551z"/>
<path id="path21" fill="#FFFFFF" d="M611.712,33.529c0-1.298,0.255-3.949,2.971-4.955c0.275-0.102,0.253-0.379-0.042-0.379
	c-0.697,0-5.021,0-5.021,0h-1.583c0,0-4.32,0-5.018,0c-0.307,0-0.319,0.278-0.044,0.379c2.719,1.005,2.972,3.655,2.972,4.955v22.276
	c0,1.301-0.252,3.954-2.972,4.955c-0.275,0.104-0.263,0.377,0.044,0.377c0.697,0,5.018,0,5.018,0h1.583c0,0,4.323,0,5.021,0
	c0.295,0,0.317-0.273,0.042-0.377c-2.718-1.001-2.971-3.654-2.971-4.955V33.529L611.712,33.529z"/>
<path id="path23" fill="#FFFFFF" d="M665.188,30.52c-0.072-0.484-0.188-0.536-0.659-0.795c-0.788-0.43-3.767-1.42-5.421-1.729
	c-3.849-0.727-8.066-0.82-12.1,0.337c-3.784,1.08-7.621,2.684-11.384,8.114c-2.812,4.059-3.431,10.973-0.218,15.947
	c3.115,4.812,7.434,7.118,11.213,8.381c3.671,1.223,9.125,1.386,13.638,0.285c1.886-0.461,4.124-1.281,4.847-1.659
	c0.494-0.252,0.566-0.252,0.674-0.815c0.187-0.944,0.819-4.35,1.059-5.62c0.086-0.485-0.164-0.571-0.52-0.22
	c-1.589,1.582-4.143,3.223-6.733,4.243c-3.327,1.313-7.755,1.935-11.906-0.134c-4.349-2.157-5.865-5.07-6.677-6.478
	c-1.367-2.376-2.423-8.07,0.723-13.065c2.052-3.263,4.561-4.511,6.709-5.438c2.822-1.213,6.916-1.437,10.191-0.182
	c2.064,0.794,4.892,2.366,6.553,4.334c0.234,0.282,0.611,0.277,0.554-0.249C665.655,35.022,665.188,30.52,665.188,30.52
	L665.188,30.52z"/>
<path id="path25" fill="#FFFFFF" d="M363.084,61.754c-1.922,0-9.003-0.143-14.214-4.535c-5.017-4.233-6.171-9.074-6.171-12.412
	v-0.244c0-3.336,1.156-8.178,6.171-12.412c5.212-4.391,12.292-4.532,14.214-4.532h0.432c1.922,0,9.006,0.145,14.217,4.532
	c5.015,4.234,6.169,9.078,6.169,12.412v0.244c0,3.339-1.154,8.179-6.169,12.412c-5.212,4.397-12.294,4.535-14.217,4.535H363.084
	L363.084,61.754z M363.493,58.247c2.829,0,6.912-1.1,9.794-4.126c2.88-3.028,3.844-6.629,3.844-9.318V44.56
	c0-2.688-0.965-6.288-3.844-9.313c-2.883-3.024-6.965-4.13-9.794-4.13h-0.385c-2.833,0-6.915,1.106-9.799,4.13
	c-2.88,3.024-3.843,6.625-3.843,9.313v0.243c0,2.688,0.964,6.286,3.843,9.318c2.884,3.026,6.965,4.126,9.799,4.126H363.493
	L363.493,58.247z"/>
<path id="path27" fill="#FFFFFF" d="M461.118,28.112c1.047,0,5.904,0,5.904,0s15.884,27.584,16.799,29.17
	c0.908,1.58,2.243,2.881,3.55,3.336c0.346,0.115,0.34,0.518-0.05,0.518c-1.439,0-9.482,0-10.248,0c-0.408,0-0.348-0.352-0.062-0.493
	c0.288-0.149,1.729-0.88,0.657-2.788c-0.669-1.199-3.167-5.615-3.167-5.615h-20.983c0,0-2.688,4.655-3.218,5.663
	c-0.346,0.663-0.497,2.056,0.551,2.718c0.291,0.174,0.342,0.498-0.023,0.498c-0.476,0-7.008,0-7.54,0
	c-0.336,0-0.571-0.311-0.031-0.537c0.633-0.264,1.955-0.854,3.734-3.881c1.774-3.023,13.884-24.211,14.364-25.267
	c0.475-1.039,0.732-2.084-0.35-3.05C460.804,28.202,460.963,28.112,461.118,28.112L461.118,28.112z M455.249,49.125h17.611
	l-8.634-15.728L455.249,49.125L455.249,49.125z"/>
</svg>
