<?xml version="1.0" encoding="utf-8"?>
<!-- Generator: Adobe Illustrator 15.0.0, SVG Export Plug-In . SVG Version: 6.00 Build 0)  -->
<!DOCTYPE svg PUBLIC "-//W3C//DTD SVG 1.1//EN" "http://www.w3.org/Graphics/SVG/1.1/DTD/svg11.dtd">
<svg version="1.1" id="Layer_1" xmlns="http://www.w3.org/2000/svg" xmlns:xlink="http://www.w3.org/1999/xlink" x="0px" y="0px"
	 width="800px" height="600px" viewBox="0 0 800 600" enable-background="new 0 0 800 600" xml:space="preserve">
<g>
	<g>
		<path d="M214.761,350.401c-41.667-160.037,60.934-315.333,187.5-283.8c126.564-31.533,229.166,123.764,187.499,283.8"/>
	</g>
	<path fill="#FFFFFF" d="M531.979,163.085"/>
	<path fill="#FFFFFF" d="M271.877,189.047"/>
	<ellipse fill="#FFFFFF" cx="400.094" cy="315.399" rx="88" ry="84"/>
	<path d="M634.93,606.166c-1.86-96.621-14.791-112-82.968-151.727c-28.354-16.525-49.155-14.416-87.865,20.562l-0.027,0.033
		l-21.63,19.541c-0.771,0.701-24.091,21.59-41.514,21.59c-17.422,0-40.742-20.889-41.516-21.59l-21.629-19.541l-0.027-0.033
		c-38.707-34.98-59.508-37.09-87.86-20.562c-68.179,39.727-81.11,55.105-82.968,151.727c-0.031,0.676-0.084,29.416-0.031,30
		c0.888,15.764,13.333,30.002,28.955,30.002h410.158c15.619,0,28.064-14.238,28.955-30.002
		C635.016,635.582,634.962,606.842,634.93,606.166z M270.877,160.047 M260.303,274.117c0,80.182,64.711,148.532,140.625,148.532
		c75.943,0,140.627-68.35,137.5-197.034v-38.09c-19.339-1.634-201.921-3.335-277-1.958 M531.893,163.526
		c-0.977-2.708-2.027-5.382-3.149-8.018c-22.087-51.897-71.686-89.341-127.815-89.341c-47.652,0-90.859,26.978-116.455,66.869
		c0,0-9.175,15.986-13.596,27.011 M372.805,139.446l28.125,15.841 M485.302,309.916c0,0-27.055,56.247-84.374,56.247
		c-57.292,0-84.374-56.247-84.374-56.247H485.302z"/>
	<g>
		<path fill="#FFFFFF" d="M524.594,174.679c-82.109-34.011-174.367-34.011-256.476,0c4.448-12.211,8.927-24.323,13.431-36.334
			c74.85-27.298,157.031-27.037,231.74,0.784C517.077,150.908,520.846,162.758,524.594,174.679z"/>
	</g>
</g>
<text transform="matrix(1 0 0 1 272.6899 -10)" font-family="'ProximaNova-Bold'" font-size="64">SENDER </text>
</svg>
