<?xml version="1.0" encoding="utf-8"?>
<!-- Generator: Adobe Illustrator 15.0.0, SVG Export Plug-In . SVG Version: 6.00 Build 0)  -->
<!DOCTYPE svg PUBLIC "-//W3C//DTD SVG 1.1//EN" "http://www.w3.org/Graphics/SVG/1.1/DTD/svg11.dtd">
<svg version="1.1" id="Capa_1" xmlns="http://www.w3.org/2000/svg" xmlns:xlink="http://www.w3.org/1999/xlink" x="0px" y="0px"
	 width="2688.269px" height="1016.752px" viewBox="-447.794 -219.384 2688.269 1016.752"
	 enable-background="new -447.794 -219.384 2688.269 1016.752" xml:space="preserve">
<rect x="-447.794" y="-219.384" fill="#A5344B" width="2688.269" height="1016.752"/>
<g id="Artist__x2F__User">
	<path fill="#FFFFFF" d="M1038.293,485.606c-1.438-74.696-11.435-86.585-64.141-117.299c-21.92-12.774-38.001-11.145-67.928,15.896
		l-0.021,0.026l-16.722,15.105c-0.597,0.543-18.624,16.691-32.095,16.691c-13.469,0-31.495-16.148-32.095-16.691l-16.721-15.105
		l-0.021-0.026c-29.924-27.042-46.005-28.673-67.923-15.896c-52.708,30.714-62.705,42.603-64.142,117.299
		c-0.024,0.521-0.065,22.74-0.024,23.191c0.687,12.188,10.31,23.194,22.385,23.194h317.087c12.074,0,21.695-11.008,22.385-23.194
		C1038.359,508.348,1038.318,486.129,1038.293,485.606z M857.391,343.732c58.711,0,108.717-52.84,108.717-114.831v-29.446
		c-51.09-12.65-108.717-39.45-108.717-39.45v22.967c-26.521,0-48.538-6.998-66.735-16.988c-10.661-6.459-17.03-13.178-14.459-19.254
		c4.331-10.272,14.606-5.742,26.157,0c0.47,0.235,0.851,0.101,1.296,0.214c9.557,4.866,19.961,9.025,32,11.18v-33.331l21.743,12.247
		c18.324,8.523,70.004,28.326,107.973,38.441c-3.89-58.626-51.684-107.338-107.975-107.338c-36.84,0-70.241,20.856-90.028,51.696
		c0,0-7.095,12.358-10.512,20.881c-5.16,13.186-8.175,27.427-8.175,42.252v45.932C748.676,290.893,798.703,343.732,857.391,343.732z
		 M922.619,256.581c0,0-20.916,43.483-65.229,43.483c-44.291,0-65.229-43.483-65.229-43.483H922.619z"/>
</g>
<g>
	<ellipse fill="#A5344B" cx="936.077" cy="563.518" rx="115.636" ry="111.979"/>
	<ellipse fill="#A5344B" cx="1040.671" cy="465.137" rx="97.029" ry="95.28"/>
	<g>
		<path fill="#FFFFFF" d="M1272.491,269.41l-42.861-43.032c-3.905-1.957-9.741-1.957-13.649,0l-15.579,15.648l-7.793-7.826
			l-5.848,9.782l7.797,7.825l-7.797,7.825l-9.748-7.827l-7.778,7.827l7.778,7.826l-15.571,15.641c-3.909,3.918-3.909,9.779,0,13.7
			l-65.935,66.187c-20.673-14.106-43.643-21.207-64.621-21.207c-21.43,0-40.919,7.828-56.499,21.516
			c-7.796,7.827-15.587,19.562-17.534,31.304c-7.795,23.472-29.229,39.122-52.614,39.122c-27.275,0-50.657,9.777-70.138,27.378
			c-44.817,44.985-35.07,127.141,21.429,181.909c33.123,33.256,74.034,50.854,111.062,50.854c27.278,0,52.605-9.781,72.096-27.377
			c17.531-17.6,27.271-43.037,27.271-70.428c0-25.414,15.59-46.936,38.973-52.811c11.688-3.92,21.434-9.781,31.18-17.6
			c29.693-29.819,28.643-80.677,0.412-121.693l65.835-66.089c3.892,3.914,9.741,3.914,13.64,0l15.586-15.647l7.788,7.828
			l7.792-7.828l-7.792-7.825l7.792-7.818l7.787,5.859l7.795-7.828l-7.795-7.814l17.532-13.693
			C1276.394,279.188,1276.394,273.323,1272.491,269.41z M1114.671,504.13c-5.844,5.86-11.689,7.825-19.487,11.737
			c-35.073,9.783-58.45,43.035-60.396,82.156c0,13.701-3.906,33.258-19.485,48.904c-15.586,15.645-37.02,19.562-50.657,19.562
			c-31.18,0-64.299-15.643-89.631-41.086c-44.81-44.977-54.551-107.578-21.431-140.834c15.586-15.645,35.068-19.557,48.708-19.557
			c38.971,0,70.146-25.433,81.838-60.639c1.947-7.828,5.843-13.701,11.693-19.562c11.688-11.744,25.322-13.701,35.068-13.701
			c14.801,0,29.609,4.717,43.42,13.134l-55.697,55.933c-2.356-0.351-4.746-0.603-7.205-0.603c-26.898,0-48.717,21.893-48.717,48.904
			c0,27.012,21.814,48.905,48.708,48.905c26.903,0,48.709-21.893,48.709-48.901c0-2.464-0.24-4.855-0.592-7.228l55.529-55.741
			C1132.101,454.278,1132.958,485.775,1114.671,504.13z M1223.784,249.854l7.791,7.82 M1241.323,267.455l7.797,7.817
			 M912.591,526.105l60.624,60.855l-17.909,17.979l-60.619-60.857L912.591,526.105z"/>
	</g>
</g>
<text transform="matrix(1 0 0 1 120.3691 15.4497)" fill="#FFFFFF" font-family="'ProximaNova-Bold'" font-size="51" letter-spacing="1">SENDER </text>
<text transform="matrix(1 0 0 1 736.9365 15.1851)" fill="#FFFFFF" font-family="'ProximaNova-Bold'" font-size="51" letter-spacing="1">CREATIVE</text>
<path fill="none" stroke="#4E4852" stroke-width="12" stroke-miterlimit="10" d="M380.288,411.949"/>
<path fill="none" stroke="#4E4852" stroke-width="12" stroke-miterlimit="10" d="M348.5,374.309"/>
<text transform="matrix(1 0 0 1 426.2646 729.4497)" fill="#FFFFFF" font-family="'ProximaNova-Bold'" font-size="51" letter-spacing="1">REQUEST</text>
<path fill="none" stroke="#4E4852" stroke-width="12" stroke-miterlimit="10" d="M1611.288,413.949"/>
<path fill="none" stroke="#4E4852" stroke-width="12" stroke-miterlimit="10" d="M1579.5,376.309"/>
<g>
	<g>
		<path fill="none" stroke="#FFFFFF" stroke-width="12" stroke-miterlimit="10" d="M410.265,632.949
			c72.229,32.727,164.794,32.727,237.023,0"/>
	</g>
	<polyline fill="none" stroke="#FFFFFF" stroke-width="12" stroke-miterlimit="10" points="614.554,612.5 647.288,632.949 
		634.5,670.5 	"/>
</g>
<text transform="matrix(1 0 0 1 1440.3691 19.3687)" fill="#FFFFFF" font-family="'ProximaNova-Bold'" font-size="51" letter-spacing="1">SENDER </text>
<text transform="matrix(1 0 0 1 1084.2646 733.3687)" fill="#FFFFFF" font-family="'ProximaNova-Bold'" font-size="51" letter-spacing="1">BRING JOY</text>
<g>
	<g>
		<path fill="none" stroke="#FFFFFF" stroke-width="12" stroke-miterlimit="10" d="M1087.265,636.869
			c72.229,32.727,164.794,32.727,237.023,0"/>
	</g>
	<polyline fill="none" stroke="#FFFFFF" stroke-width="12" stroke-miterlimit="10" points="1291.554,616.419 1324.288,636.869 
		1311.5,674.419 	"/>
</g>
<g>
	<defs>
		<circle id="SVGID_1_" cx="225.788" cy="322.121" r="220.029"/>
	</defs>
	<clipPath id="SVGID_2_">
		<use xlink:href="#SVGID_1_"  overflow="visible"/>
	</clipPath>
	<g clip-path="url(#SVGID_2_)">
		<g>
			<path fill="#FCFCFC" d="M90.605,331.075c-28.991-111.349,42.396-219.4,130.458-197.46
				c88.061-21.939,159.449,86.112,130.458,197.46c0,0-40.205,18.726-130.458,18.726C130.345,349.801,90.605,331.075,90.605,331.075z
				"/>
		</g>
		<path fill="#FCFCFC" d="M311.316,200.746"/>
		<path fill="#FCFCFC" d="M130.345,218.809"/>
		<ellipse fill="#A5344B" cx="219.555" cy="306.722" rx="61.228" ry="58.445"/>
		<path fill="#FCFCFC" d="M382.948,509.031c-1.294-67.227-10.292-77.928-57.727-105.568c-19.728-11.499-34.201-10.031-61.134,14.307
			l-0.019,0.022l-15.049,13.596c-0.537,0.488-16.762,15.021-28.884,15.021c-12.122,0-28.347-14.533-28.885-15.021L176.2,417.792
			l-0.019-0.022c-26.931-24.34-41.403-25.808-61.13-14.307c-47.438,27.64-56.435,38.341-57.728,105.568
			c-0.021,0.47-0.059,20.466-0.021,20.872c0.618,10.969,9.277,20.874,20.146,20.874h285.376c10.868,0,19.526-9.907,20.146-20.874
			C383.008,529.497,382.97,509.5,382.948,509.031z M122.292,277.999c0,55.788,45.024,103.344,97.843,103.344
			c52.839,0,97.845-47.556,95.669-137.091V217.75c-13.456-1.136-140.492-2.321-192.729-1.362 M311.257,201.053
			c-0.68-1.885-1.411-3.745-2.191-5.58c-15.367-36.108-49.877-62.161-88.931-62.161c-33.155,0-63.217,18.771-81.026,46.525
			c0,0-6.384,11.124-9.46,18.794 M200.568,184.297l19.568,11.022 M278.84,302.906c0,0-18.825,39.135-58.706,39.135
			c-39.863,0-58.705-39.135-58.705-39.135H278.84z"/>
		<g>
			<path fill="#A5344B" d="M306.179,208.813c-57.13-23.664-121.32-23.664-178.45,0c3.095-8.496,6.21-16.924,9.345-25.281
				c52.079-18.994,109.258-18.812,161.239,0.546C300.949,192.273,303.571,200.518,306.179,208.813z"/>
		</g>
	</g>
</g>
<circle fill="none" stroke="#FCFCFC" stroke-width="15" stroke-miterlimit="10" cx="218.789" cy="291.121" r="244.477"/>
<g>
	<defs>
		<circle id="SVGID_3_" cx="1604.789" cy="327.121" r="220.029"/>
	</defs>
	<clipPath id="SVGID_4_">
		<use xlink:href="#SVGID_3_"  overflow="visible"/>
	</clipPath>
	<g clip-path="url(#SVGID_4_)">
		<g>
			<path fill="#FCFCFC" d="M1469.605,336.075c-28.991-111.349,42.396-219.4,130.457-197.46
				c88.062-21.939,159.449,86.112,130.459,197.46c0,0-40.205,18.726-130.459,18.726
				C1509.345,354.801,1469.605,336.075,1469.605,336.075z"/>
		</g>
		<path fill="#FCFCFC" d="M1690.316,205.746"/>
		<path fill="#FCFCFC" d="M1509.345,223.809"/>
		<ellipse fill="#A5344B" cx="1598.555" cy="311.722" rx="61.229" ry="58.445"/>
		<path fill="#FCFCFC" d="M1761.947,514.031c-1.293-67.227-10.291-77.928-57.727-105.568
			c-19.728-11.499-34.201-10.031-61.135,14.307l-0.019,0.022l-15.05,13.596c-0.536,0.487-16.762,15.02-28.884,15.02
			s-28.347-14.532-28.886-15.02l-15.049-13.596l-0.019-0.022c-26.931-24.34-41.403-25.808-61.13-14.307
			c-47.438,27.64-56.436,38.341-57.729,105.568c-0.021,0.47-0.059,20.466-0.021,20.872c0.618,10.969,9.277,20.874,20.146,20.874
			h285.377c10.867,0,19.525-9.907,20.146-20.874C1762.008,534.497,1761.971,514.5,1761.947,514.031z M1501.291,282.999
			c0,55.788,45.025,103.344,97.844,103.344c52.839,0,97.845-47.556,95.67-137.091V222.75c-13.457-1.136-140.492-2.321-192.73-1.362
			 M1690.258,206.053c-0.68-1.885-1.412-3.745-2.191-5.58c-15.367-36.108-49.878-62.161-88.932-62.161
			c-33.154,0-63.217,18.771-81.025,46.525c0,0-6.385,11.124-9.461,18.794 M1579.568,189.297l19.568,11.022 M1657.84,307.906
			c0,0-18.824,39.135-58.705,39.135c-39.863,0-58.705-39.135-58.705-39.135H1657.84z"/>
		<g>
			<path fill="#A5344B" d="M1685.18,213.813c-57.131-23.664-121.32-23.664-178.45,0c3.095-8.496,6.21-16.924,9.345-25.281
				c52.079-18.994,109.258-18.812,161.239,0.546C1679.949,197.273,1682.571,205.518,1685.18,213.813z"/>
		</g>
	</g>
</g>
<circle fill="none" stroke="#FCFCFC" stroke-width="15" stroke-miterlimit="10" cx="1597.789" cy="296.121" r="244.477"/>
</svg>
