<?xml version="1.0" encoding="utf-8"?>
<!-- Generator: Adobe Illustrator 15.0.0, SVG Export Plug-In . SVG Version: 6.00 Build 0)  -->
<!DOCTYPE svg PUBLIC "-//W3C//DTD SVG 1.1//EN" "http://www.w3.org/Graphics/SVG/1.1/DTD/svg11.dtd">
<svg version="1.1" id="Capa_1" xmlns="http://www.w3.org/2000/svg" xmlns:xlink="http://www.w3.org/1999/xlink" x="0px" y="0px"
	 width="2688.269px" height="1016.753px" viewBox="-737.794 -219.384 2688.269 1016.753"
	 enable-background="new -737.794 -219.384 2688.269 1016.753" xml:space="preserve">
<rect x="-737.794" y="-219.384" fill="#A5344B" width="2688.269" height="1016.753"/>
<g id="Artist__x2F__User">
	<path fill="#FFFFFF" d="M748.293,485.606c-1.438-74.696-11.435-86.585-64.141-117.298c-21.92-12.775-38.001-11.145-67.927,15.896
		l-0.021,0.026l-16.722,15.106c-0.596,0.543-18.624,16.691-32.094,16.691c-13.469,0-31.496-16.148-32.095-16.691l-16.721-15.106
		l-0.021-0.026c-29.924-27.042-46.005-28.673-67.923-15.896c-52.708,30.713-62.705,42.602-64.142,117.298
		c-0.024,0.522-0.065,22.741-0.024,23.192c0.687,12.187,10.309,23.194,22.385,23.194h317.086c12.075,0,21.696-11.008,22.385-23.194
		C748.359,508.348,748.318,486.129,748.293,485.606z M567.391,343.732c58.711,0,108.716-52.84,108.716-114.83v-29.446
		c-51.089-12.65-108.716-39.45-108.716-39.45v22.967c-26.521,0-48.538-6.998-66.736-16.988
		c-10.661-6.459-17.03-13.178-14.459-19.254c4.331-10.272,14.607-5.742,26.158,0c0.469,0.235,0.85,0.101,1.295,0.214
		c9.557,4.866,19.961,9.025,32,11.18v-33.331l21.744,12.247c18.324,8.523,70.004,28.326,107.972,38.441
		c-3.889-58.626-51.683-107.338-107.974-107.338c-36.84,0-70.242,20.856-90.029,51.696c0,0-7.094,12.358-10.511,20.881
		c-5.161,13.186-8.175,27.427-8.175,42.252v45.932C458.676,290.893,508.703,343.732,567.391,343.732z M632.619,256.581
		c0,0-20.916,43.483-65.229,43.483c-44.291,0-65.229-43.483-65.229-43.483H632.619z"/>
</g>
<ellipse fill="#A5344B" cx="673.589" cy="522.405" rx="77.091" ry="74.653"/>
<ellipse fill="#A5344B" cx="743.318" cy="456.818" rx="64.687" ry="63.52"/>
<g>
	<path fill="#FFFFFF" d="M897.865,326.333l-28.574-28.688c-2.604-1.305-6.494-1.305-9.1,0l-10.385,10.432l-5.196-5.217l-3.898,6.521
		l5.197,5.217l-5.197,5.216l-6.499-5.217l-5.186,5.217l5.186,5.218l-10.381,10.427c-2.606,2.612-2.606,6.52,0,9.134l-43.956,44.124
		c-13.782-9.405-29.096-14.138-43.081-14.138c-14.286,0-27.279,5.219-37.666,14.344c-5.197,5.218-10.392,13.041-11.69,20.869
		c-5.196,15.647-19.485,26.081-35.076,26.081c-18.183,0-33.771,6.519-46.759,18.252c-29.877,29.99-23.379,84.762,14.287,121.273
		c22.082,22.169,49.356,33.903,74.041,33.903c18.185,0,35.07-6.522,48.063-18.253c11.688-11.732,18.182-28.691,18.182-46.95
		c0-16.945,10.392-31.291,25.981-35.207c7.792-2.615,14.289-6.522,20.786-11.734c19.796-19.88,19.096-53.785,0.276-81.129
		l43.889-44.059c2.595,2.609,6.494,2.609,9.093,0l10.391-10.432l5.192,5.219l5.194-5.219l-5.194-5.217l5.194-5.212l5.192,3.907
		l5.197-5.219l-5.197-5.21l11.688-9.129C900.467,332.852,900.467,328.941,897.865,326.333z M792.651,482.812
		c-3.895,3.908-7.793,5.217-12.991,7.826c-23.382,6.521-38.967,28.69-40.264,54.77c0,9.134-2.604,22.172-12.99,32.603
		c-10.39,10.429-24.679,13.041-33.771,13.041c-20.786,0-42.866-10.428-59.754-27.39c-29.873-29.984-36.367-71.719-14.287-93.89
		c10.39-10.429,23.379-13.038,32.471-13.038c25.981,0,46.765-16.955,54.559-40.425c1.299-5.219,3.895-9.134,7.796-13.041
		c7.792-7.83,16.882-9.134,23.379-9.134c9.867,0,19.739,3.144,28.946,8.756l-37.131,37.288c-1.571-0.234-3.164-0.402-4.804-0.402
		c-17.932,0-32.477,14.595-32.477,32.603s14.543,32.603,32.472,32.603c17.935,0,32.472-14.595,32.472-32.6
		c0-1.643-0.16-3.238-0.394-4.819l37.019-37.161C804.271,449.578,804.843,470.576,792.651,482.812z M865.394,313.295l5.194,5.214
		 M877.087,325.029l5.197,5.212 M657.932,497.463l40.416,40.569l-11.94,11.987l-40.413-40.573L657.932,497.463z"/>
</g>
<g>
	<g>
		<path fill="#FCFCFC" d="M-224.415,294.07C-256.627,170.349-177.308,50.292-79.462,74.669
			C18.384,50.292,97.703,170.349,65.491,294.07"/>
	</g>
	<path fill="#FCFCFC" d="M20.82,149.26"/>
	<path fill="#FCFCFC" d="M-180.26,169.33"/>
	<ellipse fill="#A5344B" cx="-81.137" cy="267.011" rx="68.031" ry="64.939"/>
	<path fill="#FCFCFC" d="M100.41,491.798c-1.438-74.696-11.435-86.586-64.141-117.297c-21.92-12.776-38.001-11.146-67.927,15.896
		l-0.021,0.025l-16.722,15.106c-0.596,0.542-18.624,16.69-32.093,16.69c-13.469,0-31.497-16.148-32.095-16.69l-16.721-15.106
		l-0.021-0.025c-29.923-27.043-46.004-28.674-67.923-15.896c-52.708,30.711-62.705,42.601-64.142,117.297
		c-0.024,0.522-0.065,22.741-0.024,23.192c0.687,12.187,10.308,23.193,22.385,23.193H78.05c12.075,0,21.696-11.007,22.385-23.193
		C100.477,514.539,100.435,492.32,100.41,491.798z M-181.033,146.911 M-189.208,235.096c0,61.987,50.027,114.827,108.715,114.827
		c58.71,0,108.716-52.84,106.299-152.323v-29.447c-14.951-1.263-156.102-2.579-214.144-1.514 M20.754,149.601
		c-0.755-2.094-1.568-4.161-2.435-6.199C1.245,103.281-37.1,74.334-80.493,74.334c-36.839,0-70.242,20.856-90.029,51.695
		c0,0-7.093,12.359-10.511,20.882 M-102.234,130.984l21.743,12.247 M-15.265,262.771c0,0-20.916,43.483-65.228,43.483
		c-44.292,0-65.228-43.483-65.228-43.483H-15.265z"/>
	<g>
		<path fill="#A5344B" d="M15.112,158.223c-63.478-26.293-134.8-26.293-198.278,0c3.439-9.44,6.901-18.804,10.384-28.09
			c57.865-21.104,121.397-20.902,179.154,0.606C9.3,139.845,12.214,149.006,15.112,158.223z"/>
	</g>
</g>
<text transform="matrix(1 0 0 1 -169.6309 15.4502)" fill="#FFFFFF" font-family="'ProximaNova-Bold'" font-size="49.4773">SENDER </text>
<text transform="matrix(1 0 0 1 446.9365 15.1855)" fill="#FFFFFF" font-family="'ProximaNova-Bold'" font-size="49.4773">CREATIVE</text>
<path fill="none" stroke="#4E4852" stroke-width="12" stroke-miterlimit="10" d="M90.288,411.949"/>
<path fill="none" stroke="#4E4852" stroke-width="12" stroke-miterlimit="10" d="M58.5,374.309"/>
<text transform="matrix(1 0 0 1 136.2646 729.4502)" fill="#FFFFFF" font-family="'ProximaNova-Bold'" font-size="49.4773">REQUEST</text>
<path fill="none" stroke="#4E4852" stroke-width="12" stroke-miterlimit="10" d="M1321.288,413.949"/>
<path fill="none" stroke="#4E4852" stroke-width="12" stroke-miterlimit="10" d="M1289.5,376.309"/>
<g>
	<g>
		<path fill="none" stroke="#FFFFFF" stroke-width="12" stroke-miterlimit="10" d="M120.265,632.949
			c72.229,32.727,164.794,32.727,237.023,0"/>
	</g>
	<polyline fill="none" stroke="#FFFFFF" stroke-width="12" stroke-miterlimit="10" points="324.554,612.5 357.288,632.949 
		344.5,670.5 	"/>
</g>
<g>
	<g>
		<path fill="#FCFCFC" d="M1095.585,297.989c-32.212-123.721,47.107-243.779,144.953-219.401
			c97.846-24.378,177.165,95.68,144.952,219.401"/>
	</g>
	<path fill="#FCFCFC" d="M1340.82,153.179"/>
	<path fill="#FCFCFC" d="M1139.74,173.249"/>
	<ellipse fill="#A5344B" cx="1238.863" cy="270.93" rx="68.031" ry="64.939"/>
	<path fill="#FCFCFC" d="M1420.41,495.717c-1.438-74.696-11.435-86.586-64.141-117.297c-21.92-12.776-38.002-11.146-67.928,15.896
		l-0.021,0.025l-16.721,15.106c-0.597,0.542-18.625,16.69-32.094,16.69s-31.497-16.148-32.096-16.69l-16.721-15.106l-0.021-0.025
		c-29.923-27.043-46.004-28.674-67.922-15.896c-52.709,30.711-62.705,42.601-64.143,117.297c-0.023,0.522-0.064,22.741-0.023,23.192
		c0.687,12.187,10.308,23.193,22.385,23.193h317.086c12.074,0,21.695-11.007,22.385-23.193
		C1420.477,518.458,1420.436,496.239,1420.41,495.717z M1138.967,150.83 M1130.793,239.015c0,61.987,50.026,114.827,108.715,114.827
		c58.71,0,108.716-52.84,106.299-152.323v-29.447c-14.951-1.263-156.103-2.578-214.145-1.514 M1340.754,153.52
		c-0.755-2.094-1.567-4.161-2.435-6.199c-17.075-40.121-55.419-69.068-98.812-69.068c-36.84,0-70.242,20.856-90.029,51.695
		c0,0-7.094,12.359-10.512,20.882 M1217.766,134.903l21.743,12.247 M1304.735,266.69c0,0-20.915,43.483-65.228,43.483
		c-44.292,0-65.229-43.483-65.229-43.483H1304.735z"/>
	<g>
		<path fill="#A5344B" d="M1335.111,162.142c-63.477-26.293-134.8-26.293-198.277,0c3.439-9.44,6.901-18.804,10.384-28.09
			c57.864-21.104,121.397-20.902,179.153,0.606C1329.301,143.764,1332.215,152.925,1335.111,162.142z"/>
	</g>
</g>
<text transform="matrix(1 0 0 1 1150.3691 19.3691)" fill="#FFFFFF" font-family="'ProximaNova-Bold'" font-size="49.4773">SENDER </text>
<text transform="matrix(1 0 0 1 794.2646 733.3691)" fill="#FFFFFF" font-family="'ProximaNova-Bold'" font-size="49.4773">BRING JOY</text>
<g>
	<g>
		<path fill="none" stroke="#FFFFFF" stroke-width="12" stroke-miterlimit="10" d="M797.265,636.868
			c72.229,32.727,164.794,32.727,237.023,0"/>
	</g>
	<polyline fill="none" stroke="#FFFFFF" stroke-width="12" stroke-miterlimit="10" points="1001.554,616.419 1034.288,636.868 
		1021.5,674.419 	"/>
</g>
</svg>
