<?xml version="1.0" encoding="utf-8"?>
<!-- Generator: Adobe Illustrator 15.0.0, SVG Export Plug-In . SVG Version: 6.00 Build 0)  -->
<!DOCTYPE svg PUBLIC "-//W3C//DTD SVG 1.1//EN" "http://www.w3.org/Graphics/SVG/1.1/DTD/svg11.dtd">
<svg version="1.1" id="Capa_1" xmlns="http://www.w3.org/2000/svg" xmlns:xlink="http://www.w3.org/1999/xlink" x="0px" y="0px"
	 width="2688.269px" height="1016.753px" viewBox="-737.794 -219.384 2688.269 1016.753"
	 enable-background="new -737.794 -219.384 2688.269 1016.753" xml:space="preserve">
<g id="Artist__x2F__User">
	<path fill="#2E3842" d="M748.293,565.606c-1.438-74.696-11.435-86.585-64.141-117.298c-21.92-12.775-38.001-11.145-67.927,15.896
		l-0.021,0.026l-16.722,15.106c-0.596,0.543-18.624,16.691-32.094,16.691c-13.469,0-31.496-16.148-32.095-16.691l-16.721-15.106
		l-0.021-0.026c-29.924-27.042-46.005-28.673-67.923-15.896c-52.708,30.713-62.705,42.602-64.142,117.298
		c-0.024,0.522-0.065,22.741-0.024,23.192c0.687,12.187,10.309,23.194,22.385,23.194h317.086c12.075,0,21.696-11.008,22.385-23.194
		C748.359,588.348,748.318,566.129,748.293,565.606z M567.391,423.732c58.711,0,108.716-52.84,108.716-114.83v-29.446
		c-51.089-12.65-108.716-39.45-108.716-39.45v22.967c-26.521,0-48.538-6.998-66.736-16.988
		c-10.661-6.459-17.03-13.178-14.459-19.254c4.331-10.272,14.607-5.742,26.158,0c0.469,0.235,0.85,0.101,1.295,0.214
		c9.557,4.866,19.961,9.025,32,11.18v-33.331l21.744,12.247c18.324,8.523,70.004,28.326,107.972,38.441
		c-3.889-58.626-51.683-107.338-107.974-107.338c-36.84,0-70.242,20.856-90.029,51.696c0,0-7.094,12.358-10.511,20.881
		c-5.161,13.186-8.175,27.427-8.175,42.252v45.932C458.676,370.893,508.703,423.732,567.391,423.732z M632.619,336.581
		c0,0-20.916,43.483-65.229,43.483c-44.291,0-65.229-43.483-65.229-43.483H632.619z"/>
</g>
<ellipse fill="#FFFFFF" cx="673.589" cy="602.405" rx="77.091" ry="74.653"/>
<ellipse fill="#FFFFFF" cx="743.318" cy="536.818" rx="64.687" ry="63.52"/>
<g>
	<path fill="#2E3842" stroke="#2E3842" stroke-miterlimit="10" d="M897.865,406.333l-28.574-28.688c-2.604-1.305-6.494-1.305-9.1,0
		l-10.385,10.432l-5.196-5.217l-3.898,6.521l5.197,5.217l-5.197,5.216l-6.499-5.217l-5.186,5.217l5.186,5.218l-10.381,10.427
		c-2.606,2.612-2.606,6.52,0,9.134l-43.956,44.124c-13.782-9.405-29.096-14.138-43.081-14.138c-14.286,0-27.279,5.219-37.666,14.344
		c-5.197,5.218-10.392,13.041-11.69,20.869c-5.196,15.647-19.485,26.081-35.076,26.081c-18.183,0-33.771,6.519-46.759,18.252
		c-29.877,29.99-23.379,84.762,14.287,121.273c22.082,22.169,49.356,33.903,74.041,33.903c18.185,0,35.07-6.522,48.063-18.253
		c11.688-11.732,18.182-28.691,18.182-46.95c0-16.945,10.392-31.291,25.981-35.207c7.792-2.615,14.289-6.522,20.786-11.734
		c19.796-19.88,19.096-53.785,0.276-81.129l43.889-44.059c2.595,2.609,6.494,2.609,9.093,0l10.391-10.432l5.192,5.219l5.194-5.219
		l-5.194-5.217l5.194-5.212l5.192,3.907l5.197-5.219l-5.197-5.21l11.688-9.129C900.467,412.852,900.467,408.941,897.865,406.333z
		 M792.651,562.812c-3.895,3.908-7.793,5.217-12.991,7.826c-23.382,6.521-38.967,28.69-40.264,54.77
		c0,9.134-2.604,22.172-12.99,32.603c-10.39,10.429-24.679,13.041-33.771,13.041c-20.786,0-42.866-10.428-59.754-27.39
		c-29.873-29.984-36.367-71.719-14.287-93.89c10.39-10.429,23.379-13.038,32.471-13.038c25.981,0,46.765-16.955,54.559-40.425
		c1.299-5.219,3.895-9.134,7.796-13.041c7.792-7.83,16.882-9.134,23.379-9.134c9.867,0,19.739,3.144,28.946,8.756l-37.131,37.288
		c-1.571-0.234-3.164-0.402-4.804-0.402c-17.932,0-32.477,14.595-32.477,32.603s14.543,32.603,32.472,32.603
		c17.935,0,32.472-14.595,32.472-32.6c0-1.643-0.16-3.238-0.394-4.819l37.019-37.161
		C804.271,529.578,804.843,550.576,792.651,562.812z M865.394,393.295l5.194,5.214 M877.087,405.029l5.197,5.212 M657.932,577.463
		l40.416,40.569l-11.94,11.987l-40.413-40.573L657.932,577.463z"/>
</g>
<g>
	<g>
		<path fill="#2E3842" d="M-634.415,374.07c-32.212-123.721,47.107-243.779,144.953-219.401
			c97.846-24.378,177.165,95.68,144.953,219.401"/>
	</g>
	<path fill="#FFFFFF" d="M-389.18,229.26"/>
	<path fill="#FFFFFF" d="M-590.26,249.33"/>
	<ellipse fill="#FFFFFF" cx="-491.137" cy="347.011" rx="68.031" ry="64.939"/>
	<path fill="#2E3842" d="M-309.59,571.798c-1.438-74.696-11.435-86.586-64.141-117.297c-21.92-12.776-38.001-11.146-67.927,15.896
		l-0.021,0.025l-16.722,15.106c-0.596,0.542-18.624,16.69-32.093,16.69c-13.469,0-31.497-16.148-32.095-16.69l-16.721-15.106
		l-0.021-0.025c-29.923-27.043-46.004-28.674-67.923-15.896c-52.708,30.711-62.705,42.601-64.142,117.297
		c-0.024,0.522-0.065,22.741-0.024,23.192c0.687,12.187,10.308,23.193,22.385,23.193h317.086c12.075,0,21.696-11.007,22.385-23.193
		C-309.523,594.539-309.565,572.32-309.59,571.798z M-591.033,226.911 M-599.208,315.096c0,61.987,50.027,114.827,108.715,114.827
		c58.71,0,108.716-52.84,106.299-152.323v-29.447c-14.951-1.263-156.102-2.579-214.144-1.514 M-389.246,229.601
		c-0.755-2.094-1.568-4.161-2.435-6.199c-17.075-40.121-55.419-69.068-98.812-69.068c-36.839,0-70.242,20.856-90.029,51.695
		c0,0-7.093,12.359-10.511,20.882 M-512.234,210.984l21.743,12.247 M-425.265,342.771c0,0-20.916,43.483-65.228,43.483
		c-44.292,0-65.228-43.483-65.228-43.483H-425.265z"/>
	<g>
		<path fill="#FFFFFF" d="M-394.888,238.223c-63.478-26.293-134.8-26.293-198.278,0c3.439-9.44,6.901-18.804,10.384-28.09
			c57.865-21.104,121.397-20.902,179.154,0.606C-400.7,219.845-397.786,229.006-394.888,238.223z"/>
	</g>
</g>
<text transform="matrix(1 0 0 1 -589.6309 95.4502)" fill="#2E3842" font-family="'ProximaNova-Bold'" font-size="49.4773">SENDER </text>
<text transform="matrix(1 0 0 1 446.9365 95.1855)" fill="#2E3842" font-family="'ProximaNova-Bold'" font-size="49.4773">CREATIVE</text>
<polygon fill="none" stroke="#4E4852" stroke-width="12" stroke-miterlimit="10" points="957.484,752.346 216.41,752.346 
	213.462,-45.713 954.536,-45.713 "/>
<text transform="matrix(1 0 0 1 475.9404 -111.8184)" fill="#2E3842" font-family="'ProximaNova-Bold'" font-size="49.4773">GIVJOY</text>
<line fill="none" stroke="#2E3842" stroke-width="12" stroke-miterlimit="10" x1="-153.735" y1="411.949" x2="83.288" y2="411.949"/>
<path fill="none" stroke="#4E4852" stroke-width="12" stroke-miterlimit="10" d="M90.288,411.949"/>
<path fill="none" stroke="#4E4852" stroke-width="12" stroke-miterlimit="10" d="M58.5,374.309"/>
<polyline fill="none" stroke="#2E3842" stroke-width="12" stroke-miterlimit="10" points="51.5,375.949 90.288,413.975 51.5,452 "/>
<text transform="matrix(1 0 0 1 -153.7354 309.4502)" fill="#2E3842" font-family="'ProximaNova-Bold'" font-size="49.4773">REQUEST</text>
<line fill="none" stroke="#2E3842" stroke-width="12" stroke-miterlimit="10" x1="1077.265" y1="413.949" x2="1314.288" y2="413.949"/>
<path fill="none" stroke="#4E4852" stroke-width="12" stroke-miterlimit="10" d="M1321.288,413.949"/>
<path fill="none" stroke="#4E4852" stroke-width="12" stroke-miterlimit="10" d="M1289.5,376.309"/>
<polyline fill="none" stroke="#2E3842" stroke-width="12" stroke-miterlimit="10" points="1282.5,377.949 1321.288,415.975 
	1282.5,454 "/>
<text transform="matrix(1 0 0 1 1073.2646 301.4502)" fill="#2E3842" font-family="'ProximaNova-Bold'" font-size="49.4773">BRING JOY</text>
<g>
	<g>
		<path fill="#2E3842" d="M1454.502,397.321c-32.212-123.721,47.107-243.779,144.953-219.401
			c97.846-24.378,177.165,95.68,144.952,219.401"/>
	</g>
	<path fill="#FFFFFF" d="M1699.737,252.511"/>
	<path fill="#FFFFFF" d="M1498.657,272.581"/>
	<ellipse fill="#FFFFFF" cx="1597.78" cy="370.262" rx="68.031" ry="64.939"/>
	<path fill="#2E3842" d="M1779.327,595.049c-1.438-74.696-11.435-86.586-64.141-117.297c-21.92-12.776-38.002-11.146-67.928,15.896
		l-0.021,0.025l-16.721,15.106c-0.597,0.542-18.625,16.69-32.094,16.69s-31.497-16.148-32.096-16.69l-16.721-15.106l-0.021-0.025
		c-29.923-27.043-46.004-28.674-67.922-15.896c-52.709,30.711-62.705,42.601-64.143,117.297c-0.023,0.522-0.064,22.741-0.023,23.192
		c0.687,12.187,10.308,23.193,22.385,23.193h317.086c12.074,0,21.695-11.007,22.385-23.193
		C1779.394,617.79,1779.353,595.571,1779.327,595.049z M1497.884,250.162 M1489.71,338.347c0,61.987,50.026,114.827,108.715,114.827
		c58.71,0,108.716-52.84,106.299-152.323v-29.447c-14.951-1.263-156.103-2.579-214.145-1.514 M1699.671,252.852
		c-0.755-2.094-1.567-4.161-2.435-6.199c-17.075-40.121-55.419-69.068-98.812-69.068c-36.84,0-70.242,20.856-90.029,51.695
		c0,0-7.094,12.359-10.512,20.882 M1576.683,234.235l21.743,12.247 M1663.652,366.022c0,0-20.915,43.483-65.228,43.483
		c-44.292,0-65.229-43.483-65.229-43.483H1663.652z"/>
	<g>
		<path fill="#FFFFFF" d="M1694.028,261.474c-63.477-26.293-134.8-26.293-198.277,0c3.439-9.44,6.901-18.804,10.384-28.09
			c57.864-21.104,121.397-20.902,179.153,0.606C1688.218,243.096,1691.132,252.257,1694.028,261.474z"/>
	</g>
</g>
<text transform="matrix(1 0 0 1 1499.2861 118.7012)" fill="#2E3842" font-family="'ProximaNova-Bold'" font-size="49.4773">RECIEVER</text>
</svg>
