<?xml version="1.0" encoding="UTF-8" standalone="no"?>
<svg width="1235px" height="1405px" viewBox="0 0 1235 1405" version="1.1" xmlns="http://www.w3.org/2000/svg" xmlns:xlink="http://www.w3.org/1999/xlink" xmlns:sketch="http://www.bohemiancoding.com/sketch/ns">
    <!-- Generator: Sketch 3.3.1 (12005) - http://www.bohemiancoding.com/sketch -->
    <title>flow-1</title>
    <desc>Created with Sketch.</desc>
    <defs></defs>
    <g id="Page-1" stroke="none" stroke-width="1" fill="none" fill-rule="evenodd" sketch:type="MSPage">
        <g id="flow-1" sketch:type="MSArtboardGroup">
            <g id="LOGIN" sketch:type="MSLayerGroup" transform="translate(446.000000, 318.000000)">
                <rect id="Rectangle-4" fill="#66C8FF" sketch:type="MSShapeGroup" x="106" y="109" width="128" height="21"></rect>
                <text sketch:type="MSTextLayer" font-family="Proxima Nova" font-size="40" font-weight="bold" line-spacing="45" letter-spacing="-0.400000066" fill="#232021">
                    <tspan x="111.395586" y="119.5">LOGIN</tspan>
                </text>
                <rect id="Rectangle-1" stroke="#232021" stroke-width="6" sketch:type="MSShapeGroup" x="0" y="0" width="339.791171" height="210"></rect>
            </g>
            <g id="LOGIN-Copy-6" sketch:type="MSLayerGroup" transform="translate(446.000000, 8.000000)">
                <rect id="Rectangle-4" fill="#FEFFA3" sketch:type="MSShapeGroup" x="59" y="59" width="222" height="21"></rect>
                <rect id="Rectangle-4-Copy-4" fill="#FEFFA3" sketch:type="MSShapeGroup" x="59" y="104" width="169" height="21"></rect>
                <rect id="Rectangle-4-Copy-5" fill="#FEFFA3" sketch:type="MSShapeGroup" x="59" y="151" width="85" height="21"></rect>
                <text id="START-SALE" sketch:type="MSTextLayer" font-family="Proxima Nova" font-size="40" font-weight="bold" line-spacing="45" letter-spacing="-0.400000066" fill="#232021">
                    <tspan x="57.3955857" y="72.5">START SALE</tspan>
                    <tspan x="57.3955857" y="117.5">&amp; WARES</tspan>
                    <tspan x="57.3955857" y="162.5">LIST</tspan>
                </text>
                <rect id="Rectangle-1" stroke="#232021" stroke-width="6" sketch:type="MSShapeGroup" x="0" y="0" width="339.791171" height="210"></rect>
            </g>
            <g id="LOGIN-Copy-8" sketch:type="MSLayerGroup" transform="translate(442.000000, 943.000000)">
                <rect id="Rectangle-4" fill="#FEFFA3" sketch:type="MSShapeGroup" x="59" y="59" width="169" height="21"></rect>
                <rect id="Rectangle-4-Copy-4" fill="#FEFFA3" sketch:type="MSShapeGroup" x="59" y="104" width="137" height="21"></rect>
                <rect id="Rectangle-4-Copy-5" fill="#FEFFA3" sketch:type="MSShapeGroup" x="59" y="151" width="85" height="21"></rect>
                <text id="FINALIZE" sketch:type="MSTextLayer" font-family="Proxima Nova" font-size="40" font-weight="bold" line-spacing="45" letter-spacing="-0.400000066" fill="#232021">
                    <tspan x="57.3955857" y="72.5">FINALIZE</tspan>
                    <tspan x="57.3955857" y="117.5">WARES</tspan>
                    <tspan x="57.3955857" y="162.5">LIST</tspan>
                </text>
                <rect id="Rectangle-1" stroke="#232021" stroke-width="6" sketch:type="MSShapeGroup" x="0" y="0" width="339.791171" height="210"></rect>
            </g>
            <g id="LOGIN-Copy-3" sketch:type="MSLayerGroup" transform="translate(6.000000, 8.000000)">
                <rect id="Rectangle-1" stroke="#232021" stroke-width="6" fill="#FFFFFF" sketch:type="MSShapeGroup" x="0" y="0" width="339.791171" height="210"></rect>
                <rect id="Rectangle-4" fill="#FF708E" sketch:type="MSShapeGroup" x="72" y="89" width="197" height="21"></rect>
                <rect id="Rectangle-4-Copy" fill="#FF708E" sketch:type="MSShapeGroup" x="72" y="134" width="70" height="21"></rect>
                <text id="OPEN-WEB" sketch:type="MSTextLayer" font-family="Proxima Nova" font-size="40" font-weight="bold" line-spacing="45" letter-spacing="-0.400000066" fill="#232021">
                    <tspan x="71.3955857" y="99.5">OPEN WEB</tspan>
                    <tspan x="71.3955857" y="144.5">APP</tspan>
                </text>
            </g>
            <g id="LOGIN-Copy" sketch:type="MSLayerGroup" transform="translate(886.000000, 8.000000)">
                <rect id="Rectangle-4" fill="#6ADBC2" sketch:type="MSShapeGroup" x="79" y="109" width="184" height="21"></rect>
                <text id="ADD-ITEM" sketch:type="MSTextLayer" font-family="Proxima Nova" font-size="40" font-weight="bold" line-spacing="45" letter-spacing="-0.400000066" fill="#232021">
                    <tspan x="81.3955857" y="119.5">ADD ITEM</tspan>
                </text>
                <rect id="Rectangle-1" stroke="#232021" stroke-width="6" sketch:type="MSShapeGroup" x="0" y="0" width="339.791171" height="210"></rect>
            </g>
            <g id="LOGIN-Copy-7" sketch:type="MSLayerGroup" transform="translate(886.000000, 943.000000)">
                <rect id="Rectangle-4" fill="#6ADBC2" sketch:type="MSShapeGroup" x="79" y="89" width="184" height="21"></rect>
                <rect id="Rectangle-4-Copy-6" fill="#6ADBC2" sketch:type="MSShapeGroup" x="79" y="137" width="103" height="21"></rect>
                <text id="FINALIZE" sketch:type="MSTextLayer" font-family="Proxima Nova" font-size="40" font-weight="bold" line-spacing="45" letter-spacing="-0.400000066" fill="#232021">
                    <tspan x="81.3955857" y="99.5">FINALIZE</tspan>
                    <tspan x="81.3955857" y="144.5">ITEM</tspan>
                </text>
                <rect id="Rectangle-1" stroke="#232021" stroke-width="6" sketch:type="MSShapeGroup" x="0" y="0" width="339.791171" height="210"></rect>
            </g>
            <g id="LOGIN-Copy-2" sketch:type="MSLayerGroup" transform="translate(886.000000, 318.000000)">
                <rect id="Rectangle-4" fill="#6ADBC2" sketch:type="MSShapeGroup" x="79" y="108" width="184" height="21"></rect>
                <rect id="Rectangle-4-Copy-2" fill="#6ADBC2" sketch:type="MSShapeGroup" x="79" y="153" width="149" height="21"></rect>
                <rect id="Rectangle-4-Copy-3" fill="#6ADBC2" sketch:type="MSShapeGroup" x="79" y="63" width="77" height="21"></rect>
                <text id="ADD-" sketch:type="MSTextLayer" font-family="Proxima Nova" font-size="40" font-weight="bold" line-spacing="45" letter-spacing="-0.400000066" fill="#232021">
                    <tspan x="75.3955857" y="73.5">ADD </tspan>
                    <tspan x="75.3955857" y="118.5">PHOTO(S)</tspan>
                    <tspan x="75.3955857" y="163.5">OF ITEM</tspan>
                </text>
                <rect id="Rectangle-1" stroke="#232021" stroke-width="6" sketch:type="MSShapeGroup" x="0" y="0" width="339.791171" height="210"></rect>
            </g>
            <g id="LINE" sketch:type="MSLayerGroup" transform="translate(343.000000, 102.000000)" stroke="#232021" stroke-linecap="square">
                <path d="M0.5,11 L102,11" id="Line" stroke-width="6" sketch:type="MSShapeGroup"></path>
                <path d="M101.5,10.5 L89.5,0.5" id="Line" stroke-width="5" sketch:type="MSShapeGroup"></path>
                <path d="M101.5,21.5 L90.5,11.5" id="Line-Copy" stroke-width="5" sketch:type="MSShapeGroup" transform="translate(96.000000, 16.500000) scale(1, -1) translate(-96.000000, -16.500000) "></path>
            </g>
            <g id="LINE-Copy-2" sketch:type="MSLayerGroup" transform="translate(832.500000, 1053.000000) scale(-1, 1) translate(-832.500000, -1053.000000) translate(781.000000, 1042.000000)" stroke="#232021" stroke-linecap="square">
                <path d="M0.5,11 L103,11" id="Line" stroke-width="6" sketch:type="MSShapeGroup"></path>
                <path d="M102.5,10.5 L90.5,0.5" id="Line" stroke-width="5" sketch:type="MSShapeGroup"></path>
                <path d="M102.5,21.5 L91.5,11.5" id="Line-Copy" stroke-width="5" sketch:type="MSShapeGroup" transform="translate(97.000000, 16.500000) scale(1, -1) translate(-97.000000, -16.500000) "></path>
            </g>
            <g id="LINE-Copy-10" sketch:type="MSLayerGroup" transform="translate(393.500000, 1053.000000) scale(-1, 1) translate(-393.500000, -1053.000000) translate(343.000000, 1042.000000)" stroke="#232021" stroke-linecap="square">
                <path d="M0.5,11 L101,11" id="Line" stroke-width="6" sketch:type="MSShapeGroup"></path>
                <path d="M100.5,10.5 L88.5,0.5" id="Line" stroke-width="5" sketch:type="MSShapeGroup"></path>
                <path d="M100.5,21.5 L89.5,11.5" id="Line-Copy" stroke-width="5" sketch:type="MSShapeGroup" transform="translate(95.000000, 16.500000) scale(1, -1) translate(-95.000000, -16.500000) "></path>
            </g>
            <g id="LINE-Copy-3" sketch:type="MSLayerGroup" transform="translate(784.000000, 102.000000)" stroke="#232021" stroke-linecap="square">
                <path d="M0.5,11 L102,11" id="Line" stroke-width="6" sketch:type="MSShapeGroup"></path>
                <path d="M101.5,10.5 L89.5,0.5" id="Line" stroke-width="5" sketch:type="MSShapeGroup"></path>
                <path d="M101.5,21.5 L90.5,11.5" id="Line-Copy" stroke-width="5" sketch:type="MSShapeGroup" transform="translate(96.000000, 16.500000) scale(1, -1) translate(-96.000000, -16.500000) "></path>
            </g>
            <g id="LINE-Copy-5" sketch:type="MSLayerGroup" transform="translate(1060.000000, 267.500000) rotate(-270.000000) translate(-1060.000000, -267.500000) translate(1008.500000, 256.500000)" stroke="#232021" stroke-linecap="square">
                <path d="M0.5,11 L102,11" id="Line" stroke-width="6" sketch:type="MSShapeGroup"></path>
                <path d="M101.5,10.5 L89.5,0.5" id="Line" stroke-width="5" sketch:type="MSShapeGroup"></path>
                <path d="M101.5,21.5 L90.5,11.5" id="Line-Copy" stroke-width="5" sketch:type="MSShapeGroup" transform="translate(96.000000, 16.500000) scale(1, -1) translate(-96.000000, -16.500000) "></path>
            </g>
            <g id="LINE-Copy-9" sketch:type="MSLayerGroup" transform="translate(620.500000, 269.500000) scale(1, -1) rotate(-270.000000) translate(-620.500000, -269.500000) translate(569.000000, 258.000000)" stroke="#232021" stroke-linecap="square">
                <path d="M0.5,12 L103,12" id="Line" stroke-width="6" sketch:type="MSShapeGroup"></path>
                <path d="M102.5,11.5 L90.5,1.5" id="Line" stroke-width="5" sketch:type="MSShapeGroup"></path>
                <path d="M102.5,22.5 L91.5,12.5" id="Line-Copy" stroke-width="5" sketch:type="MSShapeGroup" transform="translate(97.000000, 17.500000) scale(1, -1) translate(-97.000000, -17.500000) "></path>
            </g>
            <g id="LINE-Copy-6" sketch:type="MSLayerGroup" transform="translate(1060.000000, 580.000000) rotate(-270.000000) translate(-1060.000000, -580.000000) translate(1009.000000, 569.000000)" stroke="#232021" stroke-linecap="square">
                <path d="M0.5,11 L102,11" id="Line" stroke-width="6" sketch:type="MSShapeGroup"></path>
                <path d="M101.5,10.5 L89.5,0.5" id="Line" stroke-width="5" sketch:type="MSShapeGroup"></path>
                <path d="M101.5,21.5 L90.5,11.5" id="Line-Copy" stroke-width="5" sketch:type="MSShapeGroup" transform="translate(96.000000, 16.500000) scale(1, -1) translate(-96.000000, -16.500000) "></path>
            </g>
            <g id="LOGIN-Copy-4" sketch:type="MSLayerGroup" transform="translate(886.000000, 628.000000)">
                <rect id="Rectangle-4-Copy-2" fill="#6ADBC2" sketch:type="MSShapeGroup" x="79" y="153" width="126" height="21"></rect>
                <rect id="Rectangle-4-Copy-7" fill="#6ADBC2" sketch:type="MSShapeGroup" x="79" y="104" width="107" height="21"></rect>
                <rect id="Rectangle-4-Copy-3" fill="#6ADBC2" sketch:type="MSShapeGroup" x="79" y="63" width="150" height="21"></rect>
                <text id="APPLY-A--" sketch:type="MSTextLayer" font-family="Proxima Nova" font-size="40" font-weight="bold" line-spacing="45" letter-spacing="-0.400000066" fill="#232021">
                    <tspan x="75.3955857" y="73.5">APPLY A  </tspan>
                    <tspan x="75.3955857" y="118.5">PRICE</tspan>
                    <tspan x="75.3955857" y="163.5">RANGE</tspan>
                </text>
                <rect id="Rectangle-1" stroke="#232021" stroke-width="6" sketch:type="MSShapeGroup" x="0" y="0" width="339.791171" height="210"></rect>
            </g>
            <g id="LOGIN-Copy-5" sketch:type="MSLayerGroup" transform="translate(6.000000, 943.000000)">
                <rect id="Rectangle-4" fill="#FF708E" sketch:type="MSShapeGroup" x="79" y="108" width="107" height="21"></rect>
                <rect id="Rectangle-4-Copy-2" fill="#FF708E" sketch:type="MSShapeGroup" x="79" y="153" width="126" height="21"></rect>
                <rect id="Rectangle-4-Copy-3" fill="#FF708E" sketch:type="MSShapeGroup" x="79" y="63" width="150" height="21"></rect>
                <text id="SHARE-LIST" sketch:type="MSTextLayer" font-family="Proxima Nova" font-size="40" font-weight="bold" line-spacing="45" letter-spacing="-0.400000066" fill="#232021">
                    <tspan x="75.3955857" y="73.5">SHARE LIST</tspan>
                    <tspan x="75.3955857" y="118.5">IN SOCIAL</tspan>
                    <tspan x="75.3955857" y="163.5">CHANNELS</tspan>
                </text>
                <rect id="Rectangle-1" stroke="#232021" stroke-width="6" sketch:type="MSShapeGroup" x="0" y="0" width="339.791171" height="210"></rect>
            </g>
            <g id="LINE-Copy-7" sketch:type="MSLayerGroup" transform="translate(1060.000000, 891.500000) rotate(-270.000000) translate(-1060.000000, -891.500000) translate(1005.500000, 880.500000)" stroke="#232021" stroke-linecap="square">
                <path d="M0.5,11 L109,11" id="Line" stroke-width="6" sketch:type="MSShapeGroup"></path>
                <path d="M108.5,10.5 L96.5,0.5" id="Line" stroke-width="5" sketch:type="MSShapeGroup"></path>
                <path d="M108.5,21.5 L97.5,11.5" id="Line-Copy" stroke-width="5" sketch:type="MSShapeGroup" transform="translate(103.000000, 16.500000) scale(1, -1) translate(-103.000000, -16.500000) "></path>
            </g>
            <g id="LINE-Copy-8" sketch:type="MSLayerGroup" transform="translate(841.000000, 156.000000)" stroke="#232021" stroke-linecap="square">
                <path d="M0.5,723.5 L3.40619942,34.24637 C3.45800405,21.9600392 13.4666789,12.0000001 25.7534057,12.0000001 L45,12" id="Line" stroke-width="6" sketch:type="MSShapeGroup"></path>
                <path d="M0.5,858.719563 L0.5,765.489125 C0.5,753.189985 10.4728124,743.219563 22.7662964,743.219563 L45,743.219563" id="Line-Copy-2" stroke-width="6" sketch:type="MSShapeGroup" transform="translate(22.730676, 793.969563) scale(1, -1) translate(-22.730676, -793.969563) "></path>
                <path d="M44.5,10.5 L32.5,0.5" id="Line" stroke-width="5" sketch:type="MSShapeGroup"></path>
                <path d="M44.5,21.5 L33.5,11.5" id="Line-Copy" stroke-width="5" sketch:type="MSShapeGroup" transform="translate(39.000000, 16.500000) scale(1, -1) translate(-39.000000, -16.500000) "></path>
            </g>
            <g id="LINE-Copy" sketch:type="MSLayerGroup" transform="translate(393.468327, 269.417502) rotate(43.000000) translate(-393.468327, -269.417502) translate(318.468327, 257.917502)" stroke="#232021" stroke-linecap="square">
                <path d="M0.163240552,4.59085912 L149,11" id="Line" stroke-width="6" sketch:type="MSShapeGroup"></path>
                <path d="M148.5,10.5 L136.5,0.5" id="Line" stroke-width="5" sketch:type="MSShapeGroup"></path>
                <path d="M148.5,21.5 L137.5,11.5" id="Line-Copy" stroke-width="5" sketch:type="MSShapeGroup" transform="translate(143.000000, 16.500000) scale(1, -1) translate(-143.000000, -16.500000) "></path>
            </g>
        </g>
    </g>
</svg>